<svg xmlns="http://www.w3.org/2000/svg" width="12" height="12" viewBox="0 0 12 12">
  <defs>
    <linearGradient id="ic_bad_detection-a" x1="0%" x2="0%" y1="100%" y2="0%">
      <stop offset="0%" stop-color="#B80404"/>
      <stop offset="45%" stop-color="#DC2F3B"/>
      <stop offset="100%" stop-color="#FF5A71"/>
    </linearGradient>
  </defs>
  <path fill="url(#ic_bad_detection-a)" d="M6,0 C2.68617994,0 0,2.68656716 0,6.00024945 C0,9.31343284 2.68617994,12 6,12 C9.31382006,12 12,9.31343284 12,6.00024945 C12,2.68656716 9.31382006,0 6,0 Z M10.1774489,6.00024945 C10.1774489,6.82243379 9.93746882,7.58973933 9.52536172,8.23681038 L3.76334608,2.4745354 C4.41044404,2.06244543 5.17778147,1.82297427 6,1.82297427 C8.30350906,1.82297427 10.1774489,3.69683615 10.1774489,6.00024945 Z M1.82255114,6.00024945 C1.82255114,5.17756621 2.06253118,4.41075957 2.47463828,3.76368852 L8.23665392,9.5254646 C7.58955596,9.93755457 6.82271745,10.1775246 6,10.1775246 C3.69649094,10.1775246 1.82255114,8.30316385 1.82255114,6.00024945 Z" transform="matrix(-1 0 0 1 12 0)"/>
</svg>
