<svg width="24" height="24" viewBox="0 0 24 24" fill="none" xmlns="http://www.w3.org/2000/svg">
<path d="M12 8C13.1046 8 14 7.10457 14 6C14 4.89543 13.1046 4 12 4C10.8954 4 10 4.89543 10 6C10 7.10457 10.8954 8 12 8Z" fill="black"/>
<path d="M9.50008 14H10.0601L10.4601 17.1C10.485 17.3475 10.6012 17.5769 10.7861 17.7433C10.971 17.9097 11.2113 18.0013 11.4601 18H12.5471C12.7932 18.0015 13.031 17.9115 13.2147 17.7477C13.3983 17.5838 13.5146 17.3577 13.5411 17.113L13.9401 14H14.5001C14.5714 14.0006 14.642 13.9859 14.7072 13.9569C14.7723 13.928 14.8306 13.8854 14.8779 13.8321C14.9253 13.7787 14.9607 13.7159 14.9817 13.6478C15.0028 13.5796 15.0091 13.5078 15.0001 13.437L14.5421 9.90002C14.5173 9.65353 14.4019 9.42501 14.2183 9.25873C14.0346 9.09246 13.7958 9.00027 13.5481 9.00002H10.4481C10.2019 8.99837 9.96393 9.0882 9.78026 9.2521C9.5966 9.41599 9.48035 9.64227 9.45408 9.88702L9.00008 13.437C8.99109 13.5078 8.99734 13.5796 9.01841 13.6478C9.03948 13.7159 9.07489 13.7787 9.12224 13.8321C9.1696 13.8854 9.22782 13.928 9.29299 13.9569C9.35815 13.9859 9.42877 14.0006 9.50008 14V14Z" fill="black"/>
<path d="M14.792 15.2229L14.668 16.1869C16.774 16.4949 18 17.1129 18 17.4999C18 18.0289 15.722 18.9999 12 18.9999C8.278 18.9999 6 18.0289 6 17.4999C6 17.1129 7.226 16.4939 9.333 16.1869L9.209 15.2229C6.853 15.5489 5 16.3059 5 17.4999C5 19.1419 8.521 19.9999 12 19.9999C15.479 19.9999 19 19.1419 19 17.4999C19 16.3059 17.147 15.5489 14.792 15.2229Z" fill="black"/>
</svg>
