<svg width="24" height="24" viewBox="0 0 24 24" fill="none" xmlns="http://www.w3.org/2000/svg">
<path d="M8.61941 11.4687L11.7465 8.34165C11.8907 8.19234 11.9705 7.99236 11.9687 7.78479C11.9669 7.57722 11.8836 7.37866 11.7369 7.23187C11.5901 7.08509 11.3915 7.00183 11.1839 7.00003C10.9764 6.99823 10.7764 7.07802 10.6271 7.22223L6.14862 11.7007C6.07485 11.774 6.01631 11.8612 5.97636 11.9573C5.93641 12.0534 5.91584 12.1564 5.91584 12.2604C5.91584 12.3644 5.93641 12.4674 5.97636 12.5635C6.01631 12.6595 6.07485 12.7468 6.14862 12.8201L10.6271 17.2986C10.7001 17.3742 10.7875 17.4345 10.8841 17.476C10.9806 17.5175 11.0845 17.5393 11.1896 17.5402C11.2948 17.5411 11.399 17.5211 11.4963 17.4813C11.5936 17.4415 11.682 17.3827 11.7563 17.3084C11.8306 17.234 11.8894 17.1457 11.9292 17.0484C11.969 16.9511 11.9891 16.8468 11.9882 16.7417C11.9872 16.6366 11.9654 16.5327 11.9239 16.4361C11.8824 16.3395 11.8221 16.2522 11.7465 16.1791L8.61941 13.0521H18.2083C18.4183 13.0521 18.6197 12.9687 18.7681 12.8202C18.9166 12.6717 19 12.4704 19 12.2604C19 12.0504 18.9166 11.8491 18.7681 11.7006C18.6197 11.5521 18.4183 11.4687 18.2083 11.4687H8.61941Z" fill="black"/>
</svg>
