<svg width="24" height="24" viewBox="0 0 24 24" fill="none" xmlns="http://www.w3.org/2000/svg">
<path d="M5.125 12.75C4.95924 12.75 4.80027 12.8158 4.68306 12.9331C4.56585 13.0503 4.5 13.2092 4.5 13.375C4.5 13.5408 4.56585 13.6997 4.68306 13.8169C4.80027 13.9342 4.95924 14 5.125 14H7.625C7.79076 14 7.94973 13.9342 8.06694 13.8169C8.18415 13.6997 8.25 13.5408 8.25 13.375V8.375C8.25 8.20924 8.18415 8.05027 8.06694 7.93306C7.94973 7.81585 7.79076 7.75 7.625 7.75H5.125C4.95924 7.75 4.80027 7.81585 4.68306 7.93306C4.56585 8.05027 4.5 8.20924 4.5 8.375C4.5 8.54076 4.56585 8.69973 4.68306 8.81694C4.80027 8.93415 4.95924 9 5.125 9H7V10.25H5.125C4.95924 10.25 4.80027 10.3158 4.68306 10.4331C4.56585 10.5503 4.5 10.7092 4.5 10.875C4.5 11.0408 4.56585 11.1997 4.68306 11.3169C4.80027 11.4342 4.95924 11.5 5.125 11.5H7V12.75H5.125Z" fill="black"/>
<path d="M12.625 9C12.7908 9 12.9497 8.93415 13.0669 8.81694C13.1842 8.69973 13.25 8.54076 13.25 8.375C13.25 8.20924 13.1842 8.05027 13.0669 7.93306C12.9497 7.81585 12.7908 7.75 12.625 7.75H10.75C10.4185 7.75 10.1005 7.8817 9.86612 8.11612C9.6317 8.35054 9.5 8.66848 9.5 9V12.75C9.5 13.0815 9.6317 13.3995 9.86612 13.6339C10.1005 13.8683 10.4185 14 10.75 14H12C12.3315 14 12.6495 13.8683 12.8839 13.6339C13.1183 13.3995 13.25 13.0815 13.25 12.75V11.5C13.25 11.1685 13.1183 10.8505 12.8839 10.6161C12.6495 10.3817 12.3315 10.25 12 10.25H10.75V9H12.625ZM12 11.5V12.75H10.75V11.5H12Z" fill="black"/>
<path d="M15.75 14H17C17.3315 14 17.6495 13.8683 17.8839 13.6339C18.1183 13.3995 18.25 13.0815 18.25 12.75V9C18.25 8.66848 18.1183 8.35054 17.8839 8.11612C17.6495 7.8817 17.3315 7.75 17 7.75H15.75C15.4185 7.75 15.1005 7.8817 14.8661 8.11612C14.6317 8.35054 14.5 8.66848 14.5 9V12.75C14.5 13.0815 14.6317 13.3995 14.8661 13.6339C15.1005 13.8683 15.4185 14 15.75 14ZM15.75 9H17V12.75H15.75V9Z" fill="black"/>
<path d="M20.5101 11.3451C20.379 11.2487 20.2156 11.2073 20.0545 11.2295C19.8934 11.2517 19.7473 11.3359 19.6472 11.4641C19.5471 11.5923 19.501 11.7545 19.5186 11.9162C19.5361 12.0779 19.616 12.2263 19.7413 12.3301C20.0225 12.5164 20.2589 12.7629 20.4333 13.0517C20.6078 13.3405 20.716 13.6644 20.7501 14.0001C20.7501 15.7076 17.7688 17.2838 13.8151 17.6651C13.6493 17.6728 13.4934 17.7462 13.3817 17.8689C13.27 17.9916 13.2116 18.1537 13.2194 18.3194C13.2272 18.4852 13.3006 18.6411 13.4233 18.7528C13.546 18.8645 13.7081 18.9228 13.8738 18.9151H13.9351C18.6838 18.4513 22.0001 16.4313 22.0001 14.0001C21.975 13.4722 21.8274 12.9574 21.5687 12.4965C21.3101 12.0357 20.9476 11.6414 20.5101 11.3451V11.3451Z" fill="black"/>
<path d="M12.7912 17.6961L10.6738 15.7548C10.5407 15.637 10.3624 15.5717 10.1773 15.5732C9.99228 15.5747 9.81525 15.6428 9.68439 15.7627C9.55353 15.8827 9.4793 16.045 9.47769 16.2147C9.47608 16.3843 9.54723 16.5478 9.67579 16.6698L10.5115 17.436C5.65833 17.0723 2.41162 15.2669 2.41162 13.6246C2.4502 13.2769 2.57254 12.9415 2.76979 12.6425C2.96704 12.3434 3.23428 12.0883 3.5522 11.8955C3.69368 11.7882 3.78392 11.6344 3.80377 11.467C3.82361 11.2996 3.7715 11.1317 3.6585 10.999C3.5455 10.8662 3.3805 10.7791 3.19856 10.7561C3.01661 10.7331 2.83205 10.776 2.68406 10.8757C2.1896 11.1823 1.77994 11.5905 1.4876 12.0676C1.19526 12.5448 1.02831 13.0779 1 13.6246C1 16.2712 5.12757 18.3885 10.6526 18.7432L9.67721 19.6374C9.60979 19.6971 9.55602 19.7685 9.51903 19.8475C9.48204 19.9264 9.46257 20.0114 9.46176 20.0973C9.46094 20.1832 9.4788 20.2684 9.51429 20.3479C9.54978 20.4275 9.60219 20.4997 9.66846 20.5605C9.73473 20.6212 9.81353 20.6693 9.90027 20.7018C9.98701 20.7343 10.08 20.7507 10.1737 20.75C10.2674 20.7492 10.36 20.7314 10.4461 20.6975C10.5322 20.6636 10.6101 20.6143 10.6752 20.5524L12.7926 18.6111C12.8584 18.551 12.9105 18.4796 12.9461 18.401C12.9817 18.3224 13 18.2381 13 18.153C13 18.0679 12.9817 17.9836 12.9461 17.905C12.9105 17.8264 12.8584 17.755 12.7926 17.6949L12.7912 17.6961Z" fill="black"/>
<path d="M20.125 7.75C20.4958 7.75 20.8584 7.64003 21.1667 7.43401C21.475 7.22798 21.7154 6.93514 21.8573 6.59253C21.9992 6.24992 22.0363 5.87292 21.964 5.50921C21.8916 5.14549 21.713 4.8114 21.4508 4.54918C21.1886 4.28695 20.8545 4.10838 20.4908 4.03603C20.1271 3.96368 19.7501 4.00081 19.4075 4.14273C19.0649 4.28464 18.772 4.52496 18.566 4.83331C18.36 5.14165 18.25 5.50416 18.25 5.875C18.25 6.37228 18.4475 6.8492 18.7992 7.20083C19.1508 7.55246 19.6277 7.75 20.125 7.75ZM20.125 5.25C20.2486 5.25 20.3695 5.28666 20.4722 5.35533C20.575 5.42401 20.6551 5.52162 20.7024 5.63582C20.7497 5.75003 20.7621 5.87569 20.738 5.99693C20.7139 6.11817 20.6543 6.22953 20.5669 6.31694C20.4795 6.40435 20.3682 6.46388 20.2469 6.48799C20.1257 6.51211 20 6.49973 19.8858 6.45243C19.7716 6.40512 19.674 6.32501 19.6053 6.22223C19.5367 6.11945 19.5 5.99861 19.5 5.875C19.5 5.70924 19.5658 5.55027 19.6831 5.43306C19.8003 5.31585 19.9592 5.25 20.125 5.25V5.25Z" fill="black"/>
</svg>
