<svg width="24" height="24" viewBox="0 0 24 24" fill="none" xmlns="http://www.w3.org/2000/svg">
<path d="M15.3806 11.4687L12.2535 8.34165C12.1093 8.19234 12.0295 7.99236 12.0313 7.78479C12.0331 7.57722 12.1164 7.37866 12.2631 7.23187C12.4099 7.08509 12.6085 7.00183 12.8161 7.00003C13.0236 6.99823 13.2236 7.07802 13.3729 7.22223L17.8514 11.7007C17.9251 11.774 17.9837 11.8612 18.0236 11.9573C18.0636 12.0534 18.0842 12.1564 18.0842 12.2604C18.0842 12.3644 18.0636 12.4674 18.0236 12.5635C17.9837 12.6595 17.9251 12.7468 17.8514 12.8201L13.3729 17.2986C13.2999 17.3742 13.2125 17.4345 13.1159 17.476C13.0194 17.5175 12.9155 17.5393 12.8104 17.5402C12.7052 17.5411 12.601 17.5211 12.5037 17.4813C12.4064 17.4415 12.318 17.3827 12.2437 17.3084C12.1694 17.234 12.1106 17.1457 12.0708 17.0484C12.031 16.9511 12.0109 16.8468 12.0118 16.7417C12.0128 16.6366 12.0346 16.5327 12.0761 16.4361C12.1176 16.3395 12.1779 16.2522 12.2535 16.1791L15.3806 13.0521H5.79167C5.5817 13.0521 5.38034 12.9687 5.23187 12.8202C5.08341 12.6717 5 12.4704 5 12.2604C5 12.0504 5.08341 11.8491 5.23187 11.7006C5.38034 11.5521 5.5817 11.4687 5.79167 11.4687H15.3806Z" fill="black"/>
</svg>
