<svg width="24" height="24" viewBox="0 0 24 24" fill="none" xmlns="http://www.w3.org/2000/svg">
<path d="M13.1806 8.48428C13.8131 9.11678 13.8131 10.1434 13.1806 10.7759C12.5481 11.4084 11.5214 11.4084 10.8889 10.7759C10.2564 10.1434 10.2564 9.11678 10.8889 8.48428C11.5223 7.85094 12.5481 7.85094 13.1806 8.48428Z" stroke="black" stroke-width="1.5" stroke-linecap="round" stroke-linejoin="round"/>
<path d="M14.7773 6.85167L13.9332 5.44833C13.7657 5.17 13.4648 5 13.1398 5H10.8348C10.5057 5 10.2015 5.175 10.0357 5.45917L9.22234 6.85167H7.949C7.30984 6.85167 6.7915 7.37 6.7915 8.00917V12.1758C6.7915 12.815 7.30984 13.3333 7.949 13.3333H16.0507C16.6898 13.3333 17.2082 12.815 17.2082 12.1758V8.00917C17.2082 7.37 16.6898 6.85167 16.0515 6.85167H14.7773V6.85167Z" stroke="black" stroke-width="1.5" stroke-linecap="round" stroke-linejoin="round"/>
<path d="M3.48993 10.2618C3.62098 10.1655 3.78441 10.124 3.94553 10.1462C4.10664 10.1685 4.25275 10.2526 4.35281 10.3808C4.45288 10.5091 4.49902 10.6712 4.48145 10.8329C4.46387 10.9946 4.38396 11.1431 4.25868 11.2468C3.97746 11.4332 3.7411 11.6797 3.56666 11.9684C3.39222 12.2572 3.28404 12.5811 3.24993 12.9168C3.24993 14.6243 6.23118 16.2005 10.1849 16.5818C10.3507 16.5896 10.5066 16.6629 10.6183 16.7856C10.73 16.9083 10.7884 17.0704 10.7806 17.2362C10.7728 17.4019 10.6994 17.5578 10.5767 17.6695C10.454 17.7812 10.2919 17.8396 10.1262 17.8318H10.0649C5.31618 17.368 1.99993 15.348 1.99993 12.9168C2.02496 12.3889 2.17265 11.8741 2.43128 11.4133C2.68992 10.9524 3.05239 10.5582 3.48993 10.2618V10.2618Z" fill="black"/>
<path d="M11.5588 16.8493L13.4337 14.9743C13.5516 14.8604 13.7095 14.7975 13.8734 14.7989C14.0372 14.8003 14.194 14.866 14.3099 14.9819C14.4258 15.0978 14.4915 15.2546 14.4929 15.4184C14.4943 15.5823 14.4313 15.7402 14.3175 15.858L13.5775 16.598C17.875 16.2468 20.75 14.503 20.75 12.9168C20.7158 12.581 20.6075 12.257 20.4328 11.9682C20.2582 11.6794 20.0215 11.433 19.74 11.2468C19.6147 11.1431 19.5348 10.9946 19.5172 10.8329C19.4997 10.6712 19.5458 10.5091 19.6459 10.3808C19.7459 10.2526 19.892 10.1685 20.0532 10.1462C20.2143 10.124 20.3777 10.1655 20.5088 10.2618C20.9466 10.558 21.3094 10.9521 21.5682 11.413C21.8271 11.8739 21.9749 12.3888 22 12.9168C22 15.473 18.345 17.518 13.4525 17.8605L14.3163 18.7243C14.3759 18.782 14.4236 18.8509 14.4563 18.9272C14.4891 19.0034 14.5063 19.0854 14.507 19.1684C14.5078 19.2514 14.4919 19.3337 14.4605 19.4105C14.4291 19.4873 14.3827 19.5571 14.324 19.6158C14.2653 19.6745 14.1955 19.7209 14.1187 19.7523C14.0419 19.7837 13.9596 19.7996 13.8766 19.7988C13.7936 19.7981 13.7116 19.7809 13.6354 19.7481C13.5591 19.7154 13.4902 19.6677 13.4325 19.608L11.5575 17.733C11.4993 17.675 11.4531 17.606 11.4216 17.5301C11.3901 17.4542 11.3739 17.3728 11.3739 17.2905C11.3739 17.2083 11.3901 17.1269 11.4216 17.051C11.4531 16.9751 11.4993 16.9061 11.5575 16.848L11.5588 16.8493Z" fill="black"/>
</svg>
