<svg width="24" height="24" viewBox="0 0 24 24" fill="none" xmlns="http://www.w3.org/2000/svg">
<path d="M5.49888 12.0008C5.49888 12.1997 5.5779 12.3904 5.71855 12.5311C5.85921 12.6717 6.04997 12.7508 6.24888 12.7508C6.4478 12.7508 6.63856 12.6717 6.77921 12.5311C6.91987 12.3904 6.99888 12.1997 6.99888 12.0008C6.99888 11.8018 6.91987 11.6111 6.77921 11.4704C6.63856 11.3298 6.4478 11.2508 6.24888 11.2508C6.04997 11.2508 5.85921 11.3298 5.71855 11.4704C5.5779 11.6111 5.49888 11.8018 5.49888 12.0008ZM8.36163 12.7755C8.17898 13.2729 7.82672 13.6898 7.36688 13.953C6.90703 14.2162 6.36908 14.3087 5.84773 14.2143C5.32638 14.1199 4.85505 13.8446 4.51672 13.4368C4.1784 13.0291 3.99476 12.515 3.99815 11.9852C4.00154 11.4554 4.19173 10.9437 4.53525 10.5403C4.87876 10.1369 5.35357 9.86767 5.87609 9.77992C6.3986 9.69217 6.93533 9.79157 7.39177 10.0606C7.84821 10.3297 8.19511 10.7511 8.37138 11.2508L9.15663 11.2508C9.21213 11.2508 9.26763 11.253 9.32238 11.2568C9.42131 11.2343 9.51466 11.192 9.59677 11.1325C9.67889 11.0729 9.74807 10.9973 9.80013 10.9103L11.1839 8.59575C11.3836 8.26182 11.6666 7.9854 12.0051 7.79348C12.3435 7.60156 12.726 7.5007 13.1151 7.50075L14.6271 7.50075C14.8041 7.00013 15.1523 6.57818 15.6102 6.30948C16.0682 6.04079 16.6064 5.94264 17.1297 6.0324C17.653 6.12215 18.1278 6.39403 18.47 6.79998C18.8123 7.20592 19 7.71979 19 8.25075C19 8.78172 18.8123 9.29559 18.47 9.70153C18.1278 10.1075 17.653 10.3794 17.1297 10.4691C16.6064 10.5589 16.0682 10.4607 15.6102 10.192C15.1523 9.92332 14.8041 9.50137 14.6271 9.00075L13.1151 9.00075C12.9854 9.0008 12.858 9.03448 12.7452 9.0985C12.6324 9.16252 12.5382 9.25468 12.4716 9.366L11.0871 11.6805C11.0165 11.7984 10.9351 11.9097 10.8441 12.0128C10.9352 12.1161 11.0165 12.2276 11.0871 12.3458L12.4716 14.6603C12.5382 14.7716 12.6324 14.8637 12.7452 14.9278C12.858 14.9918 12.9854 15.0255 13.1151 15.0255L14.6181 15.0255C14.7903 14.5212 15.1358 14.0944 15.5932 13.821C16.0505 13.5476 16.5901 13.4453 17.1158 13.5323C17.6414 13.6193 18.1192 13.89 18.464 14.2963C18.8089 14.7025 18.9984 15.2179 18.9989 15.7508C18.9991 16.2794 18.8132 16.7913 18.4737 17.1966C18.1342 17.6018 17.6628 17.8746 17.1423 17.967C16.6218 18.0595 16.0853 17.9657 15.627 17.7021C15.1688 17.4385 14.818 17.0219 14.6361 16.5255L13.1151 16.5255C12.726 16.5256 12.3435 16.4247 12.0051 16.2328C11.6666 16.0409 11.3836 15.7644 11.1839 15.4305L9.79938 13.116C9.74732 13.0289 9.67814 12.9533 9.59602 12.8938C9.51391 12.8342 9.42056 12.7919 9.32163 12.7695C9.26688 12.7733 9.21138 12.7755 9.15663 12.7755L8.36163 12.7755V12.7755ZM15.9989 8.25075C15.9989 8.44967 16.0779 8.64043 16.2186 8.78108C16.3592 8.92174 16.55 9.00075 16.7489 9.00075C16.9478 9.00075 17.1386 8.92174 17.2792 8.78108C17.4199 8.64043 17.4989 8.44967 17.4989 8.25075C17.4989 8.05184 17.4199 7.86108 17.2792 7.72042C17.1386 7.57977 16.9478 7.50075 16.7489 7.50075C16.55 7.50075 16.3592 7.57977 16.2186 7.72042C16.0779 7.86108 15.9989 8.05184 15.9989 8.25075V8.25075ZM15.9989 15.7508C15.9989 15.9497 16.0779 16.1404 16.2186 16.2811C16.3592 16.4217 16.55 16.5008 16.7489 16.5008C16.9478 16.5008 17.1386 16.4217 17.2792 16.2811C17.4199 16.1404 17.4989 15.9497 17.4989 15.7508C17.4989 15.5518 17.4199 15.3611 17.2792 15.2204C17.1386 15.0798 16.9478 15.0008 16.7489 15.0008C16.55 15.0008 16.3592 15.0798 16.2186 15.2204C16.0779 15.3611 15.9989 15.5518 15.9989 15.7508V15.7508Z" fill="black"/>
</svg>
