<svg width="24" height="24" viewBox="0 0 24 24" fill="none" xmlns="http://www.w3.org/2000/svg">
<path d="M18.9835 17.6414L17.0392 5.97475C16.9453 5.41242 16.4588 5 15.8883 5H12.5831V6.75C12.5831 7.07083 12.3206 7.33333 11.9998 7.33333C11.679 7.33333 11.4165 7.07083 11.4165 6.75V5H8.1113C7.5408 5 7.0543 5.41242 6.96039 5.97475L5.01614 17.6414C4.89772 18.3525 5.44605 19 6.16647 19H11.4165V17.25C11.4165 16.9292 11.679 16.6667 11.9998 16.6667C12.3206 16.6667 12.5831 16.9292 12.5831 17.25V19H17.8331C18.5536 19 19.1019 18.3525 18.9835 17.6414V17.6414ZM12.5831 14.9167C12.5831 15.2375 12.3206 15.5 11.9998 15.5C11.679 15.5 11.4165 15.2375 11.4165 14.9167V13.1667C11.4165 12.8458 11.679 12.5833 11.9998 12.5833C12.3206 12.5833 12.5831 12.8458 12.5831 13.1667V14.9167ZM12.5831 10.8333C12.5831 11.1542 12.3206 11.4167 11.9998 11.4167C11.679 11.4167 11.4165 11.1542 11.4165 10.8333V9.08333C11.4165 8.7625 11.679 8.5 11.9998 8.5C12.3206 8.5 12.5831 8.7625 12.5831 9.08333V10.8333Z" fill="black"/>
</svg>
