<svg width="24" height="24" viewBox="0 0 24 24" fill="none" xmlns="http://www.w3.org/2000/svg">
<path d="M14.5 5H9.5C8.04131 5 6.64236 5.57946 5.61091 6.61091C4.57946 7.64236 4 9.04131 4 10.5C4 11.9587 4.57946 13.3576 5.61091 14.3891C6.64236 15.4205 8.04131 16 9.5 16H11V18.5C11 18.5904 11.0245 18.6791 11.0708 18.7566C11.1172 18.8342 11.1837 18.8977 11.2633 18.9405C11.3429 18.9833 11.4326 19.0037 11.5229 18.9996C11.6132 18.9954 11.7006 18.9669 11.776 18.917L17.547 15.085C18.2866 14.5879 18.8968 13.9214 19.327 13.141C19.7841 12.303 20.0154 11.3606 19.9983 10.4063C19.9811 9.45191 19.7162 8.51841 19.2294 7.69737C18.7425 6.87633 18.0506 6.19598 17.2215 5.72309C16.3924 5.2502 15.4545 5.00102 14.5 5V5Z" fill="black"/>
</svg>
