<svg width="24" height="24" viewBox="0 0 24 24" fill="none" xmlns="http://www.w3.org/2000/svg">
<path d="M19.9375 6.15385H16.0158L15.101 4.29723C15.0568 4.20774 14.9888 4.13252 14.9047 4.08002C14.8206 4.02751 14.7238 3.9998 14.625 4H10.375C10.2764 4 10.1798 4.02781 10.0959 4.0803C10.012 4.13279 9.94422 4.2079 9.90006 4.29723L8.98419 6.15385H5.0625C4.78071 6.15385 4.51046 6.26731 4.3112 6.46927C4.11194 6.67123 4 6.94515 4 7.23077V16.9231C4 17.2087 4.11194 17.4826 4.3112 17.6846C4.51046 17.8865 4.78071 18 5.0625 18H19.9375C20.2193 18 20.4895 17.8865 20.6888 17.6846C20.8881 17.4826 21 17.2087 21 16.9231V7.23077C21 6.94515 20.8881 6.67123 20.6888 6.46927C20.4895 6.26731 20.2193 6.15385 19.9375 6.15385V6.15385ZM12.5 15.8462C11.7645 15.8462 11.0455 15.6251 10.434 15.2109C9.82243 14.7968 9.34579 14.2081 9.06432 13.5193C8.78286 12.8306 8.70922 12.0727 8.8527 11.3416C8.99619 10.6104 9.35037 9.93881 9.87045 9.41168C10.3905 8.88454 11.0531 8.52555 11.7745 8.38012C12.4959 8.23468 13.2436 8.30932 13.9231 8.59461C14.6026 8.87989 15.1834 9.363 15.592 9.98285C16.0006 10.6027 16.2188 11.3314 16.2188 12.0769C16.2188 13.0766 15.827 14.0353 15.1296 14.7422C14.4322 15.449 13.4863 15.8462 12.5 15.8462V15.8462Z" fill="black"/>
<circle cx="12.5" cy="12" r="2" fill="black"/>
</svg>
