<?xml version="1.0" encoding="UTF-8" standalone="no"?>
<svg
   fill="#801d57"
   height="800px"
   width="800px"
   version="1.1"
   id="Capa_1"
   viewBox="-36.86 -36.86 442.27 442.27"
   stroke="#801d57"
   sodipodi:docname="edge-detection-heading.svg"
   inkscape:version="1.3.2 (091e20e, 2023-11-25)"
   xmlns:inkscape="http://www.inkscape.org/namespaces/inkscape"
   xmlns:sodipodi="http://sodipodi.sourceforge.net/DTD/sodipodi-0.dtd"
   xmlns="http://www.w3.org/2000/svg"
   xmlns:svg="http://www.w3.org/2000/svg">
  <defs
     id="defs17" />
  <sodipodi:namedview
     id="namedview17"
     pagecolor="#505050"
     bordercolor="#ffffff"
     borderopacity="1"
     inkscape:showpageshadow="0"
     inkscape:pageopacity="0"
     inkscape:pagecheckerboard="1"
     inkscape:deskcolor="#505050"
     inkscape:zoom="0.295"
     inkscape:cx="398.30508"
     inkscape:cy="401.69492"
     inkscape:window-width="1616"
     inkscape:window-height="866"
     inkscape:window-x="0"
     inkscape:window-y="38"
     inkscape:window-maximized="0"
     inkscape:current-layer="Capa_1" />
  <g
     id="SVGRepo_bgCarrier"
     stroke-width="0" />
  <g
     id="SVGRepo_tracerCarrier"
     stroke-linecap="round"
     stroke-linejoin="round" />
  <g
     id="SVGRepo_iconCarrier">
    <g
       id="g17">
      <g
         id="g1">
        <path
           d="M184.277,0c-71.683,0-130,58.317-130,130c0,87.26,119.188,229.855,124.263,235.883c1.417,1.685,3.504,2.66,5.705,2.67 c0.011,0,0.021,0,0.032,0c2.189,0,4.271-0.957,5.696-2.621c5.075-5.926,124.304-146.165,124.304-235.932 C314.276,58.317,255.96,0,184.277,0z M184.322,349.251C160.385,319.48,69.277,201.453,69.277,130c0-63.411,51.589-115,115-115 s115,51.589,115,115C299.276,203.49,208.327,319.829,184.322,349.251z"
           id="path1" />
      </g>
      <g
         id="g2" />
      <g
         id="g3" />
      <g
         id="g4" />
      <g
         id="g5" />
      <g
         id="g6" />
      <g
         id="g7" />
      <g
         id="g8" />
      <g
         id="g9" />
      <g
         id="g10" />
      <g
         id="g11" />
      <g
         id="g12" />
      <g
         id="g13" />
      <g
         id="g14" />
      <g
         id="g15" />
      <g
         id="g16" />
    </g>
  </g>
  <path
     style="fill:#ffffff;fill-opacity:1;stroke:#ffffff;stroke-width:3.38983"
     d="M 365.14845,648.30508 C 280.92955,535.22742 227.80975,440.95871 204.62138,363.4267 193.59375,326.55502 192.29663,280.24914 201.42032,249.15254 233.88896,138.48855 346.16419,73.991051 454.23729,103.91958 c 97.12132,26.89568 163.73702,126.9848 149.04135,223.93254 -11.82081,77.9824 -71.09725,191.42859 -166.5533,318.75805 -18.51959,24.70339 -34.95783,44.91525 -36.52943,44.91525 -1.5716,0 -17.34296,-19.44915 -35.04746,-43.22034 z"
     id="path17"
     transform="matrix(0.5528375,0,0,0.5528375,-36.86,-36.86)" />
</svg>
