<svg width="180" height="228" viewBox="0 0 180 228" fill="none" xmlns="http://www.w3.org/2000/svg">
<rect x="4.5" y="4.5" width="171" height="219" rx="7.5" fill="white" stroke="black" stroke-width="9"/>
<rect x="1.5" y="1.5" width="177" height="225" rx="10.5" stroke="white" stroke-width="3"/>
<path d="M72.6 56L64.4438 64.169L85.2875 85.59C87.032 85 88.2555 85.0454 90 85.0454C106.245 85.0454 119 97.8208 119 114.091C119 115.838 119.045 117.063 118.456 118.811L148 148.401V79.2363C148 72.8372 142.789 67.6182 136.4 67.6182H119L107.4 56H72.6ZM40.3375 56.1815L32.1813 64.3505L37.2563 69.4335C34.0617 71.4984 32 75.1518 32 79.2363V148.945C32 155.344 37.2109 160.563 43.6 160.563H128.244L139.663 172L147.819 163.831L40.3375 56.1815ZM93.9875 94.3036L110.3 110.642C108.555 101.928 102.098 95.4609 93.9875 94.3036ZM66.075 98.2973L72.4188 104.651C70.7875 107.465 69.7 110.619 69.7 114.091C69.7 125.119 78.9891 134.423 90 134.423C93.5344 134.423 96.7742 133.492 99.6063 131.881L105.769 138.053C101.215 141.139 95.868 143.136 90 143.136C73.7555 143.136 61 130.361 61 114.091C61 108.214 62.9938 102.858 66.075 98.2973Z" fill="black"/>
</svg>
