<svg width="180" height="228" viewBox="0 0 180 228" fill="none" xmlns="http://www.w3.org/2000/svg">
<rect x="4.5" y="4.5" width="171" height="219" rx="7.5" fill="white" stroke="black" stroke-width="9"/>
<rect x="1.5" y="1.5" width="177" height="225" rx="10.5" stroke="white" stroke-width="3"/>
<path d="M38.6005 57L33.1328 62.4805L141.399 171L146.867 165.52L123.569 142.167C139.406 131.419 147.223 116.39 147.328 116.188C147.767 115.543 148.001 114.78 148 114C147.999 113.126 147.704 112.277 147.162 111.593C146.759 110.943 124.484 75.243 90 75.243C80.2168 75.243 71.4374 78.1505 63.8396 82.298L38.6005 57ZM90 86.8701C104.949 86.8701 117.067 99.0166 117.067 114C117.067 120.092 115.017 125.677 111.629 130.199L103.299 121.85C104.666 119.55 105.467 116.875 105.467 114C105.467 105.439 98.5415 98.4972 90 98.4972C87.132 98.4972 84.4625 99.2995 82.1685 100.67L73.8385 92.3203C78.3503 88.9241 83.9218 86.8701 90 86.8701ZM51.1445 91.041C39.6527 100.73 33.0633 111.237 32.8458 111.585C32.2992 112.271 32.001 113.122 32 114C32.0008 114.759 32.224 115.501 32.6419 116.135C32.7084 116.272 51.4061 152.757 90 152.757C97.1533 152.757 103.613 151.491 109.409 149.449L99.4023 139.412C96.4675 140.504 93.3099 141.13 90 141.13C75.0515 141.13 62.9333 128.983 62.9333 114C62.9333 110.682 63.5573 107.517 64.6477 104.576L51.1445 91.041ZM74.5786 114.431C74.8106 122.636 81.3762 129.225 89.562 129.457L74.5786 114.431Z" fill="black"/>
</svg>
