<svg xmlns="http://www.w3.org/2000/svg" width="116" height="116" viewBox="0 0 116 116">
  <g fill="none" transform="translate(10 3)">
    <path fill="#000" d="M96.7999992,48.8365736 C96.7999992,67.3459511 85.8968465,83.6068454 68.4249238,93.1392045 C65.5854829,94.6883511 62.8696843,96.7976966 60.2064296,99.4115127 C58.320719,101.262218 54.6299157,105.593216 52.8649631,107.705948 C52.8366609,107.792299 52.7985939,107.905266 52.7454246,108.063051 C52.5780944,108.47432 52.5780944,108.47432 52.0578004,109.228443 C51.0733333,110.31344 51.0667239,110.320725 48.4456328,110.819289 C48.433125,110.822661 48.4205391,110.826053 48.4078745,110.829466 C48.405247,110.828967 48.402622,110.828467 48.3999996,110.827969 C48.3973772,110.828467 48.3947523,110.828967 48.3921247,110.829466 C48.3794602,110.826053 48.3668743,110.822661 48.3543665,110.819289 C45.7332754,110.320725 45.7266659,110.31344 44.7421988,109.228443 C44.2219048,108.47432 44.2219048,108.47432 44.0545747,108.063051 C43.9467555,107.743087 43.9010392,107.60742 43.8729181,107.504283 C42.2580005,105.29036 39.1797518,101.065581 37.4987393,99.3581649 C35.0338322,96.8545418 32.1844787,94.8310299 28.7119483,93.3047579 C11.2814554,85.6435803 0,68.1469972 0,48.8365736 C0,22.603084 20.8045808,1.04289544 46.9986549,0.0409213954 C47.3923304,0.0135891174 47.7895735,0 48.1902157,0 C48.3080748,9.17884454e-05 48.3080748,9.17884454e-05 48.3776534,0.000562917214 C48.4919245,9.17884454e-05 48.4919245,9.17884454e-05 48.6097835,0 C49.0104257,0 49.4076688,0.0135891164 49.8013443,0.0409213925 C75.9954196,1.04289665 96.7999992,22.6030847 96.7999992,48.8365736 Z"/>
    <path fill="#038B00" d="M48.6097835,4.39999962 C48.5381007,4.39999962 48.4664366,4.40016837 48.3999996,4.40050579 C48.3335626,4.40016837 48.2618986,4.39999962 48.1902157,4.39999962 C47.8687545,4.39999962 47.5515975,4.41163895 47.2388161,4.4350096 C23.4017986,5.30885307 4.39999962,24.915645 4.39999962,48.8365736 C4.39999962,66.4055082 14.6536001,82.3194796 30.4824027,89.2766706 C41.7999996,94.2510634 45.5769822,103.16987 48.1194737,105.887885 C48.1268666,106.254757 48.1350781,106.437922 48.1441082,106.43738 C48.1562244,106.436652 48.2447263,106.348618 48.3999996,106.185648 C48.555273,106.348618 48.6437748,106.436652 48.6558911,106.43738 C48.6649212,106.437922 48.6731326,106.254757 48.6805255,105.887885 C51.2230171,103.16987 57.1999996,94.2510634 66.3175965,89.2766706 C81.6345996,80.9199959 92.3999996,66.4055082 92.3999996,48.8365736 C92.3999996,24.915645 73.3982006,5.30885307 49.5611831,4.4350096 C49.2484017,4.41163895 48.9312448,4.39999962 48.6097835,4.39999962 Z"/>
    <path fill="#C7FF01" d="M48.3999996,106.185648 L48.1414198,106.432015 C48.1334416,106.399393 48.1261262,106.218016 48.1194737,105.887885 C45.5769822,103.16987 41.7999996,94.2510634 30.4824027,89.2766706 C14.6536001,82.3194796 4.39999962,66.4055082 4.39999962,48.8365736 C4.39999962,24.915645 23.4017986,5.30885307 47.2388161,4.4350096 C47.5515975,4.41163895 47.8687545,4.39999962 48.1902157,4.39999962 C48.2618986,4.39999962 48.3335626,4.40016837 48.3999996,4.40050579 C48.4664366,4.40016837 48.5381007,4.39999962 48.6097835,4.39999962 C48.9312448,4.39999962 49.2484017,4.41163895 49.5611831,4.4350096 C73.3982006,5.30885307 92.3999996,24.915645 92.3999996,48.8365736 C92.3999996,66.4055082 81.6345996,80.9199959 66.3175965,89.2766706 C57.1999996,94.2510634 51.2230171,103.16987 48.6805255,105.887885 C48.673873,106.218016 48.6665577,106.399393 48.6585795,106.432015 L48.3999996,106.185648 Z"/>
    <path fill="#000" d="M54.0424572,93.1309529 C57.2471226,89.9857764 60.590405,87.3890679 64.2102692,85.4141367 C79.0016011,77.3442585 88,63.9241022 88,48.8365736 C88,27.3156532 70.9039974,9.62037302 49.3999914,8.83205564 L49.2333344,8.82277803 C49.0307488,8.80764108 48.8229405,8.79999924 48.6097835,8.79999924 C48.5126128,8.8000762 48.5126128,8.8000762 48.3776534,8.80044866 C48.2873864,8.8000762 48.2873864,8.8000762 48.1902157,8.79999924 C47.9770587,8.79999924 47.7692504,8.80764108 47.5666649,8.82277803 L47.4000078,8.83205564 C25.8960018,9.62037302 8.79999924,27.3156532 8.79999924,48.8365736 C8.79999924,64.6755234 18.0360961,78.9999285 32.2528571,85.2485832 C36.7868877,87.2414135 40.5489838,89.9131235 43.7695755,93.1843007 C45.1980326,94.6351944 47.090642,97.0391871 48.6264487,99.0915569 C50.4323843,96.9928781 52.6067431,94.5400156 54.0424572,93.1309529 Z"/>
    <path fill="#FFF" d="M50.8203802,89.8479325 C54.3080558,86.4249994 57.9793412,83.5735328 62.0071538,81.3760324 C75.3972676,74.070633 83.3999996,62.1354082 83.3999996,48.8365736 C83.3999996,29.7928198 68.2644362,14.1266994 49.2314728,13.4289682 L49.060848,13.4227132 L48.8905833,13.4099913 C48.8028767,13.4034379 48.7093771,13.3999996 48.6097835,13.3999996 C48.5234271,13.4000688 48.5234271,13.4000688 48.3542914,13.4003897 C48.2765721,13.4000688 48.2765721,13.4000688 48.1902157,13.3999996 C48.0906221,13.3999996 47.9971225,13.4034379 47.9094159,13.4099913 L47.7391512,13.4227132 L47.5685265,13.4289682 C28.535563,14.1266994 13.3999996,29.7928198 13.3999996,48.8365736 C13.3999996,62.8608891 21.5669316,75.5271099 34.103787,81.0374002 C39.1926929,83.2741133 43.4319045,86.2846543 47.0475132,89.957053 C47.5998721,90.5180876 48.1990578,91.184737 48.8109311,91.9026347 C49.4658663,91.2052809 50.1303499,90.5251536 50.8203802,89.8479325 Z"/>
  </g>
</svg>
