<svg xmlns="http://www.w3.org/2000/svg" width="116" height="116" viewBox="0 0 116 116">
  <g fill="none" fill-rule="evenodd" transform="translate(13 5)">
    <path fill="#000" stroke="#FFF" stroke-width="4.5" d="M43.6942635,107.673815 C37.191523,98.3574257 31.1424005,92.3997244 25.9748152,90.0185163 C8.92341357,82.221197 -2.25,65.1555216 -2.25,46.0565217 C-2.25,20.0523375 18.3126093,-1.26199519 44.1076026,-2.21194103 C44.4460759,-2.23734701 44.7892842,-2.25 45.1371503,-2.25 C45.2879352,-2.25 45.4386433,-2.24930683 45.5478787,-2.24792123 C45.698507,-2.24930683 45.8492151,-2.25 46,-2.25 C46.3478661,-2.25 46.6910745,-2.23734701 46.9440811,-2.2167233 C72.8245411,-1.26199519 93.3871503,20.0523375 93.3871503,46.0565217 C93.3871503,65.1555216 82.2137367,82.221197 65.1682665,90.0157935 C63.6586406,90.7114217 61.0152719,92.9618913 57.7226994,96.3062959 C57.0215341,97.0184991 56.2964407,97.7741384 55.5502181,98.5689371 C53.6582535,100.584061 51.7529047,102.716442 49.7809177,104.993513 C49.437305,105.390286 49.102391,105.77907 48.7511284,106.1885 C48.5195088,106.458475 48.3138176,106.698828 47.9628726,107.10916 C47.6951563,107.42203 47.5540433,107.586253 47.444642,107.711741 C47.3723342,107.794682 47.3170307,107.857021 47.2701054,107.907936 C47.2242556,107.957632 47.2242556,107.957632 47.1366892,108.044673 C47.0723942,108.107108 47.0723942,108.107108 46.88101,108.257035 C46.7246767,108.373898 46.7246767,108.373898 46.2025852,108.587499 C45.7420646,108.712503 45.7420646,108.712503 44.798879,108.542546 C44.1209743,108.121579 43.8749773,107.968819 43.6942635,107.673815 Z"/>
    <ellipse cx="45.535" cy="45.591" fill="#FFF" rx="41.283" ry="41.335"/>
  </g>
</svg>
