<svg xmlns="http://www.w3.org/2000/svg" xmlns:xlink="http://www.w3.org/1999/xlink" width="793" zoomAndPan="magnify" viewBox="0 0 595.5 842.249979" height="1122" preserveAspectRatio="xMidYMid meet" version="1.0"><defs><g/><clipPath id="f64ded1c8b"><path d="M 71.417969 308.21875 L 535 308.21875 L 535 485.863281 L 71.417969 485.863281 Z M 71.417969 308.21875 " clip-rule="nonzero"/></clipPath><clipPath id="852d14e4cc"><path d="M 71.425781 308.21875 L 535.636719 308.21875 L 535.636719 485.960938 L 71.425781 485.960938 Z M 71.425781 308.21875 " clip-rule="nonzero"/></clipPath></defs><g clip-path="url(#f64ded1c8b)"><path fill="#ff914d" d="M 71.417969 308.21875 L 534.59375 308.21875 L 534.59375 486.792969 L 71.417969 486.792969 Z M 71.417969 308.21875 " fill-opacity="1" fill-rule="nonzero"/></g><g clip-path="url(#852d14e4cc)"><path stroke-linecap="butt" transform="matrix(0.749829, 0, 0, 0.750407, 71.426163, 308.218215)" fill="none" stroke-linejoin="miter" d="M -0.000509621 0.00071312 L 619.088302 0.00071312 L 619.088302 236.861735 L -0.000509621 236.861735 L -0.000509621 0.00071312 " stroke="#000000" stroke-width="20" stroke-opacity="1" stroke-miterlimit="4"/></g><g fill="#000000" fill-opacity="1"><g transform="translate(95.041833, 435.288915)"><g><path d="M 34.96875 -71.390625 C 46.550781 -71.390625 55.394531 -68.394531 61.5 -62.40625 C 67.601562 -56.414062 70.65625 -47.507812 70.65625 -35.6875 C 70.65625 -23.90625 67.601562 -15.007812 61.5 -9 C 55.394531 -3 46.550781 0 34.96875 0 L 9.28125 0 L 9.28125 -71.390625 Z M 34.125 -11.859375 C 41.488281 -11.859375 46.992188 -13.738281 50.640625 -17.5 C 54.285156 -21.257812 56.109375 -27.320312 56.109375 -35.6875 C 56.109375 -44.0625 54.285156 -50.125 50.640625 -53.875 C 46.992188 -57.632812 41.488281 -59.515625 34.125 -59.515625 L 23.390625 -59.515625 L 23.390625 -11.859375 Z M 34.125 -11.859375 "/></g></g></g><g fill="#000000" fill-opacity="1"><g transform="translate(171.353334, 435.288915)"><g><path d="M 23.390625 -31.34375 L 23.390625 -11.8125 L 57.46875 -11.8125 L 57.46875 0 L 9.28125 0 L 9.28125 -71.390625 L 56.6875 -71.390625 L 56.6875 -59.578125 L 23.390625 -59.578125 L 23.390625 -42.875 L 52.484375 -42.875 L 52.484375 -31.34375 Z M 23.390625 -31.34375 "/></g></g></g><g fill="#000000" fill-opacity="1"><g transform="translate(232.724772, 435.288915)"><g><path d="M 57.234375 -71.390625 L 57.234375 -59.515625 L 36.625 -59.515625 L 36.625 0 L 22.5625 0 L 22.5625 -59.515625 L 1.953125 -59.515625 L 1.953125 -71.390625 Z M 57.234375 -71.390625 "/></g></g></g><g fill="#000000" fill-opacity="1"><g transform="translate(291.899125, 435.288915)"><g><path d="M 38.921875 1.03125 C 32.378906 1.03125 26.609375 -0.300781 21.609375 -2.96875 C 16.609375 -5.644531 12.691406 -9.722656 9.859375 -15.203125 C 7.023438 -20.691406 5.609375 -27.519531 5.609375 -35.6875 C 5.609375 -43.863281 7.023438 -50.691406 9.859375 -56.171875 C 12.691406 -61.660156 16.609375 -65.738281 21.609375 -68.40625 C 26.609375 -71.070312 32.378906 -72.40625 38.921875 -72.40625 C 45.460938 -72.40625 51.222656 -71.078125 56.203125 -68.421875 C 61.179688 -65.773438 65.078125 -61.703125 67.890625 -56.203125 C 70.710938 -50.703125 72.125 -43.863281 72.125 -35.6875 C 72.125 -27.519531 70.710938 -20.6875 67.890625 -15.1875 C 65.078125 -9.6875 61.179688 -5.609375 56.203125 -2.953125 C 51.222656 -0.296875 45.460938 1.03125 38.921875 1.03125 Z M 38.921875 -11.234375 C 44.972656 -11.234375 49.59375 -13.175781 52.78125 -17.0625 C 55.96875 -20.957031 57.5625 -27.164062 57.5625 -35.6875 C 57.5625 -44.21875 55.96875 -50.4375 52.78125 -54.34375 C 49.59375 -58.25 44.972656 -60.203125 38.921875 -60.203125 C 32.828125 -60.203125 28.175781 -58.25 24.96875 -54.34375 C 21.769531 -50.4375 20.171875 -44.21875 20.171875 -35.6875 C 20.171875 -27.164062 21.769531 -20.957031 24.96875 -17.0625 C 28.175781 -13.175781 32.828125 -11.234375 38.921875 -11.234375 Z M 38.921875 -11.234375 "/></g></g></g><g fill="#000000" fill-opacity="1"><g transform="translate(369.67535, 435.288915)"><g><path d="M 37.84375 1.03125 C 28.007812 1.03125 20.71875 -1.300781 15.96875 -5.96875 C 11.21875 -10.644531 8.84375 -17.578125 8.84375 -26.765625 L 8.84375 -71.390625 L 22.65625 -71.390625 L 22.65625 -26.859375 C 22.65625 -21.648438 23.90625 -17.742188 26.40625 -15.140625 C 28.914062 -12.535156 32.726562 -11.234375 37.84375 -11.234375 C 47.96875 -11.234375 53.03125 -16.441406 53.03125 -26.859375 L 53.03125 -71.390625 L 66.84375 -71.390625 L 66.84375 -26.765625 C 66.84375 -17.578125 64.46875 -10.644531 59.71875 -5.96875 C 54.96875 -1.300781 47.675781 1.03125 37.84375 1.03125 Z M 37.84375 1.03125 "/></g></g></g><g fill="#000000" fill-opacity="1"><g transform="translate(445.352148, 435.288915)"><g><path d="M 9.28125 0 L 9.28125 -71.390625 L 37.9375 -71.390625 C 45.332031 -71.390625 50.90625 -69.6875 54.65625 -66.28125 C 58.414062 -62.882812 60.296875 -58.191406 60.296875 -52.203125 C 60.296875 -47.867188 59.195312 -44.316406 57 -41.546875 C 54.8125 -38.785156 51.535156 -36.671875 47.171875 -35.203125 L 47.171875 -34.1875 C 49.410156 -33.207031 51.222656 -31.753906 52.609375 -29.828125 C 53.992188 -27.910156 55.304688 -25.066406 56.546875 -21.296875 L 63.671875 0 L 49.171875 0 L 42.1875 -21.34375 C 41.46875 -23.488281 40.660156 -25.15625 39.765625 -26.34375 C 38.867188 -27.53125 37.726562 -28.390625 36.34375 -28.921875 C 34.96875 -29.460938 33.171875 -29.734375 30.953125 -29.734375 L 23.390625 -29.734375 L 23.390625 0 Z M 36.234375 -40.921875 C 43.066406 -40.921875 46.484375 -44.109375 46.484375 -50.484375 C 46.484375 -56.960938 43.066406 -60.203125 36.234375 -60.203125 L 23.390625 -60.203125 L 23.390625 -40.921875 Z M 36.234375 -40.921875 "/></g></g></g></svg>