<?xml version="1.0" encoding="UTF-8" standalone="no" ?>
<!DOCTYPE svg PUBLIC "-//W3C//DTD SVG 1.1//EN" "http://www.w3.org/Graphics/SVG/1.1/DTD/svg11.dtd">
<svg xmlns="http://www.w3.org/2000/svg" xmlns:xlink="http://www.w3.org/1999/xlink" version="1.1" width="1600" height="1600" viewBox="0 0 1600 1600" xml:space="preserve">
<desc>Created with Fabric.js 4.2.0</desc>
<defs>
</defs>
<rect x="0" y="0" width="100%" height="100%" fill="transparent"></rect>
<g transform="matrix(1 0 0 1 800 800)" id="a3f3dafa-3bc5-4e48-abd0-ab64992ff7f2"  >
<rect style="stroke: none; stroke-width: 1; stroke-dasharray: none; stroke-linecap: butt; stroke-dashoffset: 0; stroke-linejoin: miter; stroke-miterlimit: 4; fill: rgb(204,76,192); fill-opacity: 0; fill-rule: nonzero; opacity: 1;" vector-effect="non-scaling-stroke"  x="-800" y="-800" rx="0" ry="0" width="1600" height="1600" />
</g>
<g transform="matrix(0 0 0 0 0 0)" id="d7f41ad7-3362-4615-bc0b-cb57668ba980"  >
</g>
<g transform="matrix(0 23.92 -14.19 0 800 800)" id="f0f2d789-d9ff-41b5-a6d0-81a295b49270"  >
<rect style="stroke: rgb(0,0,0); stroke-width: 0; stroke-dasharray: none; stroke-linecap: butt; stroke-dashoffset: 0; stroke-linejoin: miter; stroke-miterlimit: 4; fill: rgb(255,254,254); fill-rule: nonzero; opacity: 1;" vector-effect="non-scaling-stroke"  x="-33.0835" y="-33.0835" rx="0" ry="0" width="66.167" height="66.167" />
</g>
<g transform="matrix(0 19.34 -11.32 0 800.86 800)" id="0651cc4b-f52b-4043-a8d5-de2aeaf5657f"  >
<path style="stroke: rgb(0,0,0); stroke-width: 0; stroke-dasharray: none; stroke-linecap: butt; stroke-dashoffset: 0; stroke-linejoin: miter; stroke-miterlimit: 4; fill: rgb(0,0,0); fill-rule: nonzero; opacity: 1;" vector-effect="non-scaling-stroke"  transform=" translate(-50, -50)" d="M 90.375 90.375 L 9.625 90.375 L 9.625 9.625 L 90.375 9.625 L 90.375 90.375 z M 11.625 88.375 L 88.375 88.375 L 88.375 11.625 L 11.625 11.625 L 11.625 88.375 z" stroke-linecap="round" />
</g>
<g transform="matrix(2.14 0 0 2.14 800 1336.97)" style="" id="35feca88-5768-4c19-9d41-f98167af39e5"  >
		<text xml:space="preserve" font-family="Raleway" font-size="105" font-style="normal" font-weight="900" style="stroke: none; stroke-width: 1; stroke-dasharray: none; stroke-linecap: butt; stroke-dashoffset: 0; stroke-linejoin: miter; stroke-miterlimit: 4; fill: rgb(0,0,0); fill-rule: nonzero; opacity: 1; white-space: pre;" ><tspan x="-91.56" y="-26.34" style="white-space: pre; ">NO </tspan><tspan x="-171.88" y="92.31" >ENTRY</tspan></text>
</g>
<g transform="matrix(11.92 0 0 11.92 800 490.49)" id="31c70333-6a53-4c6e-8bdc-1f067b594d07"  >
<circle style="stroke: rgb(0,0,0); stroke-width: 0; stroke-dasharray: none; stroke-linecap: butt; stroke-dashoffset: 0; stroke-linejoin: miter; stroke-miterlimit: 4; fill: rgb(178,0,0); fill-rule: nonzero; opacity: 1;" vector-effect="non-scaling-stroke"  cx="0" cy="0" r="35" />
</g>
<g transform="matrix(2.8 0 0 2.8 800 691.78)" style="" id="4f96faa4-7cfa-4f2b-8751-f60324babec8"  >
		<text xml:space="preserve" font-family="Raleway" font-size="105" font-style="normal" font-weight="900" style="stroke: none; stroke-width: 1; stroke-dasharray: none; stroke-linecap: butt; stroke-dashoffset: 0; stroke-linejoin: miter; stroke-miterlimit: 4; fill: rgb(0,0,0); fill-rule: nonzero; opacity: 1; white-space: pre;" ><tspan x="-77.49" y="32.98" >N</tspan><tspan x="12.71" y="32.98" >S</tspan></text>
</g>
<g transform="matrix(8.54 0 0 3.23 800 498.42)" id="ef59a80c-1957-4b8a-8490-8bbf924ea245"  >
<rect style="stroke: rgb(0,0,0); stroke-width: 0; stroke-dasharray: none; stroke-linecap: butt; stroke-dashoffset: 0; stroke-linejoin: miter; stroke-miterlimit: 4; fill: rgb(255,255,255); fill-rule: nonzero; opacity: 1;" vector-effect="non-scaling-stroke"  x="-37.4585" y="-19.4165" rx="0" ry="0" width="74.917" height="38.833" />
</g>
</svg>