<svg width="200" height="200" viewBox="0 0 200 200" fill="none" xmlns="http://www.w3.org/2000/svg">
<rect width="200" height="200" rx="18" fill="white"/>
<path d="M62.8323 139.034C78.4182 154.62 97.6369 159.483 106.543 160.479C110.645 161.065 113.281 159.073 113.399 155.85C113.574 152.92 111.875 150.811 108.36 150.049C100.215 148.584 83.3987 144.483 70.4494 131.416C49.4729 110.499 45.1955 77.686 62.6565 60.1665C76.4846 46.3969 99.4534 47.5688 116.328 56.7094L124.297 48.8579C102.031 35.2641 72.5588 35.0298 55.0393 52.5493C34.1213 73.5259 36.4651 112.666 62.8323 139.034ZM148.438 57.8813L153.301 52.9009C155.821 50.2641 156.114 46.3969 153.535 43.936L151.778 42.2368C149.551 40.0688 145.801 40.3618 143.281 42.8227L138.301 47.7446L148.438 57.8813ZM94.1213 112.139L144.278 61.9829L134.141 51.8462L83.9846 102.002L79.0627 114.073C78.3596 115.831 80.176 117.471 81.758 116.885L94.1213 112.139ZM84.2776 122.041C101.797 140.557 132.793 147.295 149.551 130.596C163.203 116.885 162.266 92.6274 147.324 71.5337L139.531 79.268C150.196 95.0298 152.129 112.784 141.875 122.979C129.278 135.577 108.887 129.952 95.8791 117.471L84.2776 122.041Z" fill="black"/>
</svg>
