<svg xmlns="http://www.w3.org/2000/svg" xmlns:xlink="http://www.w3.org/1999/xlink" version="1.1" width="1000" height="1000" viewBox="0 0 1000 1000" xml:space="preserve">
<desc>Created with Fabric.js 3.5.0</desc>
<defs>
</defs>
<rect x="0" y="0" width="100%" height="100%" fill="#fff"/>
<g transform="matrix(1.4168 0 0 1.4168 500.0133 514.0484)" id="circle1335">
<circle style="stroke: none; stroke-width: 0.7729; stroke-dasharray: none; stroke-linecap: butt; stroke-dashoffset: 0; stroke-linejoin: miter; stroke-miterlimit: 4; is-custom-font: none; font-file-url: none; fill: rgb(0,0,255); fill-rule: evenodd; opacity: 1;" cx="0" cy="0" r="303"/>
</g>
<g transform="matrix(-1.257 0 0 0.9176 453.1615 645.5355)" id="431179">
<path style="stroke: none; stroke-width: 0; stroke-dasharray: none; stroke-linecap: butt; stroke-dashoffset: 0; stroke-linejoin: miter; stroke-miterlimit: 4; is-custom-font: none; font-file-url: none; fill: rgb(255,255,255); fill-rule: nonzero; opacity: 1;" transform=" translate(-300.25, -446.5)" d="M 264.4999 189 C 361.1729 189 438.9998 267.05015 438.9998 364.00015 L 438.999 531.999 L 439 531.999959 L 491.4759 517.5685 C 504.7056 513.93003 515.4688 528.4996 508.1032 540.07582 L 400 703.999959 L 291.8969 540.07583 C 284.5313 528.49961 295.2945 513.93004 308.5241 517.56851 L 361 531.999959 L 361 364.00015 C 361 310.26216 317.9609 266.99988 264.4999 266.99988 C 211.0389 266.99988 167.9999 310.26216 167.9999 364.00015 L 167.9999 703.999909 L 90 703.999909 L 90 364.00015 C 90 267.05015 167.8269 189 264.4999 189 Z" stroke-linecap="round"/>
</g>
<g transform="matrix(-1.3581 0 0 1 498.194 366.1141)" id="803572">
<path style="stroke: none; stroke-width: 0; stroke-dasharray: none; stroke-linecap: butt; stroke-dashoffset: 0; stroke-linejoin: miter; stroke-miterlimit: 4; is-custom-font: none; font-file-url: none; fill: rgb(255,255,255); fill-rule: nonzero; opacity: 1;" transform=" translate(-296.4401, -347)" d="M 300.367401 113.518488 C 304.374689 111.120149 309.183434 111.929228 313.368823 113.431801 C 344.280852 124.059408 389.028656 139.430636 447.612237 159.545487 L 447.612236 159.545491 C 455.551985 162.271627 459.778452 170.918036 457.052315 178.857785 C 456.413337 180.718779 455.419111 182.438008 454.124825 183.92004 C 413.055894 230.946311 381.701334 266.888579 360.061145 291.746844 C 357.241202 294.463034 352.907394 295.243217 349.107892 295.589965 C 340.588695 295.734443 334.533239 287.268018 335.305012 279.495089 C 335.928368 265.596282 336.611091 251.726371 337.204764 237.827565 C 315.120156 243.520007 292.115357 247.854355 272.405439 259.643779 C 257.652684 269.699464 243.40455 281.199932 233.579275 296.110086 C 218.114113 318.5909 207.279595 344.857044 207.012442 372.221222 C 207.042126 402.157114 207.042126 552.093005 207.042126 582 C 183.028084 582 159.014042 582 135 582 C 135.178102 553.191039 135.148418 404.382078 135.504621 375.573118 C 136.781017 352.861138 139.215073 329.831307 147.289015 308.361841 C 155.244223 286.834583 167.503555 267.012169 181.751689 248.923494 C 194.248489 233.290948 210.010487 220.490176 226.395841 208.931917 C 241.386065 197.518136 259.463384 190.929929 277.243868 184.861843 C 291.343583 180.007374 306.036971 177.002226 320.433523 173.101314 C 311.795592 159.78042 302.890508 146.661796 294.400995 133.283111 C 290.096872 126.637112 292.887131 116.697009 300.397085 113.518488 L 300.367401 113.518488 Z" stroke-linecap="round"/>
</g>
</svg>