<svg xmlns="http://www.w3.org/2000/svg" xmlns:xlink="http://www.w3.org/1999/xlink" version="1.1" width="1000" height="1000" viewBox="0 0 1000 1000" xml:space="preserve">
<desc>Created with Fabric.js 3.5.0</desc>
<defs>
</defs>
<rect x="0" y="0" width="100%" height="100%" fill="rgba(255,255,255,0)"/>
<g transform="matrix(0.625 0 0 0.625 500 500)" id="285291">
<g style="" vector-effect="non-scaling-stroke">
		<g transform="matrix(1 0 0 1 -750 -750)">
<rect style="stroke: none; stroke-width: 1; stroke-dasharray: none; stroke-linecap: butt; stroke-dashoffset: 0; stroke-linejoin: miter; stroke-miterlimit: 4; is-custom-font: none; font-file-url: none; fill: rgb(255,255,255); fill-opacity: 0; fill-rule: nonzero; opacity: 1;" x="-50" y="-50" rx="0" ry="0" width="100" height="100"/>
</g>
		<g transform="matrix(1 0 0 1 0 0)" id="a3f3dafa-3bc5-4e48-abd0-ab64992ff7f2">
<rect style="stroke: none; stroke-width: 1; stroke-dasharray: none; stroke-linecap: butt; stroke-dashoffset: 0; stroke-linejoin: miter; stroke-miterlimit: 4; is-custom-font: none; font-file-url: none; fill: rgb(204,76,192); fill-opacity: 0; fill-rule: nonzero; opacity: 1;" vector-effect="non-scaling-stroke" x="-800" y="-800" rx="0" ry="0" width="1600" height="1600"/>
</g>
		<g transform="matrix(22.23 0 0 22.23 0.16 0.16)" id="2513">
<circle style="stroke: rgb(0,0,0); stroke-width: 0; stroke-dasharray: none; stroke-linecap: butt; stroke-dashoffset: 0; stroke-linejoin: miter; stroke-miterlimit: 4; is-custom-font: none; font-file-url: none; fill: rgb(255,254,254); fill-rule: nonzero; opacity: 1;" vector-effect="non-scaling-stroke" cx="0" cy="0" r="35"/>
</g>
		<g transform="matrix(20.54 0 0 20.54 0 0)" id="ba344348-7863-4ed1-aa77-312bc52df80b">
<circle style="stroke: rgb(0,0,0); stroke-width: 0; stroke-dasharray: none; stroke-linecap: butt; stroke-dashoffset: 0; stroke-linejoin: miter; stroke-miterlimit: 4; is-custom-font: none; font-file-url: none; fill: rgb(0,65,190); fill-rule: nonzero; opacity: 1;" vector-effect="non-scaling-stroke" cx="0" cy="0" r="35"/>
</g>
		<g transform="matrix(0 6.63 -4.09 0 30.95 66.13)" id="12">
<path style="stroke: rgb(0,0,0); stroke-width: 0; stroke-dasharray: none; stroke-linecap: butt; stroke-dashoffset: 0; stroke-linejoin: miter; stroke-miterlimit: 4; is-custom-font: none; font-file-url: none; fill: rgb(255,255,255); fill-rule: nonzero; opacity: 1;" vector-effect="non-scaling-stroke" transform=" translate(-50, -50)" d="M 94.75 50 C 94.75 56.213 89.514 61.25 83.054 61.25 L 16.946 61.25 C 10.486 61.25 5.25 56.213 5.25 50 L 5.25 50 C 5.25 43.787 10.486 38.75 16.945999999999998 38.75 L 83.053 38.75 C 89.514 38.75 94.75 43.787 94.75 50 L 94.75 50 z" stroke-linecap="round"/>
</g>
		<g transform="matrix(8.2 0 0 4.02 -254.89 -180.54)" id="5314">
<polygon style="stroke: rgb(0,0,0); stroke-width: 0; stroke-dasharray: none; stroke-linecap: butt; stroke-dashoffset: 0; stroke-linejoin: miter; stroke-miterlimit: 4; is-custom-font: none; font-file-url: none; fill: rgb(255,254,254); fill-rule: nonzero; opacity: 1;" vector-effect="non-scaling-stroke" points="-37.21,0 -20.49,15.74 -3.76,31.48 -3.76,12.14 37.21,12.14 37.21,-13.21 -3.76,-13.21 -3.76,-31.48 -20.49,-15.74 "/>
</g>
		<g transform="matrix(-8.2 0 0 -4.02 272.37 -184.48)">
<polygon style="stroke: rgb(0,0,0); stroke-width: 0; stroke-dasharray: none; stroke-linecap: butt; stroke-dashoffset: 0; stroke-linejoin: miter; stroke-miterlimit: 4; is-custom-font: none; font-file-url: none; fill: rgb(255,254,254); fill-rule: nonzero; opacity: 1;" vector-effect="non-scaling-stroke" points="-37.21,0 -20.49,15.74 -3.76,31.48 -3.76,12.14 37.21,12.14 37.21,-13.21 -3.76,-13.21 -3.76,-31.48 -20.49,-15.74 "/>
</g>
</g>
</g>
<g transform="matrix(1 0 0 1 500 805.047)" style="" id="238587">
		
<path xml:space="preserve" font-family="Abhaya Libre" font-size="234" font-style="normal" font-weight="bold" style="stroke: none; stroke-width: 1; stroke-dasharray: none; stroke-linecap: butt; stroke-dashoffset: 0; stroke-linejoin: miter; stroke-miterlimit: 4; is-custom-font: none; font-file-url: none; fill: rgb(0,0,0); fill-rule: nonzero; opacity: 1; white-space: pre;" d="M-57.13-63.60L-57.13-57.43L-38.39-57.43L-38.39 35.35L-121.11-63.60L-157.45-63.60L-157.45-57.43L-139.17-57.43L-139.17 67.34L-157.45 67.34L-157.45 73.51L-110.37 73.51Q-111.74 67.80-116.54 67.34L-116.54 67.34L-129.80 67.34L-129.80-31.15L-41.13 74.65L-29.02 72.37L-29.02-57.43L-10.74-57.43L-10.74-63.60L-57.13-63.60ZM151.28 36.03L151.28 36.03Q151.28 16.61 129.80 3.35L129.80 3.35Q126.60 1.53 105.12-8.99L105.12-8.99Q85.46-18.81 80.67-28.18L80.67-28.18Q78.15-33.21 78.15-38.46L78.15-38.46Q78.15-52.17 91.41-57.20L91.41-57.20Q96.66-59.26 102.60-59.26L102.60-59.26Q121.34-59.26 130.94-45.78L130.94-45.78Q137.34-36.64 137.34-24.07L137.34-24.07L145.56-24.07L145.56-64.97Q139.17-64.97 138.25-60.63L138.25-60.63Q138.02-59.03 138.02-56.97L138.02-56.97Q119.97-65.89 99.18-65.89L99.18-65.89Q72.67-65.89 58.73-51.72L58.73-51.72Q49.59-42.35 49.59-29.55L49.59-29.55Q49.59-10.36 71.07 2.67L71.07 2.67Q74.50 4.50 96.21 15.24L96.21 15.24Q116.31 25.06 121.11 34.66L121.11 34.66Q123.63 39.46 123.63 44.72L123.63 44.72Q123.63 60.71 108.77 66.65L108.77 66.65Q102.83 69.17 95.52 69.17L95.52 69.17Q68.33 69.17 59.64 42.43L59.64 42.43Q57.36 34.89 56.67 25.98L56.67 25.98L48.45 25.98L48.45 73.97Q54.16 73.97 55.30 70.54L55.30 70.54Q55.76 68.48 55.76 64.14L55.76 64.14Q73.58 75.79 97.58 75.79L97.58 75.79Q125.68 75.79 140.77 61.17L140.77 61.17Q151.28 50.89 151.28 36.03Z"/></g>
</svg>