<?xml version="1.0" encoding="UTF-8" standalone="no"?>
<svg
   width="24"
   height="24"
   version="1.1"
   id="svg2"
   sodipodi:docname="mandatory_straight_right_g1.svg"
   inkscape:version="1.3.2 (091e20e, 2023-11-25, custom)"
   xmlns:inkscape="http://www.inkscape.org/namespaces/inkscape"
   xmlns:sodipodi="http://sodipodi.sourceforge.net/DTD/sodipodi-0.dtd"
   xmlns="http://www.w3.org/2000/svg"
   xmlns:svg="http://www.w3.org/2000/svg">
  <defs
     id="defs2" />
  <sodipodi:namedview
     id="namedview2"
     pagecolor="#ffffff"
     bordercolor="#000000"
     borderopacity="0.25"
     inkscape:showpageshadow="2"
     inkscape:pageopacity="0.0"
     inkscape:pagecheckerboard="0"
     inkscape:deskcolor="#d1d1d1"
     inkscape:zoom="36.041667"
     inkscape:cx="11.986127"
     inkscape:cy="12"
     inkscape:window-width="1920"
     inkscape:window-height="1121"
     inkscape:window-x="462"
     inkscape:window-y="1791"
     inkscape:window-maximized="1"
     inkscape:current-layer="svg2" />
  <path
     fill="#035ca1"
     d="M10.444 0h3.113c2.949.518 5.83 1.937 7.71 4.313 1.481 1.731 2.32 3.911 2.732 6.131v3.113c-.518 2.949-1.936 5.83-4.312 7.71-1.733 1.481-3.913 2.32-6.133 2.732H11.18c.003-2.552-.008-5.105.004-7.656-.001-.621.409-1.329 1.081-1.374.977-.034 1.957-.015 2.935-.025.017.851.008 1.702.025 2.553 2.185-1.294 4.4-2.538 6.568-3.861a1814.66 1814.66 0 0 0-6.591-3.92c-.005.868-.004 1.735.016 2.603-1.309.229-2.831-.368-3.969.493-.001-1.582.007-3.165.012-4.747.818-.063 1.638-.033 2.457-.051a1033.945 1033.945 0 0 0-3.597-6.633 573.73 573.73 0 0 0-3.723 6.682c.8.028 1.601-.04 2.403-.04.005 5.205.051 10.408.055 15.612-2.215-.636-4.303-1.851-5.827-3.589-1.638-1.803-2.602-4.112-3.03-6.489v-3.113C.413 8.225 1.25 6.045 2.731 4.313 4.611 1.937 7.494.519 10.443.001z"
     id="path1" />
  <path
     fill="#fff"
     d="M6.4 8.062a573.73 573.73 0 0 1 3.723-6.682c1.205 2.207 2.408 4.416 3.597 6.633-.819.018-1.639-.012-2.457.051-.005 1.582-.013 3.165-.012 4.747 1.138-.861 2.66-.264 3.969-.493a90.351 90.351 0 0 1-.016-2.603c2.2 1.303 4.396 2.61 6.591 3.92-2.168 1.323-4.383 2.567-6.568 3.861-.017-.851-.008-1.702-.025-2.553-.978.011-1.958-.009-2.935.025-.673.045-1.083.753-1.081 1.374-.012 2.552-.001 5.105-.004 7.656h-.779c-.497-.191-1.038-.212-1.544-.365-.004-5.204-.05-10.407-.055-15.612-.802 0-1.602.067-2.403.04z"
     id="path2" />
</svg>
