<svg width="180" height="228" viewBox="0 0 180 228" fill="none" xmlns="http://www.w3.org/2000/svg">
<rect x="4.5" y="4.5" width="171" height="219" rx="7.5" fill="white" stroke="black" stroke-width="9"/>
<rect x="1.5" y="1.5" width="177" height="225" rx="10.5" stroke="white" stroke-width="3"/>
<path d="M96.7129 62L94.3784 72.9495C92.9853 72.8253 91.5829 72.737 90.158 72.737C88.6161 72.737 87.0955 72.8245 85.591 72.9697L83.2565 62.0202L73.0521 64.1656L75.3866 75.1455C72.529 76.0901 69.7868 77.2812 67.2006 78.7278L60.605 69.61L52.1234 75.6515L58.7394 84.8098C56.4441 86.8684 54.3648 89.157 52.5108 91.6203L42.6733 85.9634L37.4437 94.9295L47.2302 100.556C46.0267 103.235 45.0738 106.05 44.3962 108.965L33.1519 107.721L32 118.012L43.1933 119.247C43.1931 119.288 43.1831 119.327 43.1831 119.368C43.1831 122.44 43.5052 125.437 44.0801 128.345L33.2641 131.492L36.3631 141.379L47.2404 138.221C54.5592 154.553 71.0363 166 90.158 166C109.317 166 125.829 154.513 133.127 138.13L143.616 141.369L146.716 131.472L136.256 128.243C136.818 125.367 137.133 122.404 137.133 119.368C137.133 119.321 137.123 119.275 137.123 119.227L148 117.992L146.817 107.7L135.899 108.925C135.213 105.967 134.25 103.119 133.025 100.404L142.546 94.9092L137.296 85.9432L127.703 91.4786C125.819 88.9857 123.702 86.6899 121.363 84.6175L127.856 75.6312L119.375 69.5898L112.871 78.5862C110.26 77.1463 107.497 75.954 104.613 75.024L106.928 64.1454L96.7129 62ZM61.339 97.0647L95.3571 119.672L57.088 134.75C54.8891 130.08 53.6219 124.882 53.6219 119.368C53.6219 110.936 56.5109 103.212 61.339 97.0647Z" fill="black"/>
</svg>
