<svg xmlns="http://www.w3.org/2000/svg" xmlns:xlink="http://www.w3.org/1999/xlink" width="793" zoomAndPan="magnify" viewBox="0 0 595.5 842.249979" height="1122" preserveAspectRatio="xMidYMid meet" version="1.0"><defs><g/><clipPath id="b0fe8156fd"><path d="M 141.574219 238.0625 L 450.367188 238.0625 L 450.367188 603.785156 L 141.574219 603.785156 Z M 141.574219 238.0625 " clip-rule="nonzero"/></clipPath><clipPath id="c56c8b7b85"><path d="M 141.574219 238.0625 L 450.558594 238.0625 L 450.558594 604.042969 L 141.574219 604.042969 Z M 141.574219 238.0625 " clip-rule="nonzero"/></clipPath><clipPath id="8a0e8d36c8"><path d="M 227.429688 437.78125 L 363.992188 437.78125 L 363.992188 588 L 227.429688 588 Z M 227.429688 437.78125 " clip-rule="nonzero"/></clipPath><clipPath id="125a20183b"><path d="M 295.957031 437.78125 L 363.992188 510.613281 L 327.578125 510.613281 L 327.578125 588.933594 L 264.339844 588.933594 L 264.339844 510.613281 L 227.921875 510.613281 L 295.957031 437.78125 " clip-rule="nonzero"/></clipPath></defs><g clip-path="url(#b0fe8156fd)"><path fill="#ffffff" d="M 141.574219 238.0625 L 451.285156 238.0625 L 451.285156 603.582031 L 141.574219 603.582031 Z M 141.574219 238.0625 " fill-opacity="1" fill-rule="nonzero"/></g><g clip-path="url(#c56c8b7b85)"><path stroke-linecap="butt" transform="matrix(0.750446, 0, 0, 0.750515, 141.573108, 238.063216)" fill="none" stroke-linejoin="miter" d="M 0.00148066 -0.000954318 L 411.73599 -0.000954318 L 411.73599 487.638482 L 0.00148066 487.638482 L 0.00148066 -0.000954318 " stroke="#000000" stroke-width="20" stroke-opacity="1" stroke-miterlimit="4"/></g><g clip-path="url(#8a0e8d36c8)"><g clip-path="url(#125a20183b)"><path fill="#000000" d="M 363.992188 437.78125 L 363.992188 588 L 227.429688 588 L 227.429688 437.78125 Z M 363.992188 437.78125 " fill-opacity="1" fill-rule="nonzero"/></g></g><g fill="#000000" fill-opacity="1"><g transform="translate(198.143297, 325.809115)"><g><path d="M 35.015625 0.921875 C 29.128906 0.921875 23.9375 -0.273438 19.4375 -2.671875 C 14.945312 -5.078125 11.425781 -8.75 8.875 -13.6875 C 6.320312 -18.625 5.046875 -24.769531 5.046875 -32.125 C 5.046875 -39.46875 6.320312 -45.609375 8.875 -50.546875 C 11.425781 -55.484375 14.945312 -59.148438 19.4375 -61.546875 C 23.9375 -63.953125 29.128906 -65.15625 35.015625 -65.15625 C 40.898438 -65.15625 46.082031 -63.960938 50.5625 -61.578125 C 55.050781 -59.191406 58.5625 -55.519531 61.09375 -50.5625 C 63.625 -45.613281 64.890625 -39.46875 64.890625 -32.125 C 64.890625 -24.769531 63.625 -18.613281 61.09375 -13.65625 C 58.5625 -8.707031 55.050781 -5.039062 50.5625 -2.65625 C 46.082031 -0.269531 40.898438 0.921875 35.015625 0.921875 Z M 35.015625 -10.109375 C 40.460938 -10.109375 44.617188 -11.859375 47.484375 -15.359375 C 50.359375 -18.859375 51.796875 -24.445312 51.796875 -32.125 C 51.796875 -39.789062 50.359375 -45.378906 47.484375 -48.890625 C 44.617188 -52.410156 40.460938 -54.171875 35.015625 -54.171875 C 29.535156 -54.171875 25.351562 -52.410156 22.46875 -48.890625 C 19.582031 -45.378906 18.140625 -39.789062 18.140625 -32.125 C 18.140625 -24.445312 19.582031 -18.859375 22.46875 -15.359375 C 25.351562 -11.859375 29.535156 -10.109375 35.015625 -10.109375 Z M 35.015625 -10.109375 "/></g></g></g><g fill="#000000" fill-opacity="1"><g transform="translate(268.135509, 325.809115)"><g><path d="M 20.65625 0 L 8.34375 0 L 8.34375 -64.234375 L 22.890625 -64.234375 L 48.6875 -22.84375 L 49.828125 -23.015625 L 49.828125 -64.234375 L 62.046875 -64.234375 L 62.046875 0 L 49.03125 0 L 21.75 -44.203125 L 20.65625 -44.03125 Z M 20.65625 0 "/></g></g></g><g fill="#000000" fill-opacity="1"><g transform="translate(338.567095, 325.809115)"><g><path d="M 21.046875 -28.203125 L 21.046875 -10.640625 L 51.71875 -10.640625 L 51.71875 0 L 8.34375 0 L 8.34375 -64.234375 L 51.015625 -64.234375 L 51.015625 -53.609375 L 21.046875 -53.609375 L 21.046875 -38.578125 L 47.234375 -38.578125 L 47.234375 -28.203125 Z M 21.046875 -28.203125 "/></g></g></g><g fill="#000000" fill-opacity="1"><g transform="translate(189.749503, 416.531013)"><g><path d="M 32.375 0 L 17.390625 0 L 1.859375 -67.8125 L 15.21875 -67.8125 L 25.46875 -20.125 L 26.625 -20.125 L 38.765625 -67.8125 L 50.234375 -67.8125 L 62.609375 -20.125 L 63.765625 -20.125 L 74.0625 -67.8125 L 86.953125 -67.8125 L 71.46875 0 L 56.4375 0 L 44.5625 -43.734375 L 43.59375 -43.734375 Z M 32.375 0 "/></g></g></g><g fill="#000000" fill-opacity="1"><g transform="translate(278.521865, 416.531013)"><g><path d="M 65.0625 0 L 50.96875 0 L 45.875 -15.625 L 19.890625 -15.625 L 14.796875 0 L 1.015625 0 L 24.4375 -67.8125 L 41.640625 -67.8125 Z M 32.234375 -53.65625 L 23.515625 -26.90625 L 42.15625 -26.90625 L 33.390625 -53.65625 Z M 32.234375 -53.65625 "/></g></g></g><g fill="#000000" fill-opacity="1"><g transform="translate(344.614141, 416.531013)"><g><path d="M 37.15625 0 L 23.75 0 L 23.75 -26.625 L 0.328125 -67.8125 L 14.703125 -67.8125 L 30.1875 -41.140625 L 31.359375 -41.140625 L 46.515625 -67.8125 L 60.578125 -67.8125 L 37.15625 -26.625 Z M 37.15625 0 "/></g></g></g></svg>