<svg xmlns="http://www.w3.org/2000/svg" xmlns:xlink="http://www.w3.org/1999/xlink" version="1.1" width="1000" height="1000" viewBox="0 0 1000 1000" xml:space="preserve">
<desc>Created with Fabric.js 3.5.0</desc>
<defs>
</defs>
<rect x="0" y="0" width="100%" height="100%" fill="#ffffff"/>
<g transform="matrix(0.441 0 0 0.441 500.0315 500.0315)" id="409423">
<g style="" vector-effect="non-scaling-stroke">
		<g transform="matrix(3.7795 0 0 3.7795 -0.0082 -0.0082)" id="rect1393">
<rect style="stroke: none; stroke-width: 2.5433; stroke-dasharray: none; stroke-linecap: butt; stroke-dashoffset: 0; stroke-linejoin: miter; stroke-miterlimit: 10; is-custom-font: none; font-file-url: none; fill: rgb(0,70,170); fill-rule: nonzero; opacity: 1;" paint-order="stroke" x="-300" y="-300" rx="0" ry="0" width="600" height="600"/>
</g>
		<g transform="matrix(3.7795 0 0 3.7795 -0.0081 -0.0081)" id="rect1395">
<rect style="stroke: none; stroke-width: 2.5009; stroke-dasharray: none; stroke-linecap: butt; stroke-dashoffset: 0; stroke-linejoin: miter; stroke-miterlimit: 10; is-custom-font: none; font-file-url: none; fill: rgb(255,255,255); fill-rule: nonzero; opacity: 1;" paint-order="stroke" x="-295" y="-295" rx="0" ry="0" width="590" height="590"/>
</g>
		<g transform="matrix(3.7795 0 0 3.7795 -0.0079 -0.0079)" id="rect1406">
<rect style="stroke: none; stroke-width: 2.4161; stroke-dasharray: none; stroke-linecap: butt; stroke-dashoffset: 0; stroke-linejoin: miter; stroke-miterlimit: 10; is-custom-font: none; font-file-url: none; fill: rgb(0,70,170); fill-rule: nonzero; opacity: 1;" paint-order="stroke" x="-285" y="-285" rx="0" ry="0" width="570" height="570"/>
</g>
		<g transform="matrix(3.7795 0 0 3.7795 -0.0041 75.5831)" id="rect827">
<path style="stroke: none; stroke-width: 1.0066; stroke-dasharray: none; stroke-linecap: butt; stroke-dashoffset: 0; stroke-linejoin: miter; stroke-miterlimit: 10; is-custom-font: none; font-file-url: none; fill: rgb(255,255,255); fill-rule: nonzero; opacity: 1;" paint-order="stroke" transform=" translate(-300, -17)" d="M 225 -18 H 150 L 300 -253 L 450 -18 H 375 V 287 H 225 Z" stroke-linecap="round"/>
</g>
</g>
</g>
<g transform="matrix(1 0 0 1 500 530.5327)" style="" id="902796">
		
<path xml:space="preserve" font-family="Abhaya Libre" font-size="211" font-style="normal" font-weight="bold" style="stroke: none; stroke-width: 1; stroke-dasharray: none; stroke-linecap: butt; stroke-dashoffset: 0; stroke-linejoin: miter; stroke-miterlimit: 4; is-custom-font: none; font-file-url: none; fill: rgb(0,0,0); fill-rule: nonzero; opacity: 1; white-space: pre;" d="M-31.42-57.35L-31.42-51.79L-14.53-51.79L-14.53 31.87L-89.12-57.35L-121.88-57.35L-121.88-51.79L-105.40-51.79L-105.40 60.72L-121.88 60.72L-121.88 66.28L-79.43 66.28Q-80.67 61.13-85.00 60.72L-85.00 60.72L-96.95 60.72L-96.95-28.09L-17.00 67.31L-6.08 65.25L-6.08-51.79L10.41-51.79L10.41-57.35L-31.42-57.35ZM116.32 32.49L116.32 32.49Q116.32 14.98 96.95 3.02L96.95 3.02Q94.06 1.38 74.69-8.10L74.69-8.10Q56.97-16.96 52.65-25.41L52.65-25.41Q50.38-29.94 50.38-34.68L50.38-34.68Q50.38-47.05 62.33-51.58L62.33-51.58Q67.07-53.43 72.43-53.43L72.43-53.43Q89.32-53.43 97.98-41.28L97.98-41.28Q103.75-33.03 103.75-21.70L103.75-21.70L111.17-21.70L111.17-58.59Q105.40-58.59 104.57-54.67L104.57-54.67Q104.37-53.23 104.37-51.37L104.37-51.37Q88.09-59.41 69.34-59.41L69.34-59.41Q45.44-59.41 32.87-46.63L32.87-46.63Q24.62-38.19 24.62-26.65L24.62-26.65Q24.62-9.34 43.99 2.41L43.99 2.41Q47.08 4.05 66.66 13.74L66.66 13.74Q84.79 22.60 89.12 31.25L89.12 31.25Q91.39 35.58 91.39 40.32L91.39 40.32Q91.39 54.74 77.99 60.10L77.99 60.10Q72.63 62.37 66.04 62.37L66.04 62.37Q41.52 62.37 33.69 38.26L33.69 38.26Q31.63 31.46 31.01 23.42L31.01 23.42L23.59 23.42L23.59 66.70Q28.74 66.70 29.77 63.60L29.77 63.60Q30.19 61.75 30.19 57.84L30.19 57.84Q46.26 68.34 67.89 68.34L67.89 68.34Q93.24 68.34 106.84 55.16L106.84 55.16Q116.32 45.88 116.32 32.49Z"/></g>
</svg>