<svg xmlns="http://www.w3.org/2000/svg" width="76" height="37" viewBox="0 0 76 37">
  <g fill="none" fill-rule="evenodd" transform="translate(.698 .328)">
    <rect width="75" height="36.362" fill="#000" rx="4.5"/>
    <rect width="72" height="32.655" x="1.5" y="1.853" fill="#FFF" rx="3"/>
    <path fill="#000" fill-rule="nonzero" d="M3.97903872,3.20719936 C4.69903872,2.99732074 5.44303872,3.10431768 6.17203872,3.08374135 L70.1800387,3.08374135 C71.3440387,2.89443907 72.4840387,4.23601609 72.4360387,5.86566181 C72.4570387,14.0180056 72.4420387,22.1703495 72.4420387,30.3226933 C72.5380387,31.89061 71.5570387,33.3638756 70.4020387,33.2898008 C48.4660387,33.2980313 26.5300387,33.2980313 4.59403872,33.2898008 C3.44203872,33.3597603 2.46103872,31.8864948 2.56303872,30.3268086 C2.55703872,22.2773464 2.56003872,14.2319995 2.56003872,6.18253736 C2.47303872,4.89857407 3.05503872,3.56111231 3.97903872,3.20719936 L3.97903872,3.20719936 Z"/>
    <text fill="#FFF" font-family="InterstateCompressed-Regular, Interstate Compressed" font-size="9" font-style="condensed">
      <tspan x="33.077" y="30.276">GENERIC TEXT</tspan>
    </text>
    <g fill-rule="nonzero" transform="translate(6 6)">
      <path fill="#FFF" d="M15.615,0.270554107 C16.542,-0.437445893 18.009,0.339554107 17.952,1.49755411 C17.775,2.61655411 17.304,3.65755411 17.016,4.74955411 C31.974,4.75555411 46.926,4.75255411 61.881,4.75255411 C61.89,8.25955411 61.884,11.7635541 61.884,15.2705541 C46.926,15.2735541 31.971,15.2675541 17.016,15.2735541 C17.307,16.3205541 17.724,17.3375541 17.94,18.4025541 C18.117,19.5785541 16.623,20.4875541 15.657,19.7825541 C10.44,16.5215541 5.217,13.2725541 -7.46069873e-14,10.0145541 C5.19386777,6.74913657 10.399904,3.50311396 15.618,0.276554107 L15.615,0.270554107 Z"/>
      <path fill="#000" d="M19.623,6.11155411 C20.778,5.59855411 22.356,5.88055411 22.962,7.07455411 C23.856,8.84155411 23.832,11.0615541 23.007,12.8495541 C22.185,14.6645541 19.161,14.5805541 18.501,12.6695541 C17.667,10.5935541 17.589,7.49755411 19.62,6.10855411 L19.623,6.11155411 Z M20.505,7.19755411 C19.281,7.59055411 19.272,9.21355411 19.251,10.2785541 C19.227,11.4245541 19.785,13.3325541 21.312,12.7835541 C22.428,12.0005541 22.386,10.3835541 22.293,9.16255411 C22.236,8.22655411 21.669,6.88255411 20.505,7.20055411 L20.505,7.19755411 Z M24.63,6.00355411 L25.878,5.99455411 C26.871,7.68055411 27.804,9.40255411 28.797,11.0915541 C28.815,9.39355411 28.8,7.69855411 28.806,6.00055411 L30.06,6.00355411 C30.057,8.67355411 30.063,11.3405541 30.057,14.0135541 L28.941,14.0045541 C27.93,12.2045541 26.925,10.3985541 25.899,8.60455411 C25.89,10.4045541 25.899,12.2075541 25.893,14.0075541 L24.63,14.0075541 L24.63,6.00355411 L24.63,6.00355411 Z M31.218,6.01255411 C32.79,6.00955411 34.359,6.00955411 35.931,6.01555411 L35.928,7.28155411 L32.487,7.28455411 L32.487,9.23755411 L34.803,9.24055411 L34.806,10.5305541 L32.484,10.5335541 L32.484,12.7235541 L36.177,12.7265541 L36.174,14.0195541 L31.221,14.0165541 C31.215,11.3495541 31.218,8.67955411 31.218,6.00655411 L31.218,6.01255411 Z M40.17,6.00055411 L41.457,6.00055411 C41.673,7.38055411 41.841,8.76955411 42.078,10.1465541 C42.435,8.77255411 42.753,7.38955411 43.086,6.00955411 L44.319,5.99755411 C44.676,7.38055411 44.976,8.77555411 45.357,10.1525541 C45.576,8.77255411 45.771,7.38655411 45.978,6.00355411 L47.259,6.00055411 C46.866,8.67355411 46.482,11.3465541 46.083,14.0195541 C45.705,13.9925541 45.324,14.0135541 44.946,13.9835541 C44.5488585,12.2869727 44.1368427,10.5939076 43.71,8.90455411 C43.272,10.5995541 42.888,12.3065541 42.462,14.0075541 L41.37,14.0105541 C40.941,11.3435541 40.575,8.66755411 40.17,5.99755411 L40.17,6.00055411 Z M49.842,6.02155411 C50.268,6.00355411 50.694,6.00955411 51.123,5.99455411 C52.041,8.66155411 52.968,11.3315541 53.862,14.0075541 L52.524,14.0075541 L51.744,11.7725541 C50.9120027,11.7695541 50.0799973,11.7695541 49.248,11.7725541 L48.462,14.0105541 L47.121,14.0075541 C48.018,11.3405541 48.957,8.69155411 49.842,6.02455411 L49.842,6.02155411 Z M50.508,8.23855411 C50.232,8.98255411 49.965,9.72955411 49.701,10.4765541 L51.291,10.4765541 C51.0384945,9.72760925 50.7774776,8.98156098 50.508,8.23855411 L50.508,8.23855411 Z M52.548,6.00355411 L54.051,5.99755411 C54.705,7.02055411 55.326,8.06755411 55.968,9.09355411 C56.616,8.06755411 57.255,7.03255411 57.903,6.00655411 L59.388,6.00355411 C58.485,7.51855411 57.501,8.98555411 56.655,10.5335541 C56.559,11.6885541 56.646,12.8525541 56.616,14.0105541 L55.359,14.0135541 C55.317,12.8555541 55.41,11.6915541 55.317,10.5395541 C54.465,8.99155411 53.457,7.52755411 52.548,6.00655411 L52.548,6.00355411 Z"/>
      <path fill="#FFF" d="M20.505,7.19755411 C21.669,6.87955411 22.239,8.22355411 22.293,9.15955411 C22.386,10.3805541 22.428,11.9975541 21.312,12.7805541 C19.785,13.3295541 19.224,11.4245541 19.251,10.2755541 C19.272,9.21055411 19.281,7.58755411 20.505,7.19455411 L20.505,7.19755411 Z M50.508,8.23855411 C50.778,8.98255411 51.036,9.72955411 51.291,10.4765541 L49.701,10.4765541 C49.965,9.72955411 50.232,8.98255411 50.508,8.23855411 L50.508,8.23855411 Z"/>
    </g>
  </g>
</svg>
