<svg xmlns="http://www.w3.org/2000/svg" width="76" height="38" viewBox="0 0 76 38">
  <g fill="none" fill-rule="evenodd" transform="translate(.698 .727)">
    <rect width="75" height="36.362" fill="#000" rx="4.5"/>
    <rect width="72" height="32.655" x="1.5" y="1.853" fill="#FFF" rx="3"/>
    <path fill="#000" fill-rule="nonzero" d="M3.97903872,3.20719936 C4.69903872,2.99732074 5.44303872,3.10431768 6.17203872,3.08374135 L70.1800387,3.08374135 C71.3440387,2.89443907 72.4840387,4.23601609 72.4360387,5.86566181 C72.4570387,14.0180056 72.4420387,22.1703495 72.4420387,30.3226933 C72.5380387,31.89061 71.5570387,33.3638756 70.4020387,33.2898008 C48.4660387,33.2980313 26.5300387,33.2980313 4.59403872,33.2898008 C3.44203872,33.3597603 2.46103872,31.8864948 2.56303872,30.3268086 C2.55703872,22.2773464 2.56003872,14.2319995 2.56003872,6.18253736 C2.47303872,4.89857407 3.05503872,3.56111231 3.97903872,3.20719936 L3.97903872,3.20719936 Z"/>
    <text fill="#FFF" font-family="InterstateCompressed-Regular, Interstate Compressed" font-size="9" font-style="condensed">
      <tspan x="6.215" y="30.719">GENERIC TEXT</tspan>
    </text>
    <g fill-rule="nonzero" transform="translate(6 6)">
      <path fill="#FFF" d="M15.615,0.270554107 C16.542,-0.437445893 18.009,0.339554107 17.952,1.49755411 C17.775,2.61655411 17.304,3.65755411 17.016,4.74955411 C31.974,4.75555411 46.926,4.75255411 61.881,4.75255411 C61.89,8.25955411 61.884,11.7635541 61.884,15.2705541 C46.926,15.2735541 31.971,15.2675541 17.016,15.2735541 C17.307,16.3205541 17.724,17.3375541 17.94,18.4025541 C18.117,19.5785541 16.623,20.4875541 15.657,19.7825541 C10.44,16.5215541 5.217,13.2725541 -7.10542736e-14,10.0145541 C5.19386777,6.74913657 10.399904,3.50311396 15.618,0.276554107 L15.615,0.270554107 Z" transform="matrix(-1 0 0 1 61.886 0)"/>
      <path fill="#000" d="M4.623,6.11155411 C5.778,5.59855411 7.356,5.88055411 7.962,7.07455411 C8.856,8.84155411 8.832,11.0615541 8.007,12.8495541 C7.185,14.6645541 4.161,14.5805541 3.501,12.6695541 C2.667,10.5935541 2.589,7.49755411 4.62,6.10855411 L4.623,6.11155411 Z M5.505,7.19755411 C4.281,7.59055411 4.272,9.21355411 4.251,10.2785541 C4.227,11.4245541 4.785,13.3325541 6.312,12.7835541 C7.428,12.0005541 7.386,10.3835541 7.293,9.16255411 C7.236,8.22655411 6.669,6.88255411 5.505,7.20055411 L5.505,7.19755411 Z M9.63,6.00355411 L10.878,5.99455411 C11.871,7.68055411 12.804,9.40255411 13.797,11.0915541 C13.815,9.39355411 13.8,7.69855411 13.806,6.00055411 L15.06,6.00355411 C15.057,8.67355411 15.063,11.3405541 15.057,14.0135541 L13.941,14.0045541 C12.93,12.2045541 11.925,10.3985541 10.899,8.60455411 C10.89,10.4045541 10.899,12.2075541 10.893,14.0075541 L9.63,14.0075541 L9.63,6.00355411 L9.63,6.00355411 Z M16.218,6.01255411 C17.79,6.00955411 19.359,6.00955411 20.931,6.01555411 L20.928,7.28155411 L17.487,7.28455411 L17.487,9.23755411 L19.803,9.24055411 L19.806,10.5305541 L17.484,10.5335541 L17.484,12.7235541 L21.177,12.7265541 L21.174,14.0195541 L16.221,14.0165541 C16.215,11.3495541 16.218,8.67955411 16.218,6.00655411 L16.218,6.01255411 Z M25.17,6.00055411 L26.457,6.00055411 C26.673,7.38055411 26.841,8.76955411 27.078,10.1465541 C27.435,8.77255411 27.753,7.38955411 28.086,6.00955411 L29.319,5.99755411 C29.676,7.38055411 29.976,8.77555411 30.357,10.1525541 C30.576,8.77255411 30.771,7.38655411 30.978,6.00355411 L32.259,6.00055411 C31.866,8.67355411 31.482,11.3465541 31.083,14.0195541 C30.705,13.9925541 30.324,14.0135541 29.946,13.9835541 C29.5488585,12.2869727 29.1368427,10.5939076 28.71,8.90455411 C28.272,10.5995541 27.888,12.3065541 27.462,14.0075541 L26.37,14.0105541 C25.941,11.3435541 25.575,8.66755411 25.17,5.99755411 L25.17,6.00055411 Z M34.842,6.02155411 C35.268,6.00355411 35.694,6.00955411 36.123,5.99455411 C37.041,8.66155411 37.968,11.3315541 38.862,14.0075541 L37.524,14.0075541 L36.744,11.7725541 C35.9120027,11.7695541 35.0799973,11.7695541 34.248,11.7725541 L33.462,14.0105541 L32.121,14.0075541 C33.018,11.3405541 33.957,8.69155411 34.842,6.02455411 L34.842,6.02155411 Z M35.508,8.23855411 C35.232,8.98255411 34.965,9.72955411 34.701,10.4765541 L36.291,10.4765541 C36.0384945,9.72760925 35.7774776,8.98156098 35.508,8.23855411 L35.508,8.23855411 Z M37.548,6.00355411 L39.051,5.99755411 C39.705,7.02055411 40.326,8.06755411 40.968,9.09355411 C41.616,8.06755411 42.255,7.03255411 42.903,6.00655411 L44.388,6.00355411 C43.485,7.51855411 42.501,8.98555411 41.655,10.5335541 C41.559,11.6885541 41.646,12.8525541 41.616,14.0105541 L40.359,14.0135541 C40.317,12.8555541 40.41,11.6915541 40.317,10.5395541 C39.465,8.99155411 38.457,7.52755411 37.548,6.00655411 L37.548,6.00355411 Z"/>
      <path fill="#FFF" d="M5.505,7.19755411 C6.669,6.87955411 7.239,8.22355411 7.293,9.15955411 C7.386,10.3805541 7.428,11.9975541 6.312,12.7805541 C4.785,13.3295541 4.224,11.4245541 4.251,10.2755541 C4.272,9.21055411 4.281,7.58755411 5.505,7.19455411 L5.505,7.19755411 Z M35.508,8.23855411 C35.778,8.98255411 36.036,9.72955411 36.291,10.4765541 L34.701,10.4765541 C34.965,9.72955411 35.232,8.98255411 35.508,8.23855411 L35.508,8.23855411 Z"/>
    </g>
  </g>
</svg>
