<svg xmlns="http://www.w3.org/2000/svg" xmlns:xlink="http://www.w3.org/1999/xlink" version="1.1" width="1000" height="1000" viewBox="0 0 1000 1000" xml:space="preserve">
<desc>Created with Fabric.js 3.5.0</desc>
<defs>
</defs>
<rect x="0" y="0" width="100%" height="100%" fill="rgba(255,255,255,0)"/>
<g transform="matrix(0.943 0 0 0.943 499.9805 499.9935)" id="546464">
<g style="" vector-effect="non-scaling-stroke">
		<g transform="matrix(1 0 0 1 -0.4 -0.4)">
<rect style="stroke: none; stroke-width: 1; stroke-dasharray: none; stroke-linecap: butt; stroke-dashoffset: 0; stroke-linejoin: miter; stroke-miterlimit: 4; is-custom-font: none; font-file-url: none; fill: rgb(0,0,0); fill-rule: nonzero; opacity: 1;" x="-481.6" y="-161.6" rx="17.6" ry="17.6" width="963.2" height="323.2"/>
</g>
		<g transform="matrix(1 0 0 1 -0.4 -0.4)">
<rect style="stroke: none; stroke-width: 1; stroke-dasharray: none; stroke-linecap: butt; stroke-dashoffset: 0; stroke-linejoin: miter; stroke-miterlimit: 4; is-custom-font: none; font-file-url: none; fill: rgb(255,255,255); fill-rule: nonzero; opacity: 1;" x="-480" y="-160" rx="16" ry="16" width="960" height="320"/>
</g>
		<g transform="matrix(1 0 0 1 -0.4 -0.4)">
<rect style="stroke: none; stroke-width: 1; stroke-dasharray: none; stroke-linecap: butt; stroke-dashoffset: 0; stroke-linejoin: miter; stroke-miterlimit: 4; is-custom-font: none; font-file-url: none; fill: rgb(0,63,135); fill-rule: nonzero; opacity: 1;" x="-468.8" y="-148.8" rx="4.8" ry="4.8" width="937.6" height="297.6"/>
</g>
		<g transform="matrix(1 0 0 1 -4.4 -0.3986)">
<path style="stroke: none; stroke-width: 1; stroke-dasharray: none; stroke-linecap: butt; stroke-dashoffset: 0; stroke-linejoin: miter; stroke-miterlimit: 4; is-custom-font: none; font-file-url: none; fill: rgb(255,255,255); fill-rule: nonzero; opacity: 1;" transform=" translate(-477.6, -161.6014)" d="M 53.5999904 161.60232 L 242.576576 31.3108744 C 249.948208 26.4459144 259.63804 26.9915944 266.416824 32.6535144 C 273.1956 38.3154344 275.458536 47.7531144 271.984392 55.8733544 L 253.600016 98.802872 L 901.59999 98.802872 L 901.59999 224.402328 L 253.600016 224.402328 L 271.984392 267.327288 C 275.459752 275.447768 273.197336 284.886408 266.418232 290.548968 C 259.639136 296.211448 249.94848 296.757128 242.576576 291.891368 L 53.5999904 161.60232 Z" stroke-linecap="round"/>
</g>
		<g transform="matrix(1 0 0 1 95.6005 -1.6002)">
<path style="stroke: none; stroke-width: 1; stroke-dasharray: none; stroke-linecap: butt; stroke-dashoffset: 0; stroke-linejoin: miter; stroke-miterlimit: 4; is-custom-font: none; font-file-url: none; fill: rgb(0,0,0); fill-rule: nonzero; opacity: 1;" transform=" translate(-577.6005, -160.3999)" d="M 291.811712 145.241904 C 288.312776 145.241904 285.496 148.058704 285.496 151.557664 L 285.496 198.926016 C 285.496 201.438617 286.494087 203.848317 288.270762 205.624997 C 290.047437 207.401677 292.457135 208.399776 294.969736 208.399776 C 297.482337 208.399776 299.892035 207.401677 301.66871 205.624997 C 303.445385 203.848317 304.443472 201.438617 304.443472 198.926016 C 304.438243 194.915666 301.908464 191.34308 298.127424 190.006416 L 298.127424 151.557664 C 298.127424 148.058704 295.310656 145.241904 291.811712 145.241904 L 291.811712 145.241904 z M 335.640688 114.926224 C 335.122408 114.934224 334.270128 114.980624 334.125008 114.989424 C 323.13064 115.659424 318.077104 122.731344 317.07248 130.715584 C 335.5366 128.072944 353.49116 132.742704 363.180032 135.136704 C 360.921424 130.398624 354.464496 121.679664 347.388296 117.831504 C 345.599192 116.886704 342.692592 115.275344 337.283024 114.989424 C 337.089784 114.978224 336.167936 114.926224 335.640688 114.926224 L 335.640688 114.926224 z M 335.07248 122.063104 C 338.735056 122.121504 340.532072 122.813104 341.299736 123.035664 C 344.96372 124.251984 346.919672 125.818544 348.335432 126.989424 C 344.702456 125.545264 340.218512 124.886064 335.4514 124.652544 C 334.112384 124.581344 328.808352 124.480944 326.230272 124.993584 C 327.378488 123.807984 329.833496 122.173584 335.07248 122.063104 L 335.07248 122.063104 z M 341.959016 145.241824 C 341.959016 145.241824 348.5444 145.252224 353.074704 146.555504 C 358.37264 148.239264 363.180016 151.848464 363.180016 162.925904 L 363.180016 202.083616 C 363.180016 205.582496 360.36292 208.39975 356.863992 208.39975 C 353.365048 208.39975 350.54828 205.582496 350.54828 202.083616 L 350.548608 161.662784 C 350.465856 155.944384 346.812808 154.977504 343.727304 154.904864 L 336.527448 154.904864 C 333.441944 154.977664 329.789216 155.944464 329.70648 161.662784 L 329.70616 188.441696 C 330.545024 187.580736 331.909224 186.335936 333.527384 183.262736 C 333.527384 183.262736 334.202736 181.963856 334.820792 180.117768 C 333.180791 178.704804 332.236193 176.648579 332.232656 174.483848 C 332.232688 172.507281 333.017912 170.611683 334.415585 169.214068 C 335.813258 167.816453 337.708889 167.031308 339.685456 167.031358 C 343.801324 167.031426 347.137877 170.36798 347.137944 174.483848 C 347.137445 174.6714 347.129866 174.858867 347.115224 175.045848 C 347.050584 176.754568 347.0232 176.996168 346.380192 179.264968 C 345.699544 181.531696 344.358952 184.210176 344.358952 184.210176 C 339.016824 195.290336 330.236944 204.711296 330.236944 204.711296 C 328.84792 206.374336 327.576296 207.272976 326.674912 207.768096 C 325.769416 208.188576 325.00748 208.405936 323.390584 208.39975 C 319.891648 208.388416 317.07488 205.582496 317.07488 202.083616 L 317.07488 162.925904 C 317.07488 151.848464 321.882256 148.239264 327.18012 146.555504 C 331.710432 145.251904 338.29588 145.241824 338.29588 145.241824 L 341.959016 145.241824 z M 384.96932 145.241744 C 379.56284 145.241744 375.179984 149.624544 375.179984 155.031024 C 375.183984 159.339504 378.004424 163.138704 382.12724 164.389585 L 382.12724 202.083456 C 382.12724 205.582416 384.944008 208.399715 388.442952 208.399715 C 390.04564 208.369136 391.194408 208.005216 392.864048 206.062656 C 395.368448 203.081456 396.7406 201.725456 399.17976 199.873296 C 400.276544 199.100496 404.101384 196.289936 408.653496 195.515216 L 408.653496 197.031136 C 408.653488 203.055616 413.353056 208.033776 419.367456 208.380576 C 425.381848 208.727376 430.622696 204.322096 431.315128 198.337616 C 432.007528 192.353216 427.911176 186.867696 421.976504 185.831936 L 421.28524 185.726096 L 421.28524 151.557744 C 421.28524 148.058784 418.468136 145.241744 414.969208 145.241744 C 411.470264 145.241744 408.653496 148.058784 408.653496 151.557744 L 408.653496 185.347216 C 405.510368 185.456576 400.495624 186.514176 394.758664 191.347376 L 394.758992 155.031024 C 394.758928 149.624464 390.375928 145.241744 384.96932 145.241744 L 384.96932 145.241744 z M 421.28524 195.136576 C 422.33172 195.136656 423.179976 195.984976 423.179864 197.031456 C 423.1798 198.077776 422.331584 198.926096 421.28524 198.926176 L 421.28524 195.136576 z M 471.813352 175.305048 L 471.813352 198.926016 C 471.813352 204.158256 467.571856 208.399776 462.339632 208.399776 C 457.107448 208.399776 452.86584 204.158256 452.865896 198.926016 C 452.872296 194.915696 455.400928 191.343136 459.181928 190.006496 L 459.181928 177.010248 C 459.188328 174.475128 457.859968 171.838008 451.4134 170.037688 C 444.403336 168.483288 436.880112 169.089768 434.007136 169.557848 C 433.895272 167.908968 433.918704 165.768235 433.918704 165.768235 C 433.940784 160.657664 435.0486 154.536384 437.872384 150.799824 C 441.44124 146.173664 447.187136 145.271664 450.541824 145.241904 C 456.224248 145.252304 461.385752 147.466544 464.297576 147.831424 C 466.887056 148.202384 468.716784 147.747344 469.740952 145.380864 C 470.538312 146.552704 471.783784 147.956704 471.813352 151.178784 C 471.543664 154.347024 469.287032 156.142944 469.287032 156.142944 C 466.728456 158.332944 464.120736 158.088224 464.120736 158.088224 C 461.562536 158.233824 455.818968 154.587104 449.922872 154.841904 C 445.094464 155.242544 444.506344 158.988864 444.339736 160.801344 C 448.803096 160.849344 453.223184 160.900704 458.9418 162.357664 C 466.376792 164.347585 471.752336 168.427688 471.813352 175.305048 L 471.813352 175.305048 z M 509.074224 145.241658 C 505.240464 145.233904 503.432088 145.421824 501.64688 145.684144 C 494.45112 146.779184 491.549976 149.890704 489.570288 151.860864 C 488.992232 152.445264 487.128448 154.659504 485.579688 157.368144 C 487.176112 156.936304 490.599448 158.099744 492.084704 160.879984 C 489.318232 161.697264 487.600608 164.355905 487.600608 165.578785 L 487.600608 198.610416 C 487.60068 204.016896 491.983472 208.399776 497.389952 208.399776 C 502.796544 208.399776 507.179552 204.017056 507.179616 198.610416 C 507.178016 194.299376 504.357416 190.496496 500.232032 189.245056 L 500.232032 165.768475 C 500.232032 163.687984 503.698576 161.552384 505.44884 161.536624 C 504.378312 159.187664 503.1036 158.271024 501.987944 157.595664 C 502.521056 156.949984 504.749736 154.866064 509.074224 154.804144 C 513.972752 154.804144 517.9164 157.339184 517.9164 160.488304 L 517.9164 202.084016 C 517.9164 205.582976 520.733176 208.399776 524.232136 208.399776 C 527.73108 208.399776 530.547912 205.582976 530.547912 202.084016 L 530.547912 158.505264 C 530.547912 148.495824 518.22492 145.241658 509.074224 145.241658 z M 552.337656 145.241584 C 546.93104 145.241584 542.54796 149.624384 542.54796 155.030944 C 542.54796 159.341984 545.37016 163.144864 549.49556 164.396305 L 549.49556 202.083696 C 549.49556 205.582656 552.312336 208.400016 555.811264 208.400016 L 555.811264 208.400016 C 559.310208 208.400016 562.126976 205.582976 562.126976 202.084016 L 562.126976 190.968336 C 562.181936 189.761456 563.087416 185.223296 567.052968 178.551368 C 569.60612 174.024968 574.993664 166.871038 578.093 163.747184 C 578.31064 163.527504 579.423736 162.427744 579.962472 161.915584 C 580.08664 161.795104 580.1676 161.717184 580.31628 161.631264 C 580.48384 161.542144 580.617984 161.533904 580.733056 161.600064 C 580.842064 161.656864 581.069312 161.778944 581.074112 162.168464 L 581.074112 202.083936 C 581.074112 205.582896 583.89088 208.400016 587.389824 208.400016 C 590.888752 208.400016 593.705528 205.582896 593.705528 202.083936 L 593.705528 153.452864 C 593.651208 151.580064 593.539928 145.267024 588.558232 145.242224 C 586.808768 145.269424 584.692792 145.947824 581.490888 148.021264 C 576.808376 151.245824 573.60464 155.081104 569.857232 159.768224 L 562.126976 170.126168 L 562.126976 155.031264 C 562.12692 149.624704 557.744152 145.241584 552.337656 145.241584 L 552.337656 145.241584 z M 622.126704 158.820944 L 622.126704 202.084016 C 622.126704 205.582896 624.943504 208.399776 628.442464 208.399776 C 631.941424 208.399776 634.758224 205.582896 634.758224 202.084016 L 634.758224 158.820944 C 634.744624 150.072864 626.362304 145.223104 617.768816 145.242088 L 616.663552 145.242088 C 611.76308 145.242088 607.530312 146.703904 604.884632 148.368384 C 604.006432 148.931184 603.009792 149.708304 602.168856 150.673664 C 601.319632 151.561424 600.029128 153.790464 600.021488 155.536864 C 600.029728 157.032944 600.720144 157.999824 601.309904 158.593664 C 601.57384 158.892944 601.983488 159.235584 602.320432 159.326304 C 602.273072 159.198624 602.377232 158.999984 602.446744 158.833664 C 602.804032 158.085984 603.309792 157.293904 604.297272 156.357904 C 605.278424 155.349824 607.100592 154.170864 607.86568 153.844224 C 609.19332 153.280224 610.15704 152.751664 612.867768 152.757904 C 614.814544 152.723504 617.143232 153.154864 618.501424 153.831584 C 619.742704 154.447504 621.977984 155.750144 622.126704 158.820944 L 622.126704 158.820944 z M 665.073904 145.241904 C 670.306064 145.241904 674.547584 149.483504 674.547584 154.715664 L 674.547584 202.083696 C 674.547584 206.152176 670.401744 208.398496 667.852864 208.399776 C 664.749984 208.390176 662.879984 206.196176 661.663424 204.951296 C 659.238784 202.076096 652.868144 189.467056 651.507664 186.926096 C 650.635664 185.237136 649.007264 182.281296 646.252944 178.462888 C 645.590784 177.550088 643.551264 174.879688 642.261424 173.296648 C 641.536704 172.321928 641.289824 172.093928 641.073984 171.578728 C 641.455424 171.169608 642.751024 170.162168 644.737184 170.176648 C 645.632704 170.187848 646.541824 170.345528 647.945584 170.972408 C 648.959504 171.416968 650.740144 172.434168 652.821344 174.395528 C 654.464864 175.916648 656.604224 178.273288 658.492944 181.052416 C 659.631024 182.802016 660.723264 184.395056 661.916224 187.178656 L 661.916224 163.636864 C 658.134624 162.299984 655.604704 158.726624 655.600144 154.715664 C 655.600064 149.483504 659.841664 145.241904 665.073904 145.241904 z M 762.210624 112.399744 C 765.429584 112.399744 768.021104 114.991504 768.021104 118.210544 L 768.021104 135.136784 C 758.332224 132.742784 740.377664 128.073024 721.913504 130.715664 C 722.918144 122.731424 727.971664 115.659504 738.966064 114.989504 C 739.111184 114.980704 739.963424 114.926304 740.481744 114.926304 C 741.009024 114.926304 741.930864 114.978304 742.124064 114.989504 C 747.533664 115.275504 750.440224 116.886784 752.229344 117.831584 C 753.654784 118.606784 755.054144 119.581744 756.400064 120.679904 L 756.400064 118.210544 C 756.400064 114.991504 758.991584 112.399744 762.210624 112.399744 z M 739.913504 122.063104 C 734.674544 122.173584 732.219504 123.807984 731.071344 124.993584 C 733.649424 124.480944 738.953424 124.581504 740.292464 124.652544 C 745.059584 124.886064 749.543504 125.545264 753.176464 126.989424 C 751.760704 125.818544 749.804784 124.251984 746.140784 123.035664 C 745.373104 122.813104 743.576064 122.121824 739.913504 122.063104 L 739.913504 122.063104 z M 820.442 145.241904 C 823.94096 145.241904 826.75776 148.058704 826.75776 151.557664 L 826.75776 195.136416 C 826.75776 197.808576 825.83896 202.508496 822.1724 205.241776 C 818.06232 208.299056 810.976 208.399776 807.17872 208.399776 L 803.38952 208.399776 C 799.59216 208.399776 792.505904 208.299056 788.395744 205.241776 C 784.729184 202.508496 783.810464 197.808576 783.810464 195.136416 L 783.810464 182.379056 C 783.810464 181.242816 784.297184 178.346488 785.679904 176.795768 C 785.679904 176.795768 786.811584 175.212088 790.126144 174.073768 C 786.811584 172.935448 785.679904 171.351448 785.679904 171.351448 C 784.297184 169.800728 783.810464 166.904718 783.810464 165.768475 L 783.810464 155.031264 C 783.810464 149.624784 788.193264 145.241904 793.599744 145.241904 C 799.0064 145.241904 803.38944 149.624624 803.38952 155.031264 C 803.38952 159.342224 800.56744 163.145024 796.442224 164.396625 L 796.442224 166.399675 C 796.520624 168.199288 797.953744 170.427928 799.59992 171.642248 C 801.2188 172.765768 803.7 173.325128 805.19304 173.347208 C 805.59392 173.347688 805.91872 173.672808 805.91856 174.073768 C 805.91864 174.474728 805.59392 174.799448 805.19304 174.799928 C 803.7 174.822328 801.2188 175.381768 799.59992 176.505288 C 797.953744 177.719608 796.520544 179.947848 796.442224 181.747536 L 796.441904 195.136416 C 796.441904 198.245776 800.44464 200.203616 805.28408 200.189136 C 810.12352 200.203536 814.12624 198.245776 814.12624 195.136416 L 814.12624 151.557664 C 814.12632 148.058704 816.94312 145.241904 820.442 145.241904 z M 869.70504 159.010304 L 869.70504 198.610416 C 869.70504 204.016896 865.32224 208.399776 859.91576 208.399776 C 854.50912 208.399776 850.12608 204.017056 850.126 198.610416 C 850.126 194.299376 852.94832 190.496496 857.07359 189.245056 L 857.07359 159.010304 C 857.0568 158.531984 856.4688 155.602304 853.00616 154.046464 C 850.678 152.945664 848.07568 152.828224 847.27144 152.808544 C 844.60608 152.739744 843.57192 153.016784 841.96616 153.642224 C 839.3564 154.746384 837.57496 156.382224 836.9388 157.059024 C 835.87976 158.269664 835.68256 158.739024 835.47352 159.389584 C 835.09328 159.301184 833.06848 157.913424 833.07359 155.536944 C 833.07359 155.536944 833.1208 154.089504 834.24832 152.151664 C 834.43608 151.846304 835.30824 150.527424 836.87568 149.322224 C 838.16712 148.313904 840.3064 147.051824 843.88616 146.113824 C 845.53912 145.730384 847.69208 145.245584 851.19984 145.242224 C 853.81264 145.263824 859.75688 145.544464 864.77872 149.195904 C 869.6764 152.811424 869.6836 157.739344 869.70504 159.010304 z M 696.652784 145.241904 C 693.153824 145.241904 690.337024 148.058704 690.337024 151.557664 L 690.337024 198.926016 C 690.337024 201.438622 691.335114 203.848325 693.111795 205.625005 C 694.888475 207.401686 697.298178 208.399776 699.810784 208.399776 C 702.32339 208.399776 704.733093 207.401686 706.509773 205.625005 C 708.286454 203.848325 709.284544 201.438622 709.284544 198.926016 C 709.279311 194.915658 706.749516 191.34307 702.968464 190.006416 L 702.968464 151.557664 C 702.968464 148.058704 700.151744 145.241904 696.652784 145.241904 L 696.652784 145.241904 z" stroke-linecap="round"/>
</g>
		<g transform="matrix(1 0 0 1 247.179 14.8208)">
<path style="stroke: none; stroke-width: 1; stroke-dasharray: none; stroke-linecap: butt; stroke-dashoffset: 0; stroke-linejoin: miter; stroke-miterlimit: 4; is-custom-font: none; font-file-url: none; fill: rgb(0,0,0); fill-rule: nonzero; opacity: 1;" transform=" translate(-729.1791, -176.8209)" d="M 696.652784 145.241904 C 693.153824 145.241904 690.337024 148.058704 690.337024 151.557664 L 690.337024 198.926016 C 690.337024 201.438622 691.335114 203.848325 693.111795 205.625005 C 694.888475 207.401686 697.298178 208.399776 699.810784 208.399776 C 702.32339 208.399776 704.733093 207.401686 706.509773 205.625005 C 708.286454 203.848325 709.284544 201.438622 709.284544 198.926016 C 709.279311 194.915658 706.749516 191.34307 702.968464 190.006416 L 702.968464 151.557664 C 702.968464 148.058704 700.151744 145.241904 696.652784 145.241904 L 696.652784 145.241904 z M 746.800064 145.241824 C 746.800064 145.241824 753.385424 145.252224 757.915744 146.555504 C 763.213664 148.239264 768.021104 151.848464 768.021104 162.925904 L 768.021104 202.083616 C 768.021104 205.582496 765.203984 208.39975 761.705024 208.39975 C 758.206064 208.39975 755.389344 205.582496 755.389344 202.083616 L 755.389664 161.662784 C 755.306944 155.944384 751.653904 154.977504 748.568384 154.904864 L 741.368464 154.904864 C 738.283024 154.977664 734.630304 155.944464 734.547504 161.662784 L 734.547184 188.441696 C 735.386064 187.580736 736.750304 186.335936 738.368464 183.262736 C 738.368464 183.262736 739.043744 181.963856 739.661824 180.117768 C 738.021844 178.704793 737.077267 176.64857 737.073744 174.483848 C 737.073776 172.507281 737.859 170.611683 739.256673 169.214068 C 740.654346 167.816453 742.549977 167.031308 744.526544 167.031358 C 748.642409 167.031431 751.978957 170.367983 751.979024 174.483848 C 751.978632 174.671396 751.97116 174.858863 751.956624 175.045848 C 751.891824 176.754568 751.864544 176.996168 751.221584 179.264968 C 750.540944 181.531696 749.200304 184.210176 749.200304 184.210176 C 743.858224 195.290336 735.078304 204.711296 735.078304 204.711296 C 733.689264 206.374336 732.417664 207.272976 731.516304 207.768096 C 730.610784 208.188576 729.848864 208.405936 728.231984 208.39975 C 724.733024 208.388416 721.916224 205.582496 721.916224 202.083616 L 721.916224 162.925904 C 721.916224 151.848464 726.723664 148.239264 732.021504 146.555504 C 736.551824 145.251904 743.137264 145.241824 743.137264 145.241824 L 746.800064 145.241824 z" stroke-linecap="round"/>
</g>
</g>
</g>
<g transform="matrix(1 0 0 1 500 591.2525)" style="" id="251187">
		
<path xml:space="preserve" font-family="Abhaya Libre" font-size="108" font-style="normal" font-weight="bold" style="stroke: none; stroke-width: 1; stroke-dasharray: none; stroke-linecap: butt; stroke-dashoffset: 0; stroke-linejoin: miter; stroke-miterlimit: 4; is-custom-font: none; font-file-url: none; fill: rgb(0,0,0); fill-rule: nonzero; opacity: 1; white-space: pre;" d="M-26.37-29.35L-26.37-26.51L-17.72-26.51L-17.72 16.31L-55.90-29.35L-72.67-29.35L-72.67-26.51L-64.23-26.51L-64.23 31.08L-72.67 31.08L-72.67 33.93L-50.94 33.93Q-51.57 31.29-53.79 31.08L-53.79 31.08L-59.91 31.08L-59.91-14.38L-18.98 34.45L-13.39 33.40L-13.39-26.51L-4.96-26.51L-4.96-29.35L-26.37-29.35ZM69.82 16.63L69.82 16.63Q69.82 7.67 59.91 1.55L59.91 1.55Q58.43 0.70 48.52-4.15L48.52-4.15Q39.45-8.68 37.23-13.01L37.23-13.01Q36.07-15.33 36.07-17.75L36.07-17.75Q36.07-24.08 42.19-26.40L42.19-26.40Q44.61-27.35 47.36-27.35L47.36-27.35Q56.00-27.35 60.43-21.13L60.43-21.13Q63.39-16.91 63.39-11.11L63.39-11.11L67.18-11.11L67.18-29.99Q64.23-29.99 63.81-27.98L63.81-27.98Q63.70-27.24 63.70-26.30L63.70-26.30Q55.37-30.41 45.77-30.41L45.77-30.41Q33.54-30.41 27.11-23.87L27.11-23.87Q22.89-19.55 22.89-13.64L22.89-13.64Q22.89-4.78 32.80 1.23L32.80 1.23Q34.38 2.08 44.40 7.03L44.40 7.03Q53.68 11.57 55.90 16.00L55.90 16.00Q57.06 18.21 57.06 20.64L57.06 20.64Q57.06 28.02 50.20 30.76L50.20 30.76Q47.46 31.92 44.09 31.92L44.09 31.92Q31.54 31.92 27.53 19.58L27.53 19.58Q26.47 16.10 26.16 11.99L26.16 11.99L22.36 11.99L22.36 34.14Q25.00 34.14 25.52 32.56L25.52 32.56Q25.73 31.61 25.73 29.60L25.73 29.60Q33.96 34.98 45.04 34.98L45.04 34.98Q58.01 34.98 64.97 28.23L64.97 28.23Q69.82 23.49 69.82 16.63Z"/></g>
</svg>