<?xml version="1.0" encoding="UTF-8" standalone="no"?>
<svg xmlns:dc="http://purl.org/dc/elements/1.1/" xmlns:cc="http://creativecommons.org/ns#" xmlns:rdf="http://www.w3.org/1999/02/22-rdf-syntax-ns#" xmlns:svg="http://www.w3.org/2000/svg" xmlns="http://www.w3.org/2000/svg" xmlns:sodipodi="http://sodipodi.sourceforge.net/DTD/sodipodi-0.dtd" xmlns:inkscape="http://www.inkscape.org/namespaces/inkscape" sodipodi:docname="Jordan_road_sign_M٤.svg" inkscape:version="1.0 (4035a4fb49, 2020-05-01)" id="svg18629" version="1.1" viewBox="0 0 134.29165 134.29169" height="134.29169mm" width="134.29166mm">
  <defs id="defs18623"/>
  <sodipodi:namedview inkscape:window-maximized="0" inkscape:window-y="0" inkscape:window-x="32" inkscape:window-height="1030" inkscape:window-width="1424" showgrid="false" inkscape:document-rotation="0" inkscape:current-layer="layer1" inkscape:document-units="mm" inkscape:cy="381.4216" inkscape:cx="65.028595" inkscape:zoom="0.83000073" inkscape:pageshadow="2" inkscape:pageopacity="0.0" borderopacity="1.0" bordercolor="#666666" pagecolor="#ffffff" id="base"/>
  <metadata id="metadata18626">
    <rdf:RDF>
      <cc:Work rdf:about="">
        <dc:format>image/svg+xml</dc:format>
        <dc:type rdf:resource="http://purl.org/dc/dcmitype/StillImage"/>
        <dc:title/>
      </cc:Work>
    </rdf:RDF>
  </metadata>
  <g transform="translate(-238.73442,-56.14107)" id="layer1" inkscape:groupmode="layer" inkscape:label="Layer 1">
    <path id="path1244-1" style="opacity:1;fill:#0000ff;fill-opacity:1;fill-rule:evenodd;stroke:none;stroke-width:2;stroke-linecap:round;stroke-miterlimit:4;stroke-dasharray:none;stroke-opacity:1;paint-order:stroke markers fill" d="m 239.73442,123.28691 a 66.145836,66.145836 0 0 0 66.14585,66.14584 66.145836,66.145836 0 0 0 66.14581,-66.14584 66.145836,66.145836 0 0 0 -66.14581,-66.14584 66.145836,66.145836 0 0 0 -66.14585,66.14584"/>
    <path id="path19-3" style="opacity:1;fill:#ffffff;fill-opacity:1;fill-rule:nonzero;stroke:none;stroke-width:2.64586" d="m 295.70074,92.444975 c 0.54999,-0.01619 1.1069,0.04463 1.65572,0.182745 l 0.005,2.64e-4 3.58643,0.91208 0.9819,0.24937 -0.49905,1.963729 -0.98186,-0.24937 -3.57244,-0.908222 -0.0162,-0.0045 c -1.59098,-0.40195 -3.2675,0.195453 -4.24624,1.513372 -0.97805,1.318053 -1.06541,3.095754 -0.21978,4.502847 l -2.46384,6.09906 h 33.01161 l 1.8944,-4.25496 c -2.39868,-1.0489 -4.74911,-2.20511 -7.04408,-3.464664 -0.53382,-0.279548 -0.80287,-0.892066 -0.64684,-1.474417 0.15633,-0.582001 0.69531,-0.977826 1.29742,-0.952092 4.37569,-0.01619 8.75134,0.05083 13.12476,0.196664 0.8329,0.0046 1.55099,0.585997 1.7261,1.400289 0.17527,0.814261 -0.23993,1.640536 -0.99757,1.98594 l -5.28711,2.40915 -1.93178,4.33888 5.20754,9.02024 c 2.64494,-1.32306 5.56259,-2.0119 8.5196,-2.0119 5.2628,0 10.29115,2.17728 13.89174,6.01515 3.60095,3.83898 5.45271,8.99599 5.11664,14.24763 l -0.79782,-0.0601 c -0.59434,9.36869 -8.19986,16.75744 -17.5821,17.08036 -9.38221,0.32292 -17.47864,-6.5255 -18.71609,-15.8311 l -3.42247,0.22422 5.3e-4,2.7e-4 c -0.20434,1.91004 -1.36093,3.58664 -3.0739,4.4563 l 1.3651,4.46438 h 1.80188 v 2.02655 h -5.16695 v -2.02655 h 1.24601 l -1.18756,-3.88467 c -2.05289,0.22735 -4.06748,-0.67766 -5.26005,-2.36426 -1.19184,-1.68663 -1.37227,-3.8883 -0.47202,-5.74723 l -20.01027,-17.39486 -1.10634,2.73995 c 8.19495,6.2989 9.87016,17.98466 3.77535,26.3323 l -0.64735,-0.47039 c -5.09669,6.98002 -14.3917,9.42608 -22.26467,5.86036 -7.87288,-3.56612 -12.16419,-12.166 -10.27928,-20.6008 1.88537,-8.43434 9.42982,-14.39017 18.07144,-14.26521 v -0.8 c 3.40084,0.0473 6.72688,1.004 9.63247,2.77078 l 6.46478,-16.00038 c -0.80153,-2.118342 -0.3597,-4.506577 1.14801,-6.197037 1.12994,-1.267888 2.71862,-1.985621 4.36861,-2.031367 z m 26.33876,16.289015 h -32.9282 l -1.77162,4.38592 20.40707,17.73964 c 0.38017,-0.36088 0.80826,-0.66683 1.27248,-0.91045 l -1.3142,-4.29551 h -1.46196 v -2.02704 h 5.16642 v 2.02704 h -1.58482 l 1.12855,3.69092 c 0.6249,-0.0781 1.25896,-0.051 1.87497,0.0791 z m 2.0195,0.44654 -0.22473,0.50555 -9.12967,20.50499 c 1.21004,0.77281 2.08294,1.97464 2.44231,3.36507 l 2.61647,-0.17125 c -0.0291,-1.25954 0.0667,-2.51852 0.28688,-3.75916 0.92735,-5.23373 3.99908,-9.84226 8.4736,-12.71174 z m -50.12983,8.49846 c -4.79732,-0.0292 -9.52559,2.19869 -12.5196,6.37947 -4.79048,6.68884 -3.41908,15.97081 3.10093,20.98887 6.51963,5.01847 15.84323,3.96746 21.0836,-2.37562 5.23999,-6.34312 4.51153,-15.6971 -1.64762,-21.15239 l -3.2747,8.1061 v -0.002 h -2.7e-4 c -1.13373,2.75648 -3.87062,4.51024 -6.84871,4.38862 -0.36113,0 -0.69472,-0.19303 -0.87471,-0.50609 -0.18013,-0.31324 -0.17953,-0.6983 0.005,-1.00998 0.18154,-0.31249 0.51565,-0.50387 0.87688,-0.50231 2.03083,0.11905 3.93647,-0.98769 4.83787,-2.81137 l 3.61407,-8.94613 c -2.56879,-1.70899 -5.47183,-2.53929 -8.35021,-2.55699 z m 64.64509,0.002 c -2.16915,0.0321 -4.3514,0.5267 -6.3951,1.51127 l 6.68468,11.57829 c 1.01251,0.0278 1.87333,0.74865 2.07579,1.74183 0.20249,0.99243 -0.30636,1.99365 -1.227,2.41573 -0.92118,0.422 -2.01167,0.15288 -2.63116,-0.6485 l -13.38348,0.87741 c 0.95438,6.53051 5.99804,11.70827 12.50064,12.83464 6.50297,1.12715 12.99354,-2.05225 16.09036,-7.88035 3.09642,-5.82853 2.09714,-12.98666 -2.47682,-17.74454 -3.00138,-3.12237 -7.09671,-4.74715 -11.23791,-4.68578 z m -8.15859,2.50988 c -4.34899,2.86064 -6.9411,7.74062 -6.87683,12.94614 l 13.19565,-0.86495 0.30799,-0.60353 z"/>
  </g>
</svg>