<svg width="180" height="228" viewBox="0 0 180 228" fill="none" xmlns="http://www.w3.org/2000/svg">
<rect x="4.5" y="4.5" width="171" height="219" rx="7.5" fill="white" stroke="black" stroke-width="9"/>
<rect x="1.5" y="1.5" width="177" height="225" rx="10.5" stroke="white" stroke-width="3"/>
<path d="M50.6986 91.44C50.6986 85.14 48.9586 81.36 43.1986 76.68C39.8986 73.8 39.0586 72.48 39.0586 69.54C39.0586 66.96 39.4786 66.12 40.6786 66.12C41.7586 66.12 42.2986 66.84 42.6586 71.76L50.3986 70.2C49.6186 63.24 47.0386 59.34 40.6786 59.34C34.4386 59.34 31.2586 63.9 31.2586 70.56C31.2586 75.36 32.7586 79.02 38.2186 83.46C41.5786 86.52 42.6586 88.14 42.6586 92.16C42.6586 94.98 42.2386 95.88 40.9186 95.88C39.7786 95.88 39.2986 94.8 38.8786 89.22L30.9586 90.72C31.5586 97.86 33.8386 102.66 40.8586 102.66C47.2186 102.66 50.6986 98.28 50.6986 91.44ZM65.7923 94.92C64.8323 95.4 64.2323 95.64 63.1523 95.64C62.1923 95.64 61.6523 94.92 61.6523 93.48V77.34H65.4923V70.5H61.6523V58.26L54.1523 61.08V70.5H51.9323V77.34H54.1523V95.82C54.1523 100.5 56.4923 102.66 60.5123 102.66C62.2523 102.66 63.6323 102.36 65.1323 101.76L65.7923 94.92ZM82.3411 70.26C81.6811 70.02 81.2011 69.84 79.7611 69.84C78.1411 69.84 76.8811 70.74 75.8611 72.06V70.5H68.1811V102H75.8611V78.3C76.5811 77.52 77.4811 77.22 78.5611 77.22C79.8211 77.22 80.6011 77.52 81.6211 78.3L82.3411 70.26ZM101.474 88.5C101.474 87.96 101.474 86.52 101.474 86.16C101.474 75.3 98.6541 69.84 92.4741 69.84C85.5141 69.84 83.0541 75.72 83.0541 86.46C83.0541 96.96 85.9341 102.66 92.1141 102.66C97.8741 102.66 99.8541 98.82 101.294 93.36L94.5141 91.62C93.7941 95.46 93.4341 96.36 92.4141 96.36C91.1541 96.36 90.5541 95.1 90.4941 88.5H101.474ZM94.1541 83.04H90.4941C90.6741 77.04 91.1541 75.84 92.3541 75.84C93.5541 75.84 94.0341 77.46 94.1541 83.04ZM122.158 88.5C122.158 87.96 122.158 86.52 122.158 86.16C122.158 75.3 119.338 69.84 113.158 69.84C106.198 69.84 103.738 75.72 103.738 86.46C103.738 96.96 106.618 102.66 112.798 102.66C118.558 102.66 120.538 98.82 121.978 93.36L115.198 91.62C114.478 95.46 114.118 96.36 113.098 96.36C111.838 96.36 111.238 95.1 111.178 88.5H122.158ZM114.838 83.04H111.178C111.358 77.04 111.838 75.84 113.038 75.84C114.238 75.84 114.718 77.46 114.838 83.04ZM137.745 94.92C136.785 95.4 136.185 95.64 135.105 95.64C134.145 95.64 133.605 94.92 133.605 93.48V77.34H137.445V70.5H133.605V58.26L126.105 61.08V70.5H123.885V77.34H126.105V95.82C126.105 100.5 128.445 102.66 132.465 102.66C134.205 102.66 135.585 102.36 137.085 101.76L137.745 94.92ZM63.5756 168V126H55.8956V132.78C55.8956 137.04 56.0756 143.1 56.2556 145.86C55.5956 142.98 53.7956 136.92 52.2356 132.18L50.1956 126H42.9356V168H50.6156V157.68C50.6156 153.18 50.4956 148.02 50.3756 145.14C50.9756 148.02 52.5356 153.6 53.9756 158.34L56.9756 168H63.5756ZM84.8878 168V144.24C84.8878 138.06 81.9478 135.84 76.3078 135.84C73.0078 135.84 69.4678 137.46 67.0678 139.38L69.4678 145.14C71.6878 143.52 73.3678 142.68 74.9878 142.68C76.4878 142.68 76.9078 143.4 76.9078 145.14V148.56C76.1278 148.08 75.0478 147.72 73.5478 147.72C68.5678 147.72 66.3478 151.2 66.3478 158.28C66.3478 165.42 68.2078 168.66 72.4678 168.66C74.3878 168.66 75.6478 167.94 76.9078 166.5V168H84.8878ZM76.9078 162.12C76.5478 162.48 76.1278 162.6 75.4078 162.6C74.1478 162.6 73.7878 161.52 73.7878 158.16C73.7878 154.5 74.2678 153.54 75.3478 153.54C76.1278 153.54 76.4878 153.66 76.9078 153.96V162.12ZM116.849 168V142.62C116.849 137.52 114.689 135.84 111.149 135.84C108.929 135.84 107.309 136.62 105.629 138.24C104.369 136.44 103.109 135.84 100.529 135.84C98.1886 135.84 96.7486 136.8 95.5486 138.06V136.5H87.8686V168H95.5486V143.28C96.1486 142.92 96.6286 142.62 97.4086 142.62C98.2486 142.62 98.5486 143.28 98.5486 144.54V168H106.169V143.28C106.769 142.92 107.309 142.62 108.029 142.62C108.869 142.62 109.169 143.28 109.169 144.54V168H116.849ZM137.861 154.5C137.861 153.96 137.861 152.52 137.861 152.16C137.861 141.3 135.041 135.84 128.861 135.84C121.901 135.84 119.441 141.72 119.441 152.46C119.441 162.96 122.321 168.66 128.501 168.66C134.261 168.66 136.241 164.82 137.681 159.36L130.901 157.62C130.181 161.46 129.821 162.36 128.801 162.36C127.541 162.36 126.941 161.1 126.881 154.5H137.861ZM130.541 149.04H126.881C127.061 143.04 127.541 141.84 128.741 141.84C129.941 141.84 130.421 143.46 130.541 149.04Z" fill="black"/>
</svg>
