<svg width="180" height="228" viewBox="0 0 180 228" fill="none" xmlns="http://www.w3.org/2000/svg">
<rect x="4.5" y="4.5" width="171" height="219" rx="7.5" fill="white" stroke="black" stroke-width="9"/>
<path d="M123.15 56C116.783 55.9997 110.414 58.4264 105.566 63.2733L91.753 77.086C84.8688 83.9703 82.9012 93.9115 85.7963 102.575L95.7188 92.6523C96.1332 89.8152 97.3862 87.0785 99.5658 84.8988L113.379 71.0861C116.072 68.3954 119.614 67.0448 123.15 67.0448C126.686 67.0448 130.225 68.3926 132.916 71.0861C138.3 76.4731 138.3 85.234 132.916 90.6182L119.103 104.431C116.924 106.611 114.19 107.861 111.35 108.278L101.422 118.206C103.986 119.062 106.655 119.517 109.332 119.517C115.699 119.517 122.068 117.092 126.916 112.244L140.729 98.431C150.425 88.7372 150.422 72.967 140.729 63.2733C135.88 58.4278 129.517 56.0003 123.15 56ZM106.467 91.8484C105.031 91.8911 103.669 92.491 102.668 93.521L69.5179 126.672C68.9876 127.181 68.5643 127.79 68.2726 128.465C67.981 129.14 67.8269 129.866 67.8194 130.601C67.8119 131.336 67.9512 132.066 68.2291 132.746C68.5069 133.427 68.9178 134.045 69.4376 134.565C69.9573 135.085 70.5756 135.495 71.2562 135.773C71.9368 136.051 72.6659 136.19 73.401 136.183C74.1361 136.175 74.8622 136.021 75.537 135.73C76.2118 135.438 76.8216 135.015 77.3307 134.484L110.481 101.334C111.279 100.558 111.825 99.5586 112.046 98.4673C112.266 97.376 112.152 96.2434 111.718 95.218C111.284 94.1927 110.551 93.3223 109.614 92.721C108.677 92.1197 107.58 91.8155 106.467 91.8484V91.8484ZM71.9027 108.542C65.1288 108.198 58.2482 110.593 53.083 115.756L39.2703 129.569C29.5766 139.263 29.5766 155.038 39.2703 164.732C44.1185 169.578 50.4842 172 56.8491 172C63.214 172 69.5796 169.575 74.4279 164.727L88.2405 150.914C95.1248 144.03 97.0978 134.089 94.2026 125.425L84.2748 135.353C83.8604 138.19 82.6074 140.927 80.4277 143.107L66.6151 156.919C61.2309 162.306 52.4673 162.306 47.0831 156.919C41.6989 151.532 41.6989 142.771 47.0831 137.387L60.8958 123.574C63.0754 121.395 65.8121 120.139 68.6492 119.722L78.5717 109.8C76.4058 109.076 74.1607 108.657 71.9027 108.542Z" fill="black"/>
<rect x="1.5" y="1.5" width="177" height="225" rx="10.5" stroke="white" stroke-width="3"/>
</svg>
