<svg width="180" height="228" viewBox="0 0 180 228" fill="none" xmlns="http://www.w3.org/2000/svg">
<rect x="4.5" y="4.5" width="171" height="219" rx="7.5" fill="white" stroke="black" stroke-width="9"/>
<rect x="1.5" y="1.5" width="177" height="225" rx="10.5" stroke="white" stroke-width="3"/>
<path fill-rule="evenodd" clip-rule="evenodd" d="M32 100.276C32 68.0918 57.9682 42 90 42C122.032 42 148 68.0918 148 100.276C148 132.958 120.573 151.115 109.567 158.401C107.667 159.659 106.256 160.593 105.561 161.222C100.736 165.587 96.7573 175.351 95.1491 180.892C94.3688 183.578 92.1776 184.936 90 185C87.8276 184.942 85.6312 183.583 84.8509 180.892C83.2427 175.351 79.2638 165.582 74.4393 161.222C73.7437 160.593 72.333 159.659 70.4327 158.401C59.4267 151.115 32 132.958 32 100.276ZM79.6105 79.5794V72.328H84.4787V79.5794H79.6105ZM89.3469 79.5794V74.7451H94.2151V79.5794H89.3469ZM69.8741 103.751V84.4137H103.952H108.82C111.509 84.4137 113.688 86.5771 113.688 89.248V96.4994C113.688 99.1704 111.509 101.334 108.82 101.334H103.952V103.751C103.952 109.09 99.5921 113.419 94.2151 113.419H79.6105C74.2336 113.419 69.8741 109.09 69.8741 103.751ZM108.82 89.248H103.952V96.4994H108.82V89.248ZM67.44 123.088V118.254H108.82V123.088H67.44Z" fill="black"/>
</svg>
