<svg width="180" height="228" viewBox="0 0 180 228" fill="none" xmlns="http://www.w3.org/2000/svg">
<rect x="4.5" y="4.5" width="171" height="219" rx="7.5" fill="white" stroke="black" stroke-width="9"/>
<rect x="1.5" y="1.5" width="177" height="225" rx="10.5" stroke="white" stroke-width="3"/>
<path fill-rule="evenodd" clip-rule="evenodd" d="M32 100.276C32 68.0918 57.9682 42 90 42C122.032 42 148 68.0918 148 100.276C148 132.958 120.573 151.115 109.567 158.401C107.667 159.659 106.256 160.593 105.561 161.222C100.736 165.587 96.7573 175.351 95.1491 180.892C94.3688 183.578 92.1776 184.936 90 185C87.8276 184.942 85.6312 183.583 84.8509 180.892C83.2427 175.351 79.2638 165.582 74.4393 161.222C73.7437 160.593 72.333 159.659 70.4327 158.401C59.4267 151.115 32 132.958 32 100.276ZM104.523 107.542C108.168 104.39 111.925 106.305 115.616 109.458L117.835 111.364C121.536 114.516 123.792 117.724 120.156 120.867L118.189 122.587C116.81 124.01 112.391 127.915 105.091 127.999C96.3094 128.092 87.0242 122.624 77.5525 111.736C68.0715 100.857 63.923 90.935 65.2374 82.2781C66.3282 75.0625 70.8216 71.2594 72.4344 70.0971L74.4015 68.3769C78.0373 65.234 80.9086 67.9119 83.5376 71.9847L85.1131 74.4581C87.7327 78.5494 89.1031 82.5199 85.4767 85.6721L83.2859 87.5783C83.114 87.7248 82.8823 87.8791 82.6196 88.054C80.4314 89.511 76.0956 92.3981 86.325 104.12C96.5361 115.846 100.002 111.996 101.763 110.039C101.978 109.8 102.168 109.59 102.341 109.439L104.523 107.542Z" fill="black"/>
</svg>
