<svg width="180" height="228" viewBox="0 0 180 228" fill="none" xmlns="http://www.w3.org/2000/svg">
<rect x="4.5" y="4.5" width="171" height="219" rx="7.5" fill="white" stroke="black" stroke-width="9"/>
<rect x="1.5" y="1.5" width="177" height="225" rx="10.5" stroke="white" stroke-width="3"/>
<path d="M90 56C57.9695 56 32 81.9695 32 114C32 146.031 57.9695 172 90 172C122.031 172 148 146.031 148 114C148 81.9695 122.031 56 90 56ZM90 150.25C85.998 150.25 82.75 147.002 82.75 143C82.75 138.998 85.998 135.75 90 135.75C94.002 135.75 97.25 138.998 97.25 143C97.25 147.002 94.002 150.25 90 150.25ZM99.9953 116.417C96.7957 119.37 94.8333 121.308 94.8333 123.667H85.1667C85.1667 116.953 89.7535 112.719 93.4365 109.312C97.2983 105.745 99.6667 103.362 99.6667 99.5C99.6667 94.1688 95.3312 89.8333 90 89.8333C84.6688 89.8333 80.3333 94.1688 80.3333 99.5H70.6667C70.6667 88.8377 79.3377 80.1667 90 80.1667C100.662 80.1667 109.333 88.8377 109.333 99.5C109.333 107.789 104.157 112.569 99.9953 116.417Z" fill="black"/>
</svg>
