<svg width="180" height="228" viewBox="0 0 180 228" fill="none" xmlns="http://www.w3.org/2000/svg">
<rect x="4.5" y="4.5" width="171" height="219" rx="7.5" fill="white" stroke="black" stroke-width="9"/>
<rect x="1.5" y="1.5" width="177" height="225" rx="10.5" stroke="white" stroke-width="3"/>
<path fill-rule="evenodd" clip-rule="evenodd" d="M32 100.276C32 68.0918 57.9682 42 90 42C122.032 42 148 68.0918 148 100.276C148 132.958 120.573 151.115 109.567 158.401C107.667 159.659 106.256 160.593 105.561 161.222C100.736 165.587 96.7573 175.351 95.1491 180.892C94.3688 183.578 92.1776 184.936 90 185C87.8276 184.942 85.6312 183.583 84.8509 180.892C83.2427 175.351 79.2638 165.582 74.4393 161.222C73.7437 160.593 72.333 159.659 70.4327 158.401C59.4267 151.115 32 132.958 32 100.276ZM62 75.0492L71.5564 75L73.8921 80.6098H115.197C117.331 80.6098 118.682 82.9008 117.642 84.7653L107.555 102.923C106.57 104.701 104.693 105.805 102.66 105.805H81.7418L78.4488 111.076C78.2817 111.342 78.3176 111.404 78.6293 111.404H112.402V117.003H78.6293C74.2077 117.003 71.3527 111.855 73.7007 108.107L77.0539 102.748L67.8257 80.6208L62.0274 80.6481L62 75.0492ZM74.8326 121.442C75.883 120.392 77.3078 119.802 78.7934 119.802C80.279 119.802 81.7037 120.392 82.7542 121.442C83.8047 122.492 84.3948 123.916 84.3948 125.401C84.3948 126.886 83.8047 128.31 82.7542 129.36C81.7037 130.41 80.279 131 78.7934 131C77.3078 131 75.883 130.41 74.8326 129.36C73.7821 128.31 73.1919 126.886 73.1919 125.401C73.1919 123.916 73.7821 122.492 74.8326 121.442ZM102.84 121.442C103.89 120.392 105.315 119.802 106.801 119.802C108.286 119.802 109.711 120.392 110.761 121.442C111.812 122.492 112.402 123.916 112.402 125.401C112.402 126.886 111.812 128.31 110.761 129.36C109.711 130.41 108.286 131 106.801 131C105.315 131 103.89 130.41 102.84 129.36C101.789 128.31 101.199 126.886 101.199 125.401C101.199 123.916 101.789 122.492 102.84 121.442Z" fill="black"/>
</svg>
