<svg width="180" height="228" viewBox="0 0 180 228" fill="none" xmlns="http://www.w3.org/2000/svg">
<rect x="4.5" y="4.5" width="171" height="219" rx="7.5" fill="white" stroke="black" stroke-width="9"/>
<rect x="1.5" y="1.5" width="177" height="225" rx="10.5" stroke="white" stroke-width="3"/>
<path d="M90 55C71.6852 55 56.841 69.9649 56.841 88.4286C56.841 104.24 71.3768 125.989 81.2029 138.876C85.6573 144.721 94.3482 144.721 98.7971 138.876C108.623 125.989 123.159 104.24 123.159 88.4286C123.159 69.9649 108.315 55 90 55ZM90 76.4914C96.5434 76.4914 101.841 81.832 101.841 88.4286C101.841 95.0196 96.5378 100.366 90 100.366C83.4622 100.366 78.1591 95.0251 78.1591 88.4286C78.1591 81.832 83.4566 76.4914 90 76.4914ZM57.6937 133C53.1731 133 49.1088 135.779 47.4287 140.008L40.8012 156.722C37.8998 164.043 43.2355 172 51.0555 172H128.945C136.765 172 142.1 164.043 139.199 156.722L132.571 140.008C130.891 135.779 126.827 133 122.306 133H117.632C114.582 133 112.106 135.496 112.106 138.571C112.106 141.647 114.582 144.143 117.632 144.143H122.317L127.433 157.038C128.157 158.871 126.821 160.857 124.864 160.857H55.1356C53.1792 160.857 51.8479 158.871 52.5774 157.038L57.683 144.143H62.3675C65.4181 144.143 67.894 141.647 67.894 138.571C67.894 135.496 65.4181 133 62.3675 133H57.6937Z" fill="black"/>
</svg>
