<svg width="901" height="901" viewBox="0 0 901 901" fill="none" xmlns="http://www.w3.org/2000/svg">
<g clip-path="url(#clip0)">
<path d="M450.4 900.4C698.929 900.4 900.4 698.928 900.4 450.4C900.4 201.872 698.929 0.400146 450.4 0.400146C201.872 0.400146 0.400391 201.872 0.400391 450.4C0.400391 698.928 201.872 900.4 450.4 900.4Z" fill="#E20A16"/>
<path d="M450.4 825.4C657.507 825.4 825.4 657.507 825.4 450.4C825.4 243.293 657.507 75.4001 450.4 75.4001C243.294 75.4001 75.4004 243.293 75.4004 450.4C75.4004 657.507 243.294 825.4 450.4 825.4Z" fill="white"/>
<path d="M632.924 59.2593L697.876 96.7593L267.876 841.541L202.924 804.041L632.924 59.2593Z" fill="#E20A16"/>
</g>
<defs>
<clipPath id="clip0">
<rect width="900.8" height="900.8" fill="white"/>
</clipPath>
</defs>
</svg>
