<?xml version="1.0" encoding="UTF-8" standalone="no"?>
<svg xmlns:dc="http://purl.org/dc/elements/1.1/" xmlns:cc="http://creativecommons.org/ns#" xmlns:rdf="http://www.w3.org/1999/02/22-rdf-syntax-ns#" xmlns:svg="http://www.w3.org/2000/svg" xmlns="http://www.w3.org/2000/svg" xmlns:sodipodi="http://sodipodi.sourceforge.net/DTD/sodipodi-0.dtd" xmlns:inkscape="http://www.inkscape.org/namespaces/inkscape" inkscape:version="1.0 (4035a4fb49, 2020-05-01)" sodipodi:docname="Jordan_road_sign_R١٣.svg" id="svg3976" version="1.1" viewBox="-50 -30 49.999957 49.999975" height="499.99969" width="500">
  <metadata id="metadata3982">
    <rdf:RDF>
      <cc:Work rdf:about="">
        <dc:format>image/svg+xml</dc:format>
        <dc:type rdf:resource="http://purl.org/dc/dcmitype/StillImage"/>
        <dc:title/>
      </cc:Work>
    </rdf:RDF>
  </metadata>
  <defs id="defs3980"/><title>ممنوع مرور مركبات نقل البضائع - gpsarab.com</title>
  <sodipodi:namedview inkscape:current-layer="svg3976" inkscape:window-maximized="1" inkscape:window-y="-9" inkscape:window-x="-9" inkscape:cy="372.20583" inkscape:cx="-136.77375" inkscape:zoom="0.80099961" showgrid="false" id="namedview3978" inkscape:window-height="1001" inkscape:window-width="1920" inkscape:pageshadow="2" inkscape:pageopacity="0" guidetolerance="10" gridtolerance="10" objecttolerance="10" borderopacity="1" bordercolor="#666666" pagecolor="#ffffff" inkscape:document-rotation="0"/>
  <path d="M -25.000006,19.999951 C -38.807156,19.999951 -50,8.807039 -50,-4.999986 -50,-18.807136 -38.807134,-30 -25.000006,-30 c 13.807058,0 24.9999867,11.192836 24.9999867,25.00002 0,13.807019 -11.1929117,24.999931 -24.9999867,24.999931 z" fill="#ce252c" id="path28376" style="opacity:1;fill:#ff0000;fill-opacity:1;stroke-width:1"/>
  <path style="opacity:1;fill:#ffffff;stroke-width:1" id="path28378" fill="#ffd100" d="m -25.000006,14.166704 c -10.585502,0 -19.166753,-8.581308 -19.166753,-19.166667 0,-10.585524 8.581251,-19.166746 19.166753,-19.166746 10.585473,0 19.1667797,8.581199 19.1667797,19.166746 0,10.585348 -8.5813067,19.166667 -19.1667797,19.166667 z"/>
  <path id="rect14004" style="opacity:1;fill:#000000;fill-opacity:1;fill-rule:evenodd;stroke-width:0.0309921;stroke-linecap:square;paint-order:stroke fill markers" d="m -31.760445,-12.708721 v 8.962743 h 21.202838 v -8.962743 z m -4.066269,2.558716 c -0.717798,6e-6 -1.563344,0.592331 -1.819992,1.102484 l -0.649443,2.794167 -0.05028,0.04228 c -0.04342,0 -0.38222,0.08507 -0.551277,0.254413 -0.125236,0.12535 -0.209793,0.338399 -0.209793,0.507742 l -0.331428,3.3353601 h -0.256642 c -0.08484,0 -0.213278,-4.8e-4 -0.254414,0.0837 -0.04342,0.04114 -0.04342,0.2945781 -0.04342,0.2945781 v 1.09021322 l 3.109953,0.0011 a 2.7599154,2.7599154 0 0 1 -0.0069,-0.195281 2.7599154,2.7599154 0 0 1 2.753997,-2.75957332 2.7599154,2.7599154 0 0 1 0.0057,0 2.7599154,2.7599154 0 0 1 2.759573,2.75957332 2.7599154,2.7599154 0 0 1 -0.008,0.197509 l 12.237853,0.0046 a 2.7599154,2.7599154 0 0 1 -0.008,-0.201965 2.7599154,2.7599154 0 0 1 2.424807,-2.73837232 l -15.218371,0.01314 -0.02,-6.5859161 z m 0.402845,1.455103 h 1.760858 v 1.833389 h -2.10232 z m -1.855705,0.19191 h 0.941798 l -0.321373,1.641456 h -0.940679 z m 26.194166,4.919912 -4.97236,0.0046 a 2.7599154,2.7599154 0 0 1 2.42927,2.73948539 2.7599154,2.7599154 0 0 1 -0.008,0.204194 h 1.065663 V -1.2239856 l 1.085751,-1.2397424 h 0.399475 z m -23.054081,0.189682 c -1.37505,0 -2.531932,1.157882 -2.531932,2.53081239 0,1.44722666 1.122002,2.60335461 2.531932,2.60335461 1.444804,0 2.565686,-1.19340693 2.530812,-2.60335461 0,-1.37289039 -1.120882,-2.53083539 -2.530812,-2.53081239 z m 17.711247,0 c -1.37505,0 -2.531932,1.157882 -2.531932,2.53081239 0,1.44722666 1.122002,2.60335461 2.531932,2.60335461 1.444804,0 2.565687,-1.19340693 2.530813,-2.60335461 0,-1.37289039 -1.120883,-2.53083539 -2.530813,-2.53081239 z m -17.711247,1.5198262 c 0.577878,0 1.048923,0.4676912 1.048929,1.01098619 0,0.61549502 -0.435126,1.08352282 -1.015455,1.08352282 -0.613106,0.03714 -1.083517,-0.4673478 -1.083517,-1.04558082 0,-0.58056899 0.471805,-1.04888819 1.050043,-1.04892819 z m 17.711247,0 c 0.577878,0 1.048923,0.4676912 1.048929,1.01098619 0,0.61549502 -0.435125,1.08352282 -1.015455,1.08352282 -0.613106,0.03714 -1.083517,-0.4673478 -1.083517,-1.04558082 0,-0.58056899 0.471805,-1.04888819 1.050043,-1.04892819 z"/>
</svg>