<?xml version="1.0" encoding="UTF-8" standalone="no" ?>
<!DOCTYPE svg PUBLIC "-//W3C//DTD SVG 1.1//EN" "http://www.w3.org/Graphics/SVG/1.1/DTD/svg11.dtd">
<svg xmlns="http://www.w3.org/2000/svg" xmlns:xlink="http://www.w3.org/1999/xlink" version="1.1" width="1080" height="1080" viewBox="0 0 1080 1080" xml:space="preserve">
<desc>Created with Fabric.js 5.2.4</desc>
<defs>
</defs>
<rect x="0" y="0" width="100%" height="100%" fill="transparent"></rect>
<g transform="matrix(1 0 0 1 540 540)" id="4fef057d-16d2-4457-ac62-3f9ce359eddd"  >
<rect style="stroke: none; stroke-width: 1; stroke-dasharray: none; stroke-linecap: butt; stroke-dashoffset: 0; stroke-linejoin: miter; stroke-miterlimit: 4; fill: rgb(255,255,255); fill-rule: nonzero; opacity: 1; visibility: hidden;" vector-effect="non-scaling-stroke"  x="-540" y="-540" rx="0" ry="0" width="1080" height="1080" />
</g>
<g transform="matrix(1 0 0 1 540 540)" id="27c86c7e-42af-457a-925d-2ce13ac97fb7"  >
</g>
<g transform="matrix(1 0 0 1 540 540)"  >
<g style="" vector-effect="non-scaling-stroke"   >
		<g transform="matrix(1 0 0 1 0 0)"  >
<path style="stroke: none; stroke-width: 1; stroke-dasharray: none; stroke-linecap: butt; stroke-dashoffset: 0; stroke-linejoin: miter; stroke-miterlimit: 4; fill: rgb(0,0,0); fill-rule: nonzero; opacity: 1;" vector-effect="non-scaling-stroke"  transform=" translate(-302, -277)" d="M 52 0 L 552 0 C 580.718807 -5.27555926e-15 604 23.281193 604 52 L 604 502 C 604 530.718807 580.718807 554 552 554 L 52 554 C 23.281193 554 3.51703951e-15 530.718807 0 502 L 0 52 C -3.51703951e-15 23.281193 23.281193 5.27555926e-15 52 0 Z" stroke-linecap="round" />
</g>
		<g transform="matrix(1 0 0 1 0 0)"  >
<path style="stroke: none; stroke-width: 1; stroke-dasharray: none; stroke-linecap: butt; stroke-dashoffset: 0; stroke-linejoin: miter; stroke-miterlimit: 4; fill: rgb(255,255,255); fill-rule: nonzero; opacity: 1;" vector-effect="non-scaling-stroke"  transform=" translate(-302, -277)" d="M 52 2 L 552 2 C 579.614237 2 602 24.3857625 602 52 L 602 502 C 602 529.614237 579.614237 552 552 552 L 52 552 C 24.3857625 552 2 529.614237 2 502 L 2 52 C 2 24.3857625 24.3857625 2 52 2 Z" stroke-linecap="round" />
</g>
		<g transform="matrix(-1 0 0 1 0 0.5)"  >
<path style="stroke: none; stroke-width: 1; stroke-dasharray: none; stroke-linecap: butt; stroke-dashoffset: 0; stroke-linejoin: miter; stroke-miterlimit: 4; fill: rgb(0,0,0); fill-rule: evenodd; opacity: 1;" vector-effect="non-scaling-stroke"  transform=" translate(-302, -277.5)" d="M 475.47162 304.172336 L 469.60414 340.068284 L 469.60414 340.068281 C 468.547826 346.551616 462.960221 351.313244 456.40549 351.315794 L 421.931113 351.315794 L 421.931112 351.315794 C 419.475662 351.270292 417.231336 349.91422 416.044884 347.759215 L 416.044884 347.759216 C 407.686788 333.348024 392.312355 324.478856 375.680261 324.473689 L 348.934112 324.473689 L 348.934112 324.473689 C 345.238744 324.471466 342.244856 321.467366 342.247071 317.763833 C 342.247071 317.763608 342.247071 317.763384 342.247071 317.763159 L 342.247071 210.394734 L 342.247071 210.394667 C 342.244521 206.69114 345.238142 203.686764 348.93351 203.684207 C 348.933734 203.684207 348.933958 203.684207 348.934182 203.684207 L 449.730573 203.684207 L 449.730572 203.684207 C 456.279371 203.687954 461.862992 208.441943 462.925205 214.918299 L 475.461647 291.092171 L 475.461648 291.092178 C 476.176064 295.422561 476.179458 299.840826 475.47169 304.172336 L 475.47162 304.172336 Z M 438.845901 233.334675 L 438.8459 233.334675 C 438.581069 231.716163 437.186099 230.527695 435.549586 230.52632 L 372.337075 230.52632 L 372.337075 230.52632 C 370.489666 230.528541 368.993221 232.030095 368.993221 233.881583 L 368.993221 267.434216 L 368.993221 267.434218 C 368.993221 269.285706 370.489666 270.78726 372.337075 270.789481 L 400.378182 270.789481 L 400.378182 270.789481 C 406.565378 270.792389 411.841095 275.283487 412.844988 281.402179 L 412.844988 281.402178 C 413.109943 283.021441 414.506035 284.210533 416.143312 284.210533 L 443.281831 284.210533 L 443.281832 284.210533 C 445.130808 284.208632 446.628163 282.704886 446.62627 280.851828 C 446.62627 280.669754 446.611108 280.487998 446.581496 280.30836 L 438.845901 233.334675 Z M 315.561184 364.736851 L 250.81334 364.736851 L 250.81334 364.736851 C 249.217724 364.71926 247.858381 363.570749 247.57126 361.997614 L 247.57126 361.997611 C 246.076468 354.644618 242.838339 347.760021 238.130261 341.925084 L 238.13026 341.925083 C 237.27747 340.852748 237.453535 339.290598 238.523511 338.435925 C 238.967354 338.081393 239.519208 337.890346 240.086759 337.894667 L 322.258938 337.894667 L 322.258938 337.894667 C 325.956897 337.892517 328.95649 340.895118 328.958701 344.601241 C 328.958701 344.602584 328.958701 344.603926 328.958701 344.605269 L 328.958701 351.315795 L 328.958701 351.315797 C 328.958701 358.728043 322.963124 364.736851 315.567213 364.736851 C 315.565204 364.736851 315.563194 364.736851 315.561185 364.736851 L 315.561184 364.736851 Z M 322.256928 324.473696 L 134.695747 324.473696 L 134.695747 324.473696 C 130.997788 324.473696 128.000003 321.469288 128.000003 317.763165 C 128.000003 317.763165 128.000003 317.763165 128.000003 317.763165 L 128.000003 163.421054 L 128.000003 163.421055 C 128.000003 156.008808 133.995573 150.000001 141.391491 150.000001 C 141.393724 150.000001 141.395956 150.000001 141.398189 150.000001 L 315.561185 150.000001 L 315.561185 150.000001 C 322.957102 149.996667 328.955351 156.00277 328.9587 163.415017 C 328.9587 163.41703 328.9587 163.419044 328.9587 163.421058 L 328.9587 317.763169 L 328.9587 317.76317 C 328.9587 321.469293 325.960915 324.473696 322.262956 324.473696 C 322.261617 324.473696 322.260277 324.473696 322.258937 324.473696 L 322.256928 324.473696 Z M 134.695747 337.894669 L 163.286574 337.894669 L 163.286574 337.894669 C 164.654776 337.884151 165.772496 338.987158 165.783136 340.358387 C 165.787447 340.927196 165.596821 341.480266 165.243068 341.925087 L 165.243068 341.925087 C 160.536261 347.760836 157.2983 354.645092 155.802069 361.997614 L 155.802069 361.997614 C 155.516019 363.570823 154.156831 364.719679 152.561329 364.736852 L 141.396845 364.736852 L 141.396846 364.736852 C 134.000928 364.739816 128.002947 358.733413 128 351.321166 C 128 351.319376 128 351.317586 128 351.315796 L 128 344.60527 L 128 344.605271 C 128 340.899148 130.997785 337.894669 134.695744 337.894669 C 134.695744 337.894669 134.695744 337.894669 134.695744 337.894669 L 134.695747 337.894669 Z M 201.600291 337.894726 L 201.60029 337.894726 C 220.090052 337.882144 235.089188 352.89398 235.101784 371.424562 C 235.114349 389.955144 220.135583 404.987395 201.645822 405.000018 C 183.15606 405.012612 168.156924 390.000776 168.144327 371.470193 C 168.144327 371.462591 168.144327 371.454988 168.144327 371.447385 L 168.144327 371.448903 C 168.137945 352.923823 183.117218 337.901169 201.601421 337.894726 C 201.601423 337.894726 201.601424 337.894726 201.601425 337.894726 L 201.600291 337.894726 Z M 375.795427 337.894726 L 375.795429 337.894726 C 394.28519 337.882886 409.283723 352.895322 409.295582 371.425904 C 409.307408 389.956486 394.328043 404.988133 375.838281 405.000017 C 357.34852 405.011869 342.349987 389.999434 342.338126 371.468851 C 342.338126 371.461696 342.338126 371.45454 342.338126 371.447384 L 342.338126 371.447562 C 342.331744 352.923287 357.310414 337.90117 375.793882 337.894726 C 375.795221 337.894726 375.796561 337.894726 375.797901 337.894726 L 375.795427 337.894726 Z" stroke-linecap="round" />
</g>
</g>
</g>
<g transform="matrix(6.46 5.75 -1.81 2.03 539.97 539.97)" id="572de572-0f9e-4a57-bdac-ccede30e7041"  >
<path style="stroke: rgb(0,0,0); stroke-width: 0; stroke-dasharray: none; stroke-linecap: butt; stroke-dashoffset: 0; stroke-linejoin: miter; stroke-miterlimit: 4; fill: rgb(226,11,11); fill-rule: nonzero; opacity: 1;" vector-effect="non-scaling-stroke"  transform=" translate(-50, -50)" d="M 94.75 50 C 94.75 56.213 89.514 61.25 83.054 61.25 L 16.946 61.25 C 10.486 61.25 5.25 56.213 5.25 50 L 5.25 50 C 5.25 43.787 10.486 38.75 16.945999999999998 38.75 L 83.053 38.75 C 89.514 38.75 94.75 43.787 94.75 50 L 94.75 50 z" stroke-linecap="round" />
</g>
</svg>