<?xml version="1.0" encoding="UTF-8" standalone="no"?>
<!-- Created with Inkscape (http://www.inkscape.org/) -->

<svg
   xmlns:dc="http://purl.org/dc/elements/1.1/"
   xmlns:cc="http://creativecommons.org/ns#"
   xmlns:rdf="http://www.w3.org/1999/02/22-rdf-syntax-ns#"
   xmlns:svg="http://www.w3.org/2000/svg"
   xmlns="http://www.w3.org/2000/svg"
   xmlns:sodipodi="http://sodipodi.sourceforge.net/DTD/sodipodi-0.dtd"
   xmlns:inkscape="http://www.inkscape.org/namespaces/inkscape"
   width="601"
   height="1201"
   id="svg2"
   sodipodi:version="0.32"
   inkscape:version="0.47 r22583"
   version="1.0"
   sodipodi:docname="Speed_Limit_70_Minimum_40_sign.svg">
  <defs
     id="defs4">
    <inkscape:perspective
       sodipodi:type="inkscape:persp3d"
       inkscape:vp_x="0 : 600.5 : 1"
       inkscape:vp_y="0 : 1000 : 0"
       inkscape:vp_z="601 : 600.5 : 1"
       inkscape:persp3d-origin="300.5 : 400.33333 : 1"
       id="perspective3617" />
    <inkscape:perspective
       id="perspective3657"
       inkscape:persp3d-origin="300.5 : 400.33333 : 1"
       inkscape:vp_z="601 : 600.5 : 1"
       inkscape:vp_y="0 : 1000 : 0"
       inkscape:vp_x="0 : 600.5 : 1"
       sodipodi:type="inkscape:persp3d" />
    <inkscape:perspective
       id="perspective3697"
       inkscape:persp3d-origin="300.5 : 400.33333 : 1"
       inkscape:vp_z="601 : 600.5 : 1"
       inkscape:vp_y="0 : 1000 : 0"
       inkscape:vp_x="0 : 600.5 : 1"
       sodipodi:type="inkscape:persp3d" />
  </defs>
  <sodipodi:namedview
     id="base"
     pagecolor="#ffffff"
     bordercolor="#666666"
     borderopacity="1.0"
     gridtolerance="10000"
     guidetolerance="10"
     objecttolerance="10"
     inkscape:pageopacity="0.0"
     inkscape:pageshadow="2"
     inkscape:zoom="0.22745268"
     inkscape:cx="-78.220206"
     inkscape:cy="342.64424"
     inkscape:document-units="px"
     inkscape:current-layer="layer1"
     width="601px"
     height="1201px"
     inkscape:window-width="1024"
     inkscape:window-height="746"
     inkscape:window-x="-4"
     inkscape:window-y="-4"
     showgrid="false"
     inkscape:window-maximized="0" />
  <metadata
     id="metadata7">
    <rdf:RDF>
      <cc:Work
         rdf:about="">
        <dc:format>image/svg+xml</dc:format>
        <dc:type
           rdf:resource="http://purl.org/dc/dcmitype/StillImage" />
        <dc:title></dc:title>
      </cc:Work>
    </rdf:RDF>
  </metadata>
  <g
     inkscape:label="Layer 1"
     inkscape:groupmode="layer"
     id="layer1">
    <path
       style="color:black;fill:white;fill-opacity:1;fill-rule:nonzero;stroke:black;stroke-width:1;stroke-linecap:butt;stroke-linejoin:miter;marker:none;marker-start:none;marker-mid:none;marker-end:none;stroke-miterlimit:4;stroke-dashoffset:0;stroke-opacity:1;visibility:visible;display:inline;overflow:visible"
       d="M 38,0.5 L 563,0.5 C 583.775,0.5 600.5,17.225 600.5,38 L 600.5,1163 C 600.5,1183.775 583.775,1200.5 563,1200.5 L 38,1200.5 C 17.225,1200.5 0.5,1183.775 0.5,1163 L 0.5,38 C 0.5,17.225 17.225,0.5 38,0.5 z "
       id="rect1872" />
    <path
       style="color:black;fill:black;fill-opacity:1;fill-rule:nonzero;stroke:none;stroke-width:0.8735441;stroke-linecap:butt;stroke-linejoin:miter;marker:none;marker-start:none;marker-mid:none;marker-end:none;stroke-miterlimit:4;stroke-dashoffset:0;stroke-opacity:1;visibility:visible;display:inline;overflow:visible"
       d="M 38,9.875 L 563,9.875 C 578.58125,9.875 591.125,22.41875 591.125,38 L 591.125,1163 C 591.125,1178.5813 578.58125,1191.125 563,1191.125 L 38,1191.125 C 22.41875,1191.125 9.875,1178.5813 9.875,1163 L 9.875,38 C 9.875,22.41875 22.41875,9.875 38,9.875 z "
       id="rect2760" />
    <path
       style="color:black;fill:white;fill-opacity:1;fill-rule:nonzero;stroke:none;stroke-width:0.8735441;stroke-linecap:butt;stroke-linejoin:miter;marker:none;marker-start:none;marker-mid:none;marker-end:none;stroke-miterlimit:4;stroke-dashoffset:0;stroke-opacity:1;visibility:visible;display:inline;overflow:visible"
       d="M 38,25.5 L 563,25.5 C 569.925,25.5 575.5,31.075 575.5,38 L 575.5,1163 C 575.5,1169.925 569.925,1175.5 563,1175.5 L 38,1175.5 C 31.075,1175.5 25.5,1169.925 25.5,1163 L 25.5,38 C 25.5,31.075 31.075,25.5 38,25.5 z "
       id="rect2762" />
    <path
       style="font-size:151.5161438px;font-style:normal;font-variant:normal;font-weight:normal;font-stretch:normal;text-align:center;line-height:125%;writing-mode:lr-tb;text-anchor:middle;font-family:Roadgeek 2005 Series E"
       d="M 143.09229,171.39508 C 143.0922,181.54611 138.27134,189.35749 128.62972,194.82925 C 125.04334,197.01857 120.99388,198.68484 116.48135,199.82808 C 111.96868,200.97132 107.30274,201.54294 102.4835,201.54294 C 93.561507,201.54294 85.69105,199.97611 78.872097,196.84244 C 72.053093,193.70879 65.720739,188.85799 59.875014,182.29003 L 74.6427,171.09903 C 78.538789,175.47464 82.640659,178.65764 86.948322,180.64804 C 91.255917,182.63849 96.331033,183.6337 102.17368,183.63368 C 108.736,183.6337 114.11936,182.41531 118.32379,179.9785 C 122.52808,177.54173 124.63026,174.4316 124.63033,170.6481 C 124.63026,166.67032 122.47723,163.63686 118.17123,161.54772 C 116.32481,160.84937 114.4018,160.15173 112.40216,159.45481 C 110.40241,158.75798 108.22434,158.16207 105.86796,157.66708 L 101.09873,156.32343 L 96.329512,155.27584 L 91.410079,153.78643 C 86.077531,152.5901 81.898207,151.27074 78.872097,149.82836 C 75.845935,148.38607 73.25635,146.47156 71.103337,144.08482 C 68.950287,141.79537 67.335513,139.20751 66.259011,136.32126 C 65.18248,133.43514 64.644222,130.40092 64.644235,127.2186 C 64.644222,123.04045 65.515762,119.25927 67.258856,115.875 C 69.001922,112.49092 71.411565,109.58044 74.487794,107.14355 C 77.563979,104.70686 81.280932,102.81664 85.638664,101.4729 C 89.996331,100.12935 94.791365,99.457528 100.02378,99.45742 C 107.71269,99.457528 114.71082,100.70097 121.01821,103.18776 C 127.32547,105.67475 133.09374,109.55538 138.32307,114.82969 L 124.63033,126.77224 C 118.17117,120.20437 109.96899,116.9204 100.02378,116.92032 C 94.791365,116.9204 90.714529,117.84046 87.793263,119.68049 C 84.871927,121.52069 83.411276,124.03339 83.411307,127.2186 C 83.411276,128.61243 83.667105,129.83158 84.178795,130.87606 C 84.690421,131.92068 85.561961,132.86579 86.793417,133.71139 C 88.024804,134.55712 89.691214,135.32839 91.79265,136.0252 C 93.894007,136.72214 96.534444,137.41826 99.713969,138.11355 C 106.58297,139.50737 112.32543,140.90036 116.94137,142.29253 C 121.55718,143.68483 125.29995,145.07781 128.16969,146.47151 C 132.78549,148.76108 136.42656,152.11944 139.0929,156.54661 C 141.75907,160.97386 143.0922,165.92334 143.09229,171.39508 L 143.09229,171.39508 z M 246.10933,131.09925 C 246.10924,133.6864 245.75092,136.2735 245.03439,138.86053 C 244.31765,141.44769 243.26696,143.88523 241.88229,146.17317 C 240.49744,148.46123 238.83102,150.57539 236.88306,152.51566 C 234.93491,154.45602 232.72946,156.07296 230.2667,157.36646 C 227.29368,158.95763 224.44827,160.00218 221.73045,160.50013 C 219.01249,160.99815 215.70549,161.24715 211.80943,161.24711 L 182.43366,161.24711 L 182.43366,200.49991 L 163.6666,200.49991 L 163.6666,100.50046 L 211.80943,100.50046 C 215.70549,100.50056 219.01249,100.79965 221.73045,101.39775 C 224.44827,101.99603 227.29368,103.09069 230.2667,104.68171 C 235.18917,107.26891 239.06025,110.90056 241.87993,115.57667 C 244.69945,120.25296 246.10924,125.42714 246.10933,131.09925 L 246.10933,131.09925 z M 227.65208,131.09925 C 227.652,127.21867 226.26802,124.13435 223.50013,121.84627 C 220.7321,119.55835 217.04018,118.41436 212.42437,118.41428 L 182.43366,118.41428 L 182.43366,143.33784 L 212.42437,143.33784 C 217.04018,143.3379 220.7321,142.2182 223.50013,139.97872 C 226.26802,137.73936 227.652,134.77954 227.65208,131.09925 L 227.65208,131.09925 z M 263.40715,200.49991 L 263.40715,100.50046 L 338.62096,100.50046 L 338.62096,118.41428 L 282.17423,118.41428 L 282.17423,136.92021 L 312.93476,136.92021 L 312.93476,155.27584 L 282.17423,155.27584 L 282.17423,182.59065 L 340.47044,182.59065 L 340.47044,200.49991 L 263.40715,200.49991 z M 361.04473,200.49991 L 361.04473,100.50046 L 436.25853,100.50046 L 436.25853,118.41428 L 379.8118,118.41428 L 379.8118,136.92021 L 410.57234,136.92021 L 410.57234,155.27584 L 379.8118,155.27584 L 379.8118,182.59065 L 438.10802,182.59065 L 438.10802,200.49991 L 361.04473,200.49991 z M 541.12507,150.35216 C 541.12498,160.403 539.0228,169.15949 534.81853,176.62165 C 530.61408,184.08386 524.41082,190.05285 516.20871,194.52864 C 512.61921,196.52058 508.72232,198.01378 504.51801,199.00823 C 500.3136,200.00268 496.11003,200.49991 491.90728,200.49991 L 458.68232,200.49991 L 458.68232,100.50046 L 491.90728,100.50046 C 500.7259,100.50056 508.92964,102.59119 516.51852,106.77235 C 524.51408,111.24823 530.61408,117.14282 534.81853,124.45615 C 539.0228,131.76962 541.12498,140.40161 541.12507,150.35216 L 541.12507,150.35216 z M 522.66781,150.35216 C 522.66774,143.58689 521.41206,137.91548 518.90079,133.3379 C 516.38936,128.76045 512.56914,125.07946 507.4401,122.29492 C 502.72402,119.7079 497.54642,118.41436 491.90728,118.41428 L 477.4494,118.41428 L 477.4494,182.59065 L 491.90728,182.59065 C 497.33988,182.59067 502.31251,181.29712 506.82517,178.71 C 517.38686,173.33543 522.66774,163.88283 522.66781,150.35216 L 522.66781,150.35216 z "
       id="text2778" />
    <path
       style="font-size:149.25358582px;font-style:normal;font-variant:normal;font-weight:normal;font-stretch:normal;text-align:center;line-height:125%;writing-mode:lr-tb;text-anchor:middle;font-family:Roadgeek 2005 Series E"
       d="M 117.675,363 L 117.675,263.00049 L 135.58513,263.00049 L 135.58513,347.62772 L 192.45391,347.62772 L 192.45391,363 L 117.675,363 z M 209.50315,363 L 209.50315,263.00049 L 227.41328,263.00049 L 227.41328,363 L 209.50315,363 z M 329.64041,363 L 329.64041,301.95725 L 300.23809,363 L 271.13186,301.95725 L 271.13186,363 L 253.52235,363 L 253.52235,263.00049 L 271.13186,263.00049 L 300.23809,322.25322 L 329.64041,263.00049 L 347.25447,263.00049 L 347.25447,363 L 329.64041,363 z M 373.3362,363 L 373.3362,263.00049 L 391.24633,263.00049 L 391.24633,363 L 373.3362,363 z M 454.5194,280.61371 L 454.5194,363 L 437.05565,363 L 437.05565,280.61371 L 408.25004,280.61371 L 408.25004,263.00049 L 483.32501,263.00049 L 483.32501,280.61371 L 454.5194,280.61371 z "
       id="text2784" />
    <path
       style="font-size:147.64976501px;font-style:normal;font-variant:normal;font-weight:normal;font-stretch:normal;text-align:center;line-height:125%;writing-mode:lr-tb;text-anchor:middle;font-family:Roadgeek 2005 Series C"
       d="M 121.1932,838.00072 L 121.1932,781.88161 L 103.08197,838.00072 L 84.823634,781.88161 L 84.823634,838.00072 L 70.800022,838.00072 L 70.800022,738.00112 L 84.823634,738.00112 L 103.08197,794.12023 L 121.1932,738.00112 L 135.36392,738.00112 L 135.36392,838.00072 L 121.1932,838.00072 z M 156.67124,838.00072 L 156.67124,738.00112 L 170.40065,738.00112 L 170.40065,838.00072 L 156.67124,838.00072 z M 236.30628,838.00072 L 206.07038,770.98664 L 206.07038,838.00072 L 192.04676,838.00072 L 192.04676,738.00112 L 206.07038,738.00112 L 232.94525,798.00088 L 232.94525,738.00112 L 246.96886,738.00112 L 246.96886,838.00072 L 236.30628,838.00072 z M 268.21825,838.00072 L 268.21825,738.00112 L 281.94766,738.00112 L 281.94766,838.00072 L 268.21825,838.00072 z M 353.98694,838.00072 L 353.98694,781.88161 L 335.8757,838.00072 L 317.61737,781.88161 L 317.61737,838.00072 L 303.59376,838.00072 L 303.59376,738.00112 L 317.61737,738.00112 L 335.8757,794.12023 L 353.98694,738.00112 L 368.15765,738.00112 L 368.15765,838.00072 L 353.98694,838.00072 z M 444.38708,808.14887 C 444.38701,810.14084 444.31421,811.93238 444.16866,813.52348 C 444.02298,815.11463 443.80381,816.58201 443.51116,817.92564 C 443.21838,819.26932 442.82834,820.58792 442.34104,821.88145 C 441.85361,823.17501 441.26967,824.46856 440.5892,825.7621 C 438.15529,829.84316 434.82027,833.20153 430.58412,835.83721 C 426.34786,838.4729 421.89249,839.79074 417.218,839.79074 C 412.35027,839.79074 407.74929,838.49719 403.41504,835.91009 C 399.08075,833.32299 395.69669,829.94033 393.26285,825.7621 C 392.58231,824.46856 391.99837,823.17501 391.51102,821.88145 C 391.02364,820.58792 390.6336,819.26932 390.34089,817.92564 C 390.04817,816.58201 389.829,815.11463 389.6834,813.52348 C 389.53778,811.93238 389.46497,810.14084 389.46498,808.14887 L 389.46498,738.00112 L 403.48859,738.00112 L 403.48859,809.94344 C 403.48857,814.71684 404.75453,818.54663 407.28646,821.43281 C 409.81835,824.31902 413.12886,825.76211 417.218,825.7621 C 421.01583,825.76211 424.15622,824.31902 426.63914,821.43281 C 429.12198,818.54663 430.36341,814.71684 430.36347,809.94344 L 430.36347,738.00112 L 444.38708,738.00112 L 444.38708,808.14887 L 444.38708,808.14887 z M 516.02966,838.00072 L 516.02966,781.88161 L 497.91844,838.00072 L 479.66009,781.88161 L 479.66009,838.00072 L 465.63648,838.00072 L 465.63648,738.00112 L 479.66009,738.00112 L 497.91844,794.12023 L 516.02966,738.00112 L 530.20038,738.00112 L 530.20038,838.00072 L 516.02966,838.00072 z "
       id="text2790" />
    <path
       style="font-size:373.12701416px;font-style:normal;font-variant:normal;font-weight:normal;font-stretch:normal;text-align:center;line-height:125%;writing-mode:lr-tb;text-anchor:middle;font-family:Roadgeek 2005 Series E"
       d="M 268.45718,470.2847 C 264.22863,474.26273 260.74613,477.55735 258.00967,480.16855 C 255.27281,482.78015 252.91003,485.20556 250.92131,487.4448 C 248.93219,489.68442 247.19189,491.73596 245.7004,493.59944 C 244.20852,495.46328 242.71494,497.64008 241.21964,500.12985 C 232.76277,511.57008 224.86594,524.94023 217.52912,540.24032 C 210.19199,555.54068 204.03356,570.52777 199.05383,585.20162 C 196.56374,592.66394 194.5103,599.81493 192.8935,606.6546 C 191.27642,613.49442 189.90999,620.45942 188.7942,627.54963 C 187.67815,634.63993 186.86968,642.04143 186.36878,649.75414 C 185.86763,657.46691 185.49566,666.04886 185.25286,675.5 L 140.47944,675.5 C 140.72228,666.04886 141.03163,657.52954 141.40748,649.94203 C 141.78316,642.35457 142.40565,635.07833 143.27494,628.11328 C 144.14405,621.14833 145.26187,614.30668 146.62839,607.58833 C 147.99473,600.87012 149.6762,593.6584 151.6728,585.95316 C 156.14397,570.27725 161.4275,555.28827 167.52341,540.98616 C 173.6191,526.68432 180.39811,513.31608 187.86047,500.88139 C 189.84926,496.89614 192.3373,492.6659 195.32461,488.19065 C 198.31164,483.71578 202.54188,477.49662 208.01534,469.53316 L 66.601024,469.53316 L 65.849486,425.49989 L 268.45718,425.49989 L 268.45718,470.2847 L 268.45718,470.2847 z M 535.15054,549.01395 C 535.1503,565.18351 533.22401,581.04169 529.37167,596.58856 C 525.51886,612.13558 519.42496,626.12631 511.08995,638.56079 C 502.7545,650.99535 491.99576,661.00635 478.81369,668.59383 C 465.63124,676.18132 449.58517,679.97506 430.67543,679.97506 C 412.02351,679.97506 396.04387,676.30657 382.73644,668.96959 C 369.42884,661.63263 358.54484,651.87024 350.08441,639.6824 C 341.62387,627.49464 335.40472,613.62726 331.42692,598.08024 C 327.44905,582.53338 325.46014,566.54994 325.46017,550.12987 C 325.46014,533.71005 327.51168,517.72661 331.61481,502.1795 C 335.71786,486.63273 342.06037,472.89061 350.64237,460.95311 C 359.22426,449.01603 370.10826,439.377 383.2944,432.03599 C 396.48037,424.69546 412.27403,421.02508 430.67543,421.02483 C 449.33466,421.02508 465.25547,424.75619 478.43792,432.21818 C 491.61999,439.68065 502.44136,449.44494 510.90206,461.51107 C 519.36233,473.57762 525.51886,487.25901 529.37167,502.55526 C 533.22401,517.85187 535.1503,533.33808 535.15054,549.01395 L 535.15054,549.01395 z M 490.37712,550.12987 C 490.37692,523.76548 485.15412,503.11909 474.7087,488.19065 C 464.26291,473.26258 449.58517,465.79846 430.67543,465.79825 C 419.48574,465.79846 410.0346,468.41175 402.32197,473.63815 C 394.60912,478.86495 388.38996,485.5206 383.66448,493.60514 C 378.93881,501.69003 375.51894,510.64395 373.40485,520.46691 C 371.2906,530.29018 370.23351,539.80585 370.23359,549.01395 C 370.23351,576.87408 375.58157,598.20368 386.27778,613.00282 C 396.9738,627.80208 411.773,635.20169 430.67543,635.20164 C 439.88352,635.20169 448.15611,633.15014 455.49325,629.04701 C 462.83006,624.94397 469.10995,619.09868 474.33293,611.51113 C 479.55555,603.92371 483.53528,594.84454 486.27213,584.27359 C 489.00859,573.70282 490.37692,561.94962 490.37712,549.01395 L 490.37712,550.12987 z "
       id="text2796" />
    <path
       style="font-size:298.50100708px;font-style:normal;font-variant:normal;font-weight:normal;font-stretch:normal;text-align:center;line-height:125%;writing-mode:lr-tb;text-anchor:middle;font-family:Roadgeek 2005 Series D"
       d="m 255.10678,1052.7071 0,49.8473 -31.33677,0 0,-49.8473 -99.10255,0 0,-18.8112 99.10255,-131.34118 31.33677,0 0,121.49378 19.11179,0 0,28.6586 -19.11179,0 z m -31.33677,-103.88509 -57.01654,75.22649 57.01654,0 0,-75.22649 z m 236.01871,54.02859 c -1e-4,15.9236 -1.8903,31.1486 -5.6706,45.6752 -3.7806,14.5267 -9.1537,26.2689 -16.1193,35.2265 -11.1442,14.9214 -27.2619,22.3821 -48.3534,22.3821 -14.132,0 -25.774,-2.8846 -34.9259,-8.654 -9.1521,-5.7694 -16.713,-14.8242 -22.6828,-27.1646 -4.1782,-8.5569 -7.5609,-18.9539 -10.148,-31.191 -2.5871,-12.2371 -3.8807,-24.3285 -3.8806,-36.2742 -1e-4,-16.5124 1.9403,-31.8331 5.8209,-45.9621 3.8807,-14.12872 9.2037,-25.96958 15.969,-35.52261 5.9698,-7.56072 13.0843,-13.18281 21.3437,-16.86629 8.2592,-3.68308 18.1582,-5.52472 29.697,-5.52493 12.735,2.1e-4 23.5799,2.88641 32.5347,8.65861 8.9545,5.77259 16.6172,14.82594 22.9879,27.16006 4.1781,8.95786 7.4605,19.40648 9.8474,31.34588 2.3865,11.93968 3.5799,24.1768 3.58,36.71138 l 0,0 z m -31.6373,0 c -2e-4,-11.3382 -0.9946,-21.83388 -2.9834,-31.48706 -1.9891,-9.65293 -4.9755,-17.86212 -8.9592,-24.62761 -3.1824,-5.17405 -6.8126,-8.9545 -10.8905,-11.34137 -4.0781,-2.38652 -9.102,-3.78028 -15.0717,-4.18127 -7.7614,-0.39457 -14.2292,1.39697 -19.4033,5.37462 -5.1743,3.97799 -9.4527,10.44575 -12.8353,19.4033 -2.5872,5.96991 -4.5275,13.18314 -5.821,21.63968 -1.2936,8.4568 -1.9404,16.86336 -1.9403,25.21971 -10e-5,10.7493 0.9944,21.0993 2.9833,31.0498 1.9889,9.9507 4.9723,18.1083 8.9502,24.4728 3.1882,5.1742 6.9702,9.0549 11.3459,11.642 4.3755,2.5871 9.7486,3.8807 16.1193,3.8806 7.3604,10e-5 13.4789,-1.9889 18.3557,-5.9667 4.8765,-3.9778 9.0061,-10.4456 12.3889,-19.4033 0.9959,-2.5871 1.9919,-5.7207 2.988,-9.401 0.9958,-3.6802 1.8415,-7.5609 2.537,-11.642 0.6952,-4.081 1.2418,-8.2107 1.6397,-12.389 0.3976,-4.1781 0.5965,-8.2592 0.5967,-12.2432 l 0,0 z"
       id="text2802-2" />
  </g>
</svg>
