<?xml version="1.0" encoding="UTF-8" standalone="no"?>
<svg
   xmlns:dc="http://purl.org/dc/elements/1.1/"
   xmlns:cc="http://creativecommons.org/ns#"
   xmlns:rdf="http://www.w3.org/1999/02/22-rdf-syntax-ns#"
   xmlns:svg="http://www.w3.org/2000/svg"
   xmlns="http://www.w3.org/2000/svg"
   xmlns:sodipodi="http://sodipodi.sourceforge.net/DTD/sodipodi-0.dtd"
   xmlns:inkscape="http://www.inkscape.org/namespaces/inkscape"
   height="3249.9998"
   width="5409.9941"
   viewBox="82.992 45.607 15847.314 10482.5"
   id="svg2"
   version="1.1"
   inkscape:version="0.48.2 r9819"
   sodipodi:docname="AJAX1.svg">
  <metadata
     id="metadata2508">
    <rdf:RDF>
      <cc:Work
         rdf:about="">
        <dc:format>image/svg+xml</dc:format>
        <dc:type
           rdf:resource="http://purl.org/dc/dcmitype/StillImage" />
        <dc:title></dc:title>
      </cc:Work>
    </rdf:RDF>
  </metadata>
  <sodipodi:namedview
     pagecolor="#ffffff"
     bordercolor="#666666"
     borderopacity="1"
     objecttolerance="10"
     gridtolerance="10"
     guidetolerance="10"
     inkscape:pageopacity="0"
     inkscape:pageshadow="2"
     inkscape:window-width="1280"
     inkscape:window-height="1004"
     id="namedview2506"
     showgrid="false"
     inkscape:zoom="0.1152365"
     inkscape:cx="2373.5896"
     inkscape:cy="746.54402"
     inkscape:window-x="-8"
     inkscape:window-y="-8"
     inkscape:window-maximized="1"
     inkscape:current-layer="svg2"
     showguides="true"
     inkscape:guide-bbox="true"
     fit-margin-top="0"
     fit-margin-left="0"
     fit-margin-right="0"
     fit-margin-bottom="0" />
  <defs
     id="defs4">
    <linearGradient
       id="linearGradient6324">
      <stop
         style="stop-color:#ec8028;stop-opacity:1;"
         offset="0"
         id="stop6326" />
      <stop
         style="stop-color:#ec8028;stop-opacity:0;"
         offset="1"
         id="stop6328" />
    </linearGradient>
    <clipPath
       id="SVG_CP_1">
      <path
         inkscape:connector-curvature="0"
         d="M 598.41107,0 0,0 l 0,392.15871 598.41107,0 0,-392.15871 z"
         id="path21406" />
    </clipPath>
    <clipPath
       id="clipPath6506">
      <path
         inkscape:connector-curvature="0"
         d="M 598.41107,0 0,0 l 0,392.15871 598.41107,0 0,-392.15871 z"
         id="path6508" />
    </clipPath>
    <clipPath
       id="clipPath6510">
      <path
         inkscape:connector-curvature="0"
         d="M 598.41107,0 0,0 l 0,392.15871 598.41107,0 0,-392.15871 z"
         id="path6512" />
    </clipPath>
    <clipPath
       id="clipPath6514">
      <path
         inkscape:connector-curvature="0"
         d="M 598.41107,0 0,0 l 0,392.15871 598.41107,0 0,-392.15871 z"
         id="path6516" />
    </clipPath>
    <clipPath
       id="clipPath6518">
      <path
         inkscape:connector-curvature="0"
         d="M 598.41107,0 0,0 l 0,392.15871 598.41107,0 0,-392.15871 z"
         id="path6520-6" />
    </clipPath>
    <clipPath
       id="clipPath6522">
      <path
         inkscape:connector-curvature="0"
         d="M 598.41107,0 0,0 l 0,392.15871 598.41107,0 0,-392.15871 z"
         id="path6524-5" />
    </clipPath>
    <clipPath
       id="clipPath6526">
      <path
         inkscape:connector-curvature="0"
         d="M 598.41107,0 0,0 l 0,392.15871 598.41107,0 0,-392.15871 z"
         id="path6528-2" />
    </clipPath>
    <clipPath
       id="SVG_CP_1-9">
      <path
         inkscape:connector-curvature="0"
         d="M 598.41107,0 0,0 l 0,392.15871 598.41107,0 0,-392.15871 z"
         id="path21406-3" />
    </clipPath>
    <clipPath
       id="SVG_CP_1-0">
      <path
         inkscape:connector-curvature="0"
         d="M 598.41107,0 0,0 l 0,392.15871 598.41107,0 0,-392.15871 z"
         id="path21406-1" />
    </clipPath>
    <clipPath
       id="clipPath6597">
      <path
         inkscape:connector-curvature="0"
         d="M 598.41107,0 0,0 l 0,392.15871 598.41107,0 0,-392.15871 z"
         id="path6599" />
    </clipPath>
    <clipPath
       id="clipPath6601">
      <path
         inkscape:connector-curvature="0"
         d="M 598.41107,0 0,0 l 0,392.15871 598.41107,0 0,-392.15871 z"
         id="path6603" />
    </clipPath>
  </defs>
  <style
     id="style_css_sheet"
     type="text/css"> 
/*
 * Below are Cascading Style Sheet (CSS) definitions in use in this file,
 * which allow easily changing how countries are displayed.
 *
 */

/*
 * Circles around small countries
 *
 * Change opacity to 1 to display all circles.
 *
 */
.circlexx
{
   opacity:1;
   fill:#e0e0e0;
   stroke:#000000;
   stroke-width:0.5;
}

/*
 * Smaller circles around French DOMs and Chinese SARs
 *
 * Change opacity to 1 to display all subnational circles.
 *
 */
.subxx
{
   opacity:1;
   stroke-width:0.3;
}

/*
 * Circles around small, unrecognized countries
 *
 * Change opacity to 1 to display all circles.
 *
 */
.unxx
{
   opacity:0;
   fill:#e0e0e0;
   stroke:#000000;
   stroke-width:0.3;
}

/*
 * Circles around small countries, but with no permanent residents 
 *
 * Change opacity to 1 to display all circles.
 *
 */
.noxx
{
   opacity:0;
   fill:#e0e0e0;
   stroke:#000000;
   stroke-width:0.5;
}

/*
 * land
 */
.landxx
{
   fill: #e0e0e0;
   stroke:#ffffff;
   stroke-width:0.5;
   fill-rule:evenodd;
}

/*
 * Styles for coastlines of islands with no borders
 */
.coastxx
{
   fill: #e0e0e0;
   stroke:#ffffff;
   stroke-width:0.3;
   fill-rule:evenodd;
}

/*
 * Styles for nations with limited recognition
 */
.limitxx
{
   fill: #e0e0e0;
   stroke:#ffffff;
   stroke-width:0;
   fill-rule:evenodd;
}

/*
 * Styles for nations with no permanent population.
 */
.antxx
{
   fill: #e0e0e0;
   stroke:#ffffff;
   stroke-width:0;
   fill-rule:evenodd;
}

/*
 * Ocean
 */
.oceanxx
{
   opacity: 1;
   color: #000000;
   fill:#ffffff;
   stroke:#000;
   stroke-width:0.5;
   stroke-miterlimit:1;
}

/*
 * Additional style rules
 *
 * The following are examples of colouring countries.  You can substitute these with your own styles to colour the countries on the map.
 *
 * Color a few countries:
 *
 * .gb, .au, .nc
 * {
 *    fill:       #ff0000;
 * }
 *
 * Color a few small country circles (and the countries):
 *
 * .ms, .ky
 * {
 *    opacity:    1;
 *    fill:       #ff0000;
 * }
 *
 */

/* Same-sex marriage */
.ar, .be, .ca, .dk, .es, .is, .nl, .no, .pt, .se, .za
{ fill: #002255; }

/* Civil unions etc. */
.ad, .at, .au, .bl, .br, .ch, .co, .cz, .de, .ec, .fi, .fr, .gb, .gf, .gl, .hr, .hu, .ie, .il, .im, .je, .li, .lu, .mf, .nc, .nf, .nz, .pm, .re, .si, .uy, .wf
{ fill: #0066ff; }

/* Recognition of foreign marriages */
.aw, .cw, .sx, .mx
{ fill: #7fbcff; }

/* Legal but no recognition */
.ai, .al, .am, .as, .az, .ba, .bg, .bf, .by, .bj, .bm, .bo, .bs, .cd, .cg, .cf, .ci, .cl, .cn, .cr, .cu, .cv, .cy, .dj, .do, .ee, .fk, .fj, .fm, .fo, .ga, .ge, .gg, .gi, .gq, .gr, .gs, .gt, .gu, .gw, .hn, .ht, .id, .in, .iq, .it, .jo, .jp, .kg, .kh, .kp, .kr, .ky, .kz, .la, .lk, .lt, .lv, .mc, .md, .me, .mg, .mh, .mk, .ml, .mn, .mp, .mt, .ms, .mz, .ne, .ni, .np, .pa, .pe, .pf, .ph, .pl, .pn, .pr, .py, .ro, .rs, .ru, .rw, .sh, .sk, .sm, .sr, .st, .sv, .tc, .td, .th, .tj, .tk, .tl, .tr, .tw, .ua, .us, .va, .ve, .vg, .vi, .vn, .vu, .xk, .ps_west_bank
{ fill: #cccccc; }

/* Illegal, minimal penalty */
.bt, .lb, .lr
{ fill: #f9dc36; }

/* Illegal, large penalty */
.ag, .ao, .bh, .bi, .bn, .bw, .bz, .cm, .ck, .dm, .dz, .eg, .eh, .er, .et, .gd, .gh, .gm, .gn, .jm, .ke, .ki, .km, .kn, .kw, .lc, .ls, .ly, .ma, .mu, .mv, .mw, .my, .na, .ng, .nr, .nu, .om, .pg, .pw, .qa, .sb, .sc, .sg, .sn, .so, .ss, .sy, .sz, .tg, .tm, .tn, .to, .tt, .tv, .uz, .vc, .ws, .zm, .zw, .xc, .ps_gaza_strip
{ fill: #ec8028; }

/* Illegal, life imprisonment */
.bb, .bd, .gy, .mm, .pk, .sl, .tz, .ug
{ fill: #e73e21; }

/* Illegal, death penalty */
.ae, .af, .ir, .mr, .sa, .sd, .ye
{ fill: #8c201f; }

/* SUB-NATIONAL UNITS */

/* Same-sex marriage */
.br_al, .mx_dif, .us_ct, .us_dc, .us_ia, .us_ma, .us_md, .us_nh, .us_ny, .us_vt, .us_wa
{ fill: #002255; }

/* Civil unions etc. */
.mx_coa, .uk_je, .us_ca, .us_co, .us_de, .us_hi, .us_il, .us_me, .us_nj, .us_nv, .us_or, .us_ri, .us_wi, .ve_l
{ fill: #0066ff; }

/* Recognition of foreign marriages */
.bq
{ fill: #7fbcff; }

/* Illegal, large penalty */
.id_ac
{ fill: #ec8028; }

/* Illegal, death penalty */
.ng_sharia, .so_shabaab
{ fill: #8c201f; }

</style>
  <path
     inkscape:connector-curvature="0"
     style="fill:#ffffff;fill-rule:nonzero;stroke:#000000;stroke-width:32.25384903;stroke-linecap:butt;stroke-linejoin:miter;stroke-miterlimit:4;stroke-opacity:1;stroke-dasharray:none"
     d="m 16715.191,9858.8325 c 0,360.7175 -292.421,653.1395 -653.14,653.1395 l -16110.79785,0 c -360.71777,0 -653.14042,-292.422 -653.14042,-653.1395 l 0,-9143.9659 c 0,-360.7178 292.42265,-653.1405 653.14042,-653.1405 l 16110.79785,0 c 360.719,0 653.14,292.4227 653.14,653.1405 l 0,9143.9659 z"
     id="path11" />
  <path
     inkscape:connector-curvature="0"
     style="fill:#000000;fill-rule:nonzero;stroke:none"
     d="m -48.74686,10330.544 c -260.1055,0 -471.71252,-211.625 -471.71252,-471.7114 l 0,-9143.966 c 0,-260.1019 211.60702,-471.7126 471.71252,-471.7126 l 16110.79786,0 c 260.087,0 471.712,211.6107 471.712,471.7126 l 0,9143.966 c 0,260.0864 -211.625,471.7114 -471.712,471.7114 l -16110.79786,0 z"
     id="path13" />
  <path
     inkscape:connector-curvature="0"
     style="fill:#ffffff;fill-rule:nonzero;stroke:none"
     d="m -48.74686,10076.545 c -120.04881,0 -217.71346,-97.6476 -217.71346,-217.7124 l 0,-9143.966 c 0,-120.0448 97.66465,-217.7135 217.71346,-217.7135 l 16110.79786,0 c 120.065,0 217.713,97.6687 217.713,217.7135 l 0,9143.966 c 0,120.0648 -97.648,217.7124 -217.713,217.7124 l -16110.79786,0 z"
     id="path15" />
  <path
     inkscape:connector-curvature="0"
     style="fill:#000000;fill-rule:nonzero;stroke:none"
     d="m 11314.445,7924.8916 -142.965,584.6415 293.067,0 -150.102,-584.6415 z m 364.549,1425.943 -142.965,-556.1374 -436.031,0 -135.829,556.1374 -293.067,0 507.514,-2031.9927 285.931,0 507.514,2031.9927 -293.067,0 z"
     id="path17" />
  <path
     inkscape:connector-curvature="0"
     style="fill:#000000;fill-rule:nonzero;stroke:none"
     d="m 13988.33,9350.8345 0,-2031.9926 958.141,0 0,285.2046 -664.994,0 0,513.3197 421.92,0 0,278.0689 -421.92,0 0,670.1944 743.653,0 0,285.205 -1036.8,0 z"
     id="path19" />
  <path
     inkscape:connector-curvature="0"
     style="fill:#000000;fill-rule:nonzero;stroke:none"
     d="m 4394.4221,9101.3103 c -78.78,178.2428 -243.4762,285.1644 -451.0701,285.1644 -243.4762,0 -422.4448,-121.1934 -522.6736,-349.3495 -64.4674,-149.7382 -107.4214,-434.9028 -107.4214,-698.739 0,-285.1644 21.4649,-491.9522 93.0684,-684.4268 71.6036,-213.924 279.2377,-370.7583 515.5375,-370.7583 293.5503,0 515.4971,213.8833 529.8098,513.3203 l -293.5504,0 c -7.1764,-135.4661 -100.2288,-228.1559 -243.4359,-228.1559 -100.2288,0 -179.0088,49.913 -229.1233,149.7388 -57.2505,99.8254 -93.0523,327.9814 -93.0523,570.3692 0,171.147 14.3126,349.3894 42.9379,506.2238 42.9783,199.6517 143.2071,306.6132 300.7268,306.6132 150.3433,0 221.9468,-99.8254 221.9468,-313.7495 l 0,-135.4256 -229.1232,0 0,-285.2048 522.6736,0 0,420.6304 c 0,142.6024 -14.3127,228.1561 -57.2506,313.7495 z"
     id="path21" />
  <path
     inkscape:connector-curvature="0"
     style="fill:#000000;fill-rule:nonzero;stroke:none"
     d="m 5786.0547,9350.8345 0,-919.7587 -555.0081,0 0,919.7587 -291.6957,0 0,-2031.9926 291.6957,0 0,827.0693 555.0081,0 0,-827.0693 291.736,0 0,2031.9926 -291.736,0 z"
     id="path23" />
  <path
     inkscape:connector-curvature="0"
     style="fill:#000000;fill-rule:nonzero;stroke:none"
     d="m 2541.1079,9350.8345 0,-2031.9926 284.4749,0 0,2031.9926 -284.4749,0 z"
     id="path25" />
  <path
     inkscape:connector-curvature="0"
     style="fill:#000000;fill-rule:nonzero;stroke:none"
     d="m 9487.9498,9350.8345 0,-2031.9926 293.1874,0 0,1761.0604 743.6538,0 0,270.9323 -1036.8412,0 z"
     id="path27" />
  <path
     inkscape:connector-curvature="0"
     style="fill:#000000;fill-rule:nonzero;stroke:none"
     d="m 13231.292,9350.8345 -626.128,-1361.7979 0,1361.7979 -291.696,0 0,-2031.9926 291.696,0 555.008,1219.1955 0,-1219.1955 291.696,0 0,2031.9926 -220.576,0 z"
     id="path29" />
  <path
     inkscape:connector-curvature="0"
     style="fill:#000000;fill-rule:nonzero;stroke:none"
     d="m 1578.7176,7604.0464 -298.8359,0 0,513.3197 298.8359,0 c 170.764,0 263.2559,-92.6892 263.2559,-256.6597 0,-156.8746 -106.7239,-256.66 -263.2559,-256.66 z m 249.032,1746.7881 -270.384,-955.3994 -277.4839,0 0,955.3994 -291.72383,0 0,-2031.9926 604.78773,0 c 320.188,0 533.6359,213.8834 533.6359,541.8646 0,242.428 -99.612,420.671 -291.7199,491.952 l 291.7199,998.176 -298.8319,0 z"
     id="path31" />
  <path
     inkscape:connector-curvature="0"
     style="fill:#000000;fill-rule:nonzero;stroke:none"
     d="m 7084.1511,7589.7741 0,1761.0604 -293.1875,0 0,-1761.0604 -371.8062,0 0,-270.9322 1036.8,0 0,270.9322 -371.8063,0 z"
     id="path33" />
  <path
     inkscape:connector-curvature="0"
     style="fill:#000000;fill-rule:nonzero;stroke:none"
     d="m 1956.6118,1828.8944 -142.9692,584.6453 293.0866,0 -150.1174,-584.6453 z m 364.5571,1425.9627 -142.9692,-556.125 -436.0397,0 -135.8129,556.1248 -293.0827,0 507.5264,-2031.9925 285.9384,0 507.5224,2031.9925 -293.0827,0 z"
     id="path35" />
  <path
     inkscape:connector-curvature="0"
     style="fill:#000000;fill-rule:nonzero;stroke:none"
     d="m 2955.6305,3254.8611 0,-2031.9966 293.1673,0 0,1761.0643 743.6609,0 0,270.9324 -1036.8282,0 z"
     id="path37" />
  <path
     inkscape:connector-curvature="0"
     style="fill:#000000;fill-rule:nonzero;stroke:none"
     d="m 4333.8252,3254.8611 0,-2031.9966 293.1875,0 0,1761.0643 743.6527,0 0,270.9324 -1036.8402,0 z"
     id="path39" />
  <path
     inkscape:connector-curvature="0"
     style="fill:#000000;fill-rule:nonzero;stroke:none"
     d="m 12926.533,3254.8571 -626.128,-1361.7938 0,1361.7938 -291.736,0 0,-2031.9964 291.736,0 554.968,1219.1954 0,-1219.1954 291.736,0 0,2031.9964 -220.576,0 z"
     id="path41" />
  <path
     inkscape:connector-curvature="0"
     style="fill:#000000;fill-rule:nonzero;stroke:none"
     d="m 11046.295,1508.0531 -298.832,0 0,513.3483 298.832,0 c 170.744,0 263.232,-92.6855 263.232,-256.6721 0,-156.8586 -106.72,-256.6762 -263.232,-256.6762 z m 249,1746.808 -270.368,-955.3993 -277.464,0 0,955.3993 -291.736,0 0,-2031.9966 604.8,0 c 320.16,0 533.599,213.8954 533.599,541.8647 0,242.4118 -99.583,420.6585 -291.695,491.9599 l 291.695,998.172 -298.831,0 z"
     id="path43" />
  <path
     inkscape:connector-curvature="0"
     style="fill:#000000;fill-rule:nonzero;stroke:none"
     d="m 14140.205,2316.4556 c -87.892,-56.9563 -173.244,-114.1101 -227.753,-152.4599 -163.809,-115.3075 -250.612,-270.9283 -250.612,-449.1751 0,-292.3247 229.123,-527.6085 522.674,-527.6085 286.414,0 508.361,221.0276 515.537,527.6085 l -279.238,0 c -7.176,-142.5983 -107.405,-235.2838 -236.299,-235.2838 -136.031,0 -243.436,99.8176 -243.436,235.2838 0,99.8135 42.978,156.8504 193.321,242.4118 393.779,228.1557 565.652,449.1792 565.652,741.4999 0,327.9732 -250.612,591.7774 -565.652,591.7774 -357.977,0 -572.788,-299.4568 -572.788,-634.5581 l 286.414,0 c 0,171.1227 85.917,349.3656 286.374,349.3656 157.52,0 286.414,-142.5983 286.414,-306.5849 0,-127.3302 -52.614,-234.5742 -280.608,-382.2767 z"
     id="path45" />
  <path
     inkscape:connector-curvature="0"
     style="fill:#000000;fill-rule:nonzero;stroke:none"
     d="m 8067.6516,1493.7968 0,1761.0601 -293.1875,0 0,-1761.0601 -371.8062,0 0,-270.9363 1036.7999,0 0,270.9363 -371.8062,0 z"
     id="path47" />
  <path
     inkscape:connector-curvature="0"
     style="fill:#000000;fill-rule:nonzero;stroke:none"
     d="m 9841.0082,3005.313 c -99.624,163.9867 -291.736,285.1926 -483.8478,285.1926 -199.2078,0 -398.4559,-114.0778 -498.0397,-285.1926 -56.928,-106.9497 -78.2962,-192.503 -78.2962,-356.4856 l 0,-1425.9668 291.7361,0 0,1461.6114 c 0,192.503 113.856,320.8411 284.5998,320.8411 156.5522,0 270.4078,-128.3381 270.4078,-320.8411 l 0,-1461.6113 291.696,0 0,1425.9667 c 0,163.9825 -21.328,249.5359 -78.256,356.4856 z"
     id="path49" />
  <path
     inkscape:connector-curvature="0"
     style="fill:#000000;fill-rule:nonzero;stroke:none"
     d="m 8911.7751,4720.0284 c -64.3464,-106.9619 -142.9652,-149.6982 -264.4412,-156.8343 -157.2778,-7.1361 -257.3051,71.2809 -328.7877,249.5239 -50.0338,121.1938 -78.6187,306.5728 -78.6187,477.6795 0,213.9236 42.8976,434.9431 121.476,563.2731 64.3464,106.9618 150.1014,156.8748 278.7539,156.8748 150.1013,0 243.0327,-78.4576 314.475,-256.7004 42.8976,-106.9216 78.6188,-306.5727 78.6188,-463.4474 0,-228.1154 -42.8573,-434.9029 -121.4761,-570.369 z m 221.5436,1390.3021 c -114.3399,156.8746 -278.7538,228.1557 -493.1613,228.1557 -285.89,0 -464.5764,-114.0577 -586.0524,-363.5815 -85.7549,-171.147 -142.9249,-442.0793 -142.9249,-684.5073 0,-335.0772 85.7549,-634.5139 221.5436,-827.029 121.5164,-156.8747 285.8901,-228.1558 521.7463,-228.1558 257.3051,0 435.9914,114.0576 564.644,363.6219 85.7549,178.2429 135.7887,434.9029 135.7887,691.5629 0,320.8451 -78.6188,641.6903 -221.584,819.9331 z"
     id="path51" />
  <path
     inkscape:connector-curvature="0"
     style="fill:#000000;fill-rule:nonzero;stroke:none"
     d="m 11155.837,6302.8456 0,-1176.4187 -471.511,1176.4187 -471.511,-1176.4187 0,1176.4187 -321.4908,0 0,-2031.9925 321.4908,0 471.511,1140.7784 471.511,-1140.7784 321.45,0 0,2031.9925 -321.45,0 z"
     id="path53" />
  <path
     inkscape:connector-curvature="0"
     style="fill:#000000;fill-rule:nonzero;stroke:none"
     d="m 7053.389,4627.3389 c -49.8725,-28.5043 -78.4171,-35.6405 -185.379,-35.6405 l -385.0303,0 0,499.088 385.0303,0 c 99.8257,0 135.5065,-7.1362 185.379,-35.6405 78.4575,-42.7767 128.3703,-128.3704 128.3703,-213.8834 0,-85.5936 -49.9128,-171.147 -128.3703,-213.9236 z m 142.6023,1675.5067 -327.9813,-884.1182 -385.0303,0 0,884.1182 -320.8451,0 0,-2031.9925 670.2349,0 c 156.8747,0 263.8365,14.2723 363.6218,64.1851 178.2832,85.5532 306.6132,299.4368 306.6132,506.2243 0,213.8834 -128.33,427.7667 -313.709,513.32 l 356.526,948.2631 -349.4302,0 z"
     id="path55" />
  <path
     inkscape:connector-curvature="0"
     style="fill:#000000;fill-rule:nonzero;stroke:none"
     d="m 4856.4585,4591.6984 0,499.088 590.9711,0 0,327.9813 -590.9711,0 0,884.0781 -320.442,0 0,-2031.9926 1260.3594,0 0,320.8453 -939.9174,0 z"
     id="path57" />
</svg>
