<?xml version="1.0" encoding="UTF-8" standalone="no"?>
<!-- Created with Inkscape (http://www.inkscape.org/) -->
<svg xmlns:svg="http://www.w3.org/2000/svg" xmlns="http://www.w3.org/2000/svg" version="1.1" width="836.53705" height="558.9754" id="svg5555">
  <defs id="defs5557"><pattern patternUnits="userSpaceOnUse" width="370" height="476" patternTransform="translate(18.50938,18)" id="pattern17869">
  <rect ry="20" rx="20" y="0" x="0" height="476" width="370" id="rect17871" style="fill:#00e5ff;fill-opacity:1"/>
</pattern>
<pattern id="pattern17873" patternTransform="translate(18.50938,18)" height="476" width="370" patternUnits="userSpaceOnUse">
  <rect style="fill:#00e5ff;fill-opacity:1" id="rect17875" width="370" height="476" x="0" y="0" rx="20" ry="20"/>
</pattern>
<pattern id="pattern15960" patternTransform="translate(18.50938,18)" height="476" width="370" patternUnits="userSpaceOnUse">
  <rect style="fill:#00e5ff;fill-opacity:1" id="rect15962" width="370" height="476" x="0" y="0" rx="20" ry="20"/>
</pattern>
<pattern patternUnits="userSpaceOnUse" width="370" height="476" patternTransform="translate(18.50938,18)" id="pattern4002">
  <rect ry="20" rx="20" y="0" x="0" height="476" width="370" id="rect2240" style="fill:#00e5ff;fill-opacity:1"/>
</pattern>
<pattern id="pattern5932" patternTransform="translate(18.50938,18)" height="476" width="370" patternUnits="userSpaceOnUse">
  <rect style="fill:#00e5ff;fill-opacity:1" id="rect5934" width="370" height="476" x="0" y="0" rx="20" ry="20"/>
</pattern>
<pattern patternUnits="userSpaceOnUse" width="370" height="476" patternTransform="translate(18.50938,18)" id="pattern4002-0">
  <rect ry="20" rx="20" y="0" x="0" height="476" width="370" id="rect2240-94" style="fill:#00e5ff;fill-opacity:1"/>
</pattern>
<marker refX="0" refY="0" orient="auto" id="Arrow2Lstart" style="overflow:visible">
  <path d="M 8.7185878,4.0337352 -2.2072895,0.01601326 8.7185884,-4.0017078 c -1.7454984,2.3720609 -1.7354408,5.6174519 -6e-7,8.035443 z" transform="matrix(1.1,0,0,1.1,1.1,0)" id="path5785" style="font-size:12px;fill-rule:evenodd;stroke-width:0.625;stroke-linejoin:round"/>
</marker>
<marker refX="0" refY="0" orient="auto" id="Arrow2Lstart-8" style="overflow:visible">
  <path d="M 8.7185878,4.0337352 -2.2072895,0.01601326 8.7185884,-4.0017078 c -1.7454984,2.3720609 -1.7354408,5.6174519 -6e-7,8.035443 z" transform="matrix(1.1,0,0,1.1,1.1,0)" id="path5785-2" style="font-size:12px;fill-rule:evenodd;stroke-width:0.625;stroke-linejoin:round"/>
</marker>
<pattern patternUnits="userSpaceOnUse" width="370" height="476" patternTransform="translate(18.50938,18)" id="pattern4002-7">
  <rect ry="20" rx="20" y="0" x="0" height="476" width="370" id="rect2240-6" style="fill:#00e5ff;fill-opacity:1"/>
</pattern>
<pattern id="pattern5932-4" patternTransform="translate(18.50938,18)" height="476" width="370" patternUnits="userSpaceOnUse">
  <rect style="fill:#00e5ff;fill-opacity:1" id="rect5934-8" width="370" height="476" x="0" y="0" rx="20" ry="20"/>
</pattern>
<pattern id="pattern4002-4" patternTransform="translate(18.50938,18)" height="476" width="370" patternUnits="userSpaceOnUse">
  <rect style="fill:#00e5ff;fill-opacity:1" id="rect2240-5" width="370" height="476" x="0" y="0" rx="20" ry="20"/>
</pattern>
<pattern id="pattern4002-1-5" patternTransform="translate(18.50938,18)" height="476" width="370" patternUnits="userSpaceOnUse">
  <rect style="fill:#00e5ff;fill-opacity:1" id="rect2240-7-1" width="370" height="476" x="0" y="0" rx="20" ry="20"/>
</pattern>
<pattern id="pattern4002-9-7" patternTransform="translate(18.50938,18)" height="476" width="370" patternUnits="userSpaceOnUse">
  <rect style="fill:#00e5ff;fill-opacity:1" id="rect2240-4-1" width="370" height="476" x="0" y="0" rx="20" ry="20"/>
</pattern>
<pattern id="pattern4002-40" patternTransform="translate(18.50938,18)" height="476" width="370" patternUnits="userSpaceOnUse">
  <rect style="fill:#00e5ff;fill-opacity:1" id="rect2240-9" width="370" height="476" x="0" y="0" rx="20" ry="20"/>
</pattern>
<pattern id="pattern4002-1" patternTransform="translate(18.50938,18)" height="476" width="370" patternUnits="userSpaceOnUse">
  <rect style="fill:#00e5ff;fill-opacity:1" id="rect2240-7" width="370" height="476" x="0" y="0" rx="20" ry="20"/>
</pattern>
<pattern id="pattern4002-9" patternTransform="translate(18.50938,18)" height="476" width="370" patternUnits="userSpaceOnUse">
  <rect style="fill:#00e5ff;fill-opacity:1" id="rect2240-4" width="370" height="476" x="0" y="0" rx="20" ry="20"/>
</pattern>
<pattern patternUnits="userSpaceOnUse" width="370" height="476" patternTransform="translate(18.50938,18)" id="pattern4002-71">
  <rect ry="20" rx="20" y="0" x="0" height="476" width="370" id="rect2240-1" style="fill:#00e5ff;fill-opacity:1"/>
</pattern>

			
			
			
		</defs><title>منطقة سكنية - gpsarab.com</title>
  <g transform="translate(74.919447,-77.035196)" id="layer1">
    <rect width="833.63934" height="556.0777" rx="26.123751" ry="26.123751" x="-73.470604" y="78.484039" id="rect3806-2" style="fill:#ffffff;fill-opacity:1;stroke:#0000ff;stroke-width:2.897686;stroke-miterlimit:4;stroke-opacity:1;stroke-dasharray:none"/>
    <rect width="822.51184" height="542.92596" rx="21.739977" ry="21.739977" x="-68.412407" y="84.638184" id="rect6314" style="fill:#0000ff;fill-opacity:1;stroke:none"/>
    <path d="m 92.912066,222.81385 c 10.829934,0 19.613094,8.80437 19.613094,19.63432 0,10.82995 -8.78308,19.61311 -19.613094,19.61311 -10.829943,0 -19.613094,-8.78317 -19.613094,-19.61311 0,-10.82995 8.783151,-19.63432 19.613094,-19.63432 z m 27.139914,102.89143 42.21419,42.69975 -9.64932,18.58317 -53.378632,-53.48328 -7.315633,49.41687 35.077945,48.23481 23.75371,70.43344 25.096,4.75026 -0.0352,7.63996 -45.61212,7.90803 -23.84157,-75.1719 -29.907904,-36.34534 -55.96064,93.08405 15.844298,13.16843 -0.0094,6.79018 -13.917748,0 -28.758317,-16.90073 56.336185,-114.24851 -2.493798,-8.31895 7.161746,-42.56651 -0.04051,-27.45101 -18.224494,22.81953 0,64.14144 -18.683266,-10.54052 0,-62.96241 38.581621,-51.27482 35.504788,-12.34876 28.258139,61.94282 z" id="path1933-2-6" style="fill:#ffffff;fill-rule:evenodd;stroke:none"/>
    <path d="m 314.89801,153.58351 -61.61656,1.06796 -7.90564,40.76036 -7.04697,7.56468 0,63.03915 6.51401,0 0,20.85483 21.82192,0 0,-20.85483 96.61453,0 0,20.85483 21.76271,0 0,-20.85483 7.01736,0 0,-63.1578 -7.31346,-7.44603 -7.87602,-40.87903 -61.97188,-0.94929 z m -53.38523,14.15042 107.21461,0 4.64862,27.91522 -116.15655,0 4.29332,-27.91522 z m -5.5369,45.53651 c 5.86996,0 10.57045,4.73909 10.57045,10.62024 0,5.88115 -4.70049,10.62025 -10.57045,10.62025 -5.86998,0 -10.60007,-4.7391 -10.60007,-10.62025 0,-5.88115 4.73009,-10.62024 10.60007,-10.62024 z m 118.64372,0 c 5.86997,0 10.60006,4.73909 10.60006,10.62024 0,5.88115 -4.73009,10.62025 -10.60006,10.62025 -5.86997,0 -10.60007,-4.7391 -10.60007,-10.62025 0,-5.88115 4.7301,-10.62024 10.60007,-10.62024 z m -129.68793,30.94109 140.19916,0 0,7.53503 -140.19916,0 0,-7.53503 z" id="path4215" style="fill:#ffffff;stroke:none"/>
    <path d="m 489.59271,300.47729 c 0,0 0,26.06424 0,46.80577 0,18.86051 21.62248,44.51309 48.1266,44.51309 53.57496,0 167.23418,0 167.23418,0" id="path13278-7" style="fill:none;stroke:#ffffff;stroke-width:14.16296196;stroke-linecap:butt;stroke-linejoin:miter;stroke-miterlimit:4;stroke-opacity:1;stroke-dasharray:none"/>
    <path d="m 593.5681,210.38175 6.84965,0.006 0,145.82418 34.92269,0 0,-55.56127 27.72704,0 0,55.56127 34.92269,0 0,-145.82418 7.92452,0.005 -28.79445,-21.24434 -3.8e-4,-18.62833 -7.13563,4.4e-4 -0.0271,13.34303 -20.69642,-15.26968 -55.69266,41.7885 5e-5,0 z m 41.76886,34.46428 27.75506,0 0,28.05647 -27.75506,0 0,-28.05647 z" id="path15050-9" style="fill:#ffffff;fill-rule:evenodd;stroke:none"/>
    <path d="m 371.47178,460.3949 -13.95962,7.48042 3.29303,5.34481 20.49917,-11.1289 3.26479,-4.10994 3.21548,19.46366 -16.73106,14.59396 0,29.9582 -13.99847,8.58769 24.26372,9.5e-4 0,-31.61387 11.3374,-6.6807 7.62987,17.23324 24.19449,0 9.07713,13.48343 0,-24.784 -28.12545,0 0,-47.73449 7.16338,5.76188 0,25.43832 8.6221,-4.86447 0,-25.55081 -26.40184,-22.8607 -23.34412,31.98132 z" id="path2814" style="fill:#ffffff;fill-opacity:1;fill-rule:evenodd;stroke:none"/>
    <path d="m 404.34356,415.0979 c -0.002,3.30874 -1.36516,6.59637 -3.70543,8.93535 -2.34026,2.33899 -5.62865,3.70055 -8.93737,3.70055 -3.30873,0 -6.59712,-1.36156 -8.93738,-3.70055 -2.34026,-2.33898 -3.70362,-5.62661 -3.70543,-8.93535 -0.002,-3.31102 1.35993,-6.60239 3.70054,-8.94427 2.34062,-2.3419 5.63123,-3.70544 8.94227,-3.70544 3.31103,0 6.60164,1.36354 8.94226,3.70544 2.34061,2.34188 3.70236,5.63325 3.70054,8.94427 z" id="path2816" style="fill:#ffffff;fill-opacity:1;fill-rule:nonzero;stroke:none"/>
    <path d="m 357.51169,502.69582 c -0.002,3.72792 -1.53813,7.43208 -4.17489,10.0674 -2.63676,2.63531 -6.34176,4.16938 -10.06968,4.16938 -3.72793,0 -7.43293,-1.53407 -10.06969,-4.16938 -2.63675,-2.63532 -4.17285,-6.33948 -4.17489,-10.0674 -0.002,-3.73052 1.53224,-7.43888 4.16938,-10.07746 2.63717,-2.6386 6.34468,-4.1749 10.0752,-4.1749 3.73052,0 7.43803,1.5363 10.07518,4.1749 2.63716,2.63858 4.17143,6.34694 4.16939,10.07746 z" id="path2816-4" style="fill:#ffffff;fill-opacity:1;fill-rule:nonzero;stroke:none"/>
  </g>
</svg>