<svg xmlns="http://www.w3.org/2000/svg" xmlns:xlink="http://www.w3.org/1999/xlink" width="82" zoomAndPan="magnify" viewBox="0 0 61.5 76.499999" height="102" preserveAspectRatio="xMidYMid meet" version="1.0"><defs><g/><clipPath id="7a6470d713"><path d="M 1.875 1.925781 L 59.199219 1.925781 L 59.199219 74.308594 L 1.875 74.308594 Z M 1.875 1.925781 " clip-rule="nonzero"/></clipPath><clipPath id="4aea380401"><path d="M 0 1 L 61.003906 1 L 61.003906 3 L 0 3 Z M 0 1 " clip-rule="nonzero"/></clipPath><clipPath id="821d7e80ac"><path d="M 59 0.0585938 L 61 0.0585938 L 61 75.945312 L 59 75.945312 Z M 59 0.0585938 " clip-rule="nonzero"/></clipPath><clipPath id="b793cf4ec0"><path d="M 0 0.0585938 L 3 0.0585938 L 3 75.945312 L 0 75.945312 Z M 0 0.0585938 " clip-rule="nonzero"/></clipPath><clipPath id="1e31e1d6cd"><path d="M 0 74 L 61.003906 74 L 61.003906 75.945312 L 0 75.945312 Z M 0 74 " clip-rule="nonzero"/></clipPath></defs><g clip-path="url(#7a6470d713)"><path fill="#ffffff" d="M 1.875 1.925781 L 59.242188 1.925781 L 59.242188 74.285156 L 1.875 74.285156 Z M 1.875 1.925781 " fill-opacity="1" fill-rule="nonzero"/></g><g clip-path="url(#4aea380401)"><path stroke-linecap="butt" transform="matrix(0.750742, 0, 0, 0.75, 1.150002, 1.17549)" fill="none" stroke-linejoin="miter" d="M -0.00208359 1.000388 L 78.935409 1.000388 " stroke="#000000" stroke-width="2" stroke-opacity="1" stroke-miterlimit="4"/></g><g clip-path="url(#821d7e80ac)"><path stroke-linecap="butt" transform="matrix(0.000000000000000046, -0.75, 0.75, 0.000000000000000046, 59.197284, 75.807768)" fill="none" stroke-linejoin="miter" d="M -0.00110099 1.002579 L 99.009323 1.002579 " stroke="#000000" stroke-width="2" stroke-opacity="1" stroke-miterlimit="4"/></g><g clip-path="url(#b793cf4ec0)"><path stroke-linecap="butt" transform="matrix(0.000000000000000214, -0.753807, 0.75, 0.000000000000000212, 0.56959, 75.805478)" fill="none" stroke-linejoin="miter" d="M 0.00104845 1.000964 L 98.516602 1.000964 " stroke="#000000" stroke-width="2" stroke-opacity="1" stroke-miterlimit="4"/></g><g clip-path="url(#1e31e1d6cd)"><path stroke-linecap="butt" transform="matrix(0.745776, 0, 0, 0.75, 0.75, 74.310478)" fill="none" stroke-linejoin="miter" d="M 0.000000075122 0.997488 L 80.468845 0.997488 " stroke="#000000" stroke-width="2" stroke-opacity="1" stroke-miterlimit="4"/></g><g fill="#000000" fill-opacity="1"><g transform="translate(1.555465, 37.560519)"><g><path d="M 2.140625 0 L 2.140625 -16.421875 L 8.71875 -16.421875 C 10.425781 -16.421875 11.710938 -16.03125 12.578125 -15.25 C 13.441406 -14.46875 13.875 -13.382812 13.875 -12 C 13.875 -11.007812 13.617188 -10.195312 13.109375 -9.5625 C 12.609375 -8.925781 11.851562 -8.4375 10.84375 -8.09375 L 10.84375 -7.859375 C 11.363281 -7.640625 11.78125 -7.304688 12.09375 -6.859375 C 12.414062 -6.421875 12.71875 -5.765625 13 -4.890625 L 14.640625 0 L 11.3125 0 L 9.703125 -4.90625 C 9.535156 -5.40625 9.347656 -5.789062 9.140625 -6.0625 C 8.941406 -6.332031 8.679688 -6.53125 8.359375 -6.65625 C 8.046875 -6.78125 7.632812 -6.84375 7.125 -6.84375 L 5.375 -6.84375 L 5.375 0 Z M 8.328125 -9.40625 C 9.898438 -9.40625 10.6875 -10.140625 10.6875 -11.609375 C 10.6875 -13.097656 9.898438 -13.84375 8.328125 -13.84375 L 5.375 -13.84375 L 5.375 -9.40625 Z M 8.328125 -9.40625 "/></g></g></g><g fill="#000000" fill-opacity="1"><g transform="translate(16.9023, 37.560519)"><g><path d="M 7.203125 0.234375 C 5.984375 0.234375 4.914062 -0.015625 4 -0.515625 C 3.082031 -1.015625 2.367188 -1.742188 1.859375 -2.703125 C 1.359375 -3.660156 1.109375 -4.820312 1.109375 -6.1875 C 1.109375 -7.550781 1.359375 -8.710938 1.859375 -9.671875 C 2.367188 -10.640625 3.082031 -11.375 4 -11.875 C 4.914062 -12.375 5.984375 -12.625 7.203125 -12.625 C 8.410156 -12.625 9.472656 -12.375 10.390625 -11.875 C 11.304688 -11.375 12.019531 -10.640625 12.53125 -9.671875 C 13.039062 -8.710938 13.296875 -7.550781 13.296875 -6.1875 C 13.296875 -4.820312 13.039062 -3.660156 12.53125 -2.703125 C 12.019531 -1.742188 11.304688 -1.015625 10.390625 -0.515625 C 9.472656 -0.015625 8.410156 0.234375 7.203125 0.234375 Z M 7.203125 -2.40625 C 9.117188 -2.40625 10.078125 -3.664062 10.078125 -6.1875 C 10.078125 -7.5 9.832031 -8.457031 9.34375 -9.0625 C 8.851562 -9.675781 8.140625 -9.984375 7.203125 -9.984375 C 5.273438 -9.984375 4.3125 -8.71875 4.3125 -6.1875 C 4.3125 -3.664062 5.273438 -2.40625 7.203125 -2.40625 Z M 7.203125 -2.40625 "/></g></g></g><g fill="#000000" fill-opacity="1"><g transform="translate(31.294869, 37.560519)"><g><path d="M 4.828125 0.234375 C 4.035156 0.234375 3.347656 0.0859375 2.765625 -0.203125 C 2.179688 -0.492188 1.726562 -0.921875 1.40625 -1.484375 C 1.09375 -2.054688 0.9375 -2.738281 0.9375 -3.53125 C 0.9375 -4.257812 1.09375 -4.875 1.40625 -5.375 C 1.726562 -5.875 2.21875 -6.28125 2.875 -6.59375 C 3.53125 -6.914062 4.390625 -7.160156 5.453125 -7.328125 C 6.191406 -7.453125 6.753906 -7.582031 7.140625 -7.71875 C 7.535156 -7.863281 7.796875 -8.023438 7.921875 -8.203125 C 8.054688 -8.390625 8.125 -8.617188 8.125 -8.890625 C 8.125 -9.285156 7.984375 -9.585938 7.703125 -9.796875 C 7.429688 -10.015625 6.972656 -10.125 6.328125 -10.125 C 5.640625 -10.125 4.984375 -9.96875 4.359375 -9.65625 C 3.742188 -9.351562 3.207031 -8.953125 2.75 -8.453125 L 2.53125 -8.453125 L 1.21875 -10.40625 C 1.851562 -11.101562 2.625 -11.644531 3.53125 -12.03125 C 4.4375 -12.425781 5.421875 -12.625 6.484375 -12.625 C 8.128906 -12.625 9.316406 -12.273438 10.046875 -11.578125 C 10.785156 -10.878906 11.15625 -9.890625 11.15625 -8.609375 L 11.15625 -3.234375 C 11.15625 -2.679688 11.394531 -2.40625 11.875 -2.40625 C 12.0625 -2.40625 12.25 -2.4375 12.4375 -2.5 L 12.59375 -2.453125 L 12.8125 -0.296875 C 12.644531 -0.179688 12.40625 -0.0859375 12.09375 -0.015625 C 11.789062 0.0546875 11.453125 0.09375 11.078125 0.09375 C 10.335938 0.09375 9.757812 -0.046875 9.34375 -0.328125 C 8.925781 -0.617188 8.628906 -1.066406 8.453125 -1.671875 L 8.21875 -1.703125 C 7.613281 -0.410156 6.484375 0.234375 4.828125 0.234375 Z M 5.8125 -2.09375 C 6.53125 -2.09375 7.101562 -2.332031 7.53125 -2.8125 C 7.96875 -3.289062 8.1875 -3.960938 8.1875 -4.828125 L 8.1875 -6.09375 L 7.96875 -6.125 C 7.78125 -5.976562 7.535156 -5.851562 7.234375 -5.75 C 6.929688 -5.65625 6.5 -5.554688 5.9375 -5.453125 C 5.257812 -5.347656 4.769531 -5.15625 4.46875 -4.875 C 4.175781 -4.601562 4.03125 -4.21875 4.03125 -3.71875 C 4.03125 -3.1875 4.1875 -2.78125 4.5 -2.5 C 4.8125 -2.226562 5.25 -2.09375 5.8125 -2.09375 Z M 5.8125 -2.09375 "/></g></g></g><g fill="#000000" fill-opacity="1"><g transform="translate(44.351467, 37.560519)"><g><path d="M 6.125 0.234375 C 5.144531 0.234375 4.273438 0 3.515625 -0.46875 C 2.765625 -0.945312 2.175781 -1.664062 1.75 -2.625 C 1.320312 -3.59375 1.109375 -4.78125 1.109375 -6.1875 C 1.109375 -7.601562 1.328125 -8.789062 1.765625 -9.75 C 2.203125 -10.71875 2.804688 -11.4375 3.578125 -11.90625 C 4.359375 -12.382812 5.257812 -12.625 6.28125 -12.625 C 7.050781 -12.625 7.71875 -12.488281 8.28125 -12.21875 C 8.84375 -11.957031 9.320312 -11.546875 9.71875 -10.984375 L 9.953125 -11.046875 L 9.953125 -17.359375 L 13.0625 -17.359375 L 13.0625 0 L 9.953125 0 L 9.953125 -1.609375 L 9.71875 -1.65625 C 9.375 -1.070312 8.898438 -0.609375 8.296875 -0.265625 C 7.703125 0.0664062 6.976562 0.234375 6.125 0.234375 Z M 7.125 -2.40625 C 8.007812 -2.40625 8.703125 -2.71875 9.203125 -3.34375 C 9.710938 -3.96875 9.96875 -4.914062 9.96875 -6.1875 C 9.96875 -7.457031 9.710938 -8.40625 9.203125 -9.03125 C 8.703125 -9.664062 8.007812 -9.984375 7.125 -9.984375 C 6.21875 -9.984375 5.519531 -9.675781 5.03125 -9.0625 C 4.550781 -8.457031 4.3125 -7.5 4.3125 -6.1875 C 4.3125 -4.882812 4.550781 -3.925781 5.03125 -3.3125 C 5.519531 -2.707031 6.21875 -2.40625 7.125 -2.40625 Z M 7.125 -2.40625 "/></g></g></g><g fill="#000000" fill-opacity="1"><g transform="translate(18.819333, 59.560477)"><g><path d="M 2.296875 0 L 0.921875 0 L 0.921875 -7.140625 L 2.546875 -7.140625 L 5.40625 -2.546875 L 5.53125 -2.5625 L 5.53125 -7.140625 L 6.890625 -7.140625 L 6.890625 0 L 5.453125 0 L 2.421875 -4.90625 L 2.296875 -4.890625 Z M 2.296875 0 "/></g></g></g><g fill="#000000" fill-opacity="1"><g transform="translate(26.643429, 59.560477)"><g><path d="M 3.890625 0.109375 C 3.234375 0.109375 2.65625 -0.0234375 2.15625 -0.296875 C 1.65625 -0.566406 1.265625 -0.972656 0.984375 -1.515625 C 0.703125 -2.066406 0.5625 -2.75 0.5625 -3.5625 C 0.5625 -4.382812 0.703125 -5.066406 0.984375 -5.609375 C 1.265625 -6.160156 1.65625 -6.566406 2.15625 -6.828125 C 2.65625 -7.097656 3.234375 -7.234375 3.890625 -7.234375 C 4.546875 -7.234375 5.125 -7.101562 5.625 -6.84375 C 6.125 -6.582031 6.515625 -6.175781 6.796875 -5.625 C 7.078125 -5.070312 7.21875 -4.382812 7.21875 -3.5625 C 7.21875 -2.75 7.078125 -2.066406 6.796875 -1.515625 C 6.515625 -0.960938 6.125 -0.550781 5.625 -0.28125 C 5.125 -0.0195312 4.546875 0.109375 3.890625 0.109375 Z M 3.890625 -1.125 C 4.492188 -1.125 4.953125 -1.316406 5.265625 -1.703125 C 5.585938 -2.097656 5.75 -2.71875 5.75 -3.5625 C 5.75 -4.414062 5.585938 -5.035156 5.265625 -5.421875 C 4.953125 -5.816406 4.492188 -6.015625 3.890625 -6.015625 C 3.285156 -6.015625 2.820312 -5.816406 2.5 -5.421875 C 2.175781 -5.035156 2.015625 -4.414062 2.015625 -3.5625 C 2.015625 -2.71875 2.175781 -2.097656 2.5 -1.703125 C 2.820312 -1.316406 3.285156 -1.125 3.890625 -1.125 Z M 3.890625 -1.125 "/></g></g></g><g fill="#000000" fill-opacity="1"><g transform="translate(34.418716, 59.560477)"><g><path d="M 2.296875 0 L 0.921875 0 L 0.921875 -7.140625 L 2.546875 -7.140625 L 5.40625 -2.546875 L 5.53125 -2.5625 L 5.53125 -7.140625 L 6.890625 -7.140625 L 6.890625 0 L 5.453125 0 L 2.421875 -4.90625 L 2.296875 -4.890625 Z M 2.296875 0 "/></g></g></g><g fill="#000000" fill-opacity="1"><g transform="translate(2.682616, 73.060476)"><g><path d="M 3.171875 0.109375 C 2.671875 0.109375 2.226562 0.046875 1.84375 -0.078125 C 1.457031 -0.203125 1.132812 -0.363281 0.875 -0.5625 C 0.625 -0.757812 0.425781 -0.976562 0.28125 -1.21875 L 1.0625 -2.15625 L 1.1875 -2.15625 C 1.40625 -1.84375 1.675781 -1.59375 2 -1.40625 C 2.332031 -1.21875 2.722656 -1.125 3.171875 -1.125 C 3.546875 -1.125 3.828125 -1.203125 4.015625 -1.359375 C 4.210938 -1.515625 4.3125 -1.734375 4.3125 -2.015625 C 4.3125 -2.179688 4.28125 -2.320312 4.21875 -2.4375 C 4.15625 -2.550781 4.050781 -2.648438 3.90625 -2.734375 C 3.757812 -2.816406 3.566406 -2.882812 3.328125 -2.9375 L 2.40625 -3.15625 C 1.769531 -3.300781 1.289062 -3.539062 0.96875 -3.875 C 0.65625 -4.21875 0.5 -4.660156 0.5 -5.203125 C 0.5 -5.609375 0.597656 -5.960938 0.796875 -6.265625 C 1.003906 -6.578125 1.300781 -6.816406 1.6875 -6.984375 C 2.070312 -7.148438 2.535156 -7.234375 3.078125 -7.234375 C 3.617188 -7.234375 4.085938 -7.160156 4.484375 -7.015625 C 4.878906 -6.878906 5.210938 -6.660156 5.484375 -6.359375 L 4.78125 -5.40625 L 4.65625 -5.40625 C 4.457031 -5.613281 4.226562 -5.769531 3.96875 -5.875 C 3.707031 -5.976562 3.410156 -6.03125 3.078125 -6.03125 C 2.679688 -6.03125 2.382812 -5.960938 2.1875 -5.828125 C 1.988281 -5.691406 1.890625 -5.503906 1.890625 -5.265625 C 1.890625 -5.035156 1.957031 -4.851562 2.09375 -4.71875 C 2.238281 -4.59375 2.484375 -4.492188 2.828125 -4.421875 L 3.765625 -4.21875 C 4.460938 -4.070312 4.96875 -3.820312 5.28125 -3.46875 C 5.59375 -3.125 5.75 -2.671875 5.75 -2.109375 C 5.75 -1.660156 5.648438 -1.269531 5.453125 -0.9375 C 5.265625 -0.601562 4.976562 -0.34375 4.59375 -0.15625 C 4.207031 0.0195312 3.734375 0.109375 3.171875 0.109375 Z M 3.171875 0.109375 "/></g></g></g><g fill="#000000" fill-opacity="1"><g transform="translate(8.813032, 73.060476)"><g><path d="M 5.71875 -7.140625 L 5.71875 -5.953125 L 3.65625 -5.953125 L 3.65625 0 L 2.25 0 L 2.25 -5.953125 L 0.203125 -5.953125 L 0.203125 -7.140625 Z M 5.71875 -7.140625 "/></g></g></g><g fill="#000000" fill-opacity="1"><g transform="translate(14.728689, 73.060476)"><g><path d="M 6.84375 0 L 5.359375 0 L 4.828125 -1.640625 L 2.09375 -1.640625 L 1.5625 0 L 0.109375 0 L 2.578125 -7.140625 L 4.390625 -7.140625 Z M 3.390625 -5.65625 L 2.46875 -2.828125 L 4.4375 -2.828125 L 3.515625 -5.65625 Z M 3.390625 -5.65625 "/></g></g></g><g fill="#000000" fill-opacity="1"><g transform="translate(21.683984, 73.060476)"><g><path d="M 2.296875 0 L 0.921875 0 L 0.921875 -7.140625 L 2.546875 -7.140625 L 5.40625 -2.546875 L 5.53125 -2.5625 L 5.53125 -7.140625 L 6.890625 -7.140625 L 6.890625 0 L 5.453125 0 L 2.421875 -4.90625 L 2.296875 -4.890625 Z M 2.296875 0 "/></g></g></g><g fill="#000000" fill-opacity="1"><g transform="translate(29.50808, 73.060476)"><g><path d="M 3.5 -7.140625 C 4.65625 -7.140625 5.535156 -6.835938 6.140625 -6.234375 C 6.753906 -5.640625 7.0625 -4.75 7.0625 -3.5625 C 7.0625 -2.382812 6.753906 -1.492188 6.140625 -0.890625 C 5.535156 -0.296875 4.65625 0 3.5 0 L 0.921875 0 L 0.921875 -7.140625 Z M 3.40625 -1.1875 C 4.144531 -1.1875 4.695312 -1.375 5.0625 -1.75 C 5.425781 -2.125 5.609375 -2.726562 5.609375 -3.5625 C 5.609375 -4.40625 5.425781 -5.015625 5.0625 -5.390625 C 4.695312 -5.765625 4.144531 -5.953125 3.40625 -5.953125 L 2.34375 -5.953125 L 2.34375 -1.1875 Z M 3.40625 -1.1875 "/></g></g></g><g fill="#000000" fill-opacity="1"><g transform="translate(37.13694, 73.060476)"><g><path d="M 6.84375 0 L 5.359375 0 L 4.828125 -1.640625 L 2.09375 -1.640625 L 1.5625 0 L 0.109375 0 L 2.578125 -7.140625 L 4.390625 -7.140625 Z M 3.390625 -5.65625 L 2.46875 -2.828125 L 4.4375 -2.828125 L 3.515625 -5.65625 Z M 3.390625 -5.65625 "/></g></g></g><g fill="#000000" fill-opacity="1"><g transform="translate(44.092235, 73.060476)"><g><path d="M 0.921875 0 L 0.921875 -7.140625 L 3.796875 -7.140625 C 4.535156 -7.140625 5.09375 -6.96875 5.46875 -6.625 C 5.84375 -6.289062 6.03125 -5.820312 6.03125 -5.21875 C 6.03125 -4.789062 5.921875 -4.4375 5.703125 -4.15625 C 5.484375 -3.875 5.15625 -3.660156 4.71875 -3.515625 L 4.71875 -3.421875 C 4.9375 -3.316406 5.113281 -3.171875 5.25 -2.984375 C 5.394531 -2.796875 5.53125 -2.507812 5.65625 -2.125 L 6.375 0 L 4.921875 0 L 4.21875 -2.140625 C 4.144531 -2.347656 4.0625 -2.507812 3.96875 -2.625 C 3.882812 -2.75 3.769531 -2.835938 3.625 -2.890625 C 3.488281 -2.941406 3.3125 -2.96875 3.09375 -2.96875 L 2.34375 -2.96875 L 2.34375 0 Z M 3.625 -4.09375 C 4.3125 -4.09375 4.65625 -4.410156 4.65625 -5.046875 C 4.65625 -5.691406 4.3125 -6.015625 3.625 -6.015625 L 2.34375 -6.015625 L 2.34375 -4.09375 Z M 3.625 -4.09375 "/></g></g></g><g fill="#000000" fill-opacity="1"><g transform="translate(50.764437, 73.060476)"><g><path d="M 3.5 -7.140625 C 4.65625 -7.140625 5.535156 -6.835938 6.140625 -6.234375 C 6.753906 -5.640625 7.0625 -4.75 7.0625 -3.5625 C 7.0625 -2.382812 6.753906 -1.492188 6.140625 -0.890625 C 5.535156 -0.296875 4.65625 0 3.5 0 L 0.921875 0 L 0.921875 -7.140625 Z M 3.40625 -1.1875 C 4.144531 -1.1875 4.695312 -1.375 5.0625 -1.75 C 5.425781 -2.125 5.609375 -2.726562 5.609375 -3.5625 C 5.609375 -4.40625 5.425781 -5.015625 5.0625 -5.390625 C 4.695312 -5.765625 4.144531 -5.953125 3.40625 -5.953125 L 2.34375 -5.953125 L 2.34375 -1.1875 Z M 3.40625 -1.1875 "/></g></g></g></svg>