<?xml version="1.0" encoding="UTF-8" standalone="no" ?>
<!DOCTYPE svg PUBLIC "-//W3C//DTD SVG 1.1//EN" "http://www.w3.org/Graphics/SVG/1.1/DTD/svg11.dtd">
<svg xmlns="http://www.w3.org/2000/svg" xmlns:xlink="http://www.w3.org/1999/xlink" version="1.1" width="1080" height="1080" viewBox="0 0 1080 1080" xml:space="preserve">
<desc>Created with Fabric.js 5.2.4</desc>
<defs>
</defs>
<rect x="0" y="0" width="100%" height="100%" fill="transparent"></rect>
<g transform="matrix(1 0 0 1 540 540)" id="4fef057d-16d2-4457-ac62-3f9ce359eddd"  >
<rect style="stroke: none; stroke-width: 1; stroke-dasharray: none; stroke-linecap: butt; stroke-dashoffset: 0; stroke-linejoin: miter; stroke-miterlimit: 4; fill: rgb(194,175,175); fill-rule: nonzero; opacity: 1; visibility: hidden;" vector-effect="non-scaling-stroke"  x="-540" y="-540" rx="0" ry="0" width="1080" height="1080" />
</g>
<g transform="matrix(1 0 0 1 540 540)" id="27c86c7e-42af-457a-925d-2ce13ac97fb7"  >
</g>
<g transform="matrix(0.15 0 0 0.15 556.33 540)"  >
<g style="" vector-effect="non-scaling-stroke"   >
		<g transform="matrix(13.33 0 0 13.33 0 0)"  >
<polygon style="stroke: none; stroke-width: 1; stroke-dasharray: none; stroke-linecap: butt; stroke-dashoffset: 0; stroke-linejoin: miter; stroke-miterlimit: 4; fill: rgb(0,63,135); fill-rule: nonzero; opacity: 1;" vector-effect="non-scaling-stroke"  points="-195.38,56.98 -246.02,0.13 -195.37,-56.98 195.37,-56.98 246.02,0.13 195.37,56.98 " />
</g>
		<g transform="matrix(13.33 0 0 13.33 0 0)"  >
<path style="stroke: none; stroke-width: 1; stroke-dasharray: none; stroke-linecap: butt; stroke-dashoffset: 0; stroke-linejoin: miter; stroke-miterlimit: 4; fill: rgb(255,255,255); fill-rule: nonzero; opacity: 1;" vector-effect="non-scaling-stroke"  transform=" translate(-255.12, -63.78)" d="M 447.4242249 13.6063261 L 492.0315857 63.9010839 L 447.4421387 113.9527273 L 62.7940521 113.9527273 L 18.2046318 63.9010849 L 62.8119888 13.606327100000001 L 447.4242249 13.606327100000001 M 453.5433044 0.0000258 L 56.6929016 0.0000258 L 0.000003 63.9212265 L 56.6929008 127.5590286 L 453.5433036 127.5590286 L 510.2362052 63.9212265 L 453.5433044 0.0000258 L 453.5433044 0.0000258 z" stroke-linecap="round" />
</g>
		<g transform="matrix(13.33 0 0 13.33 0 0)"  >
<path style="stroke: none; stroke-width: 1; stroke-dasharray: none; stroke-linecap: butt; stroke-dashoffset: 0; stroke-linejoin: miter; stroke-miterlimit: 4; fill: rgb(0,0,0); fill-rule: nonzero; opacity: 1;" vector-effect="non-scaling-stroke"  transform=" translate(-255.12, -63.78)" d="M 453.2883301 0.5669258 L 509.4776917 63.9204071 L 453.2890625 126.9921272 L 56.9471512 126.9921272 L 0.7585188 63.9204063 L 56.9478722 0.5669258 L 453.2883301 0.5669258 M 453.5433044 -0.0000076 L 56.6929016 -0.0000076 L -0.0000303 63.9212608 L 56.6929018 127.5590591 L 453.5433046 127.5590591 L 510.2362367 63.9212608 L 453.5433044 -0.0000076 L 453.5433044 -0.0000076 z" stroke-linecap="round" />
</g>
		<g transform="matrix(13.33 0 0 13.33 -1816.38 0)"  >
<path style="stroke: none; stroke-width: 1; stroke-dasharray: none; stroke-linecap: butt; stroke-dashoffset: 0; stroke-linejoin: miter; stroke-miterlimit: 4; fill: rgb(255,255,255); fill-rule: nonzero; opacity: 1;" vector-effect="non-scaling-stroke"  transform=" translate(-118.89, -63.78)" d="M 119.4375 46.7719727 C 122.4047852 46.7719727 124.9516602 47.292480499999996 127.0776367 48.3334961 C 129.6904297 49.6176758 130.9975586 51.478027399999995 130.9975586 53.9135742 L 130.9975586 77.3989258 C 130.9975586 78.3295899 130.66552729999998 79.1264649 130.0009766 79.7915039 C 129.3364258 80.4555664 128.5395508 80.78759769999999 127.609375 80.78759769999999 C 126.6567383 80.78759769999999 125.8486328 80.4555664 125.184082 79.7915039 C 124.5200195 79.1264648 124.1875 78.3295898 124.1875 77.3989258 L 124.1875 54.9770508 C 124.1875 54.1352539 123.7226562 53.4155274 122.7924805 52.8178711 C 121.8623047 52.2192383 120.7436524 51.9204102 119.4375 51.9204102 C 117.6879883 51.9428711 116.4145508 52.440917999999996 115.6171875 53.4155274 C 116.4365234 53.925293 117.0566406 54.6333008 117.4775391 55.541504 C 116.9677735 55.541504 116.3813477 55.785644600000005 115.7167969 56.2719728 C 115.0302735 56.7817384 114.6870117 57.3022462 114.6870117 57.8334962 L 114.6870117 70.456543 C 115.7944336 70.81103519999999 116.6914062 71.4536133 117.3779297 72.3833008 C 118.0639649 73.3129883 118.4077149 74.3549805 118.4077149 75.5053711 C 118.4077149 76.9672852 117.89794930000001 78.2192383 116.8793946 79.2592774 C 115.838379 80.2788087 114.5874024 80.7875977 113.1259766 80.7875977 C 111.6860352 80.7875977 110.4462891 80.2788086 109.4052735 79.2592774 C 108.38671880000001 78.2192383 107.8774415 76.9672852 107.8774415 75.5053711 L 107.8774415 57.7338867 C 107.8774415 57.3354492 108.0874024 56.8813476 108.50878920000001 56.371582 C 109.01757830000001 55.7963867 109.6049806 55.408691399999995 110.2690431 55.2094726 C 109.91455090000001 54.5004882 109.3388673 53.9692382 108.5419923 53.614746 C 107.8549806 53.2827147 107.2680665 53.183105399999995 106.78125010000001 53.315917899999995 C 107.48974620000001 52.0532226 108.20947280000001 51.057128799999994 108.9404298 50.3266601 C 110.7783204 48.4887695 112.9482423 47.3813476 115.451172 47.0043945 C 116.5361328 46.8500977 117.8647461 46.7719727 119.4375 46.7719727 z" stroke-linecap="round" />
</g>
		<g transform="matrix(13.33 0 0 13.33 -1370.32 0.07)"  >
<path style="stroke: none; stroke-width: 1; stroke-dasharray: none; stroke-linecap: butt; stroke-dashoffset: 0; stroke-linejoin: miter; stroke-miterlimit: 4; fill: rgb(255,255,255); fill-rule: nonzero; opacity: 1;" vector-effect="non-scaling-stroke"  transform=" translate(-152.34, -63.78)" d="M 142.4907227 46.7719727 C 143.9301758 46.7719727 145.1704102 47.2817383 146.2114258 48.300292999999996 C 147.2299805 49.3413086 147.7392578 50.5922852 147.7392578 52.0532227 L 147.7392578 71.5864258 C 150.19775389999998 69.5268555 152.68896479999998 68.4526367 155.21337889999998 68.3637695 L 155.21337889999998 50.159668 C 155.21337889999998 49.2299805 155.54589839999997 48.4331055 156.20996089999997 47.7680664 C 156.87451169999997 47.1040039 157.68261719999998 46.771972600000005 158.63525389999998 46.771972600000005 C 159.56542969999998 46.771972600000005 160.36230469999998 47.1040039 161.02685549999998 47.7680664 C 161.69140629999998 48.4331055 162.02343749999997 49.2299805 162.02343749999997 50.159668 L 162.02343749999997 68.5629883 L 162.38867189999996 68.6293946 C 163.98339849999996 68.9174805 165.26757819999997 69.7036134 166.24218749999997 70.987793 C 167.21630859999996 72.29541019999999 167.61523439999996 73.75634769999999 167.43798829999997 75.37255859999999 C 167.23876949999996 76.98974609999999 166.51855469999998 78.31884769999999 165.27880859999996 79.35888669999999 C 164.03808589999997 80.40087889999998 162.60986329999997 80.87548829999999 160.99365229999995 80.78759759999998 C 159.37695309999995 80.67724599999998 158.01464839999994 80.03466789999999 156.90771479999995 78.86083979999998 C 155.77832029999996 77.68701169999999 155.21337889999995 76.29248039999997 155.21337889999995 74.67529289999997 L 155.21337889999995 73.84521479999998 C 153.66308589999994 74.11083979999998 151.96923829999994 74.89697259999998 150.13134759999994 76.20361319999998 C 149.02343739999995 77.04541009999998 147.89404289999993 78.15283199999998 146.74267569999995 79.52490229999998 C 146.03369129999996 80.34521479999998 145.23681629999996 80.76611319999998 144.35107409999995 80.78759759999998 C 143.39892569999995 80.78759759999998 142.60156239999995 80.45556629999999 141.95947249999995 79.79150379999999 C 141.29492169999995 79.12646469999999 140.96289049999996 78.32958969999999 140.96289049999996 77.39892569999999 L 140.96289049999996 57.0698242 C 139.85546859999997 56.7377929 138.94726549999996 56.105957 138.23876939999997 55.1762695 C 137.55224599999997 54.245605399999995 137.20898419999997 53.205566399999995 137.20898419999997 52.0532226 C 137.20898419999997 50.5922851 137.71826149999998 49.3413085 138.73730449999996 48.300292899999995 C 139.777832 47.2817383 141.0292969 46.7719727 142.4907227 46.7719727 z M 162.0234375 75.6723633 C 162.3110352 75.6723633 162.5546875 75.5727539 162.7543945 75.3725586 C 162.9536133 75.17333980000001 163.0532226 74.94091800000001 163.0532226 74.67529300000001 C 163.0532226 74.3881836 162.9536132 74.14404300000001 162.7543945 73.94482420000001 C 162.5546875 73.74560540000002 162.3110351 73.64599610000002 162.0234375 73.64599610000002 L 162.0234375 75.6723633 z" stroke-linecap="round" />
</g>
		<g transform="matrix(13.33 0 0 13.33 -956.64 0.07)"  >
<path style="stroke: none; stroke-width: 1; stroke-dasharray: none; stroke-linecap: butt; stroke-dashoffset: 0; stroke-linejoin: miter; stroke-miterlimit: 4; fill: rgb(255,255,255); fill-rule: nonzero; opacity: 1;" vector-effect="non-scaling-stroke"  transform=" translate(-183.37, -63.78)" d="M 173.5170898 46.7719727 C 174.95654290000002 46.7719727 176.1967773 47.2817383 177.23779290000002 48.300292999999996 C 178.25634760000003 49.3413086 178.7656249 50.5922852 178.7656249 52.0532227 L 178.7656249 71.5864258 C 181.224121 69.5268555 183.7153319 68.4526367 186.239746 68.3637695 L 186.239746 50.159668 C 186.239746 49.2299805 186.5722655 48.4331055 187.236328 47.7680664 C 187.9008788 47.1040039 188.7089843 46.771972600000005 189.661621 46.771972600000005 C 190.5917968 46.771972600000005 191.3886718 47.1040039 192.0532226 47.7680664 C 192.7177734 48.4331055 193.0498046 49.2299805 193.0498046 50.159668 L 193.0498046 68.5629883 L 193.41503899999998 68.6293946 C 195.00976559999998 68.9174805 196.2939453 69.7036134 197.2685546 70.987793 C 198.24267569999998 72.29541019999999 198.64160149999998 73.75634769999999 198.4643554 75.37255859999999 C 198.26513659999998 76.98974609999999 197.5449218 78.31884769999999 196.30517569999998 79.35888669999999 C 195.064453 80.40087889999998 193.6362304 80.87548829999999 192.02001939999997 80.78759759999998 C 190.40332019999997 80.67724599999998 189.04101549999996 80.03466789999999 187.93408189999997 78.86083979999998 C 186.80468739999998 77.68701169999999 186.23974599999997 76.29248039999997 186.23974599999997 74.67529289999997 L 186.23974599999997 73.84521479999998 C 184.68945299999996 74.11083979999998 182.99560539999996 74.89697259999998 181.15771469999996 76.20361319999998 C 180.04980449999996 77.04541009999998 178.92040999999995 78.15283199999998 177.76904279999997 79.52490229999998 C 177.06005839999997 80.34521479999998 176.26318339999997 80.76611319999998 175.37744119999996 80.78759759999998 C 174.42529279999997 80.78759759999998 173.62792949999996 80.45556629999999 172.98583959999996 79.79150379999999 C 172.32128879999996 79.12646469999999 171.98925759999997 78.32958969999999 171.98925759999997 77.39892569999999 L 171.98925759999997 57.0698242 C 170.88183569999998 56.7377929 169.97363259999997 56.105957 169.26513649999998 55.1762695 C 168.57861309999998 54.245605399999995 168.2353513 53.205566399999995 168.2353513 52.0532226 C 168.2353513 50.5922851 168.7446286 49.3413085 169.76367159999998 48.300292899999995 C 170.8041992 47.2817383 172.0556641 46.7719727 173.5170898 46.7719727 z M 193.0498047 75.6723633 C 193.3374024 75.6723633 193.5810547 75.5727539 193.7807617 75.3725586 C 193.9799805 75.17333980000001 194.0795898 74.94091800000001 194.0795898 74.67529300000001 C 194.0795898 74.3881836 193.97998040000002 74.14404300000001 193.7807617 73.94482420000001 C 193.5810547 73.74560540000002 193.3374023 73.64599610000002 193.0498047 73.64599610000002 L 193.0498047 75.6723633 z" stroke-linecap="round" />
</g>
		<g transform="matrix(13.33 0 0 13.33 -551.65 0)"  >
<path style="stroke: none; stroke-width: 1; stroke-dasharray: none; stroke-linecap: butt; stroke-dashoffset: 0; stroke-linejoin: miter; stroke-miterlimit: 4; fill: rgb(255,255,255); fill-rule: nonzero; opacity: 1;" vector-effect="non-scaling-stroke"  transform=" translate(-213.74, -63.78)" d="M 226.8662109 47.7680664 C 227.5302734 48.4331055 227.8623047 49.2299805 227.8623047 50.159668 L 227.8623047 77.3989258 C 227.8623047 78.3295899 227.5302734 79.1264649 226.8662109 79.7915039 C 226.2016601 80.4555664 225.4042968 80.78759769999999 224.4741211 80.78759769999999 C 223.6772461 80.78759769999999 222.9736328 80.550293 222.3647461 80.0737305 C 221.7553711 79.597168 221.3515625 78.98291019999999 221.15234379999998 78.2299805 L 215.47216799999998 59.82666019999999 C 215.47216799999998 59.805175799999994 215.46044919999997 59.79345709999999 215.43896489999997 59.79345709999999 C 215.41650399999997 59.79345709999999 215.40576179999996 59.80517589999999 215.40576179999996 59.82666019999999 L 209.72509769999996 78.2299805 C 209.52587889999995 78.98291019999999 209.12744139999995 79.597168 208.52929689999996 80.0737305 C 207.93164059999995 80.550293 207.23388669999997 80.78759769999999 206.43652349999996 80.78759769999999 C 205.48437509999997 80.78759769999999 204.67626959999996 80.4555664 204.01171879999995 79.7915039 C 203.34716799999995 79.1264648 203.01513679999996 78.3295898 203.01513679999996 77.3989258 L 203.01513679999996 56.6713867 C 202.01855479999998 56.3168945 201.20458989999997 55.7075195 200.57373049999995 54.8442383 C 199.94238279999996 53.9799805 199.62695319999995 52.9956055 199.62695319999995 51.887207000000004 C 199.62695319999995 50.4477539 200.12500009999994 49.241699200000006 201.12158209999996 48.2670898 C 202.11816409999997 47.292480399999995 203.34716799999995 46.794433500000004 204.80908209999996 46.7719726 C 206.24804689999996 46.838378899999995 207.44384769999996 47.369628899999995 208.39648439999996 48.3666992 C 209.34863279999996 49.362792999999996 209.82470709999996 50.559082 209.82470709999996 51.9536133 L 209.82470709999996 63.8461914 C 209.82470709999996 63.8686523 209.83007819999995 63.8852539 209.84130869999996 63.895996100000005 C 209.85253919999997 63.9077149 209.86328139999995 63.9077149 209.87451179999996 63.895996100000005 C 209.88574229999998 63.8852539 209.90234379999995 63.879394500000004 209.92431649999997 63.879394500000004 L 215.10644539999998 47.7680664 C 215.1948243 47.613769500000004 215.30615239999997 47.535644500000004 215.43896489999997 47.535644500000004 C 215.57177739999997 47.535644500000004 215.68212899999997 47.613769500000004 215.77099619999998 47.7680664 L 220.98632819999997 63.879394500000004 C 221.00830089999997 63.9018554 221.02490239999997 63.9077148 221.03613289999998 63.895996100000005 C 221.0468751 63.8852539 221.05273449999999 63.86865230000001 221.05273449999999 63.8461914 L 221.05273449999999 50.159668 C 221.05273449999999 49.2299805 221.3847658 48.4331055 222.04931649999997 47.7680664 C 222.71386729999998 47.1040039 223.5219728 46.771972600000005 224.47412119999998 46.771972600000005 C 225.4042969 46.7719727 226.2016602 47.1040039 226.8662109 47.7680664 z" stroke-linecap="round" />
</g>
		<g transform="matrix(13.33 0 0 13.33 -94.34 0)"  >
<path style="stroke: none; stroke-width: 1; stroke-dasharray: none; stroke-linecap: butt; stroke-dashoffset: 0; stroke-linejoin: miter; stroke-miterlimit: 4; fill: rgb(255,255,255); fill-rule: nonzero; opacity: 1;" vector-effect="non-scaling-stroke"  transform=" translate(-248.04, -63.78)" d="M 259.3203125 55.8735352 C 260.4052734 56.870605499999996 260.9589844 58.4204102 260.9814453 60.5239258 L 260.9814453 77.3989258 C 260.9814453 78.3295899 260.64941400000004 79.1264649 259.984375 79.7915039 C 259.3203125 80.4555664 258.5117187 80.78759769999999 257.5595703 80.78759769999999 C 256.6298828 80.78759769999999 255.83251950000002 80.4555664 255.16796870000002 79.7915039 C 254.50390620000002 79.1264648 254.17138670000003 78.3295898 254.17138670000003 77.3989258 L 254.17138670000003 59.9262695 C 248.81201170000003 64.33349609999999 245.63427730000004 70.2573242 244.63769530000002 77.69873039999999 L 244.63769530000002 77.73193349999998 C 244.63769530000002 78.48486319999998 244.29443360000002 79.18212879999999 243.60791010000003 79.82470689999998 C 242.89892570000004 80.46728499999998 242.11328120000002 80.78759749999998 241.24951170000003 80.78759749999998 C 240.29736330000003 80.78759749999998 239.48925780000002 80.45556619999998 238.82470700000002 79.79150369999998 C 238.16015620000002 79.12646459999998 237.82812500000003 78.32958959999998 237.82812500000003 77.39892559999998 L 237.82812500000003 56.6713867 C 236.83154300000004 56.3168945 236.02294920000003 55.7075195 235.40332030000002 54.8442383 C 234.7607422 53.9584961 234.4399414 52.973144500000004 234.4399414 51.887207000000004 C 234.4399414 50.4702148 234.9379883 49.263183600000005 235.93457030000002 48.2670898 C 236.9311523 47.270019500000004 238.13818360000002 46.7719726 239.55566410000003 46.7719726 C 240.95068360000002 46.7719726 242.14648440000002 47.2700195 243.14306640000004 48.2670898 C 244.13964840000003 49.2631836 244.63769530000005 50.4702148 244.63769530000005 51.887207000000004 L 244.63769530000005 65.67333980000001 C 246.45361330000006 60.95654290000001 249.29931640000004 57.44677730000001 253.17480470000004 55.14306640000001 C 252.24511720000004 54.19091800000001 251.77978520000005 53.03955080000001 251.77978520000005 51.68798830000001 C 251.77978520000005 50.33740240000001 252.26660160000006 49.17529300000001 253.24169930000005 48.200683600000005 C 254.19335950000004 47.248535200000006 255.35595710000004 46.771972700000006 256.72949230000006 46.771972700000006 C 258.08007820000006 46.771972700000006 259.2421876000001 47.248535200000006 260.21679700000004 48.200683600000005 C 261.16894540000004 49.175293 261.64550790000004 50.3374024 261.64550790000004 51.68798830000001 C 261.6455078 53.5268555 260.8701172 54.9213867 259.3203125 55.8735352 z M 257.8251953 51.6879883 C 257.8251953 51.378418 257.7255859 51.1235352 257.52636720000004 50.9243164 C 257.30468750000006 50.7026367 257.03906250000006 50.592285100000005 256.72949220000004 50.592285100000005 C 256.4189453 50.592285100000005 256.1533203 50.702636700000006 255.93212890000004 50.9243164 C 255.71044920000003 51.1235352 255.60009760000003 51.378418 255.60009760000003 51.6879883 C 255.60009760000003 51.9985352 255.71044920000003 52.2641602 255.93212890000004 52.4858399 C 256.1533203 52.707519600000005 256.4189453 52.8178712 256.72949220000004 52.8178712 C 257.03906250000006 52.8178712 257.30468750000006 52.7075196 257.52636720000004 52.4858399 C 257.7255859 52.2641602 257.8251953 51.9985352 257.8251953 51.6879883 z" stroke-linecap="round" />
</g>
		<g transform="matrix(13.33 0 0 13.33 343.04 0)"  >
<path style="stroke: none; stroke-width: 1; stroke-dasharray: none; stroke-linecap: butt; stroke-dashoffset: 0; stroke-linejoin: miter; stroke-miterlimit: 4; fill: rgb(255,255,255); fill-rule: nonzero; opacity: 1;" vector-effect="non-scaling-stroke"  transform=" translate(-280.85, -63.78)" d="M 280.5136719 46.7719727 C 282.6396485 46.8168946 284.4003907 47.1157227 285.7958985 47.6684571 C 287.70019540000004 48.267089899999995 289.2275391 49.2084962 290.37988290000004 50.492675899999995 C 291.6416017 51.932128999999996 292.31738290000004 53.63720719999999 292.4062501 55.60791029999999 L 292.4062501 77.3989259 C 292.4062501 78.32959 292.07421880000004 79.126465 291.4091798 79.79150399999999 C 290.7451173 80.45556649999999 289.9482423 80.78759779999999 289.0175782 80.78759779999999 C 288.0654298 80.78759779999999 287.256836 80.45556649999999 286.5927735 79.79150399999999 C 285.928711 79.12646489999999 285.5957032 78.32958989999999 285.5957032 77.3989259 L 285.5957032 77.03369149999999 C 285.5517579 75.70556649999999 284.9980469 73.95556649999999 283.9355469 71.78564459999998 C 282.6728516 69.21630869999998 281.078125 66.97998049999998 279.15136720000004 65.07568369999998 C 278.26562500000006 64.34423839999998 277.57910160000006 63.935058699999985 277.0917969 63.84619149999998 C 276.9589844 63.82470709999998 276.8369141 63.82470709999998 276.7265625 63.84619149999998 C 276.4824219 63.91259779999998 276.3164062 64.09033209999998 276.2285156 64.37744149999997 C 276.1396484 64.59912119999997 276.0957031 64.88720709999997 276.0957031 65.24169929999998 L 276.0957031 70.45654309999998 C 277.203125 70.81103529999997 278.09960939999996 71.45361339999998 278.78613279999996 72.38330089999998 C 279.47265619999996 73.31298839999998 279.81640619999996 74.35498059999998 279.81640619999996 75.50537119999998 C 279.81640619999996 76.96728529999999 279.3066406 78.21923839999998 278.28808589999994 79.25927749999998 C 277.24707029999996 80.27880879999998 276.00683589999994 80.78759779999999 274.56738279999996 80.78759779999999 C 273.10644529999996 80.78759779999999 271.8544922 80.27880869999998 270.8134765 79.25927749999998 C 269.7949218 78.21923839999998 269.2861327 76.96728529999999 269.2861327 75.50537119999998 L 269.2861327 64.9418945 C 269.3076171 64.1010742 269.4853515 63.28173820000001 269.8173827 62.483886700000006 C 270.3261718 61.22216790000001 271.1679686 60.247558600000005 272.3417968 59.561035100000005 C 273.0507812 59.140136700000006 273.8144531 58.874511700000006 274.633789 58.764160100000005 C 275.0322265 58.71923820000001 275.46484369999996 58.708496000000004 275.9296874 58.730957000000004 C 277.3027343 58.7973633 278.7636718 59.239746100000005 280.31445299999996 60.059082000000004 C 282.46191389999996 61.232910100000005 284.22265609999994 62.8608398 285.59570299999996 64.9418945 L 285.59570299999996 56.139160100000005 C 285.59570299999996 55.80712880000001 285.51855459999996 55.43115230000001 285.36328109999994 55.01025380000001 C 284.98632799999996 54.01318350000001 284.35546859999994 53.194824100000005 283.46972639999996 52.55224600000001 C 282.6943358 52.02001940000001 281.69824199999994 51.65478510000001 280.48046859999994 51.45556630000001 C 279.28417949999994 51.27880850000001 277.99999979999996 51.30126940000001 276.62695299999996 51.521972600000005 C 275.0771483 51.810058500000004 273.70410139999996 52.21923820000001 272.5078124 52.75146480000001 C 272.0205077 52.97314450000001 271.5781249 53.22802730000001 271.1796874 53.515136700000006 C 270.5146483 54.00244140000001 270.0605468 54.512207000000004 269.8173827 55.043457000000004 C 269.595703 54.489746100000005 269.4628905 54.0795898 269.4189452 53.8139648 C 269.3525389 53.5483398 269.3193358 53.2280273 269.3193358 52.8510742 C 269.3193358 52.6293945 269.3408202 52.3862304 269.38574209999996 52.1196289 C 269.51855459999996 51.434082000000004 269.83886709999996 50.7915039 270.34863269999994 50.192871100000005 C 270.7031248999999 49.772949200000006 271.20117179999994 49.32958980000001 271.8437498999999 48.864746100000005 C 273.10644519999994 48.0893555 274.5781248999999 47.52490230000001 276.2617186999999 47.170410200000006 C 277.3466795999999 46.927246100000005 278.5751952999999 46.794433600000005 279.9492186999999 46.771972700000006 L 280.5136719 46.771972700000006 z" stroke-linecap="round" />
</g>
		<g transform="matrix(13.33 0 0 13.33 604.9 -115.6)"  >
<path style="stroke: none; stroke-width: 1; stroke-dasharray: none; stroke-linecap: butt; stroke-dashoffset: 0; stroke-linejoin: miter; stroke-miterlimit: 4; fill: rgb(255,255,255); fill-rule: nonzero; opacity: 1;" vector-effect="non-scaling-stroke"  transform=" translate(-300.49, -55.11)" d="M 302.3710938 46.4399414 C 302.32714849999996 45.7973633 301.9394532 45.1889648 301.20898439999996 44.612793 C 300.34472659999994 43.793457100000005 298.7285156 43.051269600000005 296.35839849999996 42.387207100000005 C 294.6982422 41.966308700000006 293.04785159999994 41.678222700000006 291.4091797 41.52294930000001 C 289.859375 41.435058700000006 288.6748047 41.545410200000006 287.8544922 41.855957100000005 C 287.03613279999996 39.131347700000006 287.2568359 36.71826180000001 288.5195313 34.613769600000005 C 288.9179688 33.927246200000006 289.4384766 33.29638680000001 290.0800782 32.7202149 C 290.9218751 31.9458008 292.2060548 31.170410200000003 293.9335938 30.3950196 C 294.6425782 30.0854493 295.2851563 29.8745118 295.8603516 29.764160200000003 C 296.2148438 29.675781300000004 296.6132813 29.597656300000004 297.0566407 29.531250000000004 C 297.4550782 29.464843700000003 297.8427735 29.431640600000005 298.2187501 29.431640600000005 L 298.7509767 29.431640600000005 C 299.70214860000004 29.431640600000005 300.6992189 29.597656200000007 301.74023450000004 29.930175800000004 C 302.2050783 30.040527400000006 302.66992200000004 30.195800800000004 303.13574230000006 30.395019600000005 C 303.24609390000006 30.417480500000003 303.8212892000001 30.649902400000006 304.86230480000006 31.092285200000006 C 305.7265626000001 31.425293000000007 306.3125001000001 31.646972700000006 306.62304700000004 31.757324300000008 C 307.3759767 32.00146490000001 307.95214860000004 32.15576180000001 308.35058610000004 32.222168100000005 C 308.77148450000004 32.31103530000001 309.22558610000004 32.354980600000005 309.7128908 32.354980600000005 C 310.3320314 32.3774415 310.95214860000004 32.31103530000001 311.5732424 32.15576180000001 C 312.192383 32.00146490000001 312.81250020000004 31.768066500000007 313.4326174 31.458496200000006 C 313.5439455 31.901855600000005 313.5996096 32.34423840000001 313.5996096 32.786621200000006 C 313.5771487 33.5180665 313.4218752 34.17138680000001 313.1337893 34.746582100000005 C 312.6464846 35.588379 311.8828127 36.2202149 310.8417971 36.64013680000001 C 310.1113283 36.950683700000006 309.2470705 37.11669930000001 308.2509768 37.138183700000006 C 306.98828149999997 37.11669930000001 305.8925784 36.917480600000005 304.9619143 36.54052740000001 C 304.4746096 36.34130860000001 304.020508 36.09814460000001 303.6005862 35.81005860000001 C 303.2900393 35.54443360000001 302.902344 35.30029300000001 302.4375003 35.078613300000015 C 301.28613310000003 34.547363300000015 300.01269560000003 34.27099610000001 298.6171878 34.24853520000001 C 298.0644534 34.24853520000001 297.5332034 34.29345710000001 297.0234378 34.38134770000001 C 296.13769560000003 34.53662110000001 295.4287112 34.82470710000001 294.8974612 35.24462900000001 C 294.4101565 35.68798840000001 294.12207060000003 36.13134780000001 294.0332034 36.57373060000001 C 296.2919925 36.90576190000001 298.4511722 37.42626970000001 300.5107425 38.13525400000001 C 302.5703128 38.84423830000001 304.3642581 39.71826180000001 305.8925784 40.75927740000001 C 308.1953128 42.39794930000001 309.2919925 44.23681650000001 309.1806643 46.27392580000001 L 309.1806643 70.4897461 C 310.2880862 70.8217774 311.1855471 71.4536133 311.8720706 72.3833008 C 312.5576175 73.3129883 312.9013675 74.3549805 312.9013675 75.5053711 C 312.9013675 76.9672852 312.3916019 78.2192383 311.3730472 79.2592774 C 310.3320316 80.2788087 309.0927738 80.7875977 307.6533206 80.7875977 C 306.19140649999997 80.7875977 304.94043 80.2788086 303.8994143 79.2592774 C 302.8808596 78.2192383 302.37109399999997 76.9672852 302.37109399999997 75.5053711 L 302.37109399999997 46.4399414 z" stroke-linecap="round" />
</g>
		<g transform="matrix(13.33 0 0 13.33 1007.85 0)"  >
<path style="stroke: none; stroke-width: 1; stroke-dasharray: none; stroke-linecap: butt; stroke-dashoffset: 0; stroke-linejoin: miter; stroke-miterlimit: 4; fill: rgb(255,255,255); fill-rule: nonzero; opacity: 1;" vector-effect="non-scaling-stroke"  transform=" translate(-330.71, -63.78)" d="M 341.2705078 47.7680664 C 341.9345703 48.4331055 342.2666016 49.2299805 342.2666016 50.159668 L 342.2666016 73.6459961 C 342.2666016 76.0375977 341.4472657 77.8530274 339.8085938 79.0932617 C 338.28027349999996 80.2231445 335.5898438 80.7875976 331.7363282 80.7875976 L 329.6767579 80.7875976 C 325.8232423 80.7875976 323.13281259999997 80.2231445 321.6044923 79.0932617 C 319.9658204 77.8530273 319.1464845 76.0375976 319.1464845 73.6459961 L 319.1464845 66.769043 C 319.1464845 65.52978519999999 319.47851579999997 64.5327149 320.1435548 63.7797852 C 320.5634767 63.2045899 321.3613282 62.7163086 322.5351564 62.3178711 C 321.3613283 61.8979492 320.5634767 61.3989258 320.1435548 60.823730499999996 C 319.4785157 60.070800799999994 319.1464845 59.073730499999996 319.1464845 57.8334961 L 319.1464845 52.0532227 C 319.1464845 50.5922852 319.65625009999997 49.3520508 320.6748048 48.3334961 C 321.7158204 47.292480499999996 322.966797 46.7719727 324.4287111 46.7719727 C 325.86816419999997 46.7719727 327.107422 47.292480499999996 328.1484377 48.3334961 C 329.16699239999997 49.3520508 329.676758 50.5922852 329.676758 52.0532227 C 329.676758 53.205566499999996 329.333008 54.245605499999996 328.6474611 55.1762696 C 327.9609377 56.1059571 327.06347669999997 56.7485352 325.9560548 57.103027399999995 L 325.9560548 58.165527399999995 C 326.0009767 59.251464899999995 326.5654298 60.1918946 327.6503907 60.98974619999999 C 328.5146485 61.58740249999999 329.5214845 61.89794929999999 330.6738282 61.91943369999999 C 330.9169923 61.91943369999999 331.0390626 62.05224619999999 331.0390626 62.31787119999999 C 331.0390626 62.56201179999999 330.9169923 62.68310559999999 330.6738282 62.68310559999999 C 329.5214844 62.70556649999999 328.5146485 63.01611339999999 327.6503907 63.61376969999999 C 326.5654298 64.41064469999999 326.0009766 65.35205099999999 325.9560548 66.43701189999999 L 325.9560548 73.6459963 C 325.9560548 74.46533219999999 326.4218751 75.12939469999999 327.3515626 75.6391604 C 328.2597657 76.12646509999999 329.3779298 76.36962919999999 330.7070314 76.36962919999999 C 332.0576173 76.36962919999999 333.1757814 76.12646509999999 334.0615236 75.6391604 C 334.9921877 75.1293948 335.4570314 74.4653323 335.4570314 73.6459963 L 335.4570314 50.159668 C 335.4570314 49.2299805 335.7890627 48.4331055 336.4531252 47.7680664 C 337.1181643 47.1040039 337.92578149999997 46.771972600000005 338.87890649999997 46.771972600000005 C 339.8085938 46.7719727 340.6054688 47.1040039 341.2705078 47.7680664 z" stroke-linecap="round" />
</g>
		<g transform="matrix(13.33 0 0 13.33 1407.8 0)"  >
<path style="stroke: none; stroke-width: 1; stroke-dasharray: none; stroke-linecap: butt; stroke-dashoffset: 0; stroke-linejoin: miter; stroke-miterlimit: 4; fill: rgb(255,255,255); fill-rule: nonzero; opacity: 1;" vector-effect="non-scaling-stroke"  transform=" translate(-360.7, -63.78)" d="M 369.3730469 59.1293945 C 370.6796875 60.391113299999994 371.3330078 61.6538086 371.3330078 62.916503899999995 L 371.3330078 73.0805664 C 371.3330078 74.36572269999999 370.90136720000004 75.6499023 370.0371094 76.93408199999999 C 368.3105469 79.50341789999999 365.27636720000004 80.78759759999998 360.9355469 80.78759759999998 C 356.5947266 80.78759759999998 353.57226560000004 79.51416009999998 351.8671875 76.96728509999998 C 351.0029297 75.68310539999999 350.5712891 74.40966789999999 350.5712891 73.14697259999998 L 350.5712891 65.14208979999998 C 350.5712891 64.21142569999998 350.9033204 63.41455069999998 351.5683594 62.74951169999998 C 352.2324219 62.08544919999998 353.0410157 61.75341789999998 353.9931641 61.75341789999998 C 354.9228516 61.75341789999998 355.7207032 62.08544919999998 356.3847657 62.74951169999998 C 357.0488282 63.41455079999998 357.3808595 64.21142579999997 357.3808595 65.14208979999998 L 357.3808595 73.14697259999998 C 357.3808595 73.56787099999998 357.5361329 73.98876949999999 357.8466798 74.40966789999999 C 358.4218751 75.2514648 359.4628907 75.67236319999999 360.9687501 75.67236319999999 C 362.4521485 75.67236319999999 363.4931642 75.2514648 364.09179700000004 74.40966789999999 C 364.37890640000006 73.98876949999999 364.5234376 73.56787099999998 364.5234376 73.14697259999998 L 364.5234376 63.779785099999984 C 364.5234376 62.960449199999985 364.32421880000004 62.34033199999998 363.92578130000004 61.91943349999998 C 362.88378910000006 60.701660099999984 361.26757820000006 59.94873039999998 359.07519540000004 59.66064439999998 C 355.17773450000004 59.17333969999998 352.17675790000004 59.29540999999998 350.07324230000006 60.02587879999998 C 350.07324230000006 54.31201159999998 351.23632820000006 50.44775379999998 353.56152360000004 48.43310539999998 C 354.8232424 47.32568349999998 356.6503908 46.771972599999984 359.0419924 46.771972599999984 C 360.3925783 46.771972599999984 362.0654299 46.99365229999999 364.058594 47.436035099999984 C 366.25097680000005 47.945800699999985 367.3574221 48.20068349999998 367.37988310000003 48.20068349999998 C 368.2656253 48.26708979999998 368.996094 48.08935539999998 369.57226590000005 47.66845689999998 C 369.72753930000005 47.55810529999998 369.93750030000007 47.25927719999998 370.20410180000005 46.77197249999998 C 370.38085960000006 46.94970689999998 370.60253930000005 47.336425599999984 370.86816430000005 47.93408189999998 C 371.17773460000006 48.64306629999998 371.33300810000003 49.20849599999998 371.33300810000003 49.62841779999998 C 371.33300810000003 51.15673809999998 370.60253930000005 52.34130839999998 369.1406253 53.18310529999998 C 368.2109378 53.73681619999998 367.0478519 53.81396469999998 365.652344 53.41552719999998 C 362.15332060000003 52.37451159999998 359.96093770000004 51.88720689999998 359.07519560000003 51.95361309999998 C 357.63574250000005 52.04248029999998 356.6718753 52.61865219999998 356.18554720000003 53.68115219999998 C 355.94140660000005 54.23486309999998 355.83105500000005 54.78857409999998 355.85351590000005 55.342284999999976 C 362.2753906 55.3422852 366.7822266 56.6049805 369.3730469 59.1293945 z" stroke-linecap="round" />
</g>
		<g transform="matrix(13.33 0 0 13.33 1383.88 -344.59)"  >
<path style="stroke: none; stroke-width: 1; stroke-dasharray: none; stroke-linecap: butt; stroke-dashoffset: 0; stroke-linejoin: miter; stroke-miterlimit: 4; fill: rgb(255,255,255); fill-rule: nonzero; opacity: 1;" vector-effect="non-scaling-stroke"  transform=" translate(-358.91, -37.94)" d="M 356.484375 32.487793 C 356.6835938 32.487793 356.9824219 32.4995118 357.3808594 32.520996100000005 C 359.2636719 32.632324200000006 361.0800782 33.14111330000001 362.8291016 34.0493164 C 364.5566407 35.0014648 366.2949219 36.496582000000004 368.0439454 38.5336914 C 369.5058595 40.2612305 370.60156259999997 41.8774414 371.3330079 43.3833008 C 366.904297 42.2983399 363.3496095 41.5678711 360.669922 41.190918 C 355.5097657 40.460449200000006 350.78222669999997 40.394043 346.48535169999997 40.991699200000006 C 346.77343759999997 38.66650390000001 347.63671889999995 36.762207000000004 349.076172 35.277832000000004 C 350.6933595 33.61767570000001 352.8857423 32.6987304 355.6533204 32.520996100000005 C 355.9863281 32.4995117 356.2626953 32.487793 356.484375 32.487793 z M 356.1855469 36.3413086 C 353.97070310000004 36.386230499999996 352.3759766 36.917480499999996 351.40136720000004 37.9360352 C 352.59765630000004 37.6918946 354.25878910000006 37.6254883 356.38476560000004 37.7368164 C 359.2636719 37.8696289 361.57812500000006 38.2905273 363.32714840000006 38.9985352 C 362.1533203000001 38.0249024 360.89160150000004 37.315917999999996 359.54003900000004 36.8725586 C 358.3886719 36.5405273 357.2705078 36.3637695 356.1855469 36.3413086 z" stroke-linecap="round" />
</g>
		<g transform="matrix(13.33 0 0 13.33 1834.15 0.07)"  >
<path style="stroke: none; stroke-width: 1; stroke-dasharray: none; stroke-linecap: butt; stroke-dashoffset: 0; stroke-linejoin: miter; stroke-miterlimit: 4; fill: rgb(255,255,255); fill-rule: nonzero; opacity: 1;" vector-effect="non-scaling-stroke"  transform=" translate(-392.68, -63.78)" d="M 382.8261719 46.7719727 C 384.265625 46.7719727 385.5058594 47.2817383 386.546875 48.300292999999996 C 387.5654297 49.3413086 388.0751953 50.5922852 388.0751953 52.0532227 L 388.0751953 71.5864258 C 390.53320310000004 69.5268555 393.0244141 68.4526367 395.54882810000004 68.3637695 L 395.54882810000004 50.159668 C 395.54882810000004 49.2299805 395.88183590000006 48.4331055 396.54589840000006 47.7680664 C 397.20996090000006 47.1040039 398.01855470000004 46.771972600000005 398.97070310000004 46.771972600000005 C 399.90136720000004 46.771972600000005 400.69824220000004 47.1040039 401.36230470000004 47.7680664 C 402.02734380000004 48.4331055 402.35937500000006 49.2299805 402.35937500000006 50.159668 L 402.35937500000006 68.5629883 L 402.7246094000001 68.6293946 C 404.3193360000001 68.9174805 405.60351570000006 69.7036134 406.57812500000006 70.987793 C 407.5517578000001 72.29541019999999 407.9511719000001 73.75634769999999 407.77343750000006 75.37255859999999 C 407.5742187000001 76.98974609999999 406.85449220000004 78.31884769999999 405.6142578000001 79.35888669999999 C 404.37402340000006 80.40087889999998 402.94531250000006 80.87548829999999 401.3291015000001 80.78759759999998 C 399.7128906000001 80.67724599999998 398.3505859000001 80.03466789999999 397.2431640000001 78.86083979999998 C 396.1142577000001 77.68701169999999 395.5488281000001 76.29248039999997 395.5488281000001 74.67529289999997 L 395.5488281000001 73.84521479999998 C 393.9990234000001 74.11083979999998 392.3046875000001 74.89697259999998 390.4667968000001 76.20361319999998 C 389.3593749000001 77.04541009999998 388.22949210000013 78.15283199999998 387.0781249000001 79.52490229999998 C 386.36914050000007 80.34521479999998 385.57226550000007 80.76611319999998 384.6865233000001 80.78759759999998 C 383.7343749000001 80.78759759999998 382.9374999000001 80.45556629999999 382.2949217000001 79.79150379999999 C 381.6308592000001 79.12646469999999 381.2988279000001 78.32958969999999 381.2988279000001 77.39892569999999 L 381.2988279000001 57.0698242 C 380.1914060000001 56.7377929 379.2832029000001 56.105957 378.5742185000001 55.1762695 C 377.8876951000001 54.245605399999995 377.54492160000007 53.205566399999995 377.54492160000007 52.0532226 C 377.54492160000007 50.5922851 378.05371070000007 49.3413085 379.0732419000001 48.300292899999995 C 380.1132813 47.2817383 381.3652344 46.7719727 382.8261719 46.7719727 z M 402.359375 75.6723633 C 402.6464844 75.6723633 402.890625 75.5727539 403.0898438 75.3725586 C 403.28906259999997 75.17333980000001 403.38867189999996 74.94091800000001 403.38867189999996 74.67529300000001 C 403.38867189999996 74.3881836 403.28906249999994 74.14404300000001 403.0898438 73.94482420000001 C 402.8906251 73.74560540000002 402.64648439999996 73.64599610000002 402.359375 73.64599610000002 L 402.359375 75.6723633 z" stroke-linecap="round" />
</g>
</g>
</g>
<g transform="matrix(10.02 0 0 4.97 559.55 540)" id="14de407d-a0ef-41fb-aef1-172ec44dd174"  >
<rect style="stroke: rgb(0,0,0); stroke-width: 0; stroke-dasharray: none; stroke-linecap: butt; stroke-dashoffset: 0; stroke-linejoin: miter; stroke-miterlimit: 4; fill: rgb(11,61,129); fill-rule: nonzero; opacity: 1;" vector-effect="non-scaling-stroke"  x="-37.4585" y="-19.4165" rx="0" ry="0" width="74.917" height="38.833" />
</g>
<g transform="matrix(0.97 0 0 0.91 560.05 541.76)" style="" id="757381df-020c-4c66-b440-54e656ad9ce0"  >
		<text xml:space="preserve" font-family="Raleway" font-size="137" font-style="normal" font-weight="900" style="stroke: none; stroke-width: 1; stroke-dasharray: none; stroke-linecap: butt; stroke-dashoffset: 0; stroke-linejoin: miter; stroke-miterlimit: 4; fill: rgb(0,0,0); fill-rule: nonzero; opacity: 1; white-space: pre;" ><tspan x="-155.7" y="-11.15" >NON</tspan><tspan x="-365.93" y="97.22" >STANDARD</tspan></text>
</g>
</svg>