<svg xmlns="http://www.w3.org/2000/svg" xmlns:xlink="http://www.w3.org/1999/xlink" width="82" zoomAndPan="magnify" viewBox="0 0 61.5 76.499999" height="102" preserveAspectRatio="xMidYMid meet" version="1.0"><defs><clipPath id="07b9fa816d"><path d="M 0 0.0585938 L 61.003906 0.0585938 L 61.003906 75.945312 L 0 75.945312 Z M 0 0.0585938 " clip-rule="nonzero"/></clipPath><clipPath id="58490bd0df"><path d="M 2.476562 3.136719 L 58.875 3.136719 L 58.875 73.636719 L 2.476562 73.636719 Z M 2.476562 3.136719 " clip-rule="nonzero"/></clipPath><clipPath id="05bdbd6251"><path d="M 0.046875 0.117188 L 60.953125 0.117188 L 60.953125 4 L 0.046875 4 Z M 0.046875 0.117188 " clip-rule="nonzero"/></clipPath><clipPath id="dcac7cc8da"><path d="M 58 0.117188 L 60.957031 0.117188 L 60.957031 75.945312 L 58 75.945312 Z M 58 0.117188 " clip-rule="nonzero"/></clipPath><clipPath id="b6389726ba"><path d="M 0.046875 0.117188 L 3.042969 0.117188 L 3.042969 75.945312 L 0.046875 75.945312 Z M 0.046875 0.117188 " clip-rule="nonzero"/></clipPath><clipPath id="fe42e8a951"><path d="M 0.046875 73.058594 L 60.957031 73.058594 L 60.957031 75.945312 L 0.046875 75.945312 Z M 0.046875 73.058594 " clip-rule="nonzero"/></clipPath></defs><g clip-path="url(#07b9fa816d)"><path fill="#ffffff" d="M 0 0.0585938 L 61.5 0.0585938 L 61.5 84.058594 L 0 84.058594 Z M 0 0.0585938 " fill-opacity="1" fill-rule="nonzero"/><path fill="#ffffff" d="M 0 0.0585938 L 61.5 0.0585938 L 61.5 76.558594 L 0 76.558594 Z M 0 0.0585938 " fill-opacity="1" fill-rule="nonzero"/><path fill="#ffffff" d="M 0 0.0585938 L 61.5 0.0585938 L 61.5 76.558594 L 0 76.558594 Z M 0 0.0585938 " fill-opacity="1" fill-rule="nonzero"/></g><g clip-path="url(#58490bd0df)"><path fill="#ffffff" d="M 2.476562 3.136719 L 58.976562 3.136719 L 58.976562 73.765625 L 2.476562 73.765625 Z M 2.476562 3.136719 " fill-opacity="1" fill-rule="nonzero"/></g><g clip-path="url(#05bdbd6251)"><path stroke-linecap="butt" transform="matrix(0.749597, 0, 0, 0.75, 0.0468037, 0.120484)" fill="none" stroke-linejoin="miter" d="M 0.0000951832 1.995604 L 78.933104 1.995604 " stroke="#000000" stroke-width="4" stroke-opacity="1" stroke-miterlimit="4"/></g><g clip-path="url(#dcac7cc8da)"><path stroke-linecap="butt" transform="matrix(0, -0.74989, 0.748858, 0, 58.452766, 76.637485)" fill="none" stroke-linejoin="miter" d="M -0.00418767 2.003528 L 102.031613 2.003528 " stroke="#000000" stroke-width="4" stroke-opacity="1" stroke-miterlimit="4"/></g><g clip-path="url(#b6389726ba)"><path stroke-linecap="butt" transform="matrix(0, -0.74989, 0.748858, 0, 0.0418113, 76.637485)" fill="none" stroke-linejoin="miter" d="M -0.00418767 1.999378 L 102.031613 1.999378 " stroke="#000000" stroke-width="4" stroke-opacity="1" stroke-miterlimit="4"/></g><g clip-path="url(#fe42e8a951)"><path stroke-linecap="butt" transform="matrix(0.749597, 0, 0, 0.75, 1.54452, 73.620477)" fill="none" stroke-linejoin="miter" d="M -0.00207011 1.995615 L 78.930939 1.995615 " stroke="#000000" stroke-width="4" stroke-opacity="1" stroke-miterlimit="4"/></g><path fill="#000000" d="M 10.695312 16.703125 C 9.933594 16.703125 9.257812 16.609375 8.667969 16.421875 C 8.082031 16.234375 7.59375 15.992188 7.199219 15.6875 C 6.800781 15.386719 6.5 15.054688 6.292969 14.6875 L 7.480469 13.234375 L 7.667969 13.234375 C 8 13.726562 8.417969 14.117188 8.914062 14.40625 C 9.421875 14.6875 10.015625 14.828125 10.695312 14.828125 C 11.277344 14.828125 11.710938 14.710938 12.003906 14.46875 C 12.292969 14.230469 12.441406 13.890625 12.441406 13.453125 C 12.441406 13.195312 12.394531 12.980469 12.300781 12.8125 C 12.207031 12.636719 12.050781 12.484375 11.832031 12.359375 C 11.613281 12.234375 11.320312 12.125 10.945312 12.03125 L 9.539062 11.71875 C 8.5625 11.492188 7.828125 11.117188 7.339844 10.59375 C 6.859375 10.074219 6.621094 9.398438 6.621094 8.5625 C 6.621094 7.949219 6.777344 7.40625 7.089844 6.9375 C 7.402344 6.46875 7.847656 6.105469 8.433594 5.84375 C 9.023438 5.585938 9.730469 5.453125 10.554688 5.453125 C 11.394531 5.453125 12.113281 5.570312 12.707031 5.796875 C 13.308594 6.015625 13.820312 6.355469 14.234375 6.8125 L 13.160156 8.28125 L 12.988281 8.28125 C 12.675781 7.960938 12.316406 7.71875 11.910156 7.5625 C 11.511719 7.398438 11.0625 7.3125 10.554688 7.3125 C 9.960938 7.3125 9.507812 7.417969 9.195312 7.625 C 8.890625 7.835938 8.746094 8.121094 8.746094 8.484375 C 8.746094 8.828125 8.84375 9.105469 9.054688 9.3125 C 9.273438 9.511719 9.652344 9.667969 10.195312 9.78125 L 11.613281 10.09375 C 12.675781 10.3125 13.445312 10.695312 13.921875 11.234375 C 14.398438 11.765625 14.640625 12.464844 14.640625 13.328125 C 14.640625 14.007812 14.492188 14.601562 14.203125 15.109375 C 13.910156 15.609375 13.472656 16 12.878906 16.28125 C 12.285156 16.5625 11.554688 16.703125 10.695312 16.703125 Z M 10.695312 16.703125 " fill-opacity="1" fill-rule="nonzero"/><path fill="#000000" d="M 20.867188 5.609375 C 21.644531 5.609375 22.308594 5.757812 22.863281 6.046875 C 23.425781 6.328125 23.84375 6.730469 24.125 7.25 C 24.414062 7.761719 24.5625 8.359375 24.5625 9.046875 C 24.5625 9.734375 24.414062 10.335938 24.125 10.84375 C 23.84375 11.355469 23.425781 11.757812 22.863281 12.046875 C 22.308594 12.328125 21.644531 12.46875 20.867188 12.46875 L 18.804688 12.46875 L 18.804688 16.546875 L 16.652344 16.546875 L 16.652344 5.609375 Z M 20.585938 10.765625 C 21.777344 10.765625 22.378906 10.195312 22.378906 9.046875 C 22.378906 7.902344 21.777344 7.328125 20.585938 7.328125 L 18.804688 7.328125 L 18.804688 10.765625 Z M 20.585938 10.765625 " fill-opacity="1" fill-rule="nonzero"/><path fill="#000000" d="M 28.777344 11.75 L 28.777344 14.734375 L 33.988281 14.734375 L 33.988281 16.546875 L 26.625 16.546875 L 26.625 5.609375 L 33.878906 5.609375 L 33.878906 7.421875 L 28.777344 7.421875 L 28.777344 9.984375 L 33.222656 9.984375 L 33.222656 11.75 Z M 28.777344 11.75 " fill-opacity="1" fill-rule="nonzero"/><path fill="#000000" d="M 38.160156 11.75 L 38.160156 14.734375 L 43.371094 14.734375 L 43.371094 16.546875 L 36.007812 16.546875 L 36.007812 5.609375 L 43.261719 5.609375 L 43.261719 7.421875 L 38.160156 7.421875 L 38.160156 9.984375 L 42.605469 9.984375 L 42.605469 11.75 Z M 38.160156 11.75 " fill-opacity="1" fill-rule="nonzero"/><path fill="#000000" d="M 49.320312 5.609375 C 51.085938 5.609375 52.433594 6.074219 53.359375 7 C 54.296875 7.917969 54.765625 9.277344 54.765625 11.078125 C 54.765625 12.882812 54.296875 14.246094 53.359375 15.171875 C 52.433594 16.089844 51.085938 16.546875 49.320312 16.546875 L 45.386719 16.546875 L 45.386719 5.609375 Z M 49.179688 14.734375 C 50.3125 14.734375 51.152344 14.449219 51.707031 13.875 C 52.269531 13.292969 52.550781 12.359375 52.550781 11.078125 C 52.550781 9.796875 52.269531 8.871094 51.707031 8.296875 C 51.152344 7.726562 50.3125 7.4375 49.179688 7.4375 L 47.542969 7.4375 L 47.542969 14.734375 Z M 49.179688 14.734375 " fill-opacity="1" fill-rule="nonzero"/><path fill="#000000" d="M 13.335938 20.609375 L 13.335938 29.734375 L 18.25 29.734375 L 18.25 31.546875 L 11.183594 31.546875 L 11.183594 20.609375 Z M 13.335938 20.609375 " fill-opacity="1" fill-rule="nonzero"/><path fill="#000000" d="M 20.019531 20.609375 L 22.171875 20.609375 L 22.171875 31.546875 L 20.019531 31.546875 Z M 20.019531 20.609375 " fill-opacity="1" fill-rule="nonzero"/><path fill="#000000" d="M 27.003906 31.546875 L 25.019531 31.546875 L 25.019531 20.609375 L 27.84375 20.609375 L 30.605469 28.65625 L 30.761719 28.65625 L 33.507812 20.609375 L 36.269531 20.609375 L 36.269531 31.546875 L 34.210938 31.546875 L 34.210938 24.328125 L 34.023438 24.296875 L 31.511719 31.546875 L 29.699219 31.546875 L 27.1875 24.296875 L 27.003906 24.328125 Z M 27.003906 31.546875 " fill-opacity="1" fill-rule="nonzero"/><path fill="#000000" d="M 39.105469 20.609375 L 41.257812 20.609375 L 41.257812 31.546875 L 39.105469 31.546875 Z M 39.105469 20.609375 " fill-opacity="1" fill-rule="nonzero"/><path fill="#000000" d="M 51.4375 20.609375 L 51.4375 22.4375 L 48.289062 22.4375 L 48.289062 31.546875 L 46.132812 31.546875 L 46.132812 22.4375 L 42.984375 22.4375 L 42.984375 20.609375 Z M 51.4375 20.609375 " fill-opacity="1" fill-rule="nonzero"/><path fill="#000000" d="M 19.40625 58.769531 L 17.769531 58.769531 L 17.769531 50.160156 L 19.703125 50.160156 L 23.164062 55.707031 L 23.304688 55.675781 L 23.304688 50.160156 L 24.945312 50.160156 L 24.945312 58.769531 L 23.210938 58.769531 L 19.5625 52.847656 L 19.40625 52.863281 Z M 19.40625 58.769531 " fill-opacity="1" fill-rule="nonzero"/><path fill="#000000" d="M 30.75 58.894531 C 29.96875 58.894531 29.273438 58.734375 28.671875 58.410156 C 28.070312 58.089844 27.597656 57.597656 27.253906 56.941406 C 26.910156 56.277344 26.738281 55.449219 26.738281 54.457031 C 26.738281 53.480469 26.910156 52.660156 27.253906 52.003906 C 27.597656 51.339844 28.070312 50.84375 28.671875 50.519531 C 29.273438 50.199219 29.96875 50.035156 30.75 50.035156 C 31.535156 50.035156 32.234375 50.199219 32.839844 50.519531 C 33.441406 50.832031 33.90625 51.324219 34.242188 51.988281 C 34.585938 52.65625 34.757812 53.480469 34.757812 54.457031 C 34.757812 55.449219 34.585938 56.277344 34.242188 56.941406 C 33.90625 57.597656 33.441406 58.089844 32.839844 58.410156 C 32.234375 58.734375 31.535156 58.894531 30.75 58.894531 Z M 30.75 57.410156 C 31.484375 57.410156 32.042969 57.175781 32.417969 56.707031 C 32.800781 56.238281 32.996094 55.488281 32.996094 54.457031 C 32.996094 53.4375 32.800781 52.691406 32.417969 52.222656 C 32.042969 51.746094 31.484375 51.503906 30.75 51.503906 C 30.019531 51.503906 29.460938 51.746094 29.078125 52.222656 C 28.691406 52.691406 28.5 53.4375 28.5 54.457031 C 28.5 55.488281 28.691406 56.238281 29.078125 56.707031 C 29.460938 57.175781 30.019531 57.410156 30.75 57.410156 Z M 30.75 57.410156 " fill-opacity="1" fill-rule="nonzero"/><path fill="#000000" d="M 38.195312 58.769531 L 36.558594 58.769531 L 36.558594 50.160156 L 38.492188 50.160156 L 41.957031 55.707031 L 42.09375 55.675781 L 42.09375 50.160156 L 43.734375 50.160156 L 43.734375 58.769531 L 42.003906 58.769531 L 38.351562 52.847656 L 38.195312 52.863281 Z M 38.195312 58.769531 " fill-opacity="1" fill-rule="nonzero"/><path fill="#000000" d="M 7.761719 70.042969 C 7.300781 70.042969 6.890625 69.984375 6.527344 69.871094 C 6.160156 69.757812 5.859375 69.613281 5.621094 69.433594 C 5.382812 69.246094 5.203125 69.039062 5.078125 68.808594 L 5.808594 67.933594 L 5.917969 67.933594 C 6.113281 68.226562 6.363281 68.460938 6.667969 68.636719 C 6.980469 68.816406 7.34375 68.902344 7.761719 68.902344 C 8.109375 68.902344 8.375 68.832031 8.554688 68.683594 C 8.730469 68.539062 8.820312 68.335938 8.820312 68.074219 C 8.820312 67.910156 8.789062 67.773438 8.726562 67.667969 C 8.671875 67.566406 8.578125 67.476562 8.445312 67.402344 C 8.308594 67.320312 8.132812 67.253906 7.917969 67.199219 L 7.058594 67.011719 C 6.453125 66.878906 6.003906 66.652344 5.714844 66.339844 C 5.425781 66.019531 5.28125 65.601562 5.28125 65.089844 C 5.28125 64.714844 5.375 64.386719 5.558594 64.105469 C 5.746094 63.816406 6.015625 63.589844 6.371094 63.433594 C 6.734375 63.277344 7.167969 63.199219 7.667969 63.199219 C 8.183594 63.199219 8.625 63.269531 8.992188 63.402344 C 9.355469 63.539062 9.664062 63.742188 9.914062 64.011719 L 9.257812 64.917969 L 9.148438 64.917969 C 8.960938 64.722656 8.742188 64.574219 8.492188 64.480469 C 8.25 64.378906 7.980469 64.324219 7.667969 64.324219 C 7.3125 64.324219 7.042969 64.386719 6.855469 64.511719 C 6.667969 64.636719 6.574219 64.816406 6.574219 65.042969 C 6.574219 65.253906 6.636719 65.417969 6.761719 65.542969 C 6.894531 65.667969 7.125 65.761719 7.449219 65.824219 L 8.320312 66.011719 C 8.964844 66.148438 9.433594 66.382812 9.726562 66.714844 C 10.015625 67.039062 10.164062 67.460938 10.164062 67.980469 C 10.164062 68.398438 10.074219 68.761719 9.898438 69.074219 C 9.71875 69.378906 9.449219 69.617188 9.085938 69.792969 C 8.71875 69.957031 8.277344 70.042969 7.761719 70.042969 Z M 7.761719 70.042969 " fill-opacity="1" fill-rule="nonzero"/><path fill="#000000" d="M 15.855469 63.292969 L 15.855469 64.402344 L 13.9375 64.402344 L 13.9375 69.949219 L 12.628906 69.949219 L 12.628906 64.402344 L 10.707031 64.402344 L 10.707031 63.292969 Z M 15.855469 63.292969 " fill-opacity="1" fill-rule="nonzero"/><path fill="#000000" d="M 22.410156 69.949219 L 21.023438 69.949219 L 20.523438 68.417969 L 17.980469 68.417969 L 17.480469 69.949219 L 16.125 69.949219 L 18.433594 63.292969 L 20.117188 63.292969 Z M 19.199219 64.683594 L 18.339844 67.308594 L 20.164062 67.308594 L 19.308594 64.683594 Z M 19.199219 64.683594 " fill-opacity="1" fill-rule="nonzero"/><path fill="#000000" d="M 24.644531 69.949219 L 23.367188 69.949219 L 23.367188 63.292969 L 24.878906 63.292969 L 27.546875 67.574219 L 27.671875 67.558594 L 27.671875 63.292969 L 28.933594 63.292969 L 28.933594 69.949219 L 27.578125 69.949219 L 24.753906 65.371094 L 24.644531 65.386719 Z M 24.644531 69.949219 " fill-opacity="1" fill-rule="nonzero"/><path fill="#000000" d="M 33.054688 63.292969 C 34.125 63.292969 34.945312 63.574219 35.519531 64.136719 C 36.089844 64.691406 36.378906 65.519531 36.378906 66.621094 C 36.378906 67.714844 36.089844 68.542969 35.519531 69.105469 C 34.945312 69.667969 34.125 69.949219 33.054688 69.949219 L 30.652344 69.949219 L 30.652344 63.292969 Z M 32.976562 68.839844 C 33.664062 68.839844 34.171875 68.667969 34.507812 68.324219 C 34.847656 67.972656 35.019531 67.402344 35.019531 66.621094 C 35.019531 65.839844 34.847656 65.277344 34.507812 64.933594 C 34.171875 64.582031 33.664062 64.402344 32.976562 64.402344 L 31.980469 64.402344 L 31.980469 68.839844 Z M 32.976562 68.839844 " fill-opacity="1" fill-rule="nonzero"/><path fill="#000000" d="M 43.28125 69.949219 L 41.890625 69.949219 L 41.394531 68.417969 L 38.851562 68.417969 L 38.351562 69.949219 L 36.992188 69.949219 L 39.300781 63.292969 L 40.988281 63.292969 Z M 40.066406 64.683594 L 39.207031 67.308594 L 41.035156 67.308594 L 40.175781 64.683594 Z M 40.066406 64.683594 " fill-opacity="1" fill-rule="nonzero"/><path fill="#000000" d="M 44.234375 69.949219 L 44.234375 63.292969 L 46.902344 63.292969 C 47.597656 63.292969 48.121094 63.457031 48.460938 63.777344 C 48.8125 64.089844 48.992188 64.523438 48.992188 65.074219 C 48.992188 65.480469 48.886719 65.816406 48.679688 66.074219 C 48.480469 66.335938 48.183594 66.535156 47.777344 66.667969 L 47.777344 66.761719 C 47.984375 66.855469 48.152344 66.992188 48.277344 67.167969 C 48.398438 67.347656 48.523438 67.613281 48.648438 67.964844 L 49.304688 69.949219 L 47.964844 69.949219 L 47.308594 67.964844 C 47.234375 67.757812 47.15625 67.601562 47.074219 67.496094 C 46.988281 67.382812 46.886719 67.300781 46.761719 67.246094 C 46.636719 67.195312 46.46875 67.167969 46.261719 67.167969 L 45.5625 67.167969 L 45.5625 69.949219 Z M 46.746094 66.136719 C 47.390625 66.136719 47.714844 65.839844 47.714844 65.246094 C 47.714844 64.644531 47.390625 64.339844 46.746094 64.339844 L 45.5625 64.339844 L 45.5625 66.136719 Z M 46.746094 66.136719 " fill-opacity="1" fill-rule="nonzero"/><path fill="#000000" d="M 52.851562 63.292969 C 53.921875 63.292969 54.742188 63.574219 55.316406 64.136719 C 55.886719 64.691406 56.175781 65.519531 56.175781 66.621094 C 56.175781 67.714844 55.886719 68.542969 55.316406 69.105469 C 54.742188 69.667969 53.921875 69.949219 52.851562 69.949219 L 50.449219 69.949219 L 50.449219 63.292969 Z M 52.773438 68.839844 C 53.460938 68.839844 53.96875 68.667969 54.304688 68.324219 C 54.644531 67.972656 54.816406 67.402344 54.816406 66.621094 C 54.816406 65.839844 54.644531 65.277344 54.304688 64.933594 C 53.96875 64.582031 53.460938 64.402344 52.773438 64.402344 L 51.777344 64.402344 L 51.777344 68.839844 Z M 52.773438 68.839844 " fill-opacity="1" fill-rule="nonzero"/></svg>