<svg xmlns="http://www.w3.org/2000/svg" xmlns:xlink="http://www.w3.org/1999/xlink" version="1.1" width="1000" height="1000" viewBox="0 0 1000 1000" xml:space="preserve">
<desc>Created with Fabric.js 3.5.0</desc>
<defs>
</defs>
<rect x="0" y="0" width="100%" height="100%" fill="rgba(255,255,255,0)"/>
<g transform="matrix(0.9938 0 0 0.9938 496.9 496.9)" id="899319">
<g style="" vector-effect="non-scaling-stroke">
		<g transform="matrix(1 0 0 1 -450 -450)">
<rect style="stroke: none; stroke-width: 1; stroke-dasharray: none; stroke-linecap: butt; stroke-dashoffset: 0; stroke-linejoin: miter; stroke-miterlimit: 4; is-custom-font: none; font-file-url: none; fill: rgb(255,255,255); fill-opacity: 0; fill-rule: nonzero; opacity: 1;" x="-50" y="-50" rx="0" ry="0" width="100" height="100"/>
</g>
		<g transform="matrix(1.0092 0 0 1.0092 -0.0019 -0.0022)" id="path4702">
<circle style="stroke: none; stroke-width: 8.05; stroke-dasharray: none; stroke-linecap: butt; stroke-dashoffset: 0; stroke-linejoin: miter; stroke-miterlimit: 4; is-custom-font: none; font-file-url: none; fill: rgb(226,10,22); fill-rule: nonzero; opacity: 1;" vector-effect="non-scaling-stroke" cx="0" cy="0" r="450"/>
</g>
		<g transform="matrix(1.0092 0 0 1.0092 -0.0019 -0.0022)" id="circle4704">
<circle style="stroke: none; stroke-width: 8.05; stroke-dasharray: none; stroke-linecap: butt; stroke-dashoffset: 0; stroke-linejoin: miter; stroke-miterlimit: 4; is-custom-font: none; font-file-url: none; fill: rgb(255,255,255); fill-rule: nonzero; opacity: 1;" vector-effect="non-scaling-stroke" cx="0" cy="0" r="375"/>
</g>
		<g transform="matrix(1.0092 0 0 1.0092 -113.5793 -1.011)" id="path22173">
<path style="stroke: none; stroke-width: 1; stroke-dasharray: none; stroke-linecap: butt; stroke-dashoffset: 0; stroke-linejoin: miter; stroke-miterlimit: 4; is-custom-font: none; font-file-url: none; fill: rgb(0,0,0); fill-rule: nonzero; opacity: 1;" vector-effect="non-scaling-stroke" transform=" translate(-3506.5649, 9266.433)" d="m 3414.807 -9335.1569 l 0 -91.576 l 183.2342 0 c 0 3.865 0.6338 41.669 0 42.936 l -111.622 277.6637 l -57.3541 0 l 103.1424 -266.1747 l -63.0579 0 l 0 37.151 l -54.3426 0" stroke-linecap="round"/>
</g>
		<g transform="matrix(1.0092 0 0 1.0092 112.4247 0.1436)" id="path4147">
<path style="stroke: none; stroke-width: 1; stroke-dasharray: none; stroke-linecap: butt; stroke-dashoffset: 0; stroke-linejoin: miter; stroke-miterlimit: 4; is-custom-font: none; font-file-url: none; fill: rgb(0,0,0); fill-rule: nonzero; opacity: 1;" vector-effect="non-scaling-stroke" transform=" translate(-3730.5086, 9265.2891)" d="m 3814.8127 -9426.445 l -171.0466 0 l 0 171.73 l 58.1641 0 l 6.1393 -6.856 c 1.7393 -1.985 3.8908 -3.764 6.1679 -5.48 c 1.083 -0.825 4.8376 -2.618 7.1729 -3.448 c 2.2341 -1.027 5.4995 -1.55 7.8888 -2.031 c 2.9907 -0.554 5.7186 -0.635 8.3006 -0.431 c 20.2221 1.485 26.0671 15.599 28.1359 28.488 c 0.1922 3.606 12.2859 67.16 -23.4405 82.796 c -21.8322 8.52 -43.406 -3.873 -49.2585 -25.992 l -55.4266 0 c 10.0412 88.332 122.386 114.984 169.6649 38.988 c 40.7952 -83.37 4.1024 -214.391 -108.7588 -168.977 l 0 -54.074 l 116.2966 0" stroke-linecap="round"/>
</g>
		<g transform="matrix(2.7654 0 0 3.0857 -119.2384 -25.1548)" id="626304">
<path style="stroke: none; stroke-width: 1; stroke-dasharray: none; stroke-linecap: butt; stroke-dashoffset: 0; stroke-linejoin: miter; stroke-miterlimit: 4; is-custom-font: none; font-file-url: none; fill: rgb(255,255,255); fill-rule: nonzero; opacity: 1;" vector-effect="non-scaling-stroke" transform=" translate(-78.4998, -78.5)" d="M 78.5 0 C 52.9419 0 32.1166 35.2271 32.1166 78.5 C 32.1166 121.773 52.9419 157 78.5 157 C 104.058 157 124.883 121.773 124.883 78.5 C 124.883 35.2271 104.058 0 78.5 0 Z" stroke-linecap="round"/>
</g>
		<g transform="matrix(1 0 0 1 -116.4627 1.8582)" id="357038">
<path style="stroke: none; stroke-width: 1; stroke-dasharray: none; stroke-linecap: butt; stroke-dashoffset: 0; stroke-linejoin: miter; stroke-miterlimit: 4; is-custom-font: none; font-file-url: none; fill: rgb(0,0,0); fill-rule: nonzero; opacity: 1;" transform=" translate(-7.065, 16.89)" d="M -1.88 147.96 L -49.46 147.96 Q -49.46 93.79 -42.15 51.88 Q -34.85 9.96 -20.96 -24.43 Q -7.06 -58.81 13.66 -87.3 Q 34.38 -115.8 61.23 -143.12 L 61.23 -143.12 L -97.5 -143.12 L -97.5 -181.74 L 111.63 -181.74 L 111.63 -147.83 Q 79.13 -116.27 57.46 -86.6 Q 35.8 -56.93 22.61 -23.01 Q 9.42 10.9 3.77 52.11 Q -1.88 93.32 -1.88 147.96 L -1.88 147.96 Z" stroke-linecap="round"/>
</g>
</g>
</g>
<g transform="matrix(1 0 0 1 505.3542 768.2445)" style="" id="483351">
		
<path xml:space="preserve" font-family="Abhaya Libre" font-size="223" font-style="normal" font-weight="bold" style="stroke: none; stroke-width: 1; stroke-dasharray: none; stroke-linecap: butt; stroke-dashoffset: 0; stroke-linejoin: miter; stroke-miterlimit: 4; is-custom-font: none; font-file-url: none; fill: rgb(0,0,0); fill-rule: nonzero; opacity: 1; white-space: pre;" d="M-33.21-60.61L-33.21-54.73L-15.35-54.73L-15.35 33.69L-94.19-60.61L-128.81-60.61L-128.81-54.73L-111.39-54.73L-111.39 64.17L-128.81 64.17L-128.81 70.05L-83.95 70.05Q-85.26 64.61-89.83 64.17L-89.83 64.17L-102.46 64.17L-102.46-29.69L-17.97 71.14L-6.42 68.96L-6.42-54.73L11.00-54.73L11.00-60.61L-33.21-60.61ZM122.93 34.34L122.93 34.34Q122.93 15.83 102.46 3.20L102.46 3.20Q99.41 1.45 78.94-8.56L78.94-8.56Q60.21-17.93 55.64-26.86L55.64-26.86Q53.25-31.65 53.25-36.66L53.25-36.66Q53.25-49.72 65.88-54.51L65.88-54.51Q70.89-56.47 76.55-56.47L76.55-56.47Q94.40-56.47 103.55-43.62L103.55-43.62Q109.65-34.91 109.65-22.94L109.65-22.94L117.49-22.94L117.49-61.92Q111.39-61.92 110.52-57.78L110.52-57.78Q110.30-56.26 110.30-54.30L110.30-54.30Q93.10-62.79 73.28-62.79L73.28-62.79Q48.02-62.79 34.73-49.29L34.73-49.29Q26.02-40.36 26.02-28.16L26.02-28.16Q26.02-9.87 46.49 2.54L46.49 2.54Q49.76 4.29 70.45 14.52L70.45 14.52Q89.61 23.89 94.19 33.03L94.19 33.03Q96.58 37.60 96.58 42.61L96.58 42.61Q96.58 57.86 82.43 63.52L82.43 63.52Q76.77 65.92 69.80 65.92L69.80 65.92Q43.88 65.92 35.61 40.44L35.61 40.44Q33.43 33.25 32.77 24.76L32.77 24.76L24.94 24.76L24.94 70.49Q30.38 70.49 31.47 67.22L31.47 67.22Q31.90 65.26 31.90 61.12L31.90 61.12Q48.89 72.23 71.76 72.23L71.76 72.23Q98.54 72.23 112.92 58.29L112.92 58.29Q122.93 48.49 122.93 34.34Z"/></g>
</svg>