<svg width="1462" height="1461" viewBox="0 0 1462 1461" fill="none" xmlns="http://www.w3.org/2000/svg">
<rect width="1462" height="1461" rx="53" fill="#E20A16"/>
<rect x="24" y="24.0001" width="1414" height="1413" rx="30" fill="white"/>
<path d="M229.667 287.546C229.667 281.693 227.601 277.218 223.47 274.119C219.339 270.952 211.903 267.647 201.161 264.204C190.42 260.693 181.916 257.25 175.65 253.876C158.574 244.649 150.036 232.221 150.036 216.591C150.036 208.466 152.309 201.236 156.853 194.902C161.466 188.498 168.042 183.506 176.58 179.926C185.187 176.345 194.827 174.555 205.499 174.555C216.24 174.555 225.811 176.518 234.212 180.442C242.612 184.298 249.119 189.772 253.732 196.864C258.414 203.956 260.755 212.012 260.755 221.032H229.77C229.77 214.147 227.601 208.81 223.264 205.023C218.926 201.168 212.832 199.24 204.983 199.24C197.409 199.24 191.522 200.858 187.321 204.094C183.121 207.261 181.021 211.461 181.021 216.694C181.021 221.583 183.465 225.68 188.354 228.985C193.312 232.29 200.576 235.388 210.147 238.28C227.774 243.582 240.615 250.158 248.671 258.007C256.727 265.857 260.755 275.634 260.755 287.34C260.755 300.353 255.832 310.578 245.986 318.014C236.14 325.382 222.885 329.066 206.222 329.066C194.654 329.066 184.12 326.966 174.618 322.765C165.116 318.496 157.851 312.678 152.825 305.311C147.867 297.943 145.389 289.405 145.389 279.697H176.477C176.477 296.291 186.392 304.588 206.222 304.588C213.59 304.588 219.339 303.107 223.47 300.147C227.601 297.117 229.667 292.917 229.667 287.546ZM326.339 305.001C331.848 305.001 336.323 303.486 339.766 300.456C343.209 297.427 344.999 293.399 345.137 288.372H373.126C373.058 295.946 370.992 302.901 366.929 309.235C362.867 315.501 357.29 320.39 350.198 323.902C343.175 327.344 335.394 329.066 326.856 329.066C310.882 329.066 298.281 324.005 289.055 313.883C279.828 303.693 275.215 289.646 275.215 271.744V269.782C275.215 252.568 279.794 238.831 288.951 228.572C298.109 218.312 310.675 213.183 326.649 213.183C340.627 213.183 351.816 217.176 360.216 225.164C368.685 233.082 372.989 243.651 373.126 256.871H345.137C344.999 251.087 343.209 246.405 339.766 242.825C336.323 239.176 331.779 237.351 326.133 237.351C319.179 237.351 313.911 239.898 310.331 244.994C306.819 250.02 305.063 258.214 305.063 269.575V272.673C305.063 284.172 306.819 292.435 310.331 297.461C313.842 302.488 319.179 305.001 326.339 305.001ZM419.294 227.436C427.212 217.934 437.162 213.183 449.142 213.183C473.379 213.183 485.67 227.264 486.014 255.425V327H456.165V256.252C456.165 249.848 454.788 245.131 452.034 242.102C449.28 239.003 444.701 237.454 438.298 237.454C429.553 237.454 423.218 240.828 419.294 247.576V327H389.445V168.358H419.294V227.436ZM503.882 270.091C503.882 259.006 506.016 249.125 510.285 240.449C514.554 231.774 520.683 225.06 528.67 220.309C536.726 215.558 546.056 213.183 556.659 213.183C571.738 213.183 584.029 217.796 593.531 227.023C603.102 236.249 608.438 248.781 609.54 264.617L609.746 272.26C609.746 289.405 604.961 303.176 595.39 313.573C585.819 323.902 572.978 329.066 556.866 329.066C540.754 329.066 527.878 323.902 518.238 313.573C508.667 303.245 503.882 289.199 503.882 271.434V270.091ZM533.731 272.26C533.731 282.864 535.727 290.989 539.721 296.635C543.715 302.212 549.429 305.001 556.866 305.001C564.096 305.001 569.742 302.247 573.804 296.738C577.867 291.161 579.898 282.279 579.898 270.091C579.898 259.694 577.867 251.638 573.804 245.923C569.742 240.208 564.027 237.351 556.659 237.351C549.361 237.351 543.715 240.208 539.721 245.923C535.727 251.569 533.731 260.348 533.731 272.26ZM623.483 270.091C623.483 259.006 625.617 249.125 629.887 240.449C634.156 231.774 640.284 225.06 648.271 220.309C656.327 215.558 665.657 213.183 676.26 213.183C691.34 213.183 703.63 217.796 713.132 227.023C722.703 236.249 728.039 248.781 729.141 264.617L729.347 272.26C729.347 289.405 724.562 303.176 714.991 313.573C705.42 323.902 692.579 329.066 676.467 329.066C660.355 329.066 647.479 323.902 637.839 313.573C628.268 303.245 623.483 289.199 623.483 271.434V270.091ZM653.332 272.26C653.332 282.864 655.328 290.989 659.322 296.635C663.316 302.212 669.031 305.001 676.467 305.001C683.697 305.001 689.343 302.247 693.405 296.738C697.468 291.161 699.499 282.279 699.499 270.091C699.499 259.694 697.468 251.638 693.405 245.923C689.343 240.208 683.628 237.351 676.26 237.351C668.962 237.351 663.316 240.208 659.322 245.923C655.328 251.569 653.332 260.348 653.332 272.26ZM779.233 327H749.281V168.358H779.233V327ZM891.398 302.109H967.207V327H852.667V308.822L927.03 201.718H852.77V176.621H965.554V194.385L891.398 302.109ZM977.948 270.091C977.948 259.006 980.083 249.125 984.352 240.449C988.621 231.774 994.749 225.06 1002.74 220.309C1010.79 215.558 1020.12 213.183 1030.73 213.183C1045.8 213.183 1058.1 217.796 1067.6 227.023C1077.17 236.249 1082.5 248.781 1083.61 264.617L1083.81 272.26C1083.81 289.405 1079.03 303.176 1069.46 313.573C1059.89 323.902 1047.04 329.066 1030.93 329.066C1014.82 329.066 1001.94 323.902 992.304 313.573C982.734 303.245 977.948 289.199 977.948 271.434V270.091ZM1007.8 272.26C1007.8 282.864 1009.79 290.989 1013.79 296.635C1017.78 302.212 1023.5 305.001 1030.93 305.001C1038.16 305.001 1043.81 302.247 1047.87 296.738C1051.93 291.161 1053.96 282.279 1053.96 270.091C1053.96 259.694 1051.93 251.638 1047.87 245.923C1043.81 240.208 1038.09 237.351 1030.73 237.351C1023.43 237.351 1017.78 240.208 1013.79 245.923C1009.79 251.569 1007.8 260.348 1007.8 272.26ZM1129.67 215.248L1130.6 228.159C1138.59 218.175 1149.29 213.183 1162.72 213.183C1174.56 213.183 1183.38 216.66 1189.16 223.614C1194.94 230.569 1197.91 240.966 1198.04 254.806V327H1168.19V255.529C1168.19 249.194 1166.82 244.615 1164.06 241.792C1161.31 238.9 1156.73 237.454 1150.33 237.454C1141.93 237.454 1135.63 241.035 1131.43 248.196V327H1101.58V215.248H1129.67ZM1272.2 329.066C1255.81 329.066 1242.45 324.039 1232.13 313.986C1221.87 303.934 1216.74 290.541 1216.74 273.81V270.918C1216.74 259.694 1218.91 249.676 1223.24 240.862C1227.58 231.98 1233.71 225.164 1241.63 220.413C1249.62 215.593 1258.7 213.183 1268.89 213.183C1284.18 213.183 1296.2 218.003 1304.94 227.642C1313.75 237.282 1318.16 250.95 1318.16 268.645V280.833H1247C1247.96 288.131 1250.85 293.984 1255.67 298.391C1260.56 302.797 1266.73 305.001 1274.16 305.001C1285.66 305.001 1294.65 300.835 1301.12 292.504L1315.79 308.926C1311.31 315.26 1305.25 320.218 1297.61 323.798C1289.96 327.31 1281.5 329.066 1272.2 329.066ZM1268.79 237.351C1262.87 237.351 1258.05 239.348 1254.33 243.341C1250.68 247.335 1248.34 253.05 1247.31 260.486H1288.83V258.111C1288.69 251.501 1286.9 246.405 1283.46 242.825C1280.01 239.176 1275.13 237.351 1268.79 237.351Z" fill="black"/>
<g clip-path="url(#clip0)">
<path d="M731.4 1337.4C979.928 1337.4 1181.4 1135.93 1181.4 887.399C1181.4 638.871 979.928 437.399 731.4 437.399C482.872 437.399 281.4 638.871 281.4 887.399C281.4 1135.93 482.872 1337.4 731.4 1337.4Z" fill="#E20A16"/>
<path d="M731.4 1262.4C938.507 1262.4 1106.4 1094.51 1106.4 887.399C1106.4 680.293 938.507 512.399 731.4 512.399C524.293 512.399 356.4 680.293 356.4 887.399C356.4 1094.51 524.293 1262.4 731.4 1262.4Z" fill="white"/>
<path fill-rule="evenodd" clip-rule="evenodd" d="M848.9 724.399C899.986 724.399 941.4 765.813 941.4 816.899V957.899C941.4 1008.99 899.986 1050.4 848.9 1050.4C797.814 1050.4 756.4 1008.99 756.4 957.899V816.899C756.4 765.813 797.814 724.399 848.9 724.399ZM848.9 778.999C869.831 778.999 886.8 795.968 886.8 816.899V957.899C886.8 978.831 869.831 995.799 848.9 995.799C827.968 995.799 811 978.831 811 957.899V816.899C811 795.968 827.968 778.999 848.9 778.999Z" fill="black"/>
<path d="M501.583 956.915L611.196 727.132H672.701L571.076 943.515H627.256V863.372H683.353V943.515H710.065V997.035H683.353V1047.8H627.256V997.035H501.583C501.583 993.461 501.171 958.036 501.583 956.915Z" fill="black"/>
</g>
<defs>
<clipPath id="clip0">
<rect width="900.8" height="900.8" fill="white" transform="translate(281 437)"/>
</clipPath>
</defs>
</svg>
