<svg xmlns="http://www.w3.org/2000/svg" xmlns:xlink="http://www.w3.org/1999/xlink" version="1.1" width="1000" height="1000" viewBox="0 0 1000 1000" xml:space="preserve">
<desc>Created with Fabric.js 3.5.0</desc>
<defs>
</defs>
<rect x="0" y="0" width="100%" height="100%" fill="rgba(255,255,255,0)"/>
<g transform="matrix(1.7756 0 0 1.7756 500.0081 500.0081)" id="772957">
<g style="" vector-effect="non-scaling-stroke">
		<g transform="matrix(1 0 0 1 0 0)">
<circle style="stroke: none; stroke-width: 1; stroke-dasharray: none; stroke-linecap: butt; stroke-dashoffset: 0; stroke-linejoin: miter; stroke-miterlimit: 4; is-custom-font: none; font-file-url: none; fill: rgb(255,255,255); fill-rule: evenodd; opacity: 1;" cx="0" cy="0" r="256"/>
</g>
		<g transform="matrix(1 0 0 1 0 0)">
<path style="stroke: none; stroke-width: 1; stroke-dasharray: none; stroke-linecap: butt; stroke-dashoffset: 0; stroke-linejoin: miter; stroke-miterlimit: 4; is-custom-font: none; font-file-url: none; fill: rgb(216,30,0); fill-rule: evenodd; opacity: 1;" transform=" translate(-256, -256)" d="M 256 512 C 114.615104 512 0 397.384896 0 256 C 0 114.615104 114.615104 0 256 0 C 397.384896 0 512 114.615104 512 256 C 512 397.384896 397.384896 512 256 512 Z M 256 458 C 367.561519 458 458 367.561519 458 256 C 458 144.438481 367.561519 54 256 54 C 144.438481 54 54 144.438481 54 256 C 54 367.561519 144.438481 458 256 458 Z" stroke-linecap="round"/>
</g>
		<g transform="matrix(1 0 0 1 -0.1849 -0.0527)">
<path style="stroke: none; stroke-width: 1; stroke-dasharray: none; stroke-linecap: butt; stroke-dashoffset: 0; stroke-linejoin: miter; stroke-miterlimit: 4; is-custom-font: none; font-file-url: none; fill: rgb(0,0,0); fill-rule: nonzero; opacity: 1;" transform=" translate(-255.8151, -255.9473)" d="M 161.501953 329.208984 L 126.589844 329.208984 L 126.589844 215.019531 L 124.871094 215.019531 L 92 238.115234 L 92 206.962891 L 126.589844 182.578125 L 161.501953 182.578125 L 161.501953 329.208984 Z M 218.969351 228.339844 L 185.775992 228.339844 L 185.775992 226.40625 C 185.775992 203.955078 201.996695 180 238.41271 180 C 270.531851 180 291.264273 197.939453 291.264273 221.572266 C 291.264273 242.949219 277.084585 255.517578 265.053335 268.193359 L 235.51232 299.667969 L 235.51232 301.279297 L 293.520132 301.279297 L 293.520132 329.208984 L 187.817007 329.208984 L 187.817007 307.509766 L 240.453726 253.046875 C 248.080679 245.205078 256.567007 236.289062 256.567007 225.117188 C 256.567007 215.234375 248.510367 207.5 237.768179 207.5 C 225.951773 207.5 218.969351 216.308594 218.969351 226.083984 L 218.969351 228.339844 Z M 303.507061 259.384766 L 303.507061 252.1875 C 303.507061 208.466797 325.850811 180 361.944561 180 C 398.038311 180 419.630108 207.822266 419.630108 252.1875 L 419.630108 259.384766 C 419.630108 302.998047 396.964093 331.894531 361.192608 331.894531 C 325.421124 331.894531 303.507061 303.642578 303.507061 259.384766 Z M 338.848858 252.294922 L 338.848858 259.277344 C 338.848858 287.314453 347.335186 303.75 361.514874 303.75 C 375.694561 303.75 384.288311 287.207031 384.288311 259.277344 L 384.288311 252.294922 C 384.288311 224.472656 375.801983 208.144531 361.514874 208.144531 C 347.335186 208.144531 338.848858 224.365234 338.848858 252.294922 Z" stroke-linecap="round"/>
</g>
</g>
</g>
<g transform="matrix(1 0 0 1 500 724.7804)" style="" id="327341">
		
<path xml:space="preserve" font-family="Abhaya Libre" font-size="227" font-style="normal" font-weight="bold" style="stroke: none; stroke-width: 1; stroke-dasharray: none; stroke-linecap: butt; stroke-dashoffset: 0; stroke-linejoin: miter; stroke-miterlimit: 4; is-custom-font: none; font-file-url: none; fill: rgb(0,0,0); fill-rule: nonzero; opacity: 1; white-space: pre;" d="M-33.81-61.70L-33.81-55.71L-15.63-55.71L-15.63 34.29L-95.88-61.70L-131.12-61.70L-131.12-55.71L-113.39-55.71L-113.39 65.32L-131.12 65.32L-131.12 71.31L-85.46 71.31Q-86.79 65.77-91.44 65.32L-91.44 65.32L-104.30 65.32L-104.30-30.22L-18.29 72.42L-6.54 70.20L-6.54-55.71L11.19-55.71L11.19-61.70L-33.81-61.70ZM125.14 34.95L125.14 34.95Q125.14 16.11 104.30 3.25L104.30 3.25Q101.20 1.48 80.36-8.72L80.36-8.72Q61.29-18.25 56.64-27.34L56.64-27.34Q54.20-32.21 54.20-37.31L54.20-37.31Q54.20-50.61 67.06-55.49L67.06-55.49Q72.16-57.49 77.92-57.49L77.92-57.49Q96.10-57.49 105.41-44.41L105.41-44.41Q111.62-35.54 111.62-23.35L111.62-23.35L119.60-23.35L119.60-63.03Q113.39-63.03 112.50-58.82L112.50-58.82Q112.28-57.26 112.28-55.27L112.28-55.27Q94.77-63.91 74.60-63.91L74.60-63.91Q48.88-63.91 35.36-50.17L35.36-50.17Q26.49-41.08 26.49-28.67L26.49-28.67Q26.49-10.05 47.33 2.59L47.33 2.59Q50.65 4.36 71.71 14.78L71.71 14.78Q91.22 24.31 95.88 33.62L95.88 33.62Q98.31 38.28 98.31 43.38L98.31 43.38Q98.31 58.90 83.91 64.66L83.91 64.66Q78.14 67.10 71.05 67.10L71.05 67.10Q44.67 67.10 36.24 41.16L36.24 41.16Q34.03 33.85 33.36 25.20L33.36 25.20L25.38 25.20L25.38 71.75Q30.92 71.75 32.03 68.43L32.03 68.43Q32.48 66.43 32.48 62.22L32.48 62.22Q49.77 73.53 73.04 73.53L73.04 73.53Q100.31 73.53 114.94 59.34L114.94 59.34Q125.14 49.36 125.14 34.95Z"/></g>
</svg>