<svg xmlns="http://www.w3.org/2000/svg" xmlns:xlink="http://www.w3.org/1999/xlink" version="1.1" width="1000" height="1000" viewBox="0 0 1000 1000" xml:space="preserve">
<desc>Created with Fabric.js 3.5.0</desc>
<defs>
</defs>
<rect x="0" y="0" width="100%" height="100%" fill="rgba(255,255,255,0)"/>
<g transform="matrix(0.9916 0 0 0.9916 498.2851 498.2851)" id="449431">
<g style="" vector-effect="non-scaling-stroke">
		<g transform="matrix(1 0 0 1 -450 -450)">
<rect style="stroke: none; stroke-width: 1; stroke-dasharray: none; stroke-linecap: butt; stroke-dashoffset: 0; stroke-linejoin: miter; stroke-miterlimit: 4; is-custom-font: none; font-file-url: none; fill: rgb(255,255,255); fill-opacity: 0; fill-rule: nonzero; opacity: 1;" x="-50" y="-50" rx="0" ry="0" width="100" height="100"/>
</g>
		<g transform="matrix(1.0092 0 0 1.0092 -0.0019 -0.0022)" id="path4702">
<circle style="stroke: none; stroke-width: 8.05; stroke-dasharray: none; stroke-linecap: butt; stroke-dashoffset: 0; stroke-linejoin: miter; stroke-miterlimit: 4; is-custom-font: none; font-file-url: none; fill: rgb(226,10,22); fill-rule: nonzero; opacity: 1;" vector-effect="non-scaling-stroke" cx="0" cy="0" r="450"/>
</g>
		<g transform="matrix(1.0092 0 0 1.0092 -0.0019 -0.0022)" id="circle4704">
<circle style="stroke: none; stroke-width: 8.05; stroke-dasharray: none; stroke-linecap: butt; stroke-dashoffset: 0; stroke-linejoin: miter; stroke-miterlimit: 4; is-custom-font: none; font-file-url: none; fill: rgb(255,255,255); fill-rule: nonzero; opacity: 1;" vector-effect="non-scaling-stroke" cx="0" cy="0" r="375"/>
</g>
		<g transform="matrix(1.0092 0 0 1.0092 -113.5793 -1.011)" id="path22173">
<path style="stroke: none; stroke-width: 1; stroke-dasharray: none; stroke-linecap: butt; stroke-dashoffset: 0; stroke-linejoin: miter; stroke-miterlimit: 4; is-custom-font: none; font-file-url: none; fill: rgb(0,0,0); fill-rule: nonzero; opacity: 1;" vector-effect="non-scaling-stroke" transform=" translate(-3506.5649, 9266.433)" d="m 3414.807 -9335.1569 l 0 -91.576 l 183.2342 0 c 0 3.865 0.6338 41.669 0 42.936 l -111.622 277.6637 l -57.3541 0 l 103.1424 -266.1747 l -63.0579 0 l 0 37.151 l -54.3426 0" stroke-linecap="round"/>
</g>
		<g transform="matrix(1.0092 0 0 1.0092 112.4247 0.1436)" id="path4147">
<path style="stroke: none; stroke-width: 1; stroke-dasharray: none; stroke-linecap: butt; stroke-dashoffset: 0; stroke-linejoin: miter; stroke-miterlimit: 4; is-custom-font: none; font-file-url: none; fill: rgb(0,0,0); fill-rule: nonzero; opacity: 1;" vector-effect="non-scaling-stroke" transform=" translate(-3730.5086, 9265.2891)" d="m 3814.8127 -9426.445 l -171.0466 0 l 0 171.73 l 58.1641 0 l 6.1393 -6.856 c 1.7393 -1.985 3.8908 -3.764 6.1679 -5.48 c 1.083 -0.825 4.8376 -2.618 7.1729 -3.448 c 2.2341 -1.027 5.4995 -1.55 7.8888 -2.031 c 2.9907 -0.554 5.7186 -0.635 8.3006 -0.431 c 20.2221 1.485 26.0671 15.599 28.1359 28.488 c 0.1922 3.606 12.2859 67.16 -23.4405 82.796 c -21.8322 8.52 -43.406 -3.873 -49.2585 -25.992 l -55.4266 0 c 10.0412 88.332 122.386 114.984 169.6649 38.988 c 40.7952 -83.37 4.1024 -214.391 -108.7588 -168.977 l 0 -54.074 l 116.2966 0" stroke-linecap="round"/>
</g>
		<g transform="matrix(2.7654 0 0 3.0857 -119.2384 -25.1548)" id="626304">
<path style="stroke: none; stroke-width: 1; stroke-dasharray: none; stroke-linecap: butt; stroke-dashoffset: 0; stroke-linejoin: miter; stroke-miterlimit: 4; is-custom-font: none; font-file-url: none; fill: rgb(255,255,255); fill-rule: nonzero; opacity: 1;" vector-effect="non-scaling-stroke" transform=" translate(-78.4998, -78.5)" d="M 78.5 0 C 52.9419 0 32.1166 35.2271 32.1166 78.5 C 32.1166 121.773 52.9419 157 78.5 157 C 104.058 157 124.883 121.773 124.883 78.5 C 124.883 35.2271 104.058 0 78.5 0 Z" stroke-linecap="round"/>
</g>
		<g transform="matrix(1 0 0 1 -118.9972 10.0882)" id="357038">
<path style="stroke: none; stroke-width: 1; stroke-dasharray: none; stroke-linecap: butt; stroke-dashoffset: 0; stroke-linejoin: miter; stroke-miterlimit: 4; is-custom-font: none; font-file-url: none; fill: rgb(0,0,0); fill-rule: nonzero; opacity: 1;" transform=" translate(-0.24, 14.875)" d="M 62.66 -147.42 L 62.66 -147.42 Q 9.64 -147.42 -24.1 -115.37 Q -57.84 -83.32 -65.55 -27.41 L -65.55 -27.41 Q -52.06 -40.42 -31.09 -51.27 Q -10.12 -62.11 17.35 -62.11 L 17.35 -62.11 Q 37.6 -62.11 54.71 -54.88 Q 71.82 -47.65 84.35 -34.64 Q 96.88 -21.62 104.11 -3.07 Q 111.34 15.49 111.34 38.63 L 111.34 38.63 Q 111.34 65.14 103.15 87.07 Q 94.95 109 80.49 124.42 Q 66.03 139.85 45.79 148.52 Q 25.55 157.2 1.93 157.2 L 1.93 157.2 Q -21.21 157.2 -41.69 148.76 Q -62.18 140.33 -77.6 122.74 Q -93.03 105.14 -101.94 78.15 Q -110.86 51.16 -110.86 14.53 L -110.86 14.53 Q -110.86 -26.44 -99.77 -63.07 Q -88.69 -99.71 -67 -127.18 Q -45.31 -154.65 -13.01 -170.8 Q 19.28 -186.95 62.18 -186.95 L 62.18 -186.95 Q 66.52 -186.95 71.58 -186.71 Q 76.64 -186.47 80.49 -185.98 L 80.49 -185.98 L 80.49 -146.46 Q 76.64 -146.94 71.82 -147.18 Q 67 -147.42 62.66 -147.42 Z M 6.27 -25.96 L 6.27 -25.96 Q -14.94 -25.96 -33.5 -15.84 Q -52.06 -5.72 -66.52 11.15 L -66.52 11.15 L -66.52 21.76 Q -66.03 44.41 -60.49 62.25 Q -54.95 80.08 -45.55 92.37 Q -36.15 104.66 -23.38 111.17 Q -10.6 117.68 3.86 117.68 L 3.86 117.68 Q 18.32 117.68 30.13 112.13 Q 41.93 106.59 50.37 96.71 Q 58.8 86.83 63.38 73.33 Q 67.96 59.84 67.96 43.93 L 67.96 43.93 Q 67.96 12.6 51.09 -6.68 Q 34.22 -25.96 6.27 -25.96 Z" stroke-linecap="round"/>
</g>
</g>
</g>
<g transform="matrix(1 0 0 1 500 770.0468)" style="" id="592132">
		
<path xml:space="preserve" font-family="Abhaya Libre" font-size="213" font-style="normal" font-weight="bold" style="stroke: none; stroke-width: 0; stroke-dasharray: none; stroke-linecap: butt; stroke-dashoffset: 0; stroke-linejoin: miter; stroke-miterlimit: 4; is-custom-font: none; font-file-url: none; fill: rgb(0,0,0); fill-rule: nonzero; opacity: 1; white-space: pre;" d="M-31.72-57.89L-31.72-52.28L-14.66-52.28L-14.66 32.17L-89.96-57.89L-123.04-57.89L-123.04-52.28L-106.40-52.28L-106.40 61.30L-123.04 61.30L-123.04 66.91L-80.19 66.91Q-81.44 61.71-85.80 61.30L-85.80 61.30L-97.87 61.30L-97.87-28.36L-17.16 67.95L-6.14 65.87L-6.14-52.28L10.50-52.28L10.50-57.89L-31.72-57.89ZM117.42 32.80L117.42 32.80Q117.42 15.12 97.87 3.05L97.87 3.05Q94.96 1.39 75.40-8.18L75.40-8.18Q57.51-17.12 53.15-25.65L53.15-25.65Q50.86-30.23 50.86-35.01L50.86-35.01Q50.86-47.49 62.92-52.07L62.92-52.07Q67.71-53.94 73.11-53.94L73.11-53.94Q90.17-53.94 98.91-41.67L98.91-41.67Q104.73-33.35 104.73-21.91L104.73-21.91L112.22-21.91L112.22-59.14Q106.40-59.14 105.56-55.19L105.56-55.19Q105.36-53.73 105.36-51.86L105.36-51.86Q88.92-59.97 69.99-59.97L69.99-59.97Q45.87-59.97 33.18-47.08L33.18-47.08Q24.86-38.55 24.86-26.90L24.86-26.90Q24.86-9.43 44.41 2.43L44.41 2.43Q47.53 4.09 67.29 13.87L67.29 13.87Q85.60 22.81 89.96 31.55L89.96 31.55Q92.25 35.92 92.25 40.70L92.25 40.70Q92.25 55.26 78.73 60.67L78.73 60.67Q73.32 62.96 66.67 62.96L66.67 62.96Q41.91 62.96 34.01 38.62L34.01 38.62Q31.93 31.76 31.31 23.65L31.31 23.65L23.82 23.65L23.82 67.33Q29.02 67.33 30.06 64.21L30.06 64.21Q30.47 62.34 30.47 58.38L30.47 58.38Q46.70 68.99 68.54 68.99L68.54 68.99Q94.12 68.99 107.85 55.68L107.85 55.68Q117.42 46.32 117.42 32.80Z"/></g>
</svg>