<svg xmlns="http://www.w3.org/2000/svg" xmlns:xlink="http://www.w3.org/1999/xlink" width="82" zoomAndPan="magnify" viewBox="0 0 61.5 76.499999" height="102" preserveAspectRatio="xMidYMid meet" version="1.0"><defs><g/><clipPath id="00cf619bfb"><path d="M 0 0.0585938 L 61 0.0585938 L 61 4 L 0 4 Z M 0 0.0585938 " clip-rule="nonzero"/></clipPath><clipPath id="a50a77080f"><path d="M 58 0.0585938 L 61.003906 0.0585938 L 61.003906 75.945312 L 58 75.945312 Z M 58 0.0585938 " clip-rule="nonzero"/></clipPath><clipPath id="8920db3c3c"><path d="M 0 0.0585938 L 3 0.0585938 L 3 75.945312 L 0 75.945312 Z M 0 0.0585938 " clip-rule="nonzero"/></clipPath><clipPath id="14dbc2b614"><path d="M 0 73 L 61.003906 73 L 61.003906 75.945312 L 0 75.945312 Z M 0 73 " clip-rule="nonzero"/></clipPath></defs><g clip-path="url(#00cf619bfb)"><path stroke-linecap="butt" transform="matrix(0.750742, 0, 0, 0.75, 0, 0.0604844)" fill="none" stroke-linejoin="miter" d="M 0 1.997479 L 78.93229 1.997479 " stroke="#000000" stroke-width="4" stroke-opacity="1" stroke-miterlimit="4"/></g><g clip-path="url(#a50a77080f)"><path stroke-linecap="butt" transform="matrix(0.000000000000000046, -0.749885, 0.75, 0.000000000000000046, 58.495268, 76.576921)" fill="none" stroke-linejoin="miter" d="M -0.00160545 2.001101 L 102.029657 2.001101 " stroke="#000000" stroke-width="4" stroke-opacity="1" stroke-miterlimit="4"/></g><g clip-path="url(#8920db3c3c)"><path stroke-linecap="butt" transform="matrix(0.000000000000000046, -0.749885, 0.75, 0.000000000000000046, -0.00472641, 76.576921)" fill="none" stroke-linejoin="miter" d="M -0.00160545 2.001094 L 102.029657 2.001094 " stroke="#000000" stroke-width="4" stroke-opacity="1" stroke-miterlimit="4"/></g><g clip-path="url(#14dbc2b614)"><path stroke-linecap="butt" transform="matrix(0.750742, 0, 0, 0.75, 1.5, 73.560482)" fill="none" stroke-linejoin="miter" d="M 0.000000180961 1.997483 L 78.93229 1.997483 " stroke="#000000" stroke-width="4" stroke-opacity="1" stroke-miterlimit="4"/></g><g fill="#000000" fill-opacity="1"><g transform="translate(5.820785, 16.486872)"><g><path d="M 4.84375 0.15625 C 4.082031 0.15625 3.40625 0.0625 2.8125 -0.125 C 2.226562 -0.3125 1.738281 -0.554688 1.34375 -0.859375 C 0.945312 -1.160156 0.644531 -1.492188 0.4375 -1.859375 L 1.625 -3.3125 L 1.8125 -3.3125 C 2.144531 -2.820312 2.5625 -2.429688 3.0625 -2.140625 C 3.570312 -1.859375 4.164062 -1.71875 4.84375 -1.71875 C 5.425781 -1.71875 5.863281 -1.835938 6.15625 -2.078125 C 6.445312 -2.316406 6.59375 -2.65625 6.59375 -3.09375 C 6.59375 -3.351562 6.546875 -3.566406 6.453125 -3.734375 C 6.359375 -3.910156 6.203125 -4.0625 5.984375 -4.1875 C 5.765625 -4.3125 5.46875 -4.421875 5.09375 -4.515625 L 3.6875 -4.828125 C 2.707031 -5.054688 1.972656 -5.429688 1.484375 -5.953125 C 1.003906 -6.472656 0.765625 -7.148438 0.765625 -7.984375 C 0.765625 -8.597656 0.921875 -9.140625 1.234375 -9.609375 C 1.546875 -10.078125 1.992188 -10.441406 2.578125 -10.703125 C 3.171875 -10.960938 3.878906 -11.09375 4.703125 -11.09375 C 5.546875 -11.09375 6.265625 -10.976562 6.859375 -10.75 C 7.460938 -10.53125 7.972656 -10.191406 8.390625 -9.734375 L 7.3125 -8.265625 L 7.140625 -8.265625 C 6.828125 -8.585938 6.46875 -8.828125 6.0625 -8.984375 C 5.664062 -9.148438 5.210938 -9.234375 4.703125 -9.234375 C 4.109375 -9.234375 3.65625 -9.128906 3.34375 -8.921875 C 3.039062 -8.710938 2.890625 -8.425781 2.890625 -8.0625 C 2.890625 -7.71875 2.992188 -7.441406 3.203125 -7.234375 C 3.421875 -7.035156 3.800781 -6.878906 4.34375 -6.765625 L 5.765625 -6.453125 C 6.828125 -6.234375 7.597656 -5.851562 8.078125 -5.3125 C 8.554688 -4.78125 8.796875 -4.082031 8.796875 -3.21875 C 8.796875 -2.539062 8.648438 -1.945312 8.359375 -1.4375 C 8.066406 -0.9375 7.625 -0.546875 7.03125 -0.265625 C 6.4375 0.015625 5.707031 0.15625 4.84375 0.15625 Z M 4.84375 0.15625 "/></g></g><g transform="translate(15.209579, 16.486872)"><g><path d="M 5.640625 -10.9375 C 6.421875 -10.9375 7.085938 -10.789062 7.640625 -10.5 C 8.203125 -10.21875 8.625 -9.816406 8.90625 -9.296875 C 9.195312 -8.785156 9.34375 -8.1875 9.34375 -7.5 C 9.34375 -6.8125 9.195312 -6.210938 8.90625 -5.703125 C 8.625 -5.191406 8.203125 -4.789062 7.640625 -4.5 C 7.085938 -4.21875 6.421875 -4.078125 5.640625 -4.078125 L 3.578125 -4.078125 L 3.578125 0 L 1.421875 0 L 1.421875 -10.9375 Z M 5.359375 -5.78125 C 6.554688 -5.78125 7.15625 -6.351562 7.15625 -7.5 C 7.15625 -8.644531 6.554688 -9.21875 5.359375 -9.21875 L 3.578125 -9.21875 L 3.578125 -5.78125 Z M 5.359375 -5.78125 "/></g></g><g transform="translate(25.196385, 16.486872)"><g><path d="M 3.578125 -4.796875 L 3.578125 -1.8125 L 8.796875 -1.8125 L 8.796875 0 L 1.421875 0 L 1.421875 -10.9375 L 8.6875 -10.9375 L 8.6875 -9.125 L 3.578125 -9.125 L 3.578125 -6.5625 L 8.03125 -6.5625 L 8.03125 -4.796875 Z M 3.578125 -4.796875 "/></g></g><g transform="translate(34.592654, 16.486872)"><g><path d="M 3.578125 -4.796875 L 3.578125 -1.8125 L 8.796875 -1.8125 L 8.796875 0 L 1.421875 0 L 1.421875 -10.9375 L 8.6875 -10.9375 L 8.6875 -9.125 L 3.578125 -9.125 L 3.578125 -6.5625 L 8.03125 -6.5625 L 8.03125 -4.796875 Z M 3.578125 -4.796875 "/></g></g><g transform="translate(43.988923, 16.486872)"><g><path d="M 5.359375 -10.9375 C 7.128906 -10.9375 8.476562 -10.472656 9.40625 -9.546875 C 10.34375 -8.628906 10.8125 -7.269531 10.8125 -5.46875 C 10.8125 -3.664062 10.34375 -2.300781 9.40625 -1.375 C 8.476562 -0.457031 7.128906 0 5.359375 0 L 1.421875 0 L 1.421875 -10.9375 Z M 5.21875 -1.8125 C 6.351562 -1.8125 7.195312 -2.097656 7.75 -2.671875 C 8.3125 -3.253906 8.59375 -4.1875 8.59375 -5.46875 C 8.59375 -6.75 8.3125 -7.675781 7.75 -8.25 C 7.195312 -8.820312 6.351562 -9.109375 5.21875 -9.109375 L 3.578125 -9.109375 L 3.578125 -1.8125 Z M 5.21875 -1.8125 "/></g></g></g><g fill="#000000" fill-opacity="1"><g transform="translate(9.731786, 31.486871)"><g><path d="M 3.578125 -10.9375 L 3.578125 -1.8125 L 8.5 -1.8125 L 8.5 0 L 1.421875 0 L 1.421875 -10.9375 Z M 3.578125 -10.9375 "/></g></g><g transform="translate(18.582369, 31.486871)"><g><path d="M 3.578125 0 L 1.421875 0 L 1.421875 -10.9375 L 3.578125 -10.9375 Z M 3.578125 0 "/></g></g><g transform="translate(23.590722, 31.486871)"><g><path d="M 3.40625 0 L 1.421875 0 L 1.421875 -10.9375 L 4.25 -10.9375 L 7.015625 -2.890625 L 7.171875 -2.890625 L 9.921875 -10.9375 L 12.6875 -10.9375 L 12.6875 0 L 10.625 0 L 10.625 -7.21875 L 10.4375 -7.25 L 7.921875 0 L 6.109375 0 L 3.59375 -7.25 L 3.40625 -7.21875 Z M 3.40625 0 "/></g></g><g transform="translate(37.696338, 31.486871)"><g><path d="M 3.578125 0 L 1.421875 0 L 1.421875 -10.9375 L 3.578125 -10.9375 Z M 3.578125 0 "/></g></g><g transform="translate(42.704692, 31.486871)"><g><path d="M 8.765625 -10.9375 L 8.765625 -9.109375 L 5.609375 -9.109375 L 5.609375 0 L 3.453125 0 L 3.453125 -9.109375 L 0.296875 -9.109375 L 0.296875 -10.9375 Z M 8.765625 -10.9375 "/></g></g></g><g fill="#000000" fill-opacity="1"><g transform="translate(16.623046, 58.708108)"><g><path d="M 2.765625 0 L 1.125 0 L 1.125 -8.609375 L 3.0625 -8.609375 L 6.53125 -3.0625 L 6.671875 -3.09375 L 6.671875 -8.609375 L 8.3125 -8.609375 L 8.3125 0 L 6.578125 0 L 2.921875 -5.921875 L 2.765625 -5.90625 Z M 2.765625 0 "/></g></g></g><g fill="#000000" fill-opacity="1"><g transform="translate(26.061491, 58.708108)"><g><path d="M 4.6875 0.125 C 3.90625 0.125 3.210938 -0.0351562 2.609375 -0.359375 C 2.003906 -0.679688 1.53125 -1.171875 1.1875 -1.828125 C 0.84375 -2.492188 0.671875 -3.320312 0.671875 -4.3125 C 0.671875 -5.289062 0.84375 -6.109375 1.1875 -6.765625 C 1.53125 -7.429688 2.003906 -7.925781 2.609375 -8.25 C 3.210938 -8.570312 3.90625 -8.734375 4.6875 -8.734375 C 5.476562 -8.734375 6.175781 -8.570312 6.78125 -8.25 C 7.382812 -7.9375 7.851562 -7.445312 8.1875 -6.78125 C 8.53125 -6.113281 8.703125 -5.289062 8.703125 -4.3125 C 8.703125 -3.320312 8.53125 -2.492188 8.1875 -1.828125 C 7.851562 -1.171875 7.382812 -0.679688 6.78125 -0.359375 C 6.175781 -0.0351562 5.476562 0.125 4.6875 0.125 Z M 4.6875 -1.359375 C 5.425781 -1.359375 5.984375 -1.59375 6.359375 -2.0625 C 6.742188 -2.53125 6.9375 -3.28125 6.9375 -4.3125 C 6.9375 -5.332031 6.742188 -6.078125 6.359375 -6.546875 C 5.984375 -7.023438 5.425781 -7.265625 4.6875 -7.265625 C 3.957031 -7.265625 3.398438 -7.023438 3.015625 -6.546875 C 2.628906 -6.078125 2.4375 -5.332031 2.4375 -4.3125 C 2.4375 -3.28125 2.628906 -2.53125 3.015625 -2.0625 C 3.398438 -1.59375 3.957031 -1.359375 4.6875 -1.359375 Z M 4.6875 -1.359375 "/></g></g></g><g fill="#000000" fill-opacity="1"><g transform="translate(35.441057, 58.708108)"><g><path d="M 2.765625 0 L 1.125 0 L 1.125 -8.609375 L 3.0625 -8.609375 L 6.53125 -3.0625 L 6.671875 -3.09375 L 6.671875 -8.609375 L 8.3125 -8.609375 L 8.3125 0 L 6.578125 0 L 2.921875 -5.921875 L 2.765625 -5.90625 Z M 2.765625 0 "/></g></g></g><g fill="#000000" fill-opacity="1"><g transform="translate(4.771928, 69.890752)"><g><path d="M 2.953125 0.09375 C 2.492188 0.09375 2.082031 0.0351562 1.71875 -0.078125 C 1.351562 -0.191406 1.050781 -0.335938 0.8125 -0.515625 C 0.570312 -0.703125 0.390625 -0.910156 0.265625 -1.140625 L 1 -2.015625 L 1.109375 -2.015625 C 1.304688 -1.722656 1.554688 -1.488281 1.859375 -1.3125 C 2.171875 -1.132812 2.535156 -1.046875 2.953125 -1.046875 C 3.304688 -1.046875 3.570312 -1.117188 3.75 -1.265625 C 3.925781 -1.410156 4.015625 -1.613281 4.015625 -1.875 C 4.015625 -2.039062 3.984375 -2.175781 3.921875 -2.28125 C 3.867188 -2.382812 3.773438 -2.472656 3.640625 -2.546875 C 3.503906 -2.628906 3.328125 -2.695312 3.109375 -2.75 L 2.25 -2.9375 C 1.644531 -3.070312 1.195312 -3.296875 0.90625 -3.609375 C 0.613281 -3.929688 0.46875 -4.347656 0.46875 -4.859375 C 0.46875 -5.234375 0.5625 -5.5625 0.75 -5.84375 C 0.9375 -6.132812 1.207031 -6.359375 1.5625 -6.515625 C 1.925781 -6.671875 2.359375 -6.75 2.859375 -6.75 C 3.378906 -6.75 3.820312 -6.679688 4.1875 -6.546875 C 4.550781 -6.410156 4.859375 -6.207031 5.109375 -5.9375 L 4.453125 -5.03125 L 4.34375 -5.03125 C 4.15625 -5.226562 3.9375 -5.375 3.6875 -5.46875 C 3.445312 -5.570312 3.171875 -5.625 2.859375 -5.625 C 2.503906 -5.625 2.234375 -5.5625 2.046875 -5.4375 C 1.859375 -5.3125 1.765625 -5.132812 1.765625 -4.90625 C 1.765625 -4.695312 1.828125 -4.53125 1.953125 -4.40625 C 2.085938 -4.28125 2.316406 -4.1875 2.640625 -4.125 L 3.515625 -3.9375 C 4.160156 -3.800781 4.628906 -3.566406 4.921875 -3.234375 C 5.210938 -2.910156 5.359375 -2.488281 5.359375 -1.96875 C 5.359375 -1.550781 5.269531 -1.1875 5.09375 -0.875 C 4.914062 -0.570312 4.644531 -0.332031 4.28125 -0.15625 C 3.914062 0.0078125 3.472656 0.09375 2.953125 0.09375 Z M 2.953125 0.09375 "/></g></g></g><g fill="#000000" fill-opacity="1"><g transform="translate(10.490034, 69.890752)"><g><path d="M 5.34375 -6.65625 L 5.34375 -5.546875 L 3.421875 -5.546875 L 3.421875 0 L 2.109375 0 L 2.109375 -5.546875 L 0.1875 -5.546875 L 0.1875 -6.65625 Z M 5.34375 -6.65625 "/></g></g></g><g fill="#000000" fill-opacity="1"><g transform="translate(16.007823, 69.890752)"><g><path d="M 6.390625 0 L 5 0 L 4.5 -1.53125 L 1.953125 -1.53125 L 1.453125 0 L 0.09375 0 L 2.40625 -6.65625 L 4.09375 -6.65625 Z M 3.171875 -5.265625 L 2.3125 -2.640625 L 4.140625 -2.640625 L 3.28125 -5.265625 Z M 3.171875 -5.265625 "/></g></g></g><g fill="#000000" fill-opacity="1"><g transform="translate(22.495328, 69.890752)"><g><path d="M 2.140625 0 L 0.859375 0 L 0.859375 -6.65625 L 2.375 -6.65625 L 5.046875 -2.375 L 5.171875 -2.390625 L 5.171875 -6.65625 L 6.4375 -6.65625 L 6.4375 0 L 5.078125 0 L 2.25 -4.578125 L 2.140625 -4.5625 Z M 2.140625 0 "/></g></g></g><g fill="#000000" fill-opacity="1"><g transform="translate(29.793202, 69.890752)"><g><path d="M 3.265625 -6.65625 C 4.335938 -6.65625 5.160156 -6.375 5.734375 -5.8125 C 6.304688 -5.257812 6.59375 -4.429688 6.59375 -3.328125 C 6.59375 -2.234375 6.304688 -1.40625 5.734375 -0.84375 C 5.160156 -0.28125 4.335938 0 3.265625 0 L 0.859375 0 L 0.859375 -6.65625 Z M 3.1875 -1.109375 C 3.875 -1.109375 4.382812 -1.28125 4.71875 -1.625 C 5.0625 -1.976562 5.234375 -2.546875 5.234375 -3.328125 C 5.234375 -4.109375 5.0625 -4.671875 4.71875 -5.015625 C 4.382812 -5.367188 3.875 -5.546875 3.1875 -5.546875 L 2.1875 -5.546875 L 2.1875 -1.109375 Z M 3.1875 -1.109375 "/></g></g></g><g fill="#000000" fill-opacity="1"><g transform="translate(36.90897, 69.890752)"><g><path d="M 6.390625 0 L 5 0 L 4.5 -1.53125 L 1.953125 -1.53125 L 1.453125 0 L 0.09375 0 L 2.40625 -6.65625 L 4.09375 -6.65625 Z M 3.171875 -5.265625 L 2.3125 -2.640625 L 4.140625 -2.640625 L 3.28125 -5.265625 Z M 3.171875 -5.265625 "/></g></g></g><g fill="#000000" fill-opacity="1"><g transform="translate(43.396475, 69.890752)"><g><path d="M 0.859375 0 L 0.859375 -6.65625 L 3.53125 -6.65625 C 4.226562 -6.65625 4.75 -6.492188 5.09375 -6.171875 C 5.445312 -5.859375 5.625 -5.425781 5.625 -4.875 C 5.625 -4.46875 5.519531 -4.132812 5.3125 -3.875 C 5.113281 -3.613281 4.8125 -3.414062 4.40625 -3.28125 L 4.40625 -3.1875 C 4.613281 -3.09375 4.78125 -2.957031 4.90625 -2.78125 C 5.03125 -2.601562 5.15625 -2.335938 5.28125 -1.984375 L 5.9375 0 L 4.59375 0 L 3.9375 -1.984375 C 3.863281 -2.191406 3.785156 -2.347656 3.703125 -2.453125 C 3.617188 -2.566406 3.515625 -2.648438 3.390625 -2.703125 C 3.265625 -2.753906 3.097656 -2.78125 2.890625 -2.78125 L 2.1875 -2.78125 L 2.1875 0 Z M 3.375 -3.8125 C 4.019531 -3.8125 4.34375 -4.109375 4.34375 -4.703125 C 4.34375 -5.304688 4.019531 -5.609375 3.375 -5.609375 L 2.1875 -5.609375 L 2.1875 -3.8125 Z M 3.375 -3.8125 "/></g></g></g><g fill="#000000" fill-opacity="1"><g transform="translate(49.619927, 69.890752)"><g><path d="M 3.265625 -6.65625 C 4.335938 -6.65625 5.160156 -6.375 5.734375 -5.8125 C 6.304688 -5.257812 6.59375 -4.429688 6.59375 -3.328125 C 6.59375 -2.234375 6.304688 -1.40625 5.734375 -0.84375 C 5.160156 -0.28125 4.335938 0 3.265625 0 L 0.859375 0 L 0.859375 -6.65625 Z M 3.1875 -1.109375 C 3.875 -1.109375 4.382812 -1.28125 4.71875 -1.625 C 5.0625 -1.976562 5.234375 -2.546875 5.234375 -3.328125 C 5.234375 -4.109375 5.0625 -4.671875 4.71875 -5.015625 C 4.382812 -5.367188 3.875 -5.546875 3.1875 -5.546875 L 2.1875 -5.546875 L 2.1875 -1.109375 Z M 3.1875 -1.109375 "/></g></g></g></svg>