<svg xmlns="http://www.w3.org/2000/svg" xmlns:xlink="http://www.w3.org/1999/xlink" version="1.1" width="1000" height="1000" viewBox="0 0 1000 1000" xml:space="preserve">
<desc>Created with Fabric.js 3.5.0</desc>
<defs>
</defs>
<rect x="0" y="0" width="100%" height="100%" fill="rgba(255,255,255,0)"/>
<g transform="matrix(1.7756 0 0 1.7756 500.0081 500.0081)" id="74696">
<g style="" vector-effect="non-scaling-stroke">
		<g transform="matrix(1 0 0 1 0 0)">
<circle style="stroke: none; stroke-width: 1; stroke-dasharray: none; stroke-linecap: butt; stroke-dashoffset: 0; stroke-linejoin: miter; stroke-miterlimit: 4; is-custom-font: none; font-file-url: none; fill: rgb(255,255,255); fill-rule: evenodd; opacity: 1;" cx="0" cy="0" r="256"/>
</g>
		<g transform="matrix(1 0 0 1 0 0)">
<path style="stroke: none; stroke-width: 1; stroke-dasharray: none; stroke-linecap: butt; stroke-dashoffset: 0; stroke-linejoin: miter; stroke-miterlimit: 4; is-custom-font: none; font-file-url: none; fill: rgb(216,30,0); fill-rule: evenodd; opacity: 1;" transform=" translate(-256, -256)" d="M 256 512 C 114.615104 512 0 397.384896 0 256 C 0 114.615104 114.615104 0 256 0 C 397.384896 0 512 114.615104 512 256 C 512 397.384896 397.384896 512 256 512 Z M 256 458 C 367.561519 458 458 367.561519 458 256 C 458 144.438481 367.561519 54 256 54 C 144.438481 54 54 144.438481 54 256 C 54 367.561519 144.438481 458 256 458 Z" stroke-linecap="round"/>
</g>
		<g transform="matrix(1 0 0 1 -0.2699 -0.0527)">
<path style="stroke: none; stroke-width: 1; stroke-dasharray: none; stroke-linecap: butt; stroke-dashoffset: 0; stroke-linejoin: miter; stroke-miterlimit: 4; is-custom-font: none; font-file-url: none; fill: rgb(0,0,0); fill-rule: nonzero; opacity: 1;" transform=" translate(-255.7301, -255.9473)" d="M 173.501953 329.208984 L 138.589844 329.208984 L 138.589844 215.019531 L 136.871094 215.019531 L 104 238.115234 L 104 206.962891 L 138.589844 182.578125 L 173.501953 182.578125 L 173.501953 329.208984 Z M 267.492788 329.208984 L 232.580679 329.208984 L 232.580679 215.019531 L 230.861929 215.019531 L 197.990835 238.115234 L 197.990835 206.962891 L 232.580679 182.578125 L 267.492788 182.578125 L 267.492788 329.208984 Z M 291.337139 259.384766 L 291.337139 252.1875 C 291.337139 208.466797 313.680889 180 349.774639 180 C 385.868389 180 407.460186 207.822266 407.460186 252.1875 L 407.460186 259.384766 C 407.460186 302.998047 384.794171 331.894531 349.022686 331.894531 C 313.251202 331.894531 291.337139 303.642578 291.337139 259.384766 Z M 326.678936 252.294922 L 326.678936 259.277344 C 326.678936 287.314453 335.165264 303.75 349.344952 303.75 C 363.524639 303.75 372.118389 287.207031 372.118389 259.277344 L 372.118389 252.294922 C 372.118389 224.472656 363.632061 208.144531 349.344952 208.144531 C 335.165264 208.144531 326.678936 224.365234 326.678936 252.294922 Z" stroke-linecap="round"/>
</g>
</g>
</g>
<g transform="matrix(1 0 0 1 500 744.3451)" style="" id="269478">
		
<path xml:space="preserve" font-family="Abhaya Libre" font-size="256" font-style="normal" font-weight="bold" style="stroke: none; stroke-width: 1; stroke-dasharray: none; stroke-linecap: butt; stroke-dashoffset: 0; stroke-linejoin: miter; stroke-miterlimit: 4; is-custom-font: none; font-file-url: none; fill: rgb(0,0,0); fill-rule: nonzero; opacity: 1; white-space: pre;" d="M-38.13-69.58L-38.13-62.83L-17.63-62.83L-17.63 38.67L-108.13-69.58L-147.88-69.58L-147.88-62.83L-127.88-62.83L-127.88 73.67L-147.88 73.67L-147.88 80.42L-96.38 80.42Q-97.88 74.17-103.13 73.67L-103.13 73.67L-117.63 73.67L-117.63-34.08L-20.63 81.67L-7.38 79.17L-7.38-62.83L12.63-62.83L12.63-69.58L-38.13-69.58ZM141.13 39.42L141.13 39.42Q141.13 18.17 117.63 3.67L117.63 3.67Q114.13 1.67 90.63-9.83L90.63-9.83Q69.13-20.58 63.88-30.83L63.88-30.83Q61.13-36.33 61.13-42.08L61.13-42.08Q61.13-57.08 75.63-62.58L75.63-62.58Q81.38-64.83 87.88-64.83L87.88-64.83Q108.38-64.83 118.88-50.08L118.88-50.08Q125.88-40.08 125.88-26.33L125.88-26.33L134.88-26.33L134.88-71.08Q127.88-71.08 126.88-66.33L126.88-66.33Q126.63-64.58 126.63-62.33L126.63-62.33Q106.88-72.08 84.13-72.08L84.13-72.08Q55.13-72.08 39.88-56.58L39.88-56.58Q29.88-46.33 29.88-32.33L29.88-32.33Q29.88-11.33 53.38 2.92L53.38 2.92Q57.13 4.92 80.88 16.67L80.88 16.67Q102.88 27.42 108.13 37.92L108.13 37.92Q110.88 43.17 110.88 48.92L110.88 48.92Q110.88 66.42 94.63 72.92L94.63 72.92Q88.13 75.67 80.13 75.67L80.13 75.67Q50.38 75.67 40.88 46.42L40.88 46.42Q38.38 38.17 37.63 28.42L37.63 28.42L28.63 28.42L28.63 80.92Q34.88 80.92 36.13 77.17L36.13 77.17Q36.63 74.92 36.63 70.17L36.63 70.17Q56.13 82.92 82.38 82.92L82.38 82.92Q113.13 82.92 129.63 66.92L129.63 66.92Q141.13 55.67 141.13 39.42Z"/></g>
</svg>