<?xml version="1.0" encoding="UTF-8" standalone="no"?>
<!-- Created with Inkscape (http://www.inkscape.org/) -->

<svg
   xmlns:osb="http://www.openswatchbook.org/uri/2009/osb"
   xmlns:dc="http://purl.org/dc/elements/1.1/"
   xmlns:cc="http://creativecommons.org/ns#"
   xmlns:rdf="http://www.w3.org/1999/02/22-rdf-syntax-ns#"
   xmlns:svg="http://www.w3.org/2000/svg"
   xmlns="http://www.w3.org/2000/svg"
   xmlns:sodipodi="http://sodipodi.sourceforge.net/DTD/sodipodi-0.dtd"
   xmlns:inkscape="http://www.inkscape.org/namespaces/inkscape"
   width="900.79999"
   height="900.79999"
   viewBox="0 0 900.79999 900.79999"
   id="svg4143"
   version="1.1"
   inkscape:version="0.91 r13725"
   sodipodi:docname="11.svg">
  <defs
     id="defs4145">
    <linearGradient
       id="linearGradient7315"
       osb:paint="solid">
      <stop
         style="stop-color:#ff0000;stop-opacity:1;"
         offset="0"
         id="stop7317" />
    </linearGradient>
  </defs>
  <sodipodi:namedview
     id="base"
     pagecolor="#ffffff"
     bordercolor="#666666"
     borderopacity="1.0"
     inkscape:pageopacity="0.0"
     inkscape:pageshadow="2"
     inkscape:zoom="0.36101593"
     inkscape:cx="517.06137"
     inkscape:cy="495.38375"
     inkscape:document-units="px"
     inkscape:current-layer="layer1"
     showgrid="false"
     units="px"
     fit-margin-top="0"
     fit-margin-left="0"
     fit-margin-right="0"
     fit-margin-bottom="0"
     inkscape:window-width="1920"
     inkscape:window-height="1057"
     inkscape:window-x="-8"
     inkscape:window-y="-8"
     inkscape:window-maximized="1" />
  <metadata
     id="metadata4148">
    <rdf:RDF>
      <cc:Work
         rdf:about="">
        <dc:format>image/svg+xml</dc:format>
        <dc:type
           rdf:resource="http://purl.org/dc/dcmitype/StillImage" />
        <dc:title></dc:title>
      </cc:Work>
    </rdf:RDF>
  </metadata>
  <g
     inkscape:label="Layer 1"
     inkscape:groupmode="layer"
     id="layer1"
     transform="translate(-3168.707,9715.8332)">
    <circle
       style="fill:#e20a16;fill-opacity:1;stroke:none;stroke-width:8.05000019;stroke-miterlimit:4;stroke-dasharray:none;stroke-opacity:1"
       id="path4702"
       cx="3619.1069"
       cy="-9265.4336"
       r="450" />
    <circle
       cy="-9265.4336"
       cx="3619.1069"
       id="circle4704"
       style="fill:#ffffff;fill-opacity:1;stroke:none;stroke-width:8.05000019;stroke-miterlimit:4;stroke-dasharray:none;stroke-opacity:1"
       r="375" />
    <g
       style="font-style:normal;font-variant:normal;font-weight:normal;font-stretch:normal;font-size:139.41456604px;line-height:125%;letter-spacing:0px;word-spacing:0px;fill:#000000;fill-opacity:1;stroke:none;stroke-width:1px;stroke-linecap:butt;stroke-linejoin:miter;stroke-opacity:1"
       id="text7210"
       transform="matrix(1.66,0,0,1.66,-694.36135,2649.7279)" />
    <g
       style="font-style:normal;font-variant:normal;font-weight:normal;font-stretch:normal;font-size:54.21686935px;line-height:125%;letter-spacing:0px;word-spacing:0px;fill:#000000;fill-opacity:1;stroke:none;stroke-width:1px;stroke-linecap:butt;stroke-linejoin:miter;stroke-opacity:1"
       id="text4170"
       transform="matrix(-6.9952783,0,0,6.9952783,5529.681,25774.451)" />
    <path
       d="m 3414.807,-9335.1569 0,-91.576 183.2342,0 c 0,3.865 0.6338,41.669 0,42.936 l -111.622,277.6637 -57.3541,0 103.1424,-266.1747 -63.0579,0 0,37.151 -54.3426,0"
       style="fill:#000000;fill-opacity:1;fill-rule:nonzero;stroke:none"
       id="path22173"
       inkscape:connector-curvature="0" />
    <path
       inkscape:connector-curvature="0"
       id="path4147"
       style="fill:#000000;fill-opacity:1;fill-rule:nonzero;stroke:none"
       d="m 3814.8127,-9426.445 -171.0466,0 0,171.73 58.1641,0 6.1393,-6.856 c 1.7393,-1.985 3.8908,-3.764 6.1679,-5.48 1.083,-0.825 4.8376,-2.618 7.1729,-3.448 2.2341,-1.027 5.4995,-1.55 7.8888,-2.031 2.9907,-0.554 5.7186,-0.635 8.3006,-0.431 20.2221,1.485 26.0671,15.599 28.1359,28.488 0.1922,3.606 12.2859,67.16 -23.4405,82.796 -21.8322,8.52 -43.406,-3.873 -49.2585,-25.992 l -55.4266,0 c 10.0412,88.332 122.386,114.984 169.6649,38.988 40.7952,-83.37 4.1024,-214.391 -108.7588,-168.977 l 0,-54.074 116.2966,0"
       sodipodi:nodetypes="ccccccccccccccccc" />
  </g>
</svg>
