<svg xmlns="http://www.w3.org/2000/svg" xmlns:xlink="http://www.w3.org/1999/xlink" version="1.1" width="1000" height="1000" viewBox="0 0 1000 1000" xml:space="preserve">
<desc>Created with Fabric.js 3.5.0</desc>
<defs>
</defs>
<rect x="0" y="0" width="100%" height="100%" fill="rgba(255,255,255,0)"/>
<g transform="matrix(1.0092 0 0 1.0092 499.9982 499.9982)" id="258891">
<g style="" vector-effect="non-scaling-stroke">
		<g transform="matrix(1 0 0 1 -0.0001 -0.0004)" id="path4702">
<circle style="stroke: none; stroke-width: 8.05; stroke-dasharray: none; stroke-linecap: butt; stroke-dashoffset: 0; stroke-linejoin: miter; stroke-miterlimit: 4; is-custom-font: none; font-file-url: none; fill: rgb(226,10,22); fill-rule: nonzero; opacity: 1;" cx="0" cy="0" r="450"/>
</g>
		<g transform="matrix(1 0 0 1 -0.0001 -0.0004)" id="circle4704">
<circle style="stroke: none; stroke-width: 8.05; stroke-dasharray: none; stroke-linecap: butt; stroke-dashoffset: 0; stroke-linejoin: miter; stroke-miterlimit: 4; is-custom-font: none; font-file-url: none; fill: rgb(255,255,255); fill-rule: nonzero; opacity: 1;" cx="0" cy="0" r="375"/>
</g>
		<g transform="matrix(1 0 0 1 -112.5421 -0.9999)" id="path22173">
<path style="stroke: none; stroke-width: 1; stroke-dasharray: none; stroke-linecap: butt; stroke-dashoffset: 0; stroke-linejoin: miter; stroke-miterlimit: 4; is-custom-font: none; font-file-url: none; fill: rgb(0,0,0); fill-rule: nonzero; opacity: 1;" transform=" translate(-3506.5649, 9266.433)" d="m 3414.807 -9335.1569 l 0 -91.576 l 183.2342 0 c 0 3.865 0.6338 41.669 0 42.936 l -111.622 277.6637 l -57.3541 0 l 103.1424 -266.1747 l -63.0579 0 l 0 37.151 l -54.3426 0" stroke-linecap="round"/>
</g>
		<g transform="matrix(1 0 0 1 111.4016 0.1441)" id="path4147">
<path style="stroke: none; stroke-width: 1; stroke-dasharray: none; stroke-linecap: butt; stroke-dashoffset: 0; stroke-linejoin: miter; stroke-miterlimit: 4; is-custom-font: none; font-file-url: none; fill: rgb(0,0,0); fill-rule: nonzero; opacity: 1;" transform=" translate(-3730.5086, 9265.2891)" d="m 3814.8127 -9426.445 l -171.0466 0 l 0 171.73 l 58.1641 0 l 6.1393 -6.856 c 1.7393 -1.985 3.8908 -3.764 6.1679 -5.48 c 1.083 -0.825 4.8376 -2.618 7.1729 -3.448 c 2.2341 -1.027 5.4995 -1.55 7.8888 -2.031 c 2.9907 -0.554 5.7186 -0.635 8.3006 -0.431 c 20.2221 1.485 26.0671 15.599 28.1359 28.488 c 0.1922 3.606 12.2859 67.16 -23.4405 82.796 c -21.8322 8.52 -43.406 -3.873 -49.2585 -25.992 l -55.4266 0 c 10.0412 88.332 122.386 114.984 169.6649 38.988 c 40.7952 -83.37 4.1024 -214.391 -108.7588 -168.977 l 0 -54.074 l 116.2966 0" stroke-linecap="round"/>
</g>
</g>
</g>
<g transform="matrix(2.7654 0 0 3.0857 380.7616 474.8452)" id="626304">
<path style="stroke: none; stroke-width: 1; stroke-dasharray: none; stroke-linecap: butt; stroke-dashoffset: 0; stroke-linejoin: miter; stroke-miterlimit: 4; is-custom-font: none; font-file-url: none; fill: rgb(255,255,255); fill-rule: nonzero; opacity: 1;" vector-effect="non-scaling-stroke" transform=" translate(-78.4998, -78.5)" d="M 78.5 0 C 52.9419 0 32.1166 35.2271 32.1166 78.5 C 32.1166 121.773 52.9419 157 78.5 157 C 104.058 157 124.883 121.773 124.883 78.5 C 124.883 35.2271 104.058 0 78.5 0 Z" stroke-linecap="round"/>
</g>
<g transform="matrix(1 0 0 1 376.4723 518.7482)" style="" id="357038">
		
<path xml:space="preserve" font-family="ABeeZee" font-size="471" font-style="normal" font-weight="normal" style="stroke: none; stroke-width: 1; stroke-dasharray: none; stroke-linecap: butt; stroke-dashoffset: 0; stroke-linejoin: miter; stroke-miterlimit: 4; is-custom-font: none; font-file-url: none; fill: rgb(0,0,0); fill-rule: nonzero; opacity: 1; white-space: pre;" d="M-1.88 147.96L-49.46 147.96Q-49.46 93.79-42.15 51.88Q-34.85 9.96-20.96-24.43Q-7.06-58.81 13.66-87.30Q34.38-115.80 61.23-143.12L61.23-143.12L-97.50-143.12L-97.50-181.74L111.63-181.74L111.63-147.83Q79.13-116.27 57.46-86.60Q35.80-56.93 22.61-23.01Q9.42 10.90 3.77 52.11Q-1.88 93.32-1.88 147.96L-1.88 147.96Z"/></g>
</svg>