<?xml version="1.0" encoding="UTF-8" standalone="no"?>
<svg
   version="1.0"
   width="225.000000pt"
   height="225.000000pt"
   viewBox="0 0 225.000000 225.000000"
   preserveAspectRatio="xMidYMid meet"
   id="svg5"
   sodipodi:docname="speed_limit_65_my.svg"
   inkscape:version="1.3.2 (091e20e, 2023-11-25, custom)"
   xmlns:inkscape="http://www.inkscape.org/namespaces/inkscape"
   xmlns:sodipodi="http://sodipodi.sourceforge.net/DTD/sodipodi-0.dtd"
   xmlns="http://www.w3.org/2000/svg"
   xmlns:svg="http://www.w3.org/2000/svg">
  <defs
     id="defs5" />
  <sodipodi:namedview
     id="namedview5"
     pagecolor="#ffffff"
     bordercolor="#000000"
     borderopacity="0.25"
     inkscape:showpageshadow="2"
     inkscape:pageopacity="0.0"
     inkscape:pagecheckerboard="0"
     inkscape:deskcolor="#d1d1d1"
     inkscape:document-units="pt"
     inkscape:zoom="2.8833333"
     inkscape:cx="149.82659"
     inkscape:cy="150"
     inkscape:window-width="1902"
     inkscape:window-height="1103"
     inkscape:window-x="94"
     inkscape:window-y="0"
     inkscape:window-maximized="0"
     inkscape:current-layer="g5" />
  <metadata
     id="metadata1">
Created by potrace 1.16, written by Peter Selinger 2001-2019
</metadata>
  <g
     transform="translate(0.000000,225.000000) scale(0.100000,-0.100000)"
     fill="#000000"
     stroke="none"
     id="g5">
    <path
       d="M943 2145 c-494 -89 -853 -519 -853 -1020 0 -572 463 -1035 1035 -1035 572 0 1035 463 1035 1035 0 504 -361 933 -859 1020 -101 18 -260 18 -358 0z m412 -170 c101 -27 253 -108 334 -177 139 -117 243 -283 287 -455 32 -126 33 -298 4 -423 -60 -250 -243 -476 -475 -586 -130 -62 -189 -76 -348 -81 -118 -5 -151 -2 -233 17 -250 58 -468 232 -584 465 -73 149 -85 201 -85 390 0 137 3 171 23 238 94 325 361 565 702 631 55 10 316 -2 375 -19z"
       id="path1"
       style="fill:#ff0000" />
    <path
       d="m 795.21387,1491.0867 c -139,-44 -200,-177 -191,-411 5,-141.99999 23,-204.99999 73,-262.99999 67,-79 159,-107 255,-78 114.00003,33 173.00003,117 173.00003,246 0,66.99999 -4,83.99999 -31,130.99999 -64,115 -207.00003,155 -294.00003,82 l -31,-27 7,55 c 13,98 43,143 103,155 26,5 36,1 62,-24 16,-17 30,-37 30,-44 0,-14 28,-15 108.00003,-2 31,5 33,8 27,32 -31,125 -158.00003,190 -291.00003,148 z m 129,-392 c 31,-30 41,-75 35,-144.99999 -8,-81 -60,-121 -124,-94 -61,25 -91,125 -60,198.99999 28,68 102,88 149,40 z"
       id="path2" />
    <path
       d="m 1270.8092,1494.289 c 0,-3 -16,-91 -36,-196 -20,-104 -34,-192 -31,-194 2,-3 29,-9 58,-13 49,-8 56,-6 82,15 62,52 154,37 183,-31 18,-44 18,-115.99999 0,-159.99999 -18,-43 -66,-69 -112,-61 -36,7 -84,56 -84,86 0,15 -6,17 -42,14 -108,-12 -110,-13 -103,-42 31,-125 165,-203 298,-173 68,15 111,43 154,99 41,54 57,111 50,186.99999 -12,153 -137,255 -274,225 -25,-6 -47,-9 -48,-8 -2,2 2,29 8,61 l 10,57 h 139 138 v 70 70 h -195 c -107,0 -195,-3 -195,-6 z"
       id="path3"
       style="fill:#1a1a1a" />
  </g>
</svg>
