<?xml version="1.0" encoding="UTF-8" standalone="no"?>
<svg xmlns:dc="http://purl.org/dc/elements/1.1/" xmlns:cc="http://creativecommons.org/ns#" xmlns:rdf="http://www.w3.org/1999/02/22-rdf-syntax-ns#" xmlns:svg="http://www.w3.org/2000/svg" xmlns="http://www.w3.org/2000/svg" xmlns:sodipodi="http://sodipodi.sourceforge.net/DTD/sodipodi-0.dtd" xmlns:inkscape="http://www.inkscape.org/namespaces/inkscape" width="500" height="500.00015" viewBox="-50 -30 49.999954 50.000021" version="1.1" id="svg3976" sodipodi:docname="Jordan_road_sign_R٣٣٫٢.svg" inkscape:version="1.0 (4035a4fb49, 2020-05-01)">
  <metadata id="metadata3982">
    <rdf:RDF>
      <cc:Work rdf:about="">
        <dc:format>image/svg+xml</dc:format>
        <dc:type rdf:resource="http://purl.org/dc/dcmitype/StillImage"/>
        <dc:title/>
      </cc:Work>
    </rdf:RDF>
  </metadata>
  <defs id="defs3980">
    <clipPath id="clip4">
      <path d="m 107.03906,203.76172 h 71.03906 V 270 h -71.03906 z m 0,0" id="path16356"/>
    </clipPath>
  </defs>
  <sodipodi:namedview inkscape:current-layer="svg3976" inkscape:window-maximized="1" inkscape:window-y="-9" inkscape:window-x="-9" inkscape:cy="416.57405" inkscape:cx="299.63831" inkscape:zoom="0.80099975" showgrid="false" id="namedview3978" inkscape:window-height="1001" inkscape:window-width="1920" inkscape:pageshadow="2" inkscape:pageopacity="0" guidetolerance="10" gridtolerance="10" objecttolerance="10" borderopacity="1" bordercolor="#666666" pagecolor="#ffffff" inkscape:document-rotation="0"/>
  <ellipse ry="20.536839" rx="21.192268" cy="-5.0936222" cx="-24.026756" id="path28021" style="fill:#ffffff;fill-rule:evenodd;stroke-width:0.377953;stroke-linecap:round;paint-order:stroke markers fill"/>
  <path transform="matrix(0.10000001,0,0,0.10000001,-50.000026,-30)" d="M 250 0 C 111.92866 3.7895611e-14 7.5791225e-14 111.92895 0 250 C 0 388.07134 111.92866 500 250 500 C 388.07109 500 500 388.07134 500 250 C 500 111.9289 388.07104 7.5791225e-14 250 0 z M 250 58.332031 C 349.3702 58.332031 431.07478 133.95368 440.71289 230.78711 L 59.287109 230.78711 C 68.925211 133.95368 150.62971 58.332031 250 58.332031 z M 59.128906 267.42188 L 440.87109 267.42188 C 432.06691 365.11047 349.98075 441.66797 250 441.66797 C 150.01915 441.66797 67.933082 365.11047 59.128906 267.42188 z " style="fill:#ff0000;fill-opacity:1;stroke-width:10" id="path3970"/>
  <path transform="matrix(0.10000001,0,0,0.10000001,-50.000026,-30)" d="M 152.20508 111.11328 C 147.33293 111.11328 143.38281 115.06043 143.38281 119.93359 L 143.38281 160.5957 L 141.91016 160.5957 C 139.20292 160.5957 137.01172 162.79721 137.01172 165.50391 L 137.01172 194.26367 C 137.01172 195.56348 137.52542 196.80972 138.44531 197.72852 C 139.36441 198.64802 140.61048 199.16211 141.91016 199.16211 L 143.38281 199.16211 L 143.38281 207.30664 C 143.38281 212.17962 147.33292 216.12695 152.20508 216.12695 C 157.07723 216.12695 161.02539 212.17959 161.02539 207.30664 L 161.02539 199.16211 L 198.08203 199.16211 L 198.08203 207.30664 C 198.08203 212.17966 202.03024 216.12695 206.90234 216.12695 C 211.7745 216.12695 215.6346 212.17883 215.72266 207.30664 L 215.72266 199.16211 L 217.19727 199.16211 C 218.49694 199.16211 219.74092 198.64796 220.66016 197.72852 C 221.58016 196.80982 222.09375 195.56362 222.09375 194.26367 L 222.09375 165.50391 C 222.09375 162.79722 219.88922 160.86492 217.19531 160.5957 L 215.72266 160.5957 L 215.72266 119.93359 C 215.72266 115.06046 211.77451 111.11328 206.90234 111.11328 C 187.63255 111.11235 168.21418 111.11428 152.20508 111.11328 z M 353.05273 128.35156 C 345.43858 128.31156 338.16973 132.147 333.05078 138.91016 C 326.81539 147.5793 323.40554 158.6645 323.44922 170.11523 C 323.40522 181.56688 326.81539 192.65009 333.05078 201.31836 C 338.16973 208.08144 345.43858 211.91795 353.05273 211.87695 C 360.66695 211.91695 367.93756 208.08144 373.05664 201.31836 C 379.29194 192.65009 382.70386 181.56688 382.66016 170.11523 C 382.70416 158.6645 379.29194 147.5793 373.05664 138.91016 C 367.93756 132.147 360.66695 128.31056 353.05273 128.35156 z M 285.19141 128.55469 C 277.53929 136.66168 271.35058 146.56242 267.00781 157.64648 C 263.92385 165.05289 262.13715 173.1394 261.75586 181.40625 C 261.36396 186.18116 261.91704 190.99894 263.37109 195.4668 C 266.67614 203.55742 272.96417 209.30713 280.3418 210.98438 C 285.02671 211.87456 289.79872 211.87456 294.48438 210.98438 C 301.98892 209.3841 308.42751 203.63359 311.85938 195.4668 C 314.47302 188.70173 314.47302 180.90071 311.85938 174.13477 C 308.42751 165.96804 301.98892 160.21741 294.48438 158.61719 C 290.06675 157.77749 285.56799 157.77749 281.15039 158.61719 C 285.46251 145.98428 293.13477 135.41545 302.9707 128.55469 L 285.19141 128.55469 z M 353.05273 143.23047 C 357.11891 143.19047 361.01249 145.20675 363.77734 148.78516 C 368.00005 154.73021 370.30026 162.30312 370.25586 170.11523 C 370.30186 177.92829 368.0001 185.49743 363.77734 191.44336 C 361.01249 195.02095 357.11891 197.03587 353.05273 196.99609 C 348.98663 197.03609 345.09614 195.02095 342.33203 191.44336 C 338.10855 185.49743 335.80708 177.92829 335.85156 170.11523 C 335.80556 162.30312 338.10855 154.73021 342.33203 148.78516 C 345.09614 145.20675 348.98663 143.18982 353.05273 143.23047 z M 287.61523 172.2168 C 289.10246 172.2168 290.59022 172.36963 292.06055 172.67773 C 295.87665 173.43973 299.17143 176.31602 300.95117 180.4375 C 301.96052 183.05197 301.96052 186.0653 300.95117 188.67969 C 299.17143 192.80123 295.87665 195.67543 292.06055 196.4375 C 289.11988 197.053 286.11008 197.053 283.16992 196.4375 C 279.35392 195.6755 276.06101 192.80123 274.28125 188.67969 C 273.2722 186.0653 273.2722 183.05197 274.28125 180.4375 C 276.06101 176.31602 279.35392 173.43976 283.16992 172.67773 C 284.64007 172.36963 286.12796 172.2168 287.61523 172.2168 z M 353.29688 288.42383 C 345.57441 288.42383 338.29547 292.39049 333.24609 299.24023 C 326.86016 308.07281 323.44524 319.24817 323.59375 330.96484 C 323.44525 342.50127 326.86016 353.85686 333.24609 362.68945 C 338.29543 369.53918 345.57441 373.32617 353.29688 373.32617 C 361.01941 373.32617 368.2944 369.53978 373.34375 362.50977 C 379.58121 353.85748 382.99609 342.67705 382.99609 331.14062 L 382.99609 330.78516 L 382.99609 330.60352 C 382.99609 319.24734 379.58121 308.07281 373.34375 299.24023 C 368.2944 292.3899 361.01941 288.42383 353.29688 288.42383 z M 287.72656 288.76172 C 283.34614 288.73806 278.96429 289.86587 274.88086 292.20898 C 268.34638 296.35487 264.33961 304.82759 264.78516 313.66016 C 264.78516 318.70735 266.2684 323.39177 268.79297 327.35742 C 267.15938 328.61925 265.82475 330.24375 264.78516 332.22656 C 260.62686 340.33812 260.4766 350.60996 264.33789 359.08203 C 267.90213 365.93177 273.54758 370.61792 280.08203 372.24023 C 285.13138 373.32172 290.32955 373.32172 295.37891 372.24023 C 301.76488 370.61792 307.55303 365.75152 310.96875 359.08203 C 312.89938 355.11638 313.79297 350.60992 313.79297 346.10352 C 313.79297 341.05633 312.75307 336.37248 310.52539 332.22656 C 309.48571 330.24375 308.15116 328.61921 306.51758 327.35742 C 309.04222 323.39177 310.52539 318.52709 310.52539 313.66016 C 310.67379 313.11946 310.67383 312.75947 310.67383 312.21875 C 310.67383 303.7467 306.81166 295.99437 300.57422 292.20898 C 296.4908 289.95611 292.10894 288.7846 287.72852 288.76172 L 287.72656 288.76172 z M 178.36328 290.42188 L 178.36328 290.42383 C 169.85874 290.42383 161.35629 291.44787 153.03711 293.49414 C 150.4102 294.14119 148.17676 295.87823 146.90625 298.26758 L 135.99219 318.79883 C 129.57936 324.14744 126.63948 332.59046 128.3457 340.76367 L 131.75977 353.51367 L 131.75977 365.11328 C 131.75977 368.41028 133.52545 371.45404 136.38672 373.0918 C 139.24709 374.72939 142.76611 374.70805 145.60938 373.03906 C 148.45158 371.37002 150.17758 368.31554 150.14258 365.01953 L 150.14258 358.98047 L 206.58398 358.98047 L 206.58398 365.01953 C 206.54776 368.31552 208.27494 371.36997 211.11719 373.03906 C 213.96047 374.70819 217.4795 374.72957 220.33984 373.0918 C 223.20116 371.45404 224.96875 368.41028 224.96875 365.11328 L 224.96875 353.51367 L 228.38086 340.76172 C 230.08715 332.58857 227.14717 324.14741 220.73438 318.79883 L 209.82031 298.26562 C 208.54976 295.87632 206.31637 294.14134 203.68945 293.49414 C 195.37027 291.44794 186.86783 290.42188 178.36328 290.42188 z M 178.36328 299.9375 C 186.13489 299.9375 193.90206 300.90881 201.48828 302.86328 L 209.70703 318.32031 L 147.01953 318.32031 L 155.23828 302.86328 C 162.8245 300.90892 170.59172 299.9375 178.36328 299.9375 z M 287.6543 303.38281 L 287.65625 303.38281 C 290.18069 303.38296 292.70417 304.10552 294.93164 305.36719 C 297.1593 306.80922 298.49609 309.51181 298.49609 312.57617 L 298.49609 313.11719 C 298.49609 316.90257 295.9703 319.96875 292.85156 319.96875 L 292.55273 319.96875 L 282.45898 319.96875 L 282.31055 319.96875 C 279.34036 319.96875 276.81445 317.08422 276.81445 313.29883 L 276.81445 313.11914 L 276.81445 312.57617 C 276.81445 309.51181 278.14922 306.80925 280.52539 305.36719 C 282.75282 304.10551 285.12987 303.38294 287.6543 303.38281 z M 353.29688 303.5625 C 357.30666 303.5625 361.31509 305.54667 363.98828 309.33203 C 368.29508 315.28051 370.52344 322.8525 370.52344 330.60352 L 370.52344 330.7832 L 370.52344 331.14062 C 370.52344 339.07192 368.29508 346.64332 363.98828 352.5918 C 361.31509 356.19693 357.30666 358.18164 353.29688 358.18164 C 349.13865 358.36194 345.27677 356.19699 342.45508 352.5918 C 338.29677 346.64332 335.91797 338.89613 335.91797 330.96484 C 335.91797 323.03354 338.29677 315.28106 342.45508 309.15234 C 345.27677 305.54719 349.13865 303.5625 353.29688 303.5625 z M 282.90234 335.65039 L 292.55469 335.65039 C 293.44569 335.65039 294.48774 335.83336 295.37891 336.19336 C 297.30953 336.91426 298.94083 338.35267 300.12891 340.51562 C 301.02001 342.13793 301.46484 344.12067 301.46484 346.10352 C 301.46484 347.7258 301.17037 349.35093 300.57617 350.79297 C 298.64551 354.21785 295.52706 356.7374 292.11133 357.63867 C 289.14113 358.17937 286.17132 358.17937 283.34961 357.63867 C 279.78536 356.73737 276.81149 354.39811 274.88086 350.79297 C 273.39576 347.54835 273.54601 343.57998 275.17969 340.51562 C 276.36776 338.35255 278.15141 336.91299 280.08203 336.01172 C 280.97303 335.83142 281.86282 335.65039 282.90234 335.65039 z " style="opacity:1;fill:#000000;stroke-width:10" id="path17446"/>
</svg>