<svg width="901" height="901" viewBox="0 0 901 901" fill="none" xmlns="http://www.w3.org/2000/svg">
<g clip-path="url(#clip0)">
<path d="M450.4 900.4C201.872 900.4 0.400391 698.928 0.400391 450.4C0.400391 201.872 201.872 0.400024 450.4 0.400024C698.929 0.400024 900.4 201.872 900.4 450.4C900.4 698.928 698.929 900.4 450.4 900.4Z" fill="#E20A16"/>
<path d="M450.4 900.4C698.929 900.4 900.4 698.928 900.4 450.4C900.4 201.872 698.929 0.400024 450.4 0.400024C201.872 0.400024 0.400391 201.872 0.400391 450.4C0.400391 698.928 201.872 900.4 450.4 900.4Z" fill="#E20A16"/>
<path d="M450.4 825.4C657.507 825.4 825.4 657.507 825.4 450.4C825.4 243.293 657.507 75.4 450.4 75.4C243.294 75.4 75.4004 243.293 75.4004 450.4C75.4004 657.507 243.294 825.4 450.4 825.4Z" fill="#FFD70A"/>
<path d="M355.03 172.82C361.548 168.004 370.421 167.921 377.028 172.612C383.636 177.303 386.482 185.708 384.085 193.449L356.801 281.65V394.15L384.086 482.353C386.482 490.094 383.635 498.498 377.028 503.188C370.421 507.879 361.548 507.795 355.031 502.981L131.801 337.9L355.03 172.82Z" fill="black"/>
<path opacity="0.99" d="M675.4 694.15V394.15C675.4 331.825 625.225 281.65 562.9 281.65H335.4V394.15H536.9C551.304 394.15 562.9 405.746 562.9 420.15V694.15H675.4Z" fill="black"/>
<path d="M137.227 160.887L185.437 103.434L838.106 651.089L789.897 708.542L137.227 160.887Z" fill="#E20A16"/>
</g>
<defs>
<clipPath id="clip0">
<rect width="900.8" height="900.8" fill="white"/>
</clipPath>
</defs>
</svg>
