<svg width="901" height="901" viewBox="0 0 901 901" fill="none" xmlns="http://www.w3.org/2000/svg">
<g clip-path="url(#clip0)">
<path d="M450.4 900.4C698.928 900.4 900.4 698.928 900.4 450.4C900.4 201.872 698.928 0.400146 450.4 0.400146C201.872 0.400146 0.399902 201.872 0.399902 450.4C0.399902 698.928 201.872 900.4 450.4 900.4Z" fill="#E20A16"/>
<path d="M450.4 825.4C657.507 825.4 825.4 657.507 825.4 450.4C825.4 243.293 657.507 75.4001 450.4 75.4001C243.293 75.4001 75.3999 243.293 75.3999 450.4C75.3999 657.507 243.293 825.4 450.4 825.4Z" fill="#FFD70A"/>
<path d="M632.924 59.2593L697.876 96.7593L267.876 841.541L202.924 804.041L632.924 59.2593Z" fill="#E20A16"/>
</g>
<defs>
<clipPath id="clip0">
<rect width="900.8" height="900.8" fill="white"/>
</clipPath>
</defs>
</svg>
