<svg width="1462" height="548" viewBox="0 0 1462 548" fill="none" xmlns="http://www.w3.org/2000/svg">
<rect width="1462" height="548" rx="53" fill="black"/>
<rect x="24" y="24" width="1414" height="500" rx="30" fill="#FFD70A"/>
<path d="M342.642 201.718H296.578V327H265.593V201.718H220.149V176.621H342.642V201.718Z" fill="black"/>
<path d="M400.583 329.066C384.196 329.066 370.838 324.039 360.51 313.986C350.25 303.934 345.121 290.541 345.121 273.81V270.918C345.121 259.694 347.29 249.676 351.627 240.863C355.965 231.98 362.093 225.164 370.012 220.413C377.999 215.593 387.088 213.183 397.278 213.183C412.564 213.183 424.579 218.003 433.324 227.642C442.137 237.282 446.544 250.95 446.544 268.645V280.833H375.382C376.346 288.131 379.238 293.984 384.058 298.391C388.947 302.798 395.109 305.001 402.546 305.001C414.044 305.001 423.03 300.835 429.502 292.504L444.168 308.926C439.693 315.26 433.634 320.218 425.991 323.798C418.348 327.31 409.879 329.066 400.583 329.066ZM397.175 237.351C391.253 237.351 386.434 239.348 382.715 243.341C379.066 247.335 376.725 253.05 375.692 260.486H417.212V258.111C417.074 251.501 415.284 246.405 411.841 242.825C408.398 239.176 403.51 237.351 397.175 237.351Z" fill="black"/>
<path d="M491.575 215.248L492.505 227.746C500.423 218.037 511.13 213.183 524.625 213.183C539.016 213.183 548.897 218.863 554.268 230.224C562.117 218.863 573.306 213.183 587.834 213.183C599.953 213.183 608.973 216.729 614.894 223.821C620.816 230.844 623.777 241.448 623.777 255.632V327H593.825V255.735C593.825 249.401 592.585 244.787 590.107 241.895C587.628 238.935 583.255 237.454 576.99 237.454C568.039 237.454 561.842 241.723 558.399 250.261L558.502 327H528.654V255.838C528.654 249.366 527.38 244.684 524.832 241.792C522.284 238.9 517.947 237.454 511.818 237.454C503.349 237.454 497.221 240.966 493.434 247.989V327H463.586V215.248H491.575Z" fill="black"/>
<path d="M747.406 272.157C747.406 289.371 743.481 303.176 735.631 313.573C727.851 323.902 717.316 329.066 704.027 329.066C692.735 329.066 683.612 325.141 676.657 317.292V369.966H646.809V215.248H674.488L675.521 226.196C682.751 217.521 692.184 213.183 703.82 213.183C717.591 213.183 728.298 218.278 735.941 228.469C743.584 238.659 747.406 252.706 747.406 270.608V272.157ZM717.557 269.988C717.557 259.591 715.698 251.569 711.98 245.923C708.33 240.277 702.994 237.454 695.971 237.454C686.607 237.454 680.169 241.035 676.657 248.196V293.95C680.307 301.317 686.813 305.001 696.178 305.001C710.431 305.001 717.557 293.33 717.557 269.988Z" fill="black"/>
<path d="M761.349 270.091C761.349 259.006 763.483 249.125 767.752 240.449C772.021 231.774 778.149 225.06 786.137 220.309C794.193 215.558 803.522 213.183 814.126 213.183C829.205 213.183 841.496 217.796 850.998 227.023C860.569 236.249 865.905 248.781 867.007 264.617L867.213 272.26C867.213 289.405 862.428 303.176 852.857 313.573C843.286 323.902 830.445 329.066 814.333 329.066C798.221 329.066 785.345 323.902 775.705 313.573C766.134 303.245 761.349 289.199 761.349 271.434V270.091ZM791.197 272.26C791.197 282.864 793.194 290.989 797.188 296.635C801.181 302.212 806.896 305.001 814.333 305.001C821.562 305.001 827.209 302.247 831.271 296.738C835.333 291.161 837.365 282.279 837.365 270.091C837.365 259.694 835.333 251.638 831.271 245.923C827.209 240.208 821.494 237.351 814.126 237.351C806.827 237.351 801.181 240.208 797.188 245.923C793.194 251.569 791.197 260.348 791.197 272.26Z" fill="black"/>
<path d="M948.393 243.238C944.331 242.687 940.75 242.412 937.652 242.412C926.36 242.412 918.958 246.233 915.446 253.876V327H885.598V215.248H913.794L914.62 228.572C920.61 218.313 928.907 213.183 939.511 213.183C942.816 213.183 945.914 213.63 948.806 214.525L948.393 243.238Z" fill="black"/>
<path d="M1024.51 327C1023.14 324.315 1022.14 320.975 1021.52 316.982C1014.29 325.038 1004.89 329.066 993.321 329.066C982.373 329.066 973.284 325.898 966.055 319.564C958.894 313.229 955.313 305.242 955.313 295.602C955.313 283.759 959.685 274.67 968.43 268.336C977.243 262.001 989.947 258.799 1006.54 258.73H1020.28V252.327C1020.28 247.163 1018.94 243.031 1016.25 239.933C1013.63 236.834 1009.47 235.285 1003.75 235.285C998.726 235.285 994.767 236.49 991.875 238.9C989.052 241.31 987.641 244.615 987.641 248.815H957.792C957.792 242.343 959.789 236.353 963.782 230.844C967.776 225.336 973.422 221.032 980.721 217.934C988.019 214.766 996.213 213.183 1005.3 213.183C1019.07 213.183 1029.99 216.66 1038.04 223.614C1046.17 230.5 1050.23 240.208 1050.23 252.74V301.179C1050.3 311.783 1051.78 319.805 1054.67 325.244V327H1024.51ZM999.828 306.24C1004.23 306.24 1008.3 305.276 1012.02 303.348C1015.73 301.352 1018.49 298.701 1020.28 295.396V276.185H1009.12C994.182 276.185 986.229 281.349 985.265 291.677L985.162 293.433C985.162 297.151 986.47 300.215 989.087 302.625C991.703 305.035 995.283 306.24 999.828 306.24Z" fill="black"/>
<path d="M1135.95 243.238C1131.89 242.687 1128.31 242.412 1125.21 242.412C1113.92 242.412 1106.52 246.233 1103.01 253.876V327H1073.16V215.248H1101.35L1102.18 228.572C1108.17 218.313 1116.47 213.183 1127.07 213.183C1130.38 213.183 1133.48 213.63 1136.37 214.525L1135.95 243.238Z" fill="black"/>
<path d="M1194 284.758L1214.66 215.248H1246.67L1201.75 344.351L1199.27 350.239C1192.59 364.836 1181.57 372.134 1166.22 372.134C1161.88 372.134 1157.47 371.48 1153 370.172V347.553L1157.54 347.657C1163.19 347.657 1167.39 346.796 1170.14 345.074C1172.96 343.353 1175.17 340.496 1176.75 336.502L1180.26 327.31L1141.12 215.248H1173.24L1194 284.758Z" fill="black"/>
</svg>
