<svg width="1462" height="1461" viewBox="0 0 1462 1461" fill="none" xmlns="http://www.w3.org/2000/svg">
<rect width="1462" height="1461" rx="53" fill="#E20A16"/>
<rect x="24" y="24" width="1414" height="1413" rx="30" fill="#FFD70A"/>
<path d="M334.396 176.621L373.023 285.687L411.444 176.621H452.137V327H421.049V285.894L424.148 214.939L383.558 327H362.282L321.795 215.042L324.894 285.894V327H293.909V176.621H334.396ZM508.736 327H478.784V215.248H508.736V327ZM477.029 186.329C477.029 181.854 478.509 178.17 481.47 175.278C484.499 172.386 488.596 170.94 493.76 170.94C498.856 170.94 502.918 172.386 505.948 175.278C508.977 178.17 510.492 181.854 510.492 186.329C510.492 190.874 508.943 194.592 505.844 197.484C502.815 200.376 498.787 201.822 493.76 201.822C488.734 201.822 484.671 200.376 481.573 197.484C478.543 194.592 477.029 190.874 477.029 186.329ZM560.894 215.248L561.823 228.159C569.811 218.175 580.518 213.183 593.944 213.183C605.787 213.183 614.601 216.66 620.385 223.614C626.168 230.569 629.129 240.966 629.267 254.806V327H599.418V255.529C599.418 249.194 598.041 244.615 595.287 241.792C592.533 238.9 587.954 237.454 581.55 237.454C573.15 237.454 566.85 241.035 562.65 248.196V327H532.801V215.248H560.894ZM683.49 327H653.538V215.248H683.49V327ZM651.782 186.329C651.782 181.854 653.263 178.17 656.224 175.278C659.253 172.386 663.35 170.94 668.514 170.94C673.609 170.94 677.672 172.386 680.701 175.278C683.731 178.17 685.246 181.854 685.246 186.329C685.246 190.874 683.697 194.592 680.598 197.484C677.569 200.376 673.541 201.822 668.514 201.822C663.488 201.822 659.425 200.376 656.327 197.484C653.297 194.592 651.782 190.874 651.782 186.329ZM736.164 215.248L737.094 227.746C745.012 218.037 755.719 213.183 769.215 213.183C783.605 213.183 793.486 218.863 798.857 230.224C806.706 218.863 817.895 213.183 832.423 213.183C844.542 213.183 853.562 216.729 859.483 223.821C865.405 230.844 868.366 241.448 868.366 255.632V327H838.414V255.735C838.414 249.4 837.174 244.787 834.696 241.895C832.217 238.935 827.845 237.454 821.579 237.454C812.628 237.454 806.431 241.723 802.988 250.261L803.091 327H773.243V255.838C773.243 249.366 771.969 244.684 769.421 241.792C766.873 238.9 762.536 237.454 756.408 237.454C747.938 237.454 741.81 240.966 738.023 247.989V327H708.175V215.248H736.164ZM958.325 315.639C950.957 324.59 940.767 329.066 927.753 329.066C915.772 329.066 906.615 325.623 900.28 318.737C894.014 311.852 890.812 301.765 890.675 288.476V215.248H920.523V287.443C920.523 299.079 925.825 304.898 936.429 304.898C946.55 304.898 953.505 301.386 957.292 294.363V215.248H987.244V327H959.151L958.325 315.639ZM1037.75 215.248L1038.68 227.746C1046.6 218.037 1057.3 213.183 1070.8 213.183C1085.19 213.183 1095.07 218.863 1100.44 230.224C1108.29 218.863 1119.48 213.183 1134.01 213.183C1146.13 213.183 1155.15 216.729 1161.07 223.821C1166.99 230.844 1169.95 241.448 1169.95 255.632V327H1140V255.735C1140 249.4 1138.76 244.787 1136.28 241.895C1133.8 238.935 1129.43 237.454 1123.16 237.454C1114.21 237.454 1108.02 241.723 1104.57 250.261L1104.68 327H1074.83V255.838C1074.83 249.366 1073.55 244.684 1071.01 241.792C1068.46 238.9 1064.12 237.454 1057.99 237.454C1049.52 237.454 1043.39 240.966 1039.61 247.989V327H1009.76V215.248H1037.75Z" fill="black"/>
<g clip-path="url(#clip0)">
<path d="M731.4 1337.4C979.928 1337.4 1181.4 1135.93 1181.4 887.399C1181.4 638.871 979.928 437.399 731.4 437.399C482.872 437.399 281.4 638.871 281.4 887.399C281.4 1135.93 482.872 1337.4 731.4 1337.4Z" fill="#E20A16"/>
<path d="M731.4 1262.4C938.507 1262.4 1106.4 1094.51 1106.4 887.399C1106.4 680.293 938.507 512.399 731.4 512.399C524.293 512.399 356.4 680.293 356.4 887.399C356.4 1094.51 524.293 1262.4 731.4 1262.4Z" fill="#FFD70A"/>
<path fill-rule="evenodd" clip-rule="evenodd" d="M848.9 724.399C899.986 724.399 941.4 765.813 941.4 816.899V957.899C941.4 1008.99 899.986 1050.4 848.9 1050.4C797.814 1050.4 756.4 1008.99 756.4 957.899V816.899C756.4 765.813 797.814 724.399 848.9 724.399ZM848.9 778.999C869.831 778.999 886.8 795.968 886.8 816.899V957.899C886.8 978.831 869.831 995.799 848.9 995.799C827.968 995.799 811 978.831 811 957.899V816.899C811 795.968 827.968 778.999 848.9 778.999Z" fill="black"/>
<path fill-rule="evenodd" clip-rule="evenodd" d="M613.9 724.399C664.986 724.399 706.4 765.813 706.4 816.899V957.899C706.4 1008.99 664.986 1050.4 613.9 1050.4C562.814 1050.4 521.4 1008.99 521.4 957.899V816.899C521.4 765.813 562.814 724.399 613.9 724.399ZM613.9 778.999C634.831 778.999 651.8 795.968 651.8 816.899V957.899C651.8 978.831 634.831 995.799 613.9 995.799C592.968 995.799 576 978.831 576 957.899V816.899C576 795.968 592.968 778.999 613.9 778.999Z" fill="black"/>
</g>
<defs>
<clipPath id="clip0">
<rect width="900.8" height="900.8" fill="white" transform="translate(281 437)"/>
</clipPath>
</defs>
</svg>
