<svg width="901" height="901" viewBox="0 0 901 901" fill="none" xmlns="http://www.w3.org/2000/svg">
<g clip-path="url(#clip0)">
<path d="M450.4 900.4C698.928 900.4 900.4 698.928 900.4 450.4C900.4 201.872 698.928 0.400024 450.4 0.400024C201.872 0.400024 0.399902 201.872 0.399902 450.4C0.399902 698.928 201.872 900.4 450.4 900.4Z" fill="#FFD70A"/>
<path d="M450.4 885.4C690.644 885.4 885.4 690.644 885.4 450.4C885.4 210.156 690.644 15.4 450.4 15.4C210.156 15.4 15.3999 210.156 15.3999 450.4C15.3999 690.644 210.156 885.4 450.4 885.4Z" fill="black"/>
<path d="M450.4 855.4C674.075 855.4 855.4 674.075 855.4 450.4C855.4 226.725 674.075 45.4 450.4 45.4C226.725 45.4 45.3999 226.725 45.3999 450.4C45.3999 674.075 226.725 855.4 450.4 855.4Z" fill="#FFD70A"/>
<path d="M734.4 357.4C734.4 290.021 679.779 235.4 612.4 235.4C545.021 235.4 490.4 290.021 490.4 357.4V543.4C490.4 610.779 545.021 665.4 612.4 665.4C679.779 665.4 734.4 610.779 734.4 543.4V357.4Z" fill="black"/>
<path d="M662.4 357.4C662.4 329.786 640.014 307.4 612.4 307.4C584.786 307.4 562.4 329.786 562.4 357.4V543.4C562.4 571.014 584.786 593.4 612.4 593.4C640.014 593.4 662.4 571.014 662.4 543.4V357.4Z" fill="#FFD70A"/>
<path d="M410.133 239.665H184.52V466.18H261.239L269.337 457.136C271.631 454.518 274.469 452.172 277.473 449.909C278.901 448.821 283.854 446.456 286.934 445.361C289.881 444.005 294.188 443.316 297.34 442.681C301.284 441.95 304.882 441.844 308.288 442.113C334.961 444.072 342.671 462.689 345.4 479.69C345.653 484.446 361.605 568.274 314.481 588.898C285.684 600.137 257.228 583.79 249.509 554.615H176.4C189.644 671.127 337.829 706.281 400.191 606.04C454.001 496.075 405.602 323.255 256.736 383.158V311.833H410.133" fill="black"/>
</g>
<defs>
<clipPath id="clip0">
<rect width="900.8" height="900.8" fill="white"/>
</clipPath>
</defs>
</svg>
