<svg xmlns="http://www.w3.org/2000/svg" width="1085" height="418" viewBox="0 0 1085 418">
  <g fill="none" fill-rule="evenodd">
    <path fill="#000" fill-rule="nonzero" d="M1027,0.5 L58,0.5 C26.2436269,0.5 0.5,26.2436269 0.5,58 L0.5,360 C0.5,391.756373 26.2436269,417.5 58,417.5 L1027,417.5 C1058.75637,417.5 1084.5,391.756373 1084.5,360 L1084.5,58 C1084.5,26.2436269 1058.75637,0.5 1027,0.5 Z"/>
    <path fill="#FFF" fill-rule="nonzero" d="M58.5,28 L1027.5,28 C1044.34468,28 1058,41.6553151 1058,58.5 L1058,360.5 C1058,377.344685 1044.34468,391 1027.5,391 L58.5,391 C41.6553151,391 28,377.344685 28,360.5 L28,58.5 C28,41.6553151 41.6553151,28 58.5,28 Z"/>
    <text fill="#000" font-family="Interstate-Bold, Interstate" font-size="180" font-weight="bold">
      <tspan x="136.33" y="275">TEXT_EN</tspan>
    </text>
  </g>
</svg>
