<?xml version="1.0" encoding="UTF-8" standalone="no"?>
<svg xmlns:dc="http://purl.org/dc/elements/1.1/" xmlns:cc="http://creativecommons.org/ns#" xmlns:rdf="http://www.w3.org/1999/02/22-rdf-syntax-ns#" xmlns:svg="http://www.w3.org/2000/svg" xmlns="http://www.w3.org/2000/svg" xmlns:sodipodi="http://sodipodi.sourceforge.net/DTD/sodipodi-0.dtd" xmlns:inkscape="http://www.inkscape.org/namespaces/inkscape" sodipodi:docname="Jordan_road_sign_I٤٢.svg" inkscape:version="1.0 (4035a4fb49, 2020-05-01)" id="svg37817" version="1.1" viewBox="0 0 154.58032 132.29167" height="132.29167mm" width="154.58032mm"><title>شاحنات - gpsarab.com</title>
  <defs id="defs37811"/>
  <sodipodi:namedview inkscape:window-maximized="1" inkscape:window-y="-9" inkscape:window-x="-9" inkscape:window-height="1001" inkscape:window-width="1920" showgrid="false" inkscape:document-rotation="0" inkscape:current-layer="layer1" inkscape:document-units="mm" inkscape:cy="346.63139" inkscape:cx="894.25403" inkscape:zoom="0.58689861" inkscape:pageshadow="2" inkscape:pageopacity="0.0" borderopacity="1.0" bordercolor="#666666" pagecolor="#ffffff" id="base"/>
  <metadata id="metadata37814">
    <rdf:RDF>
      <cc:Work rdf:about="">
        <dc:format>image/svg+xml</dc:format>
        <dc:type rdf:resource="http://purl.org/dc/dcmitype/StillImage"/>
        <dc:title/>
      </cc:Work>
    </rdf:RDF>
  </metadata>
  <g transform="translate(-39.525866,-166.94476)" id="layer1" inkscape:groupmode="layer" inkscape:label="Layer 1">
    <path id="path3855" d="M 39.525866,166.94476 H 194.10619 V 299.23643 H 39.525866 Z" style="opacity:1;fill:#0000ff;fill-opacity:1;fill-rule:nonzero;stroke:none;stroke-width:0.292844" inkscape:connector-curvature="0" sodipodi:nodetypes="ccccc"/>
    <path id="path3859" style="opacity:1;fill:#ffffff;fill-opacity:1;fill-rule:nonzero;stroke:none;stroke-width:0.292844" d="m 48.941941,167.82318 c -2.265234,0 -4.437864,0.89667 -6.039464,2.49825 -1.601549,1.60187 -2.498153,3.77429 -2.498153,6.03947 v 113.45979 c 0,2.26495 0.896547,4.43743 2.498153,6.0393 1.601548,1.60164 3.774218,2.49796 6.039464,2.49796 H 184.69041 c 2.26516,0 4.43774,-0.89632 6.03935,-2.49796 1.60162,-1.60187 2.49787,-3.77429 2.49787,-6.0393 V 176.3609 c 0,-2.26524 -0.89622,-4.43766 -2.49787,-6.03947 -1.60157,-1.60141 -3.77411,-2.49825 -6.03935,-2.49825 z m 0,3.66036 H 184.69041 c 1.29414,0 2.53441,0.51254 3.44962,1.42744 0.91541,0.91548 1.42771,2.15557 1.42771,3.44986 v 113.45979 c 0,1.29389 -0.51254,2.53398 -1.42771,3.44957 -0.91521,0.91525 -2.15542,1.42774 -3.44962,1.42774 H 48.941941 c -1.294161,0 -2.534701,-0.51255 -3.449816,-1.42774 -0.915103,-0.91553 -1.427422,-2.15557 -1.427422,-3.44957 V 176.36084 c 0,-1.29429 0.512486,-2.53432 1.427422,-3.44986 0.915144,-0.91495 2.155678,-1.42744 3.449816,-1.42744 z" sodipodi:nodetypes="scsscsscsscsssscsscsscsscs"/>
    <path d="m 92.668889,206.52512 v 32.78742 h 77.555371 v -32.78742 z m -14.880578,9.36598 c -2.616506,0 -5.705393,2.16197 -6.654072,4.02225 l -2.376747,10.22161 -0.190184,0.18296 c -0.182853,0 -1.348693,0.30707 -2.010636,0.89003 -0.436816,0.43866 -0.740157,1.19524 -0.740157,1.80377 l -1.17694,12.20915 h -0.908281 c -0.301523,0 -0.747471,-0.001 -0.895496,0.3013 -0.182854,0.16449 -0.182854,1.04713 -0.182854,1.04713 v 3.97874 l 11.374799,0.002 a 10.094721,10.094631 0 0 1 -0.03636,-0.69263 10.094721,10.094631 0 0 1 10.075062,-10.09451 10.094721,10.094631 0 0 1 0.01847,0 10.094721,10.094631 0 0 1 10.093532,10.09451 10.094721,10.094631 0 0 1 -0.03636,0.69263 l 44.755653,0.0173 a 10.094721,10.094631 0 0 1 -0.0364,-0.70907 10.094721,10.094631 0 0 1 8.86854,-10.02006 l -55.663682,0.0577 -0.0912,-24.08065 z m 1.432807,5.31561 h 6.449949 v 6.71051 h -7.685918 z m -6.77527,0.67797 h 3.433937 l -1.136721,6.00368 H 71.31057 Z m 95.801342,17.98837 -18.18515,0.0173 a 10.094721,10.094631 0 0 1 8.88499,10.023 10.094721,10.094631 0 0 1 -0.0369,0.71825 h 3.90401 v -2.14777 l 3.96194,-4.53417 h 1.42181 z m -84.316866,0.66706 c -5.039087,0 -9.268955,4.23367 -9.268955,9.26162 0,5.28491 4.102483,9.51732 9.268955,9.51732 5.278135,0 9.375671,-4.36747 9.251587,-9.51732 0,-5.02795 -4.10138,-9.26312 -9.251587,-9.26162 z m 64.778436,0 c -5.03711,0 -9.25765,4.23367 -9.25765,9.26162 0,5.28491 4.09464,9.51732 9.25765,9.51732 5.29072,0 9.37895,-4.36747 9.25083,-9.51732 0,-5.02795 -4.1003,-9.26312 -9.25083,-9.26162 z m -64.778436,5.55774 c 2.109335,0 3.826881,1.66306 3.826881,3.7048 0,2.24348 -1.547933,3.96904 -3.705545,3.96904 -2.25115,0.14603 -3.962999,-1.66305 -3.962999,-3.83195 0,-2.13041 1.673991,-3.84096 3.841663,-3.84189 z m 64.778436,0 c 2.10732,0 3.84093,1.66306 3.84093,3.7048 0,2.24348 -1.5516,3.96904 -3.72236,3.96904 -2.24621,0.14603 -3.96265,-1.66305 -3.96265,-3.83195 0,-2.13041 1.6777,-3.84096 3.84408,-3.84189 z" style="opacity:1;fill:#ffffff;fill-opacity:1;fill-rule:evenodd;stroke-width:0.113356;stroke-linecap:square;paint-order:stroke fill markers" id="rect14004"/>
  </g>
</svg>