<svg xmlns="http://www.w3.org/2000/svg" xmlns:xlink="http://www.w3.org/1999/xlink" version="1.1" width="1000" height="1000" viewBox="0 0 1000 1000" xml:space="preserve">
<desc>Created with Fabric.js 3.5.0</desc>
<defs>
</defs>
<rect x="0" y="0" width="100%" height="100%" fill="rgba(255,255,255,0)"/>
<g transform="matrix(0.2638 0 0 0.2638 499.9608 499.9608)" id="297511">
<g style="" vector-effect="non-scaling-stroke">
		<g transform="matrix(3.7795 0 0 3.7795 -0.0141 -0.0141)" id="path815">
<circle style="stroke: none; stroke-width: 315.8149; stroke-dasharray: none; stroke-linecap: round; stroke-dashoffset: 0; stroke-linejoin: round; stroke-miterlimit: 4; is-custom-font: none; font-file-url: none; fill: rgb(240,10,10); fill-rule: nonzero; opacity: 1;" paint-order="stroke" cx="0" cy="0" r="350"/>
</g>
		<g transform="matrix(3.7795 0 0 3.7795 -0.01 -0.01)" id="circle817">
<circle style="stroke: none; stroke-width: 225.5821; stroke-dasharray: none; stroke-linecap: round; stroke-dashoffset: 0; stroke-linejoin: round; stroke-miterlimit: 4; is-custom-font: none; font-file-url: none; fill: rgb(255,255,255); fill-rule: nonzero; opacity: 1;" paint-order="stroke" cx="0" cy="0" r="250"/>
</g>
		<g transform="matrix(3.7795 0 0 3.7795 -49.6098 174.6099)" id="rect829">
<path style="stroke: none; stroke-width: 7.5576; stroke-dasharray: none; stroke-linecap: round; stroke-dashoffset: 0; stroke-linejoin: miter; stroke-miterlimit: 4; is-custom-font: none; font-file-url: none; fill: rgb(0,0,0); fill-rule: nonzero; opacity: 1;" paint-order="stroke" transform=" translate(-337.875, 7.8)" d="M 429.75 64.29998 V -54.00025 c 0 -58.16999 -46.8297 -104.99979 -104.9997 -104.99979 c -58.17 0 -105.0004 46.8298 -105.0004 104.99979 v 186.90024 h 52.5002 V -54.00025 c 0 -29.08501 23.4152 -52.49963 52.5002 -52.49963 c 29.085 0 52.4996 23.41462 52.4996 52.49963 V 64.29998 H 351 L 403.5 143.4 L 456 64.29998 Z" stroke-linecap="round"/>
</g>
		<g transform="matrix(3.7795 0 0 3.7795 397.5082 -297.6393)" id="path23887">
<path style="stroke: none; stroke-width: 7.5576; stroke-dasharray: none; stroke-linecap: round; stroke-dashoffset: 0; stroke-linejoin: miter; stroke-miterlimit: 4; is-custom-font: none; font-file-url: none; fill: rgb(0,0,0); fill-rule: nonzero; opacity: 1;" paint-order="stroke" transform=" translate(-456.175, 132.75)" d="M 508.5 -159 H 324.75 v 52.50015 H 508.5 V -80.25 l 79.1 -52.5 l -79.1 -52.5 z" stroke-linecap="round"/>
</g>
		<g transform="matrix(2.6725 -2.6725 2.6725 2.6725 -0.0087 -0.006)" id="rect46932">
<rect style="stroke: none; stroke-width: 72.0997; stroke-dasharray: none; stroke-linecap: round; stroke-dashoffset: 0; stroke-linejoin: round; stroke-miterlimit: 4; is-custom-font: none; font-file-url: none; fill: rgb(240,10,10); fill-rule: nonzero; opacity: 1;" paint-order="stroke" x="-25" y="-340" rx="0" ry="0" width="50" height="680"/>
</g>
</g>
</g>
<g transform="matrix(1 0 0 1 500 759.4466)" style="" id="233647">
		
<path xml:space="preserve" font-family="Abhaya Libre" font-size="207" font-style="normal" font-weight="bold" style="stroke: none; stroke-width: 1; stroke-dasharray: none; stroke-linecap: butt; stroke-dashoffset: 0; stroke-linejoin: miter; stroke-miterlimit: 4; is-custom-font: none; font-file-url: none; fill: rgb(0,0,0); fill-rule: nonzero; opacity: 1; white-space: pre;" d="M-30.83-56.26L-30.83-50.80L-14.25-50.80L-14.25 31.27L-87.43-56.26L-119.57-56.26L-119.57-50.80L-103.40-50.80L-103.40 59.57L-119.57 59.57L-119.57 65.03L-77.93 65.03Q-79.14 59.97-83.39 59.57L-83.39 59.57L-95.11 59.57L-95.11-27.56L-16.68 66.04L-5.96 64.02L-5.96-50.80L10.21-50.80L10.21-56.26L-30.83-56.26ZM114.11 31.87L114.11 31.87Q114.11 14.69 95.11 2.97L95.11 2.97Q92.28 1.35 73.28-7.95L73.28-7.95Q55.89-16.64 51.65-24.93L51.65-24.93Q49.43-29.38 49.43-34.03L49.43-34.03Q49.43-46.15 61.15-50.60L61.15-50.60Q65.80-52.42 71.06-52.42L71.06-52.42Q87.63-52.42 96.12-40.49L96.12-40.49Q101.78-32.41 101.78-21.29L101.78-21.29L109.06-21.29L109.06-57.47Q103.40-57.47 102.59-53.63L102.59-53.63Q102.39-52.22 102.39-50.40L102.39-50.40Q86.42-58.28 68.02-58.28L68.02-58.28Q44.57-58.28 32.24-45.75L32.24-45.75Q24.16-37.46 24.16-26.14L24.16-26.14Q24.16-9.16 43.16 2.36L43.16 2.36Q46.19 3.98 65.40 13.48L65.40 13.48Q83.18 22.17 87.43 30.66L87.43 30.66Q89.65 34.91 89.65 39.56L89.65 39.56Q89.65 53.71 76.51 58.96L76.51 58.96Q71.26 61.19 64.79 61.19L64.79 61.19Q40.73 61.19 33.05 37.53L33.05 37.53Q31.03 30.86 30.42 22.98L30.42 22.98L23.15 22.98L23.15 65.43Q28.20 65.43 29.21 62.40L29.21 62.40Q29.61 60.58 29.61 56.74L29.61 56.74Q45.38 67.05 66.61 67.05L66.61 67.05Q91.47 67.05 104.81 54.11L104.81 54.11Q114.11 45.01 114.11 31.87Z"/></g>
</svg>