<svg xmlns="http://www.w3.org/2000/svg" xmlns:xlink="http://www.w3.org/1999/xlink" version="1.1" width="1000" height="1000" viewBox="0 0 1000 1000" xml:space="preserve">
<desc>Created with Fabric.js 3.5.0</desc>
<defs>
</defs>
<rect x="0" y="0" width="100%" height="100%" fill="#ffffff"/>
<g transform="matrix(-1.5152 0 0 1.5152 500.0145 500.0145)" id="995509">
<g style="" vector-effect="non-scaling-stroke">
		<g transform="matrix(1.0337 0 0 0.9855 0.0123 0.0064)" id="path2990">
<path style="stroke: none; stroke-width: 1; stroke-dasharray: none; stroke-linecap: butt; stroke-dashoffset: 0; stroke-linejoin: miter; stroke-miterlimit: 4; is-custom-font: none; font-file-url: none; fill: rgb(187,17,34); fill-rule: nonzero; opacity: 1;" transform=" translate(550.7948, -267.2013)" d="m -260.56335 267.20129 a 290.23145 304.42053 0 1 1 -580.4629 0 a 290.23145 304.42053 0 1 1 580.4629 0 z" stroke-linecap="round"/>
</g>
		<g transform="matrix(0.8269 0 0 0.7884 -0.0077 0.0051)" id="path3760">
<path style="stroke: none; stroke-width: 1; stroke-dasharray: none; stroke-linecap: butt; stroke-dashoffset: 0; stroke-linejoin: miter; stroke-miterlimit: 4; is-custom-font: none; font-file-url: none; fill: rgb(255,255,255); fill-rule: nonzero; opacity: 1;" transform=" translate(550.7948, -267.2013)" d="m -260.56335 267.20129 a 290.23145 304.42053 0 1 1 -580.4629 0 a 290.23145 304.42053 0 1 1 580.4629 0 z" stroke-linecap="round"/>
</g>
		<g transform="matrix(1 0 0 1 31.7861 -19.2849)" id="path3842">
<path style="stroke: none; stroke-width: 1; stroke-dasharray: none; stroke-linecap: butt; stroke-dashoffset: 0; stroke-linejoin: miter; stroke-miterlimit: 4; is-custom-font: none; font-file-url: none; fill: rgb(0,0,0); fill-rule: nonzero; opacity: 1;" transform=" translate(-1106.0718, -950.2201)" d="m 1075.715 760.93519 c 78.8992 0 142.8572 63.95792 142.8572 142.85729 l 0 91.07166 l 42.1802 -12.65726 c 1.3417 -0.41787 2.7687 -0.64352 4.2476 -0.64352 c 7.8884 0 14.2857 6.39732 14.2857 14.28588 c 0 3.0431 -0.9514 5.86666 -2.5736 8.18386 l -93.8527 135.4719 l -93.8558 -135.4719 c -1.6221 -2.3174 -2.5735 -5.13786 -2.5735 -8.18386 c 0 -7.88856 6.3943 -14.28588 14.2857 -14.28588 c 1.4789 0 2.9059 0.22443 4.2476 0.64352 l 42.1802 12.65726 l 0 -91.07166 c 0 -39.44821 -31.9805 -71.42872 -71.4286 -71.42872 c -39.4481 0 -71.4285 31.98051 -71.4285 71.42872 l 0 235.71252 l -71.42858 0 l 0 -235.71252 c 0 -78.89937 63.9579 -142.85729 142.85708 -142.85729" stroke-linecap="round"/>
</g>
		<g transform="matrix(-0.7071 -0.7071 0.7071 -0.7071 0 -0.0001)" id="rect3762">
<rect style="stroke: none; stroke-width: 1; stroke-dasharray: none; stroke-linecap: butt; stroke-dashoffset: 0; stroke-linejoin: miter; stroke-miterlimit: 4; is-custom-font: none; font-file-url: none; fill: rgb(187,17,34); fill-rule: nonzero; opacity: 1;" x="-275" y="-30" rx="0" ry="0" width="550" height="60"/>
</g>
</g>
</g>
<g transform="matrix(1 0 0 1 499.3473 867.1237)" style="" id="531874">
		
<path xml:space="preserve" font-family="Abhaya Libre" font-size="210" font-style="normal" font-weight="bold" style="stroke: none; stroke-width: 1; stroke-dasharray: none; stroke-linecap: butt; stroke-dashoffset: 0; stroke-linejoin: miter; stroke-miterlimit: 4; is-custom-font: none; font-file-url: none; fill: rgb(0,0,0); fill-rule: nonzero; opacity: 1; white-space: pre;" d="M-31.27-57.08L-31.27-51.54L-14.46-51.54L-14.46 31.72L-88.70-57.08L-121.30-57.08L-121.30-51.54L-104.90-51.54L-104.90 60.43L-121.30 60.43L-121.30 65.97L-79.06 65.97Q-80.29 60.84-84.59 60.43L-84.59 60.43L-96.49 60.43L-96.49-27.96L-16.92 66.99L-6.05 64.94L-6.05-51.54L10.36-51.54L10.36-57.08L-31.27-57.08ZM115.77 32.34L115.77 32.34Q115.77 14.90 96.49 3.01L96.49 3.01Q93.62 1.37 74.34-8.06L74.34-8.06Q56.70-16.88 52.40-25.29L52.40-25.29Q50.14-29.80 50.14-34.52L50.14-34.52Q50.14-46.82 62.04-51.34L62.04-51.34Q66.75-53.18 72.08-53.18L72.08-53.18Q88.90-53.18 97.51-41.08L97.51-41.08Q103.26-32.88 103.26-21.60L103.26-21.60L110.64-21.60L110.64-58.31Q104.90-58.31 104.08-54.41L104.08-54.41Q103.87-52.98 103.87-51.13L103.87-51.13Q87.67-59.13 69.01-59.13L69.01-59.13Q45.22-59.13 32.71-46.41L32.71-46.41Q24.51-38.01 24.51-26.52L24.51-26.52Q24.51-9.29 43.78 2.40L43.78 2.40Q46.86 4.04 66.34 13.67L66.34 13.67Q84.39 22.49 88.70 31.11L88.70 31.11Q90.95 35.41 90.95 40.13L90.95 40.13Q90.95 54.49 77.62 59.82L77.62 59.82Q72.29 62.07 65.73 62.07L65.73 62.07Q41.32 62.07 33.53 38.08L33.53 38.08Q31.48 31.31 30.86 23.31L30.86 23.31L23.48 23.31L23.48 66.38Q28.61 66.38 29.63 63.30L29.63 63.30Q30.04 61.46 30.04 57.56L30.04 57.56Q46.04 68.02 67.57 68.02L67.57 68.02Q92.80 68.02 106.33 54.90L106.33 54.90Q115.77 45.67 115.77 32.34Z"/></g>
</svg>