<svg xmlns="http://www.w3.org/2000/svg" xmlns:xlink="http://www.w3.org/1999/xlink" version="1.1" width="1000" height="1000" viewBox="0 0 1000 1000" xml:space="preserve">
<desc>Created with Fabric.js 3.5.0</desc>
<defs>
</defs>
<rect x="0" y="0" width="100%" height="100%" fill="rgba(255,255,255,0)"/>
<g transform="matrix(0.2638 0 0 0.2638 499.9608 499.9608)" id="339171">
<g style="" vector-effect="non-scaling-stroke">
		<g transform="matrix(3.7795 0 0 3.7795 -0.0141 -0.0141)" id="path815">
<circle style="stroke: none; stroke-width: 315.8149; stroke-dasharray: none; stroke-linecap: round; stroke-dashoffset: 0; stroke-linejoin: round; stroke-miterlimit: 4; is-custom-font: none; font-file-url: none; fill: rgb(240,10,10); fill-rule: nonzero; opacity: 1;" paint-order="stroke" cx="0" cy="0" r="350"/>
</g>
		<g transform="matrix(3.7795 0 0 3.7795 -0.01 -0.01)" id="circle817">
<circle style="stroke: none; stroke-width: 225.5821; stroke-dasharray: none; stroke-linecap: round; stroke-dashoffset: 0; stroke-linejoin: round; stroke-miterlimit: 4; is-custom-font: none; font-file-url: none; fill: rgb(255,255,255); fill-rule: nonzero; opacity: 1;" paint-order="stroke" cx="0" cy="0" r="250"/>
</g>
		<g transform="matrix(3.7795 0 0 3.7795 49.6032 174.6099)" id="rect829">
<path style="stroke: none; stroke-width: 7.5576; stroke-dasharray: none; stroke-linecap: round; stroke-dashoffset: 0; stroke-linejoin: miter; stroke-miterlimit: 4; is-custom-font: none; font-file-url: none; fill: rgb(0,0,0); fill-rule: nonzero; opacity: 1;" paint-order="stroke" transform=" translate(-364.125, 7.8)" d="M 272.25 64.29998 V -54.00025 c 0 -58.16999 46.8297 -104.99979 104.9997 -104.99979 c 58.17 0 105.0004 46.8298 105.0004 104.99979 V 132.89999 H 429.7499 V -54.00025 c 0 -29.08501 -23.4152 -52.49963 -52.5002 -52.49963 c -29.085 0 -52.4996 23.41462 -52.4996 52.49963 V 64.29998 H 351 L 298.5 143.4 L 246 64.29998 Z" stroke-linecap="round"/>
</g>
		<g transform="matrix(3.7795 0 0 3.7795 -397.5154 -297.6393)" id="path23887">
<path style="stroke: none; stroke-width: 7.5576; stroke-dasharray: none; stroke-linecap: round; stroke-dashoffset: 0; stroke-linejoin: miter; stroke-miterlimit: 4; is-custom-font: none; font-file-url: none; fill: rgb(0,0,0); fill-rule: nonzero; opacity: 1;" paint-order="stroke" transform=" translate(-245.825, 132.75)" d="m 193.5 -159 h 183.75 v 52.50015 H 193.5 V -80.25 l -79.1 -52.5 l 79.1 -52.5 z" stroke-linecap="round"/>
</g>
		<g transform="matrix(2.6725 -2.6725 2.6725 2.6725 -0.0087 -0.006)" id="rect46932">
<rect style="stroke: none; stroke-width: 72.0997; stroke-dasharray: none; stroke-linecap: round; stroke-dashoffset: 0; stroke-linejoin: round; stroke-miterlimit: 4; is-custom-font: none; font-file-url: none; fill: rgb(240,10,10); fill-rule: nonzero; opacity: 1;" paint-order="stroke" x="-25" y="-340" rx="0" ry="0" width="50" height="680"/>
</g>
</g>
</g>
<g transform="matrix(1 0 0 1 509.2099 762.5493)" style="" id="344894">
		
<path xml:space="preserve" font-family="Abhaya Libre" font-size="209" font-style="normal" font-weight="bold" style="stroke: none; stroke-width: 1; stroke-dasharray: none; stroke-linecap: butt; stroke-dashoffset: 0; stroke-linejoin: miter; stroke-miterlimit: 4; is-custom-font: none; font-file-url: none; fill: rgb(0,0,0); fill-rule: nonzero; opacity: 1; white-space: pre;" d="M-31.13-56.81L-31.13-51.29L-14.39-51.29L-14.39 31.57L-88.27-56.81L-120.73-56.81L-120.73-51.29L-104.40-51.29L-104.40 60.14L-120.73 60.14L-120.73 65.66L-78.68 65.66Q-79.91 60.55-84.19 60.14L-84.19 60.14L-96.03 60.14L-96.03-27.82L-16.84 66.68L-6.02 64.63L-6.02-51.29L10.31-51.29L10.31-56.81L-31.13-56.81ZM115.22 32.18L115.22 32.18Q115.22 14.83 96.03 3.00L96.03 3.00Q93.17 1.36 73.99-8.03L73.99-8.03Q56.43-16.80 52.15-25.17L52.15-25.17Q49.90-29.66 49.90-34.35L49.90-34.35Q49.90-46.60 61.74-51.09L61.74-51.09Q66.44-52.93 71.74-52.93L71.74-52.93Q88.48-52.93 97.05-40.89L97.05-40.89Q102.77-32.72 102.77-21.50L102.77-21.50L110.11-21.50L110.11-58.03Q104.40-58.03 103.58-54.15L103.58-54.15Q103.38-52.72 103.38-50.89L103.38-50.89Q87.25-58.85 68.68-58.85L68.68-58.85Q45.00-58.85 32.55-46.19L32.55-46.19Q24.39-37.82 24.39-26.39L24.39-26.39Q24.39-9.25 43.58 2.38L43.58 2.38Q46.64 4.02 66.03 13.61L66.03 13.61Q83.99 22.39 88.27 30.96L88.27 30.96Q90.52 35.24 90.52 39.94L90.52 39.94Q90.52 54.23 77.25 59.53L77.25 59.53Q71.95 61.78 65.41 61.78L65.41 61.78Q41.13 61.78 33.37 37.90L33.37 37.90Q31.33 31.16 30.72 23.20L30.72 23.20L23.37 23.20L23.37 66.06Q28.47 66.06 29.49 63.00L29.49 63.00Q29.90 61.17 29.90 57.29L29.90 57.29Q45.82 67.70 67.25 67.70L67.25 67.70Q92.36 67.70 105.83 54.63L105.83 54.63Q115.22 45.45 115.22 32.18Z"/></g>
</svg>