<svg xmlns="http://www.w3.org/2000/svg" xmlns:xlink="http://www.w3.org/1999/xlink" width="82" zoomAndPan="magnify" viewBox="0 0 61.5 76.499999" height="102" preserveAspectRatio="xMidYMid meet" version="1.0"><defs><clipPath id="fd6dc331aa"><path d="M 0 10.335938 L 61.003906 10.335938 L 61.003906 71.835938 L 0 71.835938 Z M 0 10.335938 " clip-rule="nonzero"/></clipPath></defs><path fill="#ffffff" d="M 55.320312 41.078125 C 55.320312 47.382812 52.941406 53.132812 49.039062 57.484375 C 48.160156 58.464844 47.203125 59.371094 46.179688 60.199219 C 41.960938 63.609375 36.589844 65.652344 30.746094 65.652344 C 17.171875 65.652344 6.167969 54.648438 6.167969 41.078125 C 6.167969 35.972656 7.726562 31.234375 10.386719 27.304688 C 11.140625 26.195312 11.984375 25.148438 12.902344 24.175781 C 17.382812 19.453125 23.71875 16.503906 30.746094 16.503906 C 44.316406 16.503906 55.320312 27.503906 55.320312 41.078125 Z M 55.320312 41.078125 " fill-opacity="1" fill-rule="nonzero"/><path fill="#231f20" d="M 18.941406 32.976562 L 18.941406 58.671875 L 24.542969 58.671875 L 24.542969 32.976562 C 24.542969 29.464844 27.402344 26.605469 30.914062 26.605469 C 34.425781 26.605469 37.285156 29.464844 37.285156 32.976562 L 37.285156 45.371094 L 29.8125 45.371094 L 34.667969 52.863281 L 39.527344 60.351562 L 44.382812 52.863281 L 49.238281 45.371094 L 42.886719 45.371094 L 42.886719 32.976562 C 42.886719 26.375 37.515625 21.003906 30.914062 21.003906 C 24.3125 21.003906 18.941406 26.375 18.941406 32.976562 Z M 18.941406 32.976562 " fill-opacity="1" fill-rule="nonzero"/><g clip-path="url(#fd6dc331aa)"><path fill="#ec1d24" d="M 30.746094 10.328125 C 13.761719 10.328125 -0.00390625 24.09375 -0.00390625 41.078125 C -0.00390625 58.058594 13.761719 71.824219 30.746094 71.824219 C 47.726562 71.824219 61.492188 58.058594 61.492188 41.078125 C 61.492188 24.09375 47.726562 10.328125 30.746094 10.328125 Z M 49.039062 57.484375 C 48.160156 58.464844 47.203125 59.371094 46.179688 60.199219 C 41.960938 63.609375 36.589844 65.652344 30.746094 65.652344 C 17.171875 65.652344 6.167969 54.648438 6.167969 41.078125 C 6.167969 35.972656 7.726562 31.234375 10.386719 27.304688 C 10.46875 27.1875 10.550781 27.066406 10.636719 26.949219 L 50.769531 55.324219 C 50.230469 56.078125 49.65625 56.796875 49.039062 57.484375 Z M 13.335938 23.730469 C 17.785156 19.265625 23.941406 16.503906 30.746094 16.503906 C 44.316406 16.503906 55.320312 27.503906 55.320312 41.078125 C 55.320312 44.839844 54.472656 48.402344 52.964844 51.589844 Z M 13.335938 23.730469 " fill-opacity="1" fill-rule="nonzero"/></g></svg>