<svg xmlns="http://www.w3.org/2000/svg" width="604" height="694" viewBox="0 0 604 694">
  <g fill="none" fill-rule="evenodd">
    <path fill="#000" fill-rule="nonzero" d="M52,0 L552,0 C580.718807,-5.27555926e-15 604,23.281193 604,52 L604,642 C604,670.718807 580.718807,694 552,694 L52,694 C23.281193,694 3.51703951e-15,670.718807 0,642 L0,52 C-3.51703951e-15,23.281193 23.281193,5.27555926e-15 52,0 Z"/>
    <path fill="#FFF" fill-rule="nonzero" d="M52,2 L552,2 C579.614237,2 602,24.3857625 602,52 L602,642 C602,669.614237 579.614237,692 552,692 L52,692 C24.3857625,692 2,669.614237 2,642 L2,52 C2,24.3857625 24.3857625,2 52,2 Z"/>
    <path fill="#0046AA" fill-rule="nonzero" d="M52,12 L552,12 C574.09139,12 592,29.90861 592,52 L592,642 C592,664.09139 574.09139,682 552,682 L52,682 C29.90861,682 12,664.09139 12,642 L12,52 C12,29.90861 29.90861,12 52,12 Z"/>
    <g transform="translate(99.5 73.5)">
      <path fill="#FFF" fill-rule="nonzero" d="M235.950027,190.181758 L180.40347,201.664831 C178.263708,202.52962 175.933158,203.020191 173.478229,203.020191 C163.277054,203.020191 155,194.721781 155,184.494286 C155,181.450953 155.746449,178.598902 157.040235,176.062832 L157.015323,176.029571 L279.50003,0 L402.984677,176.029571 L402.959765,176.062832 C404.253611,178.598902 405,181.450953 405,184.494286 C405,194.721781 396.722946,203.020191 386.521771,203.020191 C384.075106,203.020191 381.736292,202.52962 379.604854,201.664831 L323.058237,190.181758 L323.058237,523 L235.950027,523 L235.950027,190.181758 Z"/>
      <path fill="#FFF" fill-rule="nonzero" d="M63.7966314,536.882044 L20.0204479,545.931842 C18.3341041,546.613381 16.4973995,547 14.5626726,547 C6.52313758,547 -1.42108547e-14,540.460032 -1.42108547e-14,532.399754 C-1.42108547e-14,530.001306 0.588275924,527.753608 1.607907,525.754933 L1.5882742,525.72872 L98.1183431,387 L195.436464,525.72872 L195.416831,525.754933 C196.436509,527.753608 197.024738,530.001306 197.024738,532.399754 C197.024738,540.460032 190.5016,547 182.462065,547 C180.533851,547 178.690634,546.613381 177.01085,545.931842 L132.44652,536.882044 L63.7966314,536.882044 Z" transform="matrix(1 0 0 -1 0 934)"/>
      <path stroke="#FFF" stroke-width="75" d="M98.5123689,401.226813 L98.5123689,340 C98.5123689,314.042617 119.554986,293 145.512369,293 L245.827905,293 L245.827905,293"/>
    </g>
  </g>
</svg>
