<svg xmlns="http://www.w3.org/2000/svg" width="724" height="694" viewBox="0 0 724 694">
  <g fill="none" fill-rule="evenodd">
    <path fill="#000" fill-rule="nonzero" d="M52,0 L672,0 C700.718807,-5.27555926e-15 724,23.281193 724,52 L724,642 C724,670.718807 700.718807,694 672,694 L52,694 C23.281193,694 3.51703951e-15,670.718807 0,642 L0,52 C-3.51703951e-15,23.281193 23.281193,5.27555926e-15 52,0 Z"/>
    <path fill="#FFF" fill-rule="nonzero" d="M52,2 L671,2 C698.614237,2 721,24.3857625 721,52 L721,642 C721,669.614237 698.614237,692 671,692 L52,692 C24.3857625,692 2,669.614237 2,642 L2,52 C2,24.3857625 24.3857625,2 52,2 Z"/>
    <path fill="#0046AA" fill-rule="nonzero" d="M52,12 L671,12 C693.09139,12 711,29.90861 711,52 L711,642 C711,664.09139 693.09139,682 671,682 L52,682 C29.90861,682 12,664.09139 12,642 L12,52 C12,29.90861 29.90861,12 52,12 Z"/>
    <path fill="#FFF" d="M266.205065,161.347794 L361.468937,66.2960903 L361.499065,66.3270903 L361.531063,66.2960903 L456.794935,161.347794 L393.815993,161.347794 L393.720065,270.94509 L479.743232,270.685162 L479.743232,207.706219 L574.794935,302.970092 L479.743232,398.293781 L479.743232,334.525357 L393.664065,334.77809 L393.409294,627.70391 L329.581062,627.70391 L329.641065,555.70309 L329.590706,555.70391 L329.362065,334.77909 L243.256768,334.525357 L243.256768,398.293781 L148.205065,302.970092 L243.256768,207.706219 L243.256768,270.685162 L329.296065,270.94509 L329.184007,161.347794 L266.205065,161.347794 Z"/>
    <path fill="#FFF" stroke="#979797" d="M86 587.5L72 587.5C69.9289322 587.5 68.0539322 588.339466 66.6966991 589.696699 65.3394661 591.053932 64.5 592.928932 64.5 595L64.5 659C64.5 661.071068 65.3394661 662.946068 66.6966991 664.303301 68.0539322 665.660534 69.9289322 666.5 72 666.5L86 666.5C88.0710678 666.5 89.9460678 665.660534 91.3033009 664.303301 92.6605339 662.946068 93.5 661.071068 93.5 659L93.5 595C93.5 592.928932 92.6605339 591.053932 91.3033009 589.696699 89.9460678 588.339466 88.0710678 587.5 86 587.5zM86 449.5L72 449.5C69.9289322 449.5 68.0539322 450.339466 66.6966991 451.696699 65.3394661 453.053932 64.5 454.928932 64.5 457L64.5 521C64.5 523.071068 65.3394661 524.946068 66.6966991 526.303301 68.0539322 527.660534 69.9289322 528.5 72 528.5L86 528.5C88.0710678 528.5 89.9460678 527.660534 91.3033009 526.303301 92.6605339 524.946068 93.5 523.071068 93.5 521L93.5 457C93.5 454.928932 92.6605339 453.053932 91.3033009 451.696699 89.9460678 450.339466 88.0710678 449.5 86 449.5zM86 311.5L72 311.5C69.9289322 311.5 68.0539322 312.339466 66.6966991 313.696699 65.3394661 315.053932 64.5 316.928932 64.5 319L64.5 383C64.5 385.071068 65.3394661 386.946068 66.6966991 388.303301 68.0539322 389.660534 69.9289322 390.5 72 390.5L86 390.5C88.0710678 390.5 89.9460678 389.660534 91.3033009 388.303301 92.6605339 386.946068 93.5 385.071068 93.5 383L93.5 319C93.5 316.928932 92.6605339 315.053932 91.3033009 313.696699 89.9460678 312.339466 88.0710678 311.5 86 311.5zM86 173.5L72 173.5C69.9289322 173.5 68.0539322 174.339466 66.6966991 175.696699 65.3394661 177.053932 64.5 178.928932 64.5 181L64.5 245C64.5 247.071068 65.3394661 248.946068 66.6966991 250.303301 68.0539322 251.660534 69.9289322 252.5 72 252.5L86 252.5C88.0710678 252.5 89.9460678 251.660534 91.3033009 250.303301 92.6605339 248.946068 93.5 247.071068 93.5 245L93.5 181C93.5 178.928932 92.6605339 177.053932 91.3033009 175.696699 89.9460678 174.339466 88.0710678 173.5 86 173.5zM86 35.5L72 35.5C69.9289322 35.5 68.0539322 36.3394661 66.6966991 37.6966991 65.3394661 39.0539322 64.5 40.9289322 64.5 43L64.5 107C64.5 109.071068 65.3394661 110.946068 66.6966991 112.303301 68.0539322 113.660534 69.9289322 114.5 72 114.5L86 114.5C88.0710678 114.5 89.9460678 113.660534 91.3033009 112.303301 92.6605339 110.946068 93.5 109.071068 93.5 107L93.5 43C93.5 40.9289322 92.6605339 39.0539322 91.3033009 37.6966991 89.9460678 36.3394661 88.0710678 35.5 86 35.5zM671 587.5L657 587.5C654.928932 587.5 653.053932 588.339466 651.696699 589.696699 650.339466 591.053932 649.5 592.928932 649.5 595L649.5 659C649.5 661.071068 650.339466 662.946068 651.696699 664.303301 653.053932 665.660534 654.928932 666.5 657 666.5L671 666.5C673.071068 666.5 674.946068 665.660534 676.303301 664.303301 677.660534 662.946068 678.5 661.071068 678.5 659L678.5 595C678.5 592.928932 677.660534 591.053932 676.303301 589.696699 674.946068 588.339466 673.071068 587.5 671 587.5zM671 449.5L657 449.5C654.928932 449.5 653.053932 450.339466 651.696699 451.696699 650.339466 453.053932 649.5 454.928932 649.5 457L649.5 521C649.5 523.071068 650.339466 524.946068 651.696699 526.303301 653.053932 527.660534 654.928932 528.5 657 528.5L671 528.5C673.071068 528.5 674.946068 527.660534 676.303301 526.303301 677.660534 524.946068 678.5 523.071068 678.5 521L678.5 457C678.5 454.928932 677.660534 453.053932 676.303301 451.696699 674.946068 450.339466 673.071068 449.5 671 449.5zM671 311.5L657 311.5C654.928932 311.5 653.053932 312.339466 651.696699 313.696699 650.339466 315.053932 649.5 316.928932 649.5 319L649.5 383C649.5 385.071068 650.339466 386.946068 651.696699 388.303301 653.053932 389.660534 654.928932 390.5 657 390.5L671 390.5C673.071068 390.5 674.946068 389.660534 676.303301 388.303301 677.660534 386.946068 678.5 385.071068 678.5 383L678.5 319C678.5 316.928932 677.660534 315.053932 676.303301 313.696699 674.946068 312.339466 673.071068 311.5 671 311.5zM671 173.5L657 173.5C654.928932 173.5 653.053932 174.339466 651.696699 175.696699 650.339466 177.053932 649.5 178.928932 649.5 181L649.5 245C649.5 247.071068 650.339466 248.946068 651.696699 250.303301 653.053932 251.660534 654.928932 252.5 657 252.5L671 252.5C673.071068 252.5 674.946068 251.660534 676.303301 250.303301 677.660534 248.946068 678.5 247.071068 678.5 245L678.5 181C678.5 178.928932 677.660534 177.053932 676.303301 175.696699 674.946068 174.339466 673.071068 173.5 671 173.5zM671 35.5L657 35.5C654.928932 35.5 653.053932 36.3394661 651.696699 37.6966991 650.339466 39.0539322 649.5 40.9289322 649.5 43L649.5 107C649.5 109.071068 650.339466 110.946068 651.696699 112.303301 653.053932 113.660534 654.928932 114.5 657 114.5L671 114.5C673.071068 114.5 674.946068 113.660534 676.303301 112.303301 677.660534 110.946068 678.5 109.071068 678.5 107L678.5 43C678.5 40.9289322 677.660534 39.0539322 676.303301 37.6966991 674.946068 36.3394661 673.071068 35.5 671 35.5z"/>
  </g>
</svg>
