<svg xmlns="http://www.w3.org/2000/svg" xmlns:xlink="http://www.w3.org/1999/xlink" version="1.1" width="1000" height="1000" viewBox="0 0 1000 1000" xml:space="preserve">
<desc>Created with Fabric.js 3.5.0</desc>
<defs>
</defs>
<rect x="0" y="0" width="100%" height="100%" fill="rgba(255,255,255,0)"/>
<g transform="matrix(0.2638 0 0 0.2638 499.9608 499.9608)" id="471502">
<g style="" vector-effect="non-scaling-stroke">
		<g transform="matrix(3.7795 0 0 3.7795 -0.0141 -0.0141)" id="path815">
<circle style="stroke: none; stroke-width: 315.8149; stroke-dasharray: none; stroke-linecap: round; stroke-dashoffset: 0; stroke-linejoin: round; stroke-miterlimit: 4; is-custom-font: none; font-file-url: none; fill: rgb(240,10,10); fill-rule: nonzero; opacity: 1;" paint-order="stroke" cx="0" cy="0" r="350"/>
</g>
		<g transform="matrix(3.7795 0 0 3.7795 -0.01 -0.01)" id="circle817">
<circle style="stroke: none; stroke-width: 225.5821; stroke-dasharray: none; stroke-linecap: round; stroke-dashoffset: 0; stroke-linejoin: round; stroke-miterlimit: 4; is-custom-font: none; font-file-url: none; fill: rgb(255,255,255); fill-rule: nonzero; opacity: 1;" paint-order="stroke" cx="0" cy="0" r="250"/>
</g>
		<g transform="matrix(3.7795 0 0 3.7795 -0.0018 -0.0057)" id="rect815">
<path style="stroke: none; stroke-width: 1.3053; stroke-dasharray: none; stroke-linecap: round; stroke-dashoffset: 0; stroke-linejoin: miter; stroke-miterlimit: 10; is-custom-font: none; font-file-url: none; fill: rgb(0,0,0); fill-rule: nonzero; opacity: 1;" paint-order="stroke" transform=" translate(-351, 54)" d="M 315.9998 -145.00001 H 281 l 69.9998 -119 l 70.0002 119 H 385.9998 V 156 h -70 z" stroke-linecap="round"/>
</g>
		<g transform="matrix(2.6725 -2.6725 2.6725 2.6725 -0.0087 -0.006)" id="rect819">
<rect style="stroke: none; stroke-width: 72.0997; stroke-dasharray: none; stroke-linecap: round; stroke-dashoffset: 0; stroke-linejoin: round; stroke-miterlimit: 4; is-custom-font: none; font-file-url: none; fill: rgb(240,10,10); fill-rule: nonzero; opacity: 1;" paint-order="stroke" x="-25" y="-340" rx="0" ry="0" width="50" height="680"/>
</g>
</g>
</g>
<g transform="matrix(1 0 0 1 500 778.8523)" style="" id="951674">
		
<path xml:space="preserve" font-family="Abhaya Libre" font-size="174" font-style="normal" font-weight="bold" style="stroke: none; stroke-width: 1; stroke-dasharray: none; stroke-linecap: butt; stroke-dashoffset: 0; stroke-linejoin: miter; stroke-miterlimit: 4; is-custom-font: none; font-file-url: none; fill: rgb(0,0,0); fill-rule: nonzero; opacity: 1; white-space: pre;" d="M-25.91-47.29L-25.91-42.70L-11.98-42.70L-11.98 26.28L-73.49-47.29L-100.51-47.29L-100.51-42.70L-86.92-42.70L-86.92 50.07L-100.51 50.07L-100.51 54.66L-65.50 54.66Q-66.52 50.41-70.09 50.07L-70.09 50.07L-79.95 50.07L-79.95-23.16L-14.02 55.51L-5.01 53.81L-5.01-42.70L8.58-42.70L8.58-47.29L-25.91-47.29ZM95.92 26.79L95.92 26.79Q95.92 12.35 79.95 2.49L79.95 2.49Q77.57 1.14 61.60-6.68L61.60-6.68Q46.98-13.99 43.42-20.95L43.42-20.95Q41.55-24.69 41.55-28.60L41.55-28.60Q41.55-38.80 51.40-42.53L51.40-42.53Q55.31-44.06 59.73-44.06L59.73-44.06Q73.66-44.06 80.80-34.04L80.80-34.04Q85.56-27.24 85.56-17.90L85.56-17.90L91.67-17.90L91.67-48.31Q86.92-48.31 86.24-45.08L86.24-45.08Q86.07-43.89 86.07-42.36L86.07-42.36Q72.64-48.99 57.18-48.99L57.18-48.99Q37.47-48.99 27.10-38.46L27.10-38.46Q20.31-31.49 20.31-21.97L20.31-21.97Q20.31-7.70 36.28 1.98L36.28 1.98Q38.83 3.34 54.97 11.33L54.97 11.33Q69.92 18.64 73.49 25.77L73.49 25.77Q75.36 29.34 75.36 33.25L75.36 33.25Q75.36 45.14 64.32 49.56L64.32 49.56Q59.90 51.43 54.46 51.43L54.46 51.43Q34.24 51.43 27.78 31.55L27.78 31.55Q26.08 25.94 25.57 19.32L25.57 19.32L19.46 19.32L19.46 55.00Q23.70 55.00 24.55 52.45L24.55 52.45Q24.89 50.92 24.89 47.69L24.89 47.69Q38.15 56.36 55.99 56.36L55.99 56.36Q76.89 56.36 88.10 45.48L88.10 45.48Q95.92 37.84 95.92 26.79Z"/></g>
</svg>