<svg xmlns="http://www.w3.org/2000/svg" xmlns:xlink="http://www.w3.org/1999/xlink" version="1.1" width="1000" height="1000" viewBox="0 0 1000 1000" xml:space="preserve">
<desc>Created with Fabric.js 3.5.0</desc>
<defs>
</defs>
<rect x="0" y="0" width="100%" height="100%" fill="rgba(255,255,255,0)"/>
<g transform="matrix(0.2638 0 0 0.2638 499.9608 499.9608)" id="746818">
<g style="" vector-effect="non-scaling-stroke">
		<g transform="matrix(3.7795 0 0 3.7795 -0.012 -0.012)" id="circle817">
<circle style="stroke: none; stroke-width: 270.6985; stroke-dasharray: none; stroke-linecap: round; stroke-dashoffset: 0; stroke-linejoin: round; stroke-miterlimit: 4; is-custom-font: none; font-file-url: none; fill: rgb(255,255,255); fill-rule: nonzero; opacity: 1;" paint-order="stroke" cx="0" cy="0" r="300"/>
</g>
		<g transform="matrix(3.7795 0 0 3.7795 -132.2876 66.1363)" id="path9688">
<path style="stroke: none; stroke-width: 4.2306; stroke-dasharray: none; stroke-linecap: round; stroke-dashoffset: 0; stroke-linejoin: miter; stroke-miterlimit: 4; is-custom-font: none; font-file-url: none; fill: rgb(0,0,0); fill-rule: nonzero; opacity: 1;" paint-order="stroke" transform=" translate(-316.0002, 36.5)" d="m 491.0002 155.99997 v -280.00018 c 0 -38.78001 -31.2198 -69.99981 -69.9998 -69.99981 H 246.0002 v -35 l -105 70 l 105 69.999977 v -35.000167 h 175.0002 v 280.00018 z" stroke-linecap="round"/>
</g>
		<g transform="matrix(3.7795 0 0 3.7795 -0.0136 -0.0143)" id="path9701">
<path style="stroke: none; stroke-width: 315.8149; stroke-dasharray: none; stroke-linecap: round; stroke-dashoffset: 0; stroke-linejoin: round; stroke-miterlimit: 4; is-custom-font: none; font-file-url: none; fill: rgb(240,10,10); fill-rule: nonzero; opacity: 1;" paint-order="stroke" transform=" translate(-351.0001, 54.0001)" d="M 350.99979 -404.00016 A 349.99998 349.99998 0 0 0 1 -53.999827 A 349.99998 349.99998 0 0 0 350.99979 296 A 349.99998 349.99998 0 0 0 701.00019 -53.999827 A 349.99998 349.99998 0 0 0 350.99979 -404.00016 Z m 0 100.0001 A 250 250 0 0 1 601.00009 -53.999827 A 250 250 0 0 1 350.99979 195.99991 A 250 250 0 0 1 101.00009 -53.999827 A 250 250 0 0 1 350.99979 -304.00006 Z" stroke-linecap="round"/>
</g>
		<g transform="matrix(2.6725 -2.6725 2.6725 2.6725 -0.0082 -0.0062)" id="rect9703">
<rect style="stroke: none; stroke-width: 72.0997; stroke-dasharray: none; stroke-linecap: round; stroke-dashoffset: 0; stroke-linejoin: round; stroke-miterlimit: 4; is-custom-font: none; font-file-url: none; fill: rgb(240,10,10); fill-rule: nonzero; opacity: 1;" paint-order="stroke" x="-25" y="-340" rx="0" ry="0" width="50" height="680"/>
</g>
</g>
</g>
<g transform="matrix(1 0 0 1 456.476 643.8949)" style="" id="542207">
		
<path xml:space="preserve" font-family="Abhaya Libre" font-size="176" font-style="normal" font-weight="bold" style="stroke: none; stroke-width: 1; stroke-dasharray: none; stroke-linecap: butt; stroke-dashoffset: 0; stroke-linejoin: miter; stroke-miterlimit: 4; is-custom-font: none; font-file-url: none; fill: rgb(0,0,0); fill-rule: nonzero; opacity: 1; white-space: pre;" d="M-26.21-47.84L-26.21-43.20L-12.12-43.20L-12.12 26.59L-74.34-47.84L-101.66-47.84L-101.66-43.20L-87.91-43.20L-87.91 50.65L-101.66 50.65L-101.66 55.29L-66.26 55.29Q-67.29 50.99-70.90 50.65L-70.90 50.65L-80.87 50.65L-80.87-23.43L-14.18 56.15L-5.07 54.43L-5.07-43.20L8.68-43.20L8.68-47.84L-26.21-47.84ZM97.02 27.10L97.02 27.10Q97.02 12.49 80.87 2.52L80.87 2.52Q78.46 1.15 62.30-6.76L62.30-6.76Q47.52-14.15 43.91-21.20L43.91-21.20Q42.02-24.98 42.02-28.93L42.02-28.93Q42.02-39.24 51.99-43.02L51.99-43.02Q55.95-44.57 60.41-44.57L60.41-44.57Q74.51-44.57 81.73-34.43L81.73-34.43Q86.54-27.56 86.54-18.10L86.54-18.10L92.73-18.10L92.73-48.87Q87.91-48.87 87.23-45.60L87.23-45.60Q87.05-44.40 87.05-42.85L87.05-42.85Q73.48-49.56 57.84-49.56L57.84-49.56Q37.90-49.56 27.41-38.90L27.41-38.90Q20.54-31.85 20.54-22.23L20.54-22.23Q20.54-7.79 36.70 2.01L36.70 2.01Q39.27 3.38 55.60 11.46L55.60 11.46Q70.73 18.85 74.34 26.07L74.34 26.07Q76.23 29.68 76.23 33.63L76.23 33.63Q76.23 45.66 65.05 50.13L65.05 50.13Q60.59 52.02 55.09 52.02L55.09 52.02Q34.63 52.02 28.10 31.91L28.10 31.91Q26.38 26.24 25.87 19.54L25.87 19.54L19.68 19.54L19.68 55.63Q23.98 55.63 24.84 53.05L24.84 53.05Q25.18 51.51 25.18 48.24L25.18 48.24Q38.59 57.01 56.63 57.01L56.63 57.01Q77.77 57.01 89.12 46.01L89.12 46.01Q97.02 38.27 97.02 27.10Z"/></g>
</svg>