<svg xmlns="http://www.w3.org/2000/svg" xmlns:xlink="http://www.w3.org/1999/xlink" version="1.1" width="1000" height="1000" viewBox="0 0 1000 1000" xml:space="preserve">
<desc>Created with Fabric.js 3.5.0</desc>
<defs>
</defs>
<rect x="0" y="0" width="100%" height="100%" fill="rgba(255,255,255,0)"/>
<g transform="matrix(0.2638 0 0 0.2638 499.9608 499.9608)" id="827710">
<g style="" vector-effect="non-scaling-stroke">
		<g transform="matrix(3.7795 0 0 3.7795 -0.012 -0.012)" id="circle817">
<circle style="stroke: none; stroke-width: 270.6985; stroke-dasharray: none; stroke-linecap: round; stroke-dashoffset: 0; stroke-linejoin: round; stroke-miterlimit: 4; is-custom-font: none; font-file-url: none; fill: rgb(255,255,255); fill-rule: nonzero; opacity: 1;" paint-order="stroke" cx="0" cy="0" r="300"/>
</g>
		<g transform="matrix(3.7795 0 0 3.7795 132.2786 66.1363)" id="path9688">
<path style="stroke: none; stroke-width: 4.2306; stroke-dasharray: none; stroke-linecap: round; stroke-dashoffset: 0; stroke-linejoin: miter; stroke-miterlimit: 4; is-custom-font: none; font-file-url: none; fill: rgb(0,0,0); fill-rule: nonzero; opacity: 1;" paint-order="stroke" transform=" translate(-386, 36.5)" d="m 210.99999 155.99997 v -280.00018 c 0 -38.78001 31.2198 -69.99981 69.9998 -69.99981 h 175.0002 v -35 l 105 70 l -105 69.999977 v -35.000167 h -175.0002 v 280.00018 z" stroke-linecap="round"/>
</g>
		<g transform="matrix(3.7795 0 0 3.7795 -0.0136 -0.0143)" id="path9701">
<path style="stroke: none; stroke-width: 315.8149; stroke-dasharray: none; stroke-linecap: round; stroke-dashoffset: 0; stroke-linejoin: round; stroke-miterlimit: 4; is-custom-font: none; font-file-url: none; fill: rgb(240,10,10); fill-rule: nonzero; opacity: 1;" paint-order="stroke" transform=" translate(-351.0001, 54.0001)" d="M 350.99979 -404.00016 A 349.99998 349.99998 0 0 0 1 -53.999827 A 349.99998 349.99998 0 0 0 350.99979 296 A 349.99998 349.99998 0 0 0 701.00019 -53.999827 A 349.99998 349.99998 0 0 0 350.99979 -404.00016 Z m 0 100.0001 A 250 250 0 0 1 601.00009 -53.999827 A 250 250 0 0 1 350.99979 195.99991 A 250 250 0 0 1 101.00009 -53.999827 A 250 250 0 0 1 350.99979 -304.00006 Z" stroke-linecap="round"/>
</g>
		<g transform="matrix(2.6725 -2.6725 2.6725 2.6725 -0.0082 -0.0062)" id="rect9703">
<rect style="stroke: none; stroke-width: 72.0997; stroke-dasharray: none; stroke-linecap: round; stroke-dashoffset: 0; stroke-linejoin: round; stroke-miterlimit: 4; is-custom-font: none; font-file-url: none; fill: rgb(240,10,10); fill-rule: nonzero; opacity: 1;" paint-order="stroke" x="-25" y="-340" rx="0" ry="0" width="50" height="680"/>
</g>
</g>
</g>
<g transform="matrix(1 0 0 1 520.3864 682.782)" style="" id="476470">
		
<path xml:space="preserve" font-family="Abhaya Libre" font-size="156" font-style="normal" font-weight="bold" style="stroke: none; stroke-width: 1; stroke-dasharray: none; stroke-linecap: butt; stroke-dashoffset: 0; stroke-linejoin: miter; stroke-miterlimit: 4; is-custom-font: none; font-file-url: none; fill: rgb(0,0,0); fill-rule: nonzero; opacity: 1; white-space: pre;" d="M-23.23-42.40L-23.23-38.29L-10.74-38.29L-10.74 23.56L-65.89-42.40L-90.11-42.40L-90.11-38.29L-77.92-38.29L-77.92 44.89L-90.11 44.89L-90.11 49.01L-58.73 49.01Q-59.64 45.20-62.84 44.89L-62.84 44.89L-71.68 44.89L-71.68-20.77L-12.57 49.77L-4.49 48.24L-4.49-38.29L7.69-38.29L7.69-42.40L-23.23-42.40ZM86.00 24.02L86.00 24.02Q86.00 11.07 71.68 2.24L71.68 2.24Q69.54 1.02 55.22-5.99L55.22-5.99Q42.12-12.54 38.92-18.79L38.92-18.79Q37.25-22.14 37.25-25.64L37.25-25.64Q37.25-34.78 46.08-38.13L46.08-38.13Q49.59-39.51 53.55-39.51L53.55-39.51Q66.04-39.51 72.44-30.52L72.44-30.52Q76.71-24.42 76.71-16.04L76.71-16.04L82.19-16.04L82.19-43.31Q77.92-43.31 77.31-40.42L77.31-40.42Q77.16-39.35 77.16-37.98L77.16-37.98Q65.13-43.92 51.26-43.92L51.26-43.92Q33.59-43.92 24.30-34.48L24.30-34.48Q18.21-28.23 18.21-19.70L18.21-19.70Q18.21-6.90 32.53 1.78L32.53 1.78Q34.81 3.00 49.28 10.16L49.28 10.16Q62.69 16.71 65.89 23.11L65.89 23.11Q67.56 26.31 67.56 29.81L67.56 29.81Q67.56 40.47 57.66 44.44L57.66 44.44Q53.70 46.11 48.83 46.11L48.83 46.11Q30.70 46.11 24.91 28.29L24.91 28.29Q23.38 23.26 22.93 17.32L22.93 17.32L17.44 17.32L17.44 49.31Q21.25 49.31 22.01 47.03L22.01 47.03Q22.32 45.65 22.32 42.76L22.32 42.76Q34.20 50.53 50.20 50.53L50.20 50.53Q68.94 50.53 78.99 40.78L78.99 40.78Q86.00 33.92 86.00 24.02Z"/></g>
</svg>