<svg xmlns="http://www.w3.org/2000/svg" xmlns:xlink="http://www.w3.org/1999/xlink" version="1.1" width="1000" height="1000" viewBox="0 0 1000 1000" xml:space="preserve">
<desc>Created with Fabric.js 3.5.0</desc>
<defs>
</defs>
<rect x="0" y="0" width="100%" height="100%" fill="#ffffff"/>
<g transform="matrix(3.33 0 0 3.33 499.9997 499.9995)" id="249890">
<g style="" vector-effect="non-scaling-stroke">
		<g transform="matrix(1 0 0 1 -0.1424 -0.179)">
<path style="stroke: rgb(195,25,38); stroke-width: 7; stroke-dasharray: none; stroke-linecap: butt; stroke-dashoffset: 0; stroke-linejoin: miter; stroke-miterlimit: 4; is-custom-font: none; font-file-url: none; fill: rgb(255,255,255); fill-rule: nonzero; opacity: 1;" transform=" translate(-102.3576, -136.321)" d="M 200.72262 255.16413 L 200.72262 17.47913 C 200.72262 10.0735308 194.649778 4.00038 187.24512 4.00038 L 17.47012 4.00038 C 10.0654668 4.00038 3.992625 10.0735314 3.992625 17.47913 L 3.992625 255.16413 C 3.992625 262.568633 10.065621 268.64163 17.47012 268.64163 L 187.24512 268.64163 C 194.649623 268.64163 200.72262 262.568633 200.72262 255.16413 Z" stroke-linecap="round"/>
</g>
		<g transform="matrix(1 0 0 1 -0.344 89.3)">
<path style="stroke: none; stroke-width: 1; stroke-dasharray: none; stroke-linecap: butt; stroke-dashoffset: 0; stroke-linejoin: miter; stroke-miterlimit: 4; is-custom-font: none; font-file-url: none; fill: rgb(0,0,0); fill-rule: nonzero; opacity: 1;" transform=" translate(-102.156, -225.8)" d="M 62.324 225.748 C 62.324 236.252 58.632 244.572 50.208 244.572 C 41.732 244.572 38.144 236.304 38.144 225.852 C 38.144 215.348 41.836 207.028 50.312 207.028 C 58.736 207.028 62.324 215.296 62.324 225.748 Z M 55.668 225.852 C 55.668 218.104 54.056 213.528 50.208 213.528 C 46.308 213.528 44.8 218 44.8 225.748 C 44.8 233.496 46.412 238.072 50.312 238.072 C 54.16 238.072 55.668 233.6 55.668 225.852 Z M 87.284 213.84 L 79.744 213.84 L 79.744 244 L 73.244 244 L 73.244 213.84 L 65.704 213.84 L 65.704 207.6 L 87.284 207.6 L 87.284 213.84 Z M 113.284 244 L 106.784 244 L 106.784 228.296 L 98.464 228.296 L 98.464 244 L 91.964 244 L 91.964 207.6 L 98.464 207.6 L 98.464 221.952 L 106.784 221.952 L 106.784 207.6 L 113.284 207.6 L 113.284 244 Z M 139.18 244 L 120.044 244 L 120.044 207.6 L 138.712 207.6 L 138.712 213.84 L 126.544 213.84 L 126.544 221.536 L 134.708 221.536 L 134.708 227.672 L 126.544 227.672 L 126.544 237.76 L 139.18 237.76 L 139.18 244 Z M 166.168 244 L 159.096 244 L 153.428 230.168 L 151.296 230.168 L 151.296 244 L 144.796 244 L 144.796 207.6 L 154.468 207.6 C 161.54 207.6 166.064 211.396 166.064 218.936 C 166.064 224.032 163.464 227.204 159.928 228.868 L 166.168 244 Z M 159.564 219.04 C 159.564 215.764 158.056 213.944 154.156 213.944 L 151.296 213.944 L 151.296 224.084 L 154.52 224.084 C 157.848 224.084 159.564 222.368 159.564 219.04 Z" stroke-linecap="round"/>
</g>
		<g transform="matrix(1 0 0 1 -0.575 -36.405)">
<circle style="stroke: none; stroke-width: 1; stroke-dasharray: none; stroke-linecap: butt; stroke-dashoffset: 0; stroke-linejoin: miter; stroke-miterlimit: 4; is-custom-font: none; font-file-url: none; fill: rgb(195,25,38); fill-rule: nonzero; opacity: 1;" cx="0" cy="0" r="74.875"/>
</g>
		<g transform="matrix(1 0 0 1 -0.575 -36.405)">
<circle style="stroke: none; stroke-width: 1; stroke-dasharray: none; stroke-linecap: butt; stroke-dashoffset: 0; stroke-linejoin: miter; stroke-miterlimit: 4; is-custom-font: none; font-file-url: none; fill: rgb(255,255,255); fill-rule: nonzero; opacity: 1;" cx="0" cy="0" r="62.396"/>
</g>
		<g transform="matrix(1 0 0 1 -0.5749 -35.1574)">
<path style="stroke: none; stroke-width: 1; stroke-dasharray: none; stroke-linecap: butt; stroke-dashoffset: 0; stroke-linejoin: miter; stroke-miterlimit: 4; is-custom-font: none; font-file-url: none; fill: rgb(0,0,0); fill-rule: nonzero; opacity: 1;" transform=" translate(-74.9251, -76.3425)" d="M 42.4792163 95.0613444 L 42.4792163 62.615416 C 42.4792163 44.6954676 57.0052063 30.1694775 74.9251473 30.1694775 C 92.8451281 30.1694775 107.371083 44.6954676 107.371083 62.615416 L 107.371083 122.515597 L 74.9251498 122.515597 L 74.9251498 95.0613444 L 59.9501032 95.0613444 L 51.2146597 103.796788 L 42.4792163 95.0613444 Z" stroke-linecap="round"/>
</g>
		<g transform="matrix(1 0 0 1 -0.5749 -25.1741)">
<path style="stroke: none; stroke-width: 1; stroke-dasharray: none; stroke-linecap: butt; stroke-dashoffset: 0; stroke-linejoin: miter; stroke-miterlimit: 4; is-custom-font: none; font-file-url: none; fill: rgb(255,255,255); fill-rule: nonzero; opacity: 1;" transform=" translate(-74.9251, -86.3259)" d="M 59.9501032 125.011423 L 59.9501032 62.6154135 C 59.9501032 54.3446681 66.6544068 47.6403644 74.9251498 47.6403644 C 83.1959101 47.6403644 89.9001963 54.3446681 89.9001963 62.6154135 L 89.9001963 125.011423 L 59.9501032 125.011423 Z" stroke-linecap="round"/>
</g>
		<g transform="matrix(1 0 0 1 -0.5748 -36.4054)">
<path style="stroke: rgb(195,25,38); stroke-width: 12.5; stroke-dasharray: none; stroke-linecap: butt; stroke-dashoffset: 0; stroke-linejoin: miter; stroke-miterlimit: 4; is-custom-font: none; font-file-url: none; fill: none; fill-rule: evenodd; opacity: 1;" transform=" translate(-74.9252, -75.0946)" d="M 22.8627958 23.032217 L 126.987527 127.156937" stroke-linecap="round"/>
</g>
</g>
</g>
<g transform="matrix(1 0 0 1 500 648.0195)" style="" id="395487">
		
<path xml:space="preserve" font-family="Abhaya Libre" font-size="145" font-style="normal" font-weight="bold" style="stroke: none; stroke-width: 1; stroke-dasharray: none; stroke-linecap: butt; stroke-dashoffset: 0; stroke-linejoin: miter; stroke-miterlimit: 4; is-custom-font: none; font-file-url: none; fill: rgb(0,0,0); fill-rule: nonzero; opacity: 1; white-space: pre;" d="M-21.59-39.41L-21.59-35.59L-9.98-35.59L-9.98 21.90L-61.24-39.41L-83.76-39.41L-83.76-35.59L-72.43-35.59L-72.43 41.73L-83.76 41.73L-83.76 45.55L-54.59 45.55Q-55.44 42.01-58.41 41.73L-58.41 41.73L-66.62 41.73L-66.62-19.30L-11.68 46.26L-4.18 44.84L-4.18-35.59L7.15-35.59L7.15-39.41L-21.59-39.41ZM79.93 22.33L79.93 22.33Q79.93 10.29 66.62 2.08L66.62 2.08Q64.64 0.95 51.33-5.57L51.33-5.57Q39.15-11.66 36.18-17.46L36.18-17.46Q34.62-20.58 34.62-23.83L34.62-23.83Q34.62-32.33 42.83-35.45L42.83-35.45Q46.09-36.72 49.77-36.72L49.77-36.72Q61.38-36.72 67.33-28.37L67.33-28.37Q71.30-22.70 71.30-14.91L71.30-14.91L76.39-14.91L76.39-40.26Q72.43-40.26 71.86-37.57L71.86-37.57Q71.72-36.58 71.72-35.30L71.72-35.30Q60.53-40.83 47.65-40.83L47.65-40.83Q31.22-40.83 22.59-32.05L22.59-32.05Q16.92-26.24 16.92-18.31L16.92-18.31Q16.92-6.42 30.23 1.65L30.23 1.65Q32.36 2.79 45.81 9.44L45.81 9.44Q58.27 15.53 61.24 21.48L61.24 21.48Q62.80 24.45 62.80 27.71L62.80 27.71Q62.80 37.62 53.60 41.30L53.60 41.30Q49.91 42.86 45.38 42.86L45.38 42.86Q28.53 42.86 23.15 26.29L23.15 26.29Q21.74 21.62 21.31 16.10L21.31 16.10L16.21 16.10L16.21 45.83Q19.75 45.83 20.46 43.71L20.46 43.71Q20.74 42.44 20.74 39.74L20.74 39.74Q31.79 46.97 46.66 46.97L46.66 46.97Q64.07 46.97 73.42 37.90L73.42 37.90Q79.93 31.53 79.93 22.33Z"/></g>
</svg>