<svg xmlns="http://www.w3.org/2000/svg" width="858" height="1242" viewBox="0 0 858 1242">
  <g fill="none">
    <rect width="858" height="1242" fill="#000" rx="33"/>
    <rect width="850" height="1234" x="4" y="4" fill="#FFF" rx="30"/>
    <path fill="#003F87" d="M43,32 L815,32 C820.522847,32 825,36.4771525 825,42 L825,1200 C825,1205.52285 820.522847,1210 815,1210 L43,1210 C37.4771525,1210 33,1205.52285 33,1200 L33,42 C33,36.4771525 37.4771525,32 43,32 Z"/>
    <g fill="#FFF" transform="translate(199 180)">
      <path d="M245.4999,368 C342.1729,368 419.9998,446.05015 419.9998,543.00015 L419.999,593.999 L420,594 L472.4759,579.568541 C485.7056,575.930071 496.4688,590.499641 489.1032,602.075861 L381,766 L272.8969,602.075871 C265.5313,590.499651 276.2945,575.930081 289.5241,579.568551 L342,594 L342,543.00015 C342,489.26216 298.9609,445.99988 245.4999,445.99988 C192.0389,445.99988 148.9999,489.26216 148.9999,543.00015 L148.9999,882.999909 L71,882.999909 L71,543.00015 C71,446.05015 148.8269,368 245.4999,368 Z"/>
      <path d="M149.499773,57.6258918 L149.499973,465.625701 L201.975873,451.194242 C215.205573,447.555772 225.968773,462.125342 218.603173,473.701562 L110.499973,637.625701 L2.39687304,473.701572 C-4.96872696,462.125352 5.79447304,447.555782 19.024073,451.194252 L71.499973,465.625701 L71.499973,57.6258918 C71.499973,3.88790179 149.499773,-39.3241082 149.499773,57.6258918 Z" transform="rotate(180 110.5 318.813)"/>
    </g>
  </g>
</svg>
