<svg xmlns="http://www.w3.org/2000/svg" xmlns:xlink="http://www.w3.org/1999/xlink" width="82" zoomAndPan="magnify" viewBox="0 0 61.5 76.499999" height="102" preserveAspectRatio="xMidYMid meet" version="1.0"><defs><clipPath id="1220f29ef2"><path d="M 0 0.0585938 L 61.003906 0.0585938 L 61.003906 75.945312 L 0 75.945312 Z M 0 0.0585938 " clip-rule="nonzero"/></clipPath><clipPath id="42a2bdb6de"><path d="M 7 34.460938 L 40 34.460938 L 40 70.460938 L 7 70.460938 Z M 7 34.460938 " clip-rule="nonzero"/></clipPath><clipPath id="7797dd7272"><path d="M 39.226562 20.734375 L 50.816406 20.734375 L 50.816406 71.609375 L 39.226562 71.609375 Z M 39.226562 20.734375 " clip-rule="nonzero"/></clipPath><clipPath id="c3e8f9e2a7"><path d="M 10.457031 2.675781 L 50.957031 2.675781 L 50.957031 43.175781 L 10.457031 43.175781 Z M 10.457031 2.675781 " clip-rule="nonzero"/></clipPath><clipPath id="d83b031478"><path d="M 0 0.0585938 L 61.003906 0.0585938 L 61.003906 75.945312 L 0 75.945312 Z M 0 0.0585938 " clip-rule="nonzero"/></clipPath></defs><g clip-path="url(#1220f29ef2)"><path fill="#0b4696" d="M 0 0.0585938 L 61.402344 0.0585938 L 61.402344 76.453125 L 0 76.453125 Z M 0 0.0585938 " fill-opacity="1" fill-rule="nonzero"/></g><g clip-path="url(#42a2bdb6de)"><path fill="#ffffff" d="M 20.6875 70.007812 L 33.871094 55.992188 L 24.53125 55.992188 L 24.53125 43.035156 L 39.316406 43.035156 L 39.316406 34.914062 L 19.800781 34.914062 L 19.800781 34.9375 C 17.382812 35.160156 15.492188 37.191406 15.492188 39.667969 C 15.492188 39.757812 15.496094 39.851562 15.5 39.945312 L 15.5 55.992188 L 7.066406 55.992188 Z M 20.6875 70.007812 " fill-opacity="1" fill-rule="nonzero"/></g><g clip-path="url(#7797dd7272)"><path fill="#ffffff" d="M 39.226562 20.734375 L 50.757812 20.734375 L 50.757812 71.472656 L 39.226562 71.472656 Z M 39.226562 20.734375 " fill-opacity="1" fill-rule="nonzero"/></g><g clip-path="url(#c3e8f9e2a7)"><path fill="#ffffff" d="M 37.230469 7.957031 L 24.839844 7.957031 L 24.839844 3.394531 C 24.835938 3.121094 24.714844 2.921875 24.464844 2.804688 C 24.222656 2.691406 23.992188 2.714844 23.78125 2.882812 L 10.738281 13.320312 C 10.660156 13.378906 10.601562 13.457031 10.558594 13.546875 C 10.515625 13.632812 10.492188 13.730469 10.492188 13.828125 C 10.492188 13.925781 10.515625 14.019531 10.558594 14.109375 C 10.601562 14.199219 10.660156 14.273438 10.738281 14.335938 L 23.78125 24.769531 C 23.898438 24.867188 24.035156 24.914062 24.1875 24.914062 C 24.285156 24.917969 24.378906 24.894531 24.464844 24.847656 C 24.714844 24.730469 24.835938 24.535156 24.839844 24.261719 L 24.839844 19.046875 L 33.316406 19.046875 C 33.703125 19.046875 34.082031 19.082031 34.460938 19.15625 C 34.839844 19.234375 35.207031 19.34375 35.5625 19.492188 C 35.917969 19.640625 36.257812 19.820312 36.578125 20.035156 C 36.898438 20.25 37.195312 20.492188 37.464844 20.765625 C 37.738281 21.035156 37.984375 21.332031 38.195312 21.652344 C 38.410156 21.972656 38.589844 22.3125 38.738281 22.667969 C 38.886719 23.023438 38.996094 23.390625 39.074219 23.769531 C 39.148438 24.148438 39.1875 24.527344 39.1875 24.914062 L 39.1875 42.523438 C 39.1875 42.703125 39.25 42.855469 39.375 42.984375 C 39.503906 43.113281 39.65625 43.175781 39.839844 43.175781 L 50.273438 43.175781 C 50.453125 43.175781 50.605469 43.113281 50.734375 42.984375 C 50.859375 42.855469 50.925781 42.703125 50.925781 42.523438 L 50.925781 21.652344 C 50.925781 20.753906 50.835938 19.863281 50.660156 18.980469 C 50.484375 18.101562 50.226562 17.242188 49.882812 16.414062 C 49.539062 15.582031 49.117188 14.792969 48.617188 14.042969 C 48.117188 13.296875 47.550781 12.605469 46.914062 11.96875 C 46.277344 11.332031 45.585938 10.765625 44.839844 10.265625 C 44.089844 9.765625 43.300781 9.34375 42.46875 9 C 41.640625 8.65625 40.78125 8.398438 39.902344 8.222656 C 39.019531 8.046875 38.128906 7.957031 37.230469 7.957031 Z M 37.230469 7.957031 " fill-opacity="1" fill-rule="nonzero"/></g><g clip-path="url(#d83b031478)"><path stroke-linecap="butt" transform="matrix(0.75, 0, 0, 0.75, -0.000000000000005329, 0.0604847)" fill="none" stroke-linejoin="miter" d="M 0.000000000000007105 -0.00252132 L 82.000006 -0.00252132 L 82.000006 101.997486 L 0.000000000000007105 101.997486 L 0.000000000000007105 -0.00252132 " stroke="#ffffff" stroke-width="2" stroke-opacity="1" stroke-miterlimit="4"/></g></svg>