<svg xmlns="http://www.w3.org/2000/svg" xmlns:xlink="http://www.w3.org/1999/xlink" width="793" zoomAndPan="magnify" viewBox="0 0 595.5 842.249979" height="1122" preserveAspectRatio="xMidYMid meet" version="1.0"><defs><g/><clipPath id="be35658b99"><path d="M 141.574219 238.0625 L 450.367188 238.0625 L 450.367188 603.785156 L 141.574219 603.785156 Z M 141.574219 238.0625 " clip-rule="nonzero"/></clipPath><clipPath id="e674ae7ed3"><path d="M 141.574219 238.0625 L 450.558594 238.0625 L 450.558594 604.042969 L 141.574219 604.042969 Z M 141.574219 238.0625 " clip-rule="nonzero"/></clipPath><clipPath id="5b2b14d8e9"><path d="M 190 357 L 403 357 L 403 489 L 190 489 Z M 190 357 " clip-rule="nonzero"/></clipPath><clipPath id="c9ab8b7cc8"><path d="M 219.125 312.835938 L 426.699219 422.460938 L 368.417969 532.816406 L 160.84375 423.191406 Z M 219.125 312.835938 " clip-rule="nonzero"/></clipPath><clipPath id="21e6443bc8"><path d="M 190.234375 367.542969 L 303.207031 357.238281 L 281.003906 399.28125 L 402.054688 463.210938 L 388.675781 488.542969 L 267.625 424.613281 L 245.421875 466.65625 L 190.234375 367.542969 " clip-rule="nonzero"/></clipPath></defs><g clip-path="url(#be35658b99)"><path fill="#ffffff" d="M 141.574219 238.0625 L 451.285156 238.0625 L 451.285156 603.582031 L 141.574219 603.582031 Z M 141.574219 238.0625 " fill-opacity="1" fill-rule="nonzero"/></g><g clip-path="url(#e674ae7ed3)"><path stroke-linecap="butt" transform="matrix(0.750446, 0, 0, 0.750515, 141.573108, 238.063216)" fill="none" stroke-linejoin="miter" d="M 0.00148066 -0.000954318 L 411.73599 -0.000954318 L 411.73599 487.638482 L 0.00148066 487.638482 L 0.00148066 -0.000954318 " stroke="#000000" stroke-width="20" stroke-opacity="1" stroke-miterlimit="4"/></g><g clip-path="url(#5b2b14d8e9)"><g clip-path="url(#c9ab8b7cc8)"><g clip-path="url(#21e6443bc8)"><path fill="#000000" d="M 219.125 312.835938 L 424.074219 421.070312 L 365.792969 531.425781 L 160.84375 423.191406 Z M 219.125 312.835938 " fill-opacity="1" fill-rule="nonzero"/></g></g></g><g fill="#000000" fill-opacity="1"><g transform="translate(186.64045, 316.309333)"><g><path d="M 7.421875 0 L 7.421875 -57.09375 L 18.703125 -57.09375 L 18.703125 -33.78125 L 19.953125 -33.78125 L 39.015625 -57.09375 L 50.578125 -57.09375 L 50.578125 -56.125 L 29.5625 -30.15625 L 52.765625 -0.96875 L 52.765625 0 L 40 0 L 19.953125 -24.640625 L 18.703125 -24.640625 L 18.703125 0 Z M 7.421875 0 "/></g></g></g><g fill="#000000" fill-opacity="1"><g transform="translate(239.406049, 316.309333)"><g><path d="M 18.703125 -25.078125 L 18.703125 -9.453125 L 45.96875 -9.453125 L 45.96875 0 L 7.421875 0 L 7.421875 -57.09375 L 45.34375 -57.09375 L 45.34375 -47.640625 L 18.703125 -47.640625 L 18.703125 -34.296875 L 41.984375 -34.296875 L 41.984375 -25.078125 Z M 18.703125 -25.078125 "/></g></g></g><g fill="#000000" fill-opacity="1"><g transform="translate(288.500319, 316.309333)"><g><path d="M 18.703125 -25.078125 L 18.703125 -9.453125 L 45.96875 -9.453125 L 45.96875 0 L 7.421875 0 L 7.421875 -57.09375 L 45.34375 -57.09375 L 45.34375 -47.640625 L 18.703125 -47.640625 L 18.703125 -34.296875 L 41.984375 -34.296875 L 41.984375 -25.078125 Z M 18.703125 -25.078125 "/></g></g></g><g fill="#000000" fill-opacity="1"><g transform="translate(337.594588, 316.309333)"><g><path d="M 29.484375 -57.09375 C 33.578125 -57.09375 37.070312 -56.34375 39.96875 -54.84375 C 42.875 -53.351562 45.066406 -51.257812 46.546875 -48.5625 C 48.035156 -45.863281 48.78125 -42.734375 48.78125 -39.171875 C 48.78125 -35.609375 48.035156 -32.484375 46.546875 -29.796875 C 45.066406 -27.117188 42.875 -25.03125 39.96875 -23.53125 C 37.070312 -22.03125 33.578125 -21.28125 29.484375 -21.28125 L 18.703125 -21.28125 L 18.703125 0 L 7.421875 0 L 7.421875 -57.09375 Z M 28 -30.234375 C 34.28125 -30.234375 37.421875 -33.210938 37.421875 -39.171875 C 37.421875 -45.160156 34.28125 -48.15625 28 -48.15625 L 18.703125 -48.15625 L 18.703125 -30.234375 Z M 28 -30.234375 "/></g></g></g><g fill="#000000" fill-opacity="1"><g transform="translate(389.762931, 316.309333)"><g/></g></g><g fill="#000000" fill-opacity="1"><g transform="translate(183.152183, 582.73422)"><g><path d="M 22.6875 -69.234375 L 22.6875 -11.453125 L 53.796875 -11.453125 L 53.796875 0 L 9 0 L 9 -69.234375 Z M 22.6875 -69.234375 "/></g></g></g><g fill="#000000" fill-opacity="1"><g transform="translate(239.218422, 582.73422)"><g><path d="M 22.6875 -30.40625 L 22.6875 -11.453125 L 55.734375 -11.453125 L 55.734375 0 L 9 0 L 9 -69.234375 L 54.984375 -69.234375 L 54.984375 -57.78125 L 22.6875 -57.78125 L 22.6875 -41.578125 L 50.90625 -41.578125 L 50.90625 -30.40625 Z M 22.6875 -30.40625 "/></g></g></g><g fill="#000000" fill-opacity="1"><g transform="translate(298.741448, 582.73422)"><g><path d="M 52.890625 -69.234375 L 52.890625 -57.78125 L 22.6875 -57.78125 L 22.6875 -39.453125 L 50.109375 -39.453125 L 50.109375 -28.125 L 22.6875 -28.125 L 22.6875 0 L 9 0 L 9 -69.234375 Z M 52.890625 -69.234375 "/></g></g></g><g fill="#000000" fill-opacity="1"><g transform="translate(354.712981, 582.73422)"><g><path d="M 55.5 -69.234375 L 55.5 -57.71875 L 35.515625 -57.71875 L 35.515625 0 L 21.875 0 L 21.875 -57.71875 L 1.890625 -57.71875 L 1.890625 -69.234375 Z M 55.5 -69.234375 "/></g></g></g></svg>