<svg xmlns="http://www.w3.org/2000/svg" xmlns:xlink="http://www.w3.org/1999/xlink" version="1.1" width="1000" height="1000" viewBox="0 0 1000 1000" xml:space="preserve">
<desc>Created with Fabric.js 3.5.0</desc>
<defs>
</defs>
<rect x="0" y="0" width="100%" height="100%" fill="rgba(255,255,255,0)"/>
<g transform="matrix(2.9707 0 0 3.6339 499.9967 496.0274)" id="182203">
<g style="" vector-effect="non-scaling-stroke">
		<g transform="matrix(1 0 0 1 -0.1424 -0.179)">
<path style="stroke: rgb(195,25,38); stroke-width: 7; stroke-dasharray: none; stroke-linecap: butt; stroke-dashoffset: 0; stroke-linejoin: miter; stroke-miterlimit: 4; is-custom-font: none; font-file-url: none; fill: rgb(255,255,255); fill-rule: nonzero; opacity: 1;" transform=" translate(-102.3576, -136.321)" d="M 200.72262 255.16413 L 200.72262 17.47913 C 200.72262 10.0735308 194.649778 4.00038 187.24512 4.00038 L 17.47012 4.00038 C 10.0654668 4.00038 3.992625 10.0735314 3.992625 17.47913 L 3.992625 255.16413 C 3.992625 262.568633 10.065621 268.64163 17.47012 268.64163 L 187.24512 268.64163 C 194.649623 268.64163 200.72262 262.568633 200.72262 255.16413 Z" stroke-linecap="round"/>
</g>
		<g transform="matrix(1 0 0 1 -0.344 89.3)">
<path style="stroke: none; stroke-width: 1; stroke-dasharray: none; stroke-linecap: butt; stroke-dashoffset: 0; stroke-linejoin: miter; stroke-miterlimit: 4; is-custom-font: none; font-file-url: none; fill: rgb(0,0,0); fill-rule: nonzero; opacity: 1;" transform=" translate(-102.156, -225.8)" d="M 62.324 225.748 C 62.324 236.252 58.632 244.572 50.208 244.572 C 41.732 244.572 38.144 236.304 38.144 225.852 C 38.144 215.348 41.836 207.028 50.312 207.028 C 58.736 207.028 62.324 215.296 62.324 225.748 Z M 55.668 225.852 C 55.668 218.104 54.056 213.528 50.208 213.528 C 46.308 213.528 44.8 218 44.8 225.748 C 44.8 233.496 46.412 238.072 50.312 238.072 C 54.16 238.072 55.668 233.6 55.668 225.852 Z M 87.284 213.84 L 79.744 213.84 L 79.744 244 L 73.244 244 L 73.244 213.84 L 65.704 213.84 L 65.704 207.6 L 87.284 207.6 L 87.284 213.84 Z M 113.284 244 L 106.784 244 L 106.784 228.296 L 98.464 228.296 L 98.464 244 L 91.964 244 L 91.964 207.6 L 98.464 207.6 L 98.464 221.952 L 106.784 221.952 L 106.784 207.6 L 113.284 207.6 L 113.284 244 Z M 139.18 244 L 120.044 244 L 120.044 207.6 L 138.712 207.6 L 138.712 213.84 L 126.544 213.84 L 126.544 221.536 L 134.708 221.536 L 134.708 227.672 L 126.544 227.672 L 126.544 237.76 L 139.18 237.76 L 139.18 244 Z M 166.168 244 L 159.096 244 L 153.428 230.168 L 151.296 230.168 L 151.296 244 L 144.796 244 L 144.796 207.6 L 154.468 207.6 C 161.54 207.6 166.064 211.396 166.064 218.936 C 166.064 224.032 163.464 227.204 159.928 228.868 L 166.168 244 Z M 159.564 219.04 C 159.564 215.764 158.056 213.944 154.156 213.944 L 151.296 213.944 L 151.296 224.084 L 154.52 224.084 C 157.848 224.084 159.564 222.368 159.564 219.04 Z" stroke-linecap="round"/>
</g>
		<g transform="matrix(1 0 0 1 -0.575 -36.405)">
<circle style="stroke: none; stroke-width: 1; stroke-dasharray: none; stroke-linecap: butt; stroke-dashoffset: 0; stroke-linejoin: miter; stroke-miterlimit: 4; is-custom-font: none; font-file-url: none; fill: rgb(195,25,38); fill-rule: nonzero; opacity: 1;" cx="0" cy="0" r="74.875"/>
</g>
		<g transform="matrix(1 0 0 1 -0.575 -36.405)">
<circle style="stroke: none; stroke-width: 1; stroke-dasharray: none; stroke-linecap: butt; stroke-dashoffset: 0; stroke-linejoin: miter; stroke-miterlimit: 4; is-custom-font: none; font-file-url: none; fill: rgb(255,255,255); fill-rule: nonzero; opacity: 1;" cx="0" cy="0" r="62.396"/>
</g>
		<g transform="matrix(1 0 0 1 -0.5749 -35.1574)">
<path style="stroke: none; stroke-width: 1; stroke-dasharray: none; stroke-linecap: butt; stroke-dashoffset: 0; stroke-linejoin: miter; stroke-miterlimit: 4; is-custom-font: none; font-file-url: none; fill: rgb(0,0,0); fill-rule: nonzero; opacity: 1;" transform=" translate(-74.9251, -76.3425)" d="M 42.4792163 95.0613444 L 42.4792163 62.615416 C 42.4792163 44.6954676 57.0052063 30.1694775 74.9251473 30.1694775 C 92.8451281 30.1694775 107.371083 44.6954676 107.371083 62.615416 L 107.371083 122.515597 L 74.9251498 122.515597 L 74.9251498 95.0613444 L 59.9501032 95.0613444 L 51.2146597 103.796788 L 42.4792163 95.0613444 Z" stroke-linecap="round"/>
</g>
		<g transform="matrix(1 0 0 1 -0.5749 -25.1741)">
<path style="stroke: none; stroke-width: 1; stroke-dasharray: none; stroke-linecap: butt; stroke-dashoffset: 0; stroke-linejoin: miter; stroke-miterlimit: 4; is-custom-font: none; font-file-url: none; fill: rgb(255,255,255); fill-rule: nonzero; opacity: 1;" transform=" translate(-74.9251, -86.3259)" d="M 59.9501032 125.011423 L 59.9501032 62.6154135 C 59.9501032 54.3446681 66.6544068 47.6403644 74.9251498 47.6403644 C 83.1959101 47.6403644 89.9001963 54.3446681 89.9001963 62.6154135 L 89.9001963 125.011423 L 59.9501032 125.011423 Z" stroke-linecap="round"/>
</g>
		<g transform="matrix(1 0 0 1 -0.5748 -36.4054)">
<path style="stroke: rgb(195,25,38); stroke-width: 12.5; stroke-dasharray: none; stroke-linecap: butt; stroke-dashoffset: 0; stroke-linejoin: miter; stroke-miterlimit: 4; is-custom-font: none; font-file-url: none; fill: none; fill-rule: evenodd; opacity: 1;" transform=" translate(-74.9252, -75.0946)" d="M 22.8627958 23.032217 L 126.987527 127.156937" stroke-linecap="round"/>
</g>
</g>
</g>
<g transform="matrix(4.6214 0 0 4.6214 505.4914 820.002)" id="277049">
<path style="stroke: none; stroke-width: 1; stroke-dasharray: none; stroke-linecap: butt; stroke-dashoffset: 0; stroke-linejoin: miter; stroke-miterlimit: 4; is-custom-font: none; font-file-url: none; fill: rgb(255,255,255); fill-rule: nonzero; opacity: 1;" vector-effect="non-scaling-stroke" transform=" translate(-43.5, -25)" d="M 87 0 H 0 V 50 H 87 V 0 Z" stroke-linecap="round"/>
</g>
<g transform="matrix(1 0 0 1 500 593.2914)" style="" id="660702">
		
<path xml:space="preserve" font-family="Abhaya Libre" font-size="125" font-style="normal" font-weight="bold" style="stroke: none; stroke-width: 1; stroke-dasharray: none; stroke-linecap: butt; stroke-dashoffset: 0; stroke-linejoin: miter; stroke-miterlimit: 4; is-custom-font: none; font-file-url: none; fill: rgb(0,0,0); fill-rule: nonzero; opacity: 1; white-space: pre;" d="M-18.62-33.97L-18.62-30.68L-8.61-30.68L-8.61 18.88L-52.80-33.97L-72.20-33.97L-72.20-30.68L-62.44-30.68L-62.44 35.97L-72.20 35.97L-72.20 39.27L-47.06 39.27Q-47.79 36.22-50.35 35.97L-50.35 35.97L-57.43 35.97L-57.43-16.64L-10.07 39.88L-3.60 38.66L-3.60-30.68L6.16-30.68L6.16-33.97L-18.62-33.97ZM68.91 19.25L68.91 19.25Q68.91 8.87 57.43 1.79L57.43 1.79Q55.73 0.82 44.25-4.80L44.25-4.80Q33.75-10.05 31.19-15.05L31.19-15.05Q29.85-17.74 29.85-20.55L29.85-20.55Q29.85-27.87 36.93-30.56L36.93-30.56Q39.73-31.66 42.91-31.66L42.91-31.66Q52.92-31.66 58.04-24.45L58.04-24.45Q61.46-19.57 61.46-12.86L61.46-12.86L65.86-12.86L65.86-34.71Q62.44-34.71 61.95-32.39L61.95-32.39Q61.83-31.53 61.83-30.43L61.83-30.43Q52.19-35.20 41.08-35.20L41.08-35.20Q26.92-35.20 19.47-27.63L19.47-27.63Q14.59-22.62 14.59-15.79L14.59-15.79Q14.59-5.53 26.06 1.43L26.06 1.43Q27.89 2.40 39.49 8.14L39.49 8.14Q50.23 13.39 52.80 18.52L52.80 18.52Q54.14 21.08 54.14 23.89L54.14 23.89Q54.14 32.43 46.20 35.61L46.20 35.61Q43.03 36.95 39.12 36.95L39.12 36.95Q24.60 36.95 19.96 22.67L19.96 22.67Q18.74 18.64 18.37 13.88L18.37 13.88L13.98 13.88L13.98 39.51Q17.03 39.51 17.64 37.68L17.64 37.68Q17.88 36.58 17.88 34.26L17.88 34.26Q27.40 40.49 40.22 40.49L40.22 40.49Q55.24 40.49 63.29 32.68L63.29 32.68Q68.91 27.18 68.91 19.25Z"/></g>
<g transform="matrix(1 0 0 1 500 813.9702)" style="" id="545085">
		
<path xml:space="preserve" font-family="Lato" font-size="99" font-style="normal" font-weight="bold" style="stroke: none; stroke-width: 1; stroke-dasharray: none; stroke-linecap: butt; stroke-dashoffset: 0; stroke-linejoin: miter; stroke-miterlimit: 4; is-custom-font: none; font-file-url: none; fill: rgb(0,0,0); fill-rule: nonzero; opacity: 1; white-space: pre;" d="M-72.27-141.16L-72.27-141.16Q-71.38-141.16-70.78-141.09Q-70.19-141.01-69.72-140.79Q-69.25-140.57-68.81-140.15Q-68.36-139.72-67.81-139.03L-67.81-139.03L-30.24-91.17Q-30.44-92.90-30.52-94.56Q-30.59-96.21-30.59-97.65L-30.59-97.65L-30.59-141.16L-18.86-141.16L-18.86-69.58L-25.74-69.58Q-27.32-69.58-28.36-70.08Q-29.40-70.57-30.39-71.86L-30.39-71.86L-67.81-119.53Q-67.67-117.94-67.59-116.39Q-67.52-114.83-67.52-113.54L-67.52-113.54L-67.52-69.58L-79.25-69.58L-79.25-141.16L-72.27-141.16ZM64.25-105.37L64.25-105.37Q64.25-97.50 61.63-90.79Q59.00-84.09 54.25-79.19Q49.50-74.29 42.82-71.54Q36.14-68.79 28.02-68.79L28.02-68.79Q19.90-68.79 13.19-71.54Q6.48-74.29 1.71-79.19Q-3.07-84.09-5.69-90.79Q-8.32-97.50-8.32-105.37L-8.32-105.37Q-8.32-113.24-5.69-119.95Q-3.07-126.66 1.71-131.56Q6.48-136.46 13.19-139.20Q19.90-141.95 28.02-141.95L28.02-141.95Q36.14-141.95 42.82-139.18Q49.50-136.41 54.25-131.53Q59.00-126.66 61.63-119.95Q64.25-113.24 64.25-105.37ZM50.59-105.37L50.59-105.37Q50.59-111.26 49.03-115.94Q47.47-120.62 44.55-123.88Q41.63-127.15 37.45-128.88Q33.26-130.62 28.02-130.62L28.02-130.62Q22.77-130.62 18.56-128.88Q14.36-127.15 11.41-123.88Q8.46-120.62 6.88-115.94Q5.30-111.26 5.30-105.37L5.30-105.37Q5.30-99.48 6.88-94.80Q8.46-90.13 11.41-86.88Q14.36-83.64 18.56-81.91Q22.77-80.18 28.02-80.18L28.02-80.18Q33.26-80.18 37.45-81.91Q41.63-83.64 44.55-86.88Q47.47-90.13 49.03-94.80Q50.59-99.48 50.59-105.37Z"/><path xml:space="preserve" font-family="Lato" font-size="99" font-style="normal" font-weight="bold" style="stroke: none; stroke-width: 1; stroke-dasharray: none; stroke-linecap: butt; stroke-dashoffset: 0; stroke-linejoin: miter; stroke-miterlimit: 4; is-custom-font: none; font-file-url: none; fill: rgb(0,0,0); fill-rule: nonzero; opacity: 1; white-space: pre;" d="M-0.10 20.36L-0.10 20.36Q3.76 20.36 6.81 19.07Q9.85 17.78 11.95 15.46Q14.06 13.13 15.17 9.81Q16.29 6.50 16.29 2.39L16.29 2.39L16.29-40.48L29.60-40.48L29.60 2.39Q29.60 8.78 27.55 14.20Q25.49 19.62 21.63 23.55Q17.77 27.49 12.28 29.69Q6.78 31.89-0.10 31.89L-0.10 31.89Q-6.98 31.89-12.47 29.69Q-17.97 27.49-21.80 23.55Q-25.64 19.62-27.70 14.20Q-29.75 8.78-29.75 2.39L-29.75 2.39L-29.75-40.48L-16.43-40.48L-16.43 2.34Q-16.43 6.45-15.32 9.77Q-14.21 13.08-12.13 15.43Q-10.05 17.78-7.00 19.07Q-3.96 20.36-0.10 20.36Z"/><path xml:space="preserve" font-family="Lato" font-size="99" font-style="normal" font-weight="bold" style="stroke: none; stroke-width: 1; stroke-dasharray: none; stroke-linecap: butt; stroke-dashoffset: 0; stroke-linejoin: miter; stroke-miterlimit: 4; is-custom-font: none; font-file-url: none; fill: rgb(0,0,0); fill-rule: nonzero; opacity: 1; white-space: pre;" d="M-133.45 60.21L-76.97 60.21L-76.97 71.15L-98.50 71.15L-98.50 131.78L-111.82 131.78L-111.82 71.15L-133.45 71.15L-133.45 60.21ZM-39.70 121.04L-39.70 121.04Q-35.84 121.04-32.79 119.75Q-29.75 118.47-27.65 116.14Q-25.54 113.81-24.43 110.50Q-23.31 107.18-23.31 103.07L-23.31 103.07L-23.31 60.21L-10.00 60.21L-10.00 103.07Q-10.00 109.46-12.05 114.88Q-14.11 120.30-17.97 124.23Q-21.83 128.17-27.32 130.37Q-32.82 132.57-39.70 132.57L-39.70 132.57Q-46.58 132.57-52.07 130.37Q-57.57 128.17-61.40 124.23Q-65.24 120.30-67.30 114.88Q-69.35 109.46-69.35 103.07L-69.35 103.07L-69.35 60.21L-56.03 60.21L-56.03 103.02Q-56.03 107.13-54.92 110.45Q-53.81 113.76-51.73 116.12Q-49.65 118.47-46.60 119.75Q-43.56 121.04-39.70 121.04ZM23.02 103.82L17.33 103.82L17.33 131.78L4.01 131.78L4.01 60.21L25.84 60.21Q33.17 60.21 38.39 61.72Q43.61 63.23 46.95 65.95Q50.29 68.67 51.85 72.46Q53.41 76.24 53.41 80.80L53.41 80.80Q53.41 84.41 52.35 87.63Q51.28 90.85 49.28 93.47Q47.27 96.09 44.33 98.07Q41.38 100.05 37.62 101.24L37.62 101.24Q40.14 102.68 41.98 105.35L41.98 105.35L59.90 131.78L47.92 131.78Q46.18 131.78 44.97 131.09Q43.76 130.40 42.92 129.11L42.92 129.11L27.87 106.19Q27.03 104.90 26.01 104.36Q25.00 103.82 23.02 103.82L23.02 103.82ZM17.33 70.50L17.33 94.26L25.64 94.26Q29.40 94.26 32.20 93.32Q35.00 92.38 36.80 90.72Q38.61 89.06 39.50 86.79Q40.39 84.51 40.39 81.79L40.39 81.79Q40.39 76.34 36.80 73.42Q33.21 70.50 25.84 70.50L25.84 70.50L17.33 70.50ZM75.39 60.21L75.39 60.21Q76.28 60.21 76.87 60.28Q77.47 60.35 77.94 60.58Q78.41 60.80 78.85 61.22Q79.30 61.64 79.84 62.33L79.84 62.33L117.41 110.20Q117.22 108.47 117.14 106.81Q117.07 105.15 117.07 103.72L117.07 103.72L117.07 60.21L128.80 60.21L128.80 131.78L121.92 131.78Q120.33 131.78 119.30 131.29Q118.26 130.79 117.27 129.51L117.27 129.51L79.84 81.84Q79.99 83.42 80.07 84.98Q80.14 86.54 80.14 87.83L80.14 87.83L80.14 131.78L68.41 131.78L68.41 60.21L75.39 60.21Z"/></g>
</svg>