<svg xmlns="http://www.w3.org/2000/svg" xmlns:xlink="http://www.w3.org/1999/xlink" version="1.1" width="1000" height="1000" viewBox="0 0 1000 1000" xml:space="preserve">
<desc>Created with Fabric.js 3.5.0</desc>
<defs>
</defs>
<rect x="0" y="0" width="100%" height="100%" fill="rgba(255,255,255,0)"/>
<g transform="matrix(-4.6395 0 0 4.6395 500 500)" id="938531">
<g style="" vector-effect="non-scaling-stroke">
		<g transform="matrix(1.25 0 0 -1.25 -0.0001 -0.0003)" id="path13">
<path style="stroke: none; stroke-width: 1; stroke-dasharray: none; stroke-linecap: butt; stroke-dashoffset: 0; stroke-linejoin: miter; stroke-miterlimit: 4; is-custom-font: none; font-file-url: none; fill: rgb(255,255,255); fill-rule: nonzero; opacity: 1;" transform=" translate(41.483, 11.2767)" d="m -125.72225 -11.276012 c 0 46.965796 37.272989 84.239312 84.238893 84.239312 c 46.966896 0 84.239507 -37.273516 84.239507 -84.239312 c 0 -46.966904 -37.272611 -84.240688 -84.239507 -84.240688 c -46.965904 0 -84.238893 37.273784 -84.238893 84.240688 z" stroke-linecap="round"/>
</g>
		<g transform="matrix(1.25 0 0 -1.25 7.9705 3.8966)" id="path11">
<path style="stroke: none; stroke-width: 1; stroke-dasharray: none; stroke-linecap: butt; stroke-dashoffset: 0; stroke-linejoin: miter; stroke-miterlimit: 4; is-custom-font: none; font-file-url: none; fill: rgb(0,0,0); fill-rule: nonzero; opacity: 1;" transform=" translate(35.1066, 14.3942)" d="m -7.46825 -30.0785 l 8.69 1.728 c 0.853 0.169 1.772 0.013 2.553 -0.508 c 1.561 -1.043 1.981 -3.155 0.938 -4.716 l -0.141 -0.198 l -20.544 -28.527 l -20.5434 28.527 l -0.1416 0.198 c -1.0439 1.561 -0.624 3.673 0.9375 4.716 c 0.7813 0.521 1.7002 0.677 2.5528 0.508 l 8.6907 -1.728 l 0.002 29.574 c 0 9.3936 -7.6156 17.0078 -17.0091 17.0078 c -9.3926 0 -17.0079 -7.6142 -17.0079 -17.0078 l 0 -59.812 l -17.0078 0 l 0 59.812 c 0 18.7861 15.2295 34.0156 34.0157 34.0156 c 18.7871 0 34.0161 -15.2295 34.0161 -34.0156 l -0.001 -29.574 z" stroke-linecap="round"/>
</g>
		<g transform="matrix(1.25 0 0 -1.25 0 0)" id="path4232">
<path style="stroke: none; stroke-width: 1; stroke-dasharray: none; stroke-linecap: butt; stroke-dashoffset: 0; stroke-linejoin: miter; stroke-miterlimit: 4; is-custom-font: none; font-file-url: none; fill: rgb(192,17,30); fill-rule: nonzero; opacity: 1;" transform=" translate(41.483, 11.2769)" d="m -80.958961 -61.374916 c 10.8593 -8.568 24.5703 -13.681 39.475596 -13.681 c 35.224904 0 63.779904 28.555 63.779904 63.779904 c 0 14.905296 -5.113 28.616196 -13.682 39.475596 l -89.5735 -89.5745 z m -24.303699 50.098904 c 0 -14.906504 5.1132 -28.617904 13.680599 -39.475904 l 89.5736 89.5746 c -10.858 8.5673 -24.5688 13.6806 -39.474896 13.6806 c -35.224704 0 -63.779303 -28.5547 -63.779303 -63.779296 z m -21.2598 0 c 0 46.965796 38.073199 85.039096 85.039103 85.039096 c 46.966896 0 85.039896 -38.0733 85.039896 -85.039096 c 0 -46.966904 -38.073 -85.040904 -85.039896 -85.040904 c -46.965904 0 -85.039103 38.074 -85.039103 85.040904 z" stroke-linecap="round"/>
</g>
</g>
</g>
<g transform="matrix(1 0 0 1 500 921.7287)" style="" id="381912">
		
<path xml:space="preserve" font-family="Abhaya Libre" font-size="164" font-style="normal" font-weight="bold" style="stroke: none; stroke-width: 0; stroke-dasharray: none; stroke-linecap: butt; stroke-dashoffset: 0; stroke-linejoin: miter; stroke-miterlimit: 4; is-custom-font: none; font-file-url: none; fill: rgb(0,0,0); fill-rule: nonzero; opacity: 1; white-space: pre;" d="M-24.42-44.57L-24.42-40.25L-11.29-40.25L-11.29 24.77L-69.27-44.57L-94.73-44.57L-94.73-40.25L-81.92-40.25L-81.92 47.19L-94.73 47.19L-94.73 51.52L-61.74 51.52Q-62.70 47.52-66.06 47.19L-66.06 47.19L-75.35 47.19L-75.35-21.83L-13.21 52.32L-4.72 50.72L-4.72-40.25L8.09-40.25L8.09-44.57L-24.42-44.57ZM90.41 25.25L90.41 25.25Q90.41 11.64 75.35 2.35L75.35 2.35Q73.11 1.07 58.06-6.30L58.06-6.30Q44.28-13.18 40.92-19.75L40.92-19.75Q39.16-23.27 39.16-26.96L39.16-26.96Q39.16-36.57 48.45-40.09L48.45-40.09Q52.13-41.53 56.29-41.53L56.29-41.53Q69.43-41.53 76.15-32.08L76.15-32.08Q80.64-25.68 80.64-16.87L80.64-16.87L86.40-16.87L86.40-45.54Q81.92-45.54 81.28-42.49L81.28-42.49Q81.12-41.37 81.12-39.93L81.12-39.93Q68.47-46.18 53.89-46.18L53.89-46.18Q35.31-46.18 25.54-36.25L25.54-36.25Q19.14-29.68 19.14-20.71L19.14-20.71Q19.14-7.26 34.19 1.87L34.19 1.87Q36.60 3.15 51.81 10.68L51.81 10.68Q65.90 17.57 69.27 24.29L69.27 24.29Q71.03 27.66 71.03 31.34L71.03 31.34Q71.03 42.55 60.62 46.71L60.62 46.71Q56.46 48.48 51.33 48.48L51.33 48.48Q32.27 48.48 26.19 29.74L26.19 29.74Q24.58 24.45 24.10 18.21L24.10 18.21L18.34 18.21L18.34 51.84Q22.34 51.84 23.14 49.44L23.14 49.44Q23.46 48.00 23.46 44.95L23.46 44.95Q35.96 53.12 52.77 53.12L52.77 53.12Q72.47 53.12 83.04 42.87L83.04 42.87Q90.41 35.66 90.41 25.25Z"/></g>
</svg>