<svg xmlns="http://www.w3.org/2000/svg" xmlns:xlink="http://www.w3.org/1999/xlink" version="1.1" width="1000" height="1000" viewBox="0 0 1000 1000" xml:space="preserve">
<desc>Created with Fabric.js 3.5.0</desc>
<defs>
</defs>
<rect x="0" y="0" width="100%" height="100%" fill="rgba(255,255,255,0)"/>
<g transform="matrix(1 0 0 1 500 500)" id="221415">
<g style="" vector-effect="non-scaling-stroke">
		<g transform="matrix(1.0337 0 0 0.9855 0.0123 0.0064)" id="path2990">
<path style="stroke: none; stroke-width: 1; stroke-dasharray: none; stroke-linecap: butt; stroke-dashoffset: 0; stroke-linejoin: miter; stroke-miterlimit: 4; is-custom-font: none; font-file-url: none; fill: rgb(187,17,34); fill-rule: nonzero; opacity: 1;" transform=" translate(550.7948, -267.2013)" d="m -260.56335 267.20129 a 290.23145 304.42053 0 1 1 -580.4629 0 a 290.23145 304.42053 0 1 1 580.4629 0 z" stroke-linecap="round"/>
</g>
		<g transform="matrix(0.8269 0 0 0.7884 -0.0077 0.0051)" id="path3760">
<path style="stroke: none; stroke-width: 1; stroke-dasharray: none; stroke-linecap: butt; stroke-dashoffset: 0; stroke-linejoin: miter; stroke-miterlimit: 4; is-custom-font: none; font-file-url: none; fill: rgb(255,255,255); fill-rule: nonzero; opacity: 1;" transform=" translate(550.7948, -267.2013)" d="m -260.56335 267.20129 a 290.23145 304.42053 0 1 1 -580.4629 0 a 290.23145 304.42053 0 1 1 580.4629 0 z" stroke-linecap="round"/>
</g>
		<g transform="matrix(1 0 0 1 31.7861 -19.2849)" id="path3842">
<path style="stroke: none; stroke-width: 1; stroke-dasharray: none; stroke-linecap: butt; stroke-dashoffset: 0; stroke-linejoin: miter; stroke-miterlimit: 4; is-custom-font: none; font-file-url: none; fill: rgb(0,0,0); fill-rule: nonzero; opacity: 1;" transform=" translate(-1106.0718, -950.2201)" d="m 1075.715 760.93519 c 78.8992 0 142.8572 63.95792 142.8572 142.85729 l 0 91.07166 l 42.1802 -12.65726 c 1.3417 -0.41787 2.7687 -0.64352 4.2476 -0.64352 c 7.8884 0 14.2857 6.39732 14.2857 14.28588 c 0 3.0431 -0.9514 5.86666 -2.5736 8.18386 l -93.8527 135.4719 l -93.8558 -135.4719 c -1.6221 -2.3174 -2.5735 -5.13786 -2.5735 -8.18386 c 0 -7.88856 6.3943 -14.28588 14.2857 -14.28588 c 1.4789 0 2.9059 0.22443 4.2476 0.64352 l 42.1802 12.65726 l 0 -91.07166 c 0 -39.44821 -31.9805 -71.42872 -71.4286 -71.42872 c -39.4481 0 -71.4285 31.98051 -71.4285 71.42872 l 0 235.71252 l -71.42858 0 l 0 -235.71252 c 0 -78.89937 63.9579 -142.85729 142.85708 -142.85729" stroke-linecap="round"/>
</g>
		<g transform="matrix(-0.7071 -0.7071 0.7071 -0.7071 0 -0.0001)" id="rect3762">
<rect style="stroke: none; stroke-width: 1; stroke-dasharray: none; stroke-linecap: butt; stroke-dashoffset: 0; stroke-linejoin: miter; stroke-miterlimit: 4; is-custom-font: none; font-file-url: none; fill: rgb(187,17,34); fill-rule: nonzero; opacity: 1;" x="-275" y="-30" rx="0" ry="0" width="550" height="60"/>
</g>
</g>
</g>
<g transform="matrix(1 0 0 1 500 682.2245)" style="" id="469598">
		
<path xml:space="preserve" font-family="Abhaya Libre" font-size="131" font-style="normal" font-weight="bold" style="stroke: none; stroke-width: 1; stroke-dasharray: none; stroke-linecap: butt; stroke-dashoffset: 0; stroke-linejoin: miter; stroke-miterlimit: 4; is-custom-font: none; font-file-url: none; fill: rgb(0,0,0); fill-rule: nonzero; opacity: 1; white-space: pre;" d="M-19.51-35.61L-19.51-32.15L-9.02-32.15L-9.02 19.79L-55.33-35.61L-75.67-35.61L-75.67-32.15L-65.44-32.15L-65.44 37.70L-75.67 37.70L-75.67 41.15L-49.32 41.15Q-50.08 37.95-52.77 37.70L-52.77 37.70L-60.19 37.70L-60.19-17.44L-10.55 41.79L-3.77 40.51L-3.77-32.15L6.46-32.15L6.46-35.61L-19.51-35.61ZM72.22 20.17L72.22 20.17Q72.22 9.30 60.19 1.88L60.19 1.88Q58.40 0.85 46.37-5.03L46.37-5.03Q35.37-10.53 32.69-15.78L32.69-15.78Q31.28-18.59 31.28-21.53L31.28-21.53Q31.28-29.21 38.70-32.02L38.70-32.02Q41.64-33.17 44.97-33.17L44.97-33.17Q55.46-33.17 60.83-25.63L60.83-25.63Q64.41-20.51 64.41-13.47L64.41-13.47L69.02-13.47L69.02-36.37Q65.44-36.37 64.92-33.94L64.92-33.94Q64.80-33.05 64.80-31.90L64.80-31.90Q54.69-36.88 43.05-36.88L43.05-36.88Q28.21-36.88 20.40-28.95L20.40-28.95Q15.29-23.71 15.29-16.54L15.29-16.54Q15.29-5.80 27.31 1.49L27.31 1.49Q29.23 2.52 41.39 8.53L41.39 8.53Q52.64 14.03 55.33 19.40L55.33 19.40Q56.74 22.09 56.74 25.03L56.74 25.03Q56.74 33.99 48.42 37.31L48.42 37.31Q45.10 38.72 41.00 38.72L41.00 38.72Q25.78 38.72 20.92 23.75L20.92 23.75Q19.64 19.53 19.25 14.54L19.25 14.54L14.65 14.54L14.65 41.41Q17.85 41.41 18.49 39.49L18.49 39.49Q18.74 38.34 18.74 35.91L18.74 35.91Q28.72 42.43 42.15 42.43L42.15 42.43Q57.89 42.43 66.33 34.24L66.33 34.24Q72.22 28.49 72.22 20.17Z"/></g>
</svg>