<?xml version="1.0" encoding="UTF-8" standalone="no"?>
<!-- Generator: Adobe Illustrator 14.0.0, SVG Export Plug-In  -->

<svg
   xmlns:dc="http://purl.org/dc/elements/1.1/"
   xmlns:cc="http://creativecommons.org/ns#"
   xmlns:rdf="http://www.w3.org/1999/02/22-rdf-syntax-ns#"
   xmlns:svg="http://www.w3.org/2000/svg"
   xmlns="http://www.w3.org/2000/svg"
   xmlns:sodipodi="http://sodipodi.sourceforge.net/DTD/sodipodi-0.dtd"
   xmlns:inkscape="http://www.inkscape.org/namespaces/inkscape"
   version="1.1"
   x="0px"
   y="0px"
   width="366.24997"
   height="729.24994"
   viewBox="0 -0.321 366.24999 729.24997"
   enable-background="new 0 -0.321 144 120"
   xml:space="preserve"
   id="svg2"
   inkscape:version="0.48.4 r9939"
   sodipodi:docname="AJAX1.svg"><metadata
   id="metadata44"><rdf:RDF><cc:Work
       rdf:about=""><dc:format>image/svg+xml</dc:format><dc:type
         rdf:resource="http://purl.org/dc/dcmitype/StillImage" /><dc:title /></cc:Work></rdf:RDF></metadata><sodipodi:namedview
   pagecolor="#ffffff"
   bordercolor="#666666"
   borderopacity="1"
   objecttolerance="10"
   gridtolerance="10"
   guidetolerance="10"
   inkscape:pageopacity="0"
   inkscape:pageshadow="2"
   inkscape:window-width="1280"
   inkscape:window-height="1004"
   id="namedview42"
   showgrid="false"
   fit-margin-top="0"
   fit-margin-left="0"
   fit-margin-right="0"
   fit-margin-bottom="0"
   inkscape:zoom="0.74680379"
   inkscape:cx="-32.114532"
   inkscape:cy="387.63449"
   inkscape:window-x="-8"
   inkscape:window-y="-8"
   inkscape:window-maximized="1"
   inkscape:current-layer="svg2" />
<defs
   id="defs4">
<clipPath
   clipPathUnits="userSpaceOnUse"
   id="clipPath4187"><path
     d="m 63,127.718 513,0 0,610.282 -513,0 0,-610.282 z"
     id="path4189"
     inkscape:connector-curvature="0" /></clipPath></defs>


















<path
   d="m 1.5119058,31.319699 c 0,-16.542265 13.6212702,-30.1483721 30.3300022,-30.1483721 l 302.573552,0 c 16.70875,0 30.33,13.6061071 30.33,30.1483721 l 0,665.792191 c 0,16.71632 -13.62125,30.33001 -30.33,30.33001 l -302.391934,0 -0.181618,0 c -16.708732,0 -30.3300022,-13.61369 -30.3300022,-30.33001 l 0,-665.792191 z"
   style="fill:#ffffff;stroke:#000000;stroke-width:3.00000024;stroke-miterlimit:4;stroke-opacity:1;stroke-dasharray:none"
   id="path4193"
   inkscape:connector-curvature="0" /><g
   id="g4195"
   transform="matrix(7.5673657,0,0,-7.5673657,357.51789,697.9897)"
   style="stroke:none"><path
     d="M 0,0 C 0,-0.142 -0.049,-0.31 -0.072,-0.453 -0.119,-0.621 -0.168,-0.763 -0.216,-0.908 -0.287,-1.05 -0.359,-1.17 -0.43,-1.312 -0.525,-1.457 -0.598,-1.576 -0.693,-1.695 -0.885,-1.886 -1.052,-2.052 -1.267,-2.22 -1.386,-2.316 -1.504,-2.386 -1.648,-2.459 -1.792,-2.531 -1.91,-2.603 -2.055,-2.65 -2.222,-2.697 -2.364,-2.746 -2.508,-2.793 -2.676,-2.818 -2.842,-2.841 -2.985,-2.841 l -39.927,0 c -0.168,0 -0.335,0 -0.502,0.023 -0.167,0.025 -0.311,0.072 -0.453,0.121 -0.168,0.047 -0.287,0.094 -0.43,0.166 -0.144,0.072 -0.288,0.145 -0.406,0.215 -0.145,0.096 -0.239,0.191 -0.36,0.287 -0.191,0.191 -0.357,0.381 -0.5,0.596 -0.095,0.121 -0.167,0.24 -0.24,0.383 -0.07,0.142 -0.118,0.287 -0.167,0.429 -0.047,0.168 -0.071,0.311 -0.118,0.479 -0.024,0.168 -0.024,0.31 -0.024,0.476 l 0,87.688 c 0.024,0.166 0.024,0.334 0.071,0.476 0.024,0.168 0.071,0.313 0.12,0.455 0.048,0.143 0.118,0.286 0.191,0.43 0.072,0.143 0.167,0.262 0.238,0.381 0.096,0.121 0.191,0.24 0.31,0.359 0.192,0.166 0.383,0.334 0.597,0.477 0.144,0.072 0.263,0.144 0.406,0.191 0.167,0.073 0.312,0.119 0.454,0.168 0.167,0.024 0.311,0.047 0.478,0.071 l 0.335,0.025 39.927,0 c 0.143,-0.025 0.309,-0.049 0.477,-0.072 0.144,-0.024 0.286,-0.073 0.453,-0.119 0.145,-0.073 0.263,-0.12 0.407,-0.192 0.144,-0.072 0.262,-0.168 0.381,-0.263 0.144,-0.094 0.24,-0.19 0.359,-0.286 0.191,-0.191 0.334,-0.382 0.478,-0.597 0.071,-0.143 0.143,-0.287 0.214,-0.43 0.048,-0.143 0.097,-0.285 0.144,-0.43 C -0.049,88.498 0,88.356 0,88.188 L 0.024,87.854 0.024,0.168 0,0 z"
     style="fill:#000000;fill-opacity:1;fill-rule:evenodd;stroke:none"
     id="path4197-1"
     inkscape:connector-curvature="0" /></g><g
   id="g4199"
   transform="matrix(7.5673657,0,0,-7.5673657,32.564571,130.65652)"
   style="stroke:none"><path
     d="m 0,0 39.793,0 c 1.151,0 2.088,-0.936 2.088,-2.088 l 0,-72.744 c 0,-1.152 -0.937,-2.088 -2.088,-2.088 L 0,-76.92 c -1.151,0 -2.088,0.936 -2.088,2.088 l 0,72.744 C -2.088,-0.936 -1.151,0 0,0"
     style="fill:#ffffff;fill-opacity:1;fill-rule:evenodd;stroke:none"
     id="path4201-4"
     inkscape:connector-curvature="0" /></g><g
   id="g4203"
   transform="matrix(7.5673657,0,0,-7.5673657,32.564571,16.245503)"
   style="stroke:none"><path
     d="m 0,0 39.793,0 c 1.151,0 2.088,-0.935 2.088,-2.088 l 0,-9.744 c 0,-1.152 -0.937,-2.088 -2.088,-2.088 L 0,-13.92 c -1.151,0 -2.088,0.936 -2.088,2.088 l 0,9.744 C -2.088,-0.935 -1.151,0 0,0"
     style="fill:#a2ff31;fill-opacity:1;fill-rule:evenodd;stroke:none"
     id="path4205-2"
     inkscape:connector-curvature="0" /></g><g
   id="g4207"
   transform="matrix(7.5673657,0,0,-7.5673657,336.4125,99.055179)"
   style="stroke:none"><path
     d="m 0,0 0,1.199 -3.72,0 0,6.816 -1.248,0 L -4.968,0 0,0 z m -7.968,3.984 c 0,-0.599 -0.143,-1.392 -0.311,-1.824 -0.289,-0.697 -0.649,-1.008 -1.248,-1.008 -0.505,0 -0.841,0.215 -1.08,0.623 -0.313,0.504 -0.481,1.369 -0.481,2.209 0,0.695 0.12,1.416 0.313,1.895 0.263,0.697 0.671,1.009 1.294,0.984 0.457,-0.023 0.769,-0.191 1.033,-0.623 0.312,-0.529 0.48,-1.344 0.48,-2.256 m 1.248,0 c 0,1.031 -0.192,2.039 -0.528,2.736 -0.504,0.983 -1.2,1.417 -2.208,1.417 -0.936,0 -1.584,-0.266 -2.064,-0.889 -0.528,-0.768 -0.864,-1.944 -0.864,-3.264 0,-0.935 0.216,-2.015 0.552,-2.689 0.48,-0.983 1.2,-1.44 2.305,-1.44 0.839,0 1.487,0.289 1.943,0.912 0.552,0.696 0.864,1.969 0.864,3.217 m -8.496,0 c 0,-0.599 -0.143,-1.392 -0.311,-1.824 -0.265,-0.697 -0.649,-1.008 -1.225,-1.008 -0.504,0 -0.84,0.215 -1.103,0.623 -0.313,0.504 -0.481,1.369 -0.481,2.209 0,0.695 0.12,1.416 0.312,1.895 0.288,0.697 0.672,1.009 1.296,0.984 0.48,-0.023 0.792,-0.191 1.033,-0.623 0.311,-0.529 0.479,-1.344 0.479,-2.256 m 1.273,0 c 0,1.031 -0.217,2.039 -0.553,2.736 -0.504,0.983 -1.199,1.417 -2.208,1.417 -0.912,0 -1.56,-0.266 -2.04,-0.889 -0.527,-0.768 -0.863,-1.944 -0.863,-3.264 0,-0.935 0.215,-2.015 0.551,-2.689 0.48,-0.983 1.176,-1.44 2.304,-1.44 0.84,0 1.488,0.289 1.92,0.912 0.576,0.696 0.889,1.969 0.889,3.217 M -21.312,0 l 0,8.015 -1.248,0 0,-3.24 -2.928,0 0,3.24 -1.272,0 0,-8.015 1.272,0 0,3.48 2.928,0 0,-3.48 1.248,0 z m -7.176,1.633 -1.2,0.455 C -30,1.439 -30.408,1.152 -30.936,1.152 c -0.552,0 -0.912,0.215 -1.2,0.623 -0.311,0.504 -0.504,1.369 -0.504,2.256 0,0.672 0.12,1.369 0.312,1.848 0.288,0.697 0.696,0.984 1.344,0.984 0.625,0 0.865,-0.168 1.32,-0.84 l 1.176,0.504 c -0.528,1.106 -1.295,1.61 -2.496,1.61 -0.888,0 -1.584,-0.29 -2.039,-0.889 -0.577,-0.695 -0.913,-1.969 -0.913,-3.217 0,-1.008 0.241,-2.039 0.6,-2.736 0.504,-0.983 1.248,-1.44 2.424,-1.44 1.152,0 1.944,0.6 2.424,1.778 m -6.6,0.671 c 0,3.143 -3.744,2.159 -3.863,3.647 -0.049,0.744 0.647,0.961 1.223,0.937 0.912,-0.025 1.201,-0.697 1.201,-0.697 l 1.103,0.336 c -0.384,0.985 -1.152,1.61 -2.256,1.61 -1.439,0 -2.496,-0.577 -2.496,-2.161 0,-1.297 1.057,-1.777 1.536,-1.992 1.033,-0.408 2.281,-0.576 2.281,-1.656 0,-0.672 -0.529,-1.176 -1.248,-1.176 -0.745,0 -1.369,0.432 -1.705,1.176 l -1.2,-0.432 c 0.528,-1.201 1.536,-2.041 2.905,-2.041 0.671,0 1.295,0.24 1.752,0.625 0.503,0.455 0.767,1.104 0.767,1.824"
     style="fill:#000000;fill-opacity:1;fill-rule:evenodd;stroke:none"
     id="path4209-3"
     inkscape:connector-curvature="0" /></g><g
   id="g4211"
   transform="matrix(7.5673657,0,0,-7.5673657,313.57728,220.51919)"
   style="stroke:none"><path
     d="M 0,0 C 0,-1.096 -0.393,-1.824 -1.234,-2.273 -1.57,-2.469 -1.963,-2.582 -2.385,-2.582 l -1.121,0 0,5.133 1.121,0 c 0.422,0 0.842,-0.112 1.207,-0.309 C -0.393,1.795 0,1.064 0,0 m 1.432,0 c 0,1.57 -0.674,2.777 -1.909,3.477 -0.588,0.337 -1.234,0.505 -1.908,0.505 l -2.58,0 0,-7.994 2.58,0 c 0.647,0 1.32,0.168 1.88,0.477 C 0.758,-2.834 1.432,-1.6 1.432,0 m -7.997,-4.012 0,1.43 -4.516,0 0,2.187 2.385,0 0,1.459 -2.385,0 0,1.487 4.377,0 0,1.431 -5.835,0 0,-7.994 5.974,0 z m -7.574,0 0,1.43 -4.516,0 0,2.187 2.384,0 0,1.459 -2.384,0 0,1.487 4.376,0 0,1.431 -5.835,0 0,-7.994 5.975,0 z m -8.724,5.555 c 0,-0.59 -0.477,-0.982 -1.179,-0.982 l -2.328,0 0,1.99 2.328,0 c 0.702,0 1.179,-0.391 1.179,-1.008 m 1.43,0 c 0,0.896 -0.476,1.682 -1.234,2.103 -0.449,0.252 -0.813,0.336 -1.431,0.336 l -3.731,0 0,-7.994 1.459,0 0,3.141 2.272,0 c 0.618,0 0.982,0.057 1.431,0.309 0.758,0.421 1.234,1.261 1.234,2.105 m -7.995,-3.227 c 0,0.87 -0.449,1.627 -1.15,1.993 -0.449,0.222 -1.151,0.447 -2.217,0.671 -0.982,0.225 -1.262,0.422 -1.262,0.872 0,0.503 0.477,0.812 1.289,0.812 0.758,0 1.405,-0.252 1.909,-0.785 l 1.066,0.953 c -0.814,0.842 -1.795,1.234 -2.975,1.234 -1.627,0 -2.748,-0.898 -2.748,-2.214 0,-0.506 0.168,-0.983 0.504,-1.348 0.338,-0.393 0.758,-0.59 1.572,-0.785 l 0.393,-0.114 0.363,-0.084 0.366,-0.111 c 0.365,-0.084 0.673,-0.197 0.955,-0.308 0.336,-0.168 0.504,-0.422 0.504,-0.731 0,-0.588 -0.729,-1.037 -1.739,-1.037 -0.898,0 -1.543,0.309 -2.132,1.01 l -1.151,-0.899 c 0.899,-1.037 1.936,-1.547 3.311,-1.547 0.728,0 1.459,0.202 2.019,0.538 0.758,0.449 1.123,1.066 1.123,1.88"
     style="fill:#000000;fill-opacity:1;fill-rule:evenodd;stroke:none"
     id="path4213-2"
     inkscape:connector-curvature="0" /></g><g
   id="g4215"
   transform="matrix(7.5673657,0,0,-7.5673657,293.62445,292.68917)"
   style="stroke:none"><path
     d="m 0,0 0,1.402 -6.003,0 0,-1.402 2.3,0 0,-6.592 1.403,0 L -2.3,0 0,0 z m -7.321,1.402 -1.431,0 0,-7.994 1.431,0 0,7.994 z m -3.507,-7.994 0,7.994 -1.402,0 -2.358,-4.74 -2.328,4.74 -1.402,0 0,-7.994 1.402,0 0,4.881 2.328,-4.881 2.358,4.881 0,-4.881 1.402,0 z m -9.539,7.994 -1.43,0 0,-7.994 1.43,0 0,7.994 z m -2.777,-7.994 0,1.234 -4.546,0 0,6.76 -1.429,0 0,-7.994 5.975,0 z"
     style="fill:#000000;fill-opacity:1;fill-rule:evenodd;stroke:none"
     id="path4217-2"
     inkscape:connector-curvature="0" /></g><g
   id="g4219"
   transform="matrix(7.5673657,0,0,-7.5673657,298.42052,447.2753)"
   style="stroke:none"><path
     d="m 0,0 c 0,-4.139 -1.823,-6.873 -4.769,-6.873 -3.015,0 -4.839,2.455 -4.839,6.873 0,2.945 1.262,6.662 4.839,6.662 C -1.753,6.662 0,4.139 0,-0.07 L 0,0 z m 3.577,0 c 0,5.049 -2.385,10.24 -8.346,10.24 -5.891,0 -8.416,-5.05 -8.416,-10.31 0,-5.26 2.455,-10.391 8.416,-10.391 6.032,0 8.346,5.342 8.346,10.461 m -20.76,-10.099 0,3.576 -11.783,0 c 0.701,1.334 1.262,2.105 2.175,2.877 1.192,1.05 1.964,1.402 4.629,2.174 1.402,0.419 2.314,0.912 2.945,1.402 1.333,1.123 2.034,2.666 2.034,4.348 0,3.648 -3.015,5.962 -7.715,5.962 -3.226,0 -6.101,-1.052 -8.415,-3.086 l 2.455,-2.736 c 1.681,1.543 3.576,2.174 6.171,2.174 2.525,0 3.927,-0.842 3.927,-2.314 0,-1.192 -0.771,-1.893 -3.015,-2.524 -3.648,-0.982 -6.173,-2.807 -7.925,-5.752 -1.123,-1.963 -1.613,-3.717 -1.613,-6.101 l 16.13,0 z"
     style="fill:#000000;fill-opacity:1;fill-rule:evenodd;stroke:none"
     id="path4221-1"
     inkscape:connector-curvature="0" /></g><g
   id="g4223"
   transform="matrix(7.5673657,0,0,-7.5673657,247.70253,607.29481)"
   style="stroke:none"><path
     d="m 0,0 0,4.957 -0.783,0 0,-3.166 -1.809,3.166 -0.783,0 0,-4.957 0.783,0 0,3.357 L -0.695,0 0,0 z m -4.191,0 0,0.799 -2.297,0 0,1.357 1.444,0 0,0.801 -1.444,0 0,1.217 2.139,0 0,0.783 -2.922,0 0,-4.957 3.08,0 z m -4.245,0 0,4.957 -0.783,0 0,-2 -1.808,0 0,2 -0.784,0 0,-4.957 0.784,0 0,2.156 1.808,0 0,-2.156 0.783,0 z m -4.105,4.957 -0.8,0 -0.383,-2.61 -0.643,2.61 -0.766,0 -0.626,-2.61 -0.382,2.61 -0.8,0 0.73,-4.957 0.695,0 0.766,3.181 0.783,-3.181 0.695,0 0.731,4.957 z"
     style="fill:#000000;fill-opacity:1;fill-rule:evenodd;stroke:none"
     id="path4225-6"
     inkscape:connector-curvature="0" /></g><g
   id="g4227"
   transform="matrix(7.5673657,0,0,-7.5673657,298.01422,663.42953)"
   style="stroke:none"><path
     d="m 0,0 0,0.992 -1.687,0 0,-0.783 0.905,0 0,-0.209 c 0,-0.451 -0.366,-0.766 -0.87,-0.766 -0.295,0 -0.522,0.123 -0.678,0.4 -0.156,0.313 -0.244,0.836 -0.244,1.358 0,0.416 0.07,0.869 0.191,1.166 0.174,0.434 0.436,0.607 0.835,0.607 0.383,0 0.592,-0.156 0.8,-0.591 L 0,2.47 c -0.33,0.782 -0.782,1.096 -1.548,1.096 -0.556,0 -0.973,-0.191 -1.269,-0.557 -0.33,-0.435 -0.557,-1.218 -0.557,-2.017 0,-0.609 0.122,-1.217 0.331,-1.652 0.295,-0.627 0.731,-0.909 1.479,-0.909 C -0.66,-1.569 0,-0.905 0,0 m -4.436,-1.479 0,4.957 -0.782,0 0,-3.164 -1.808,3.164 -0.783,0 0,-4.957 0.783,0 0,3.358 1.895,-3.358 0.695,0 z m -4.539,4.957 -0.8,0 0,-4.957 0.8,0 0,4.957 z m -1.964,-4.957 0,4.957 -0.784,0 0,-2 -1.808,0 0,2 -0.783,0 0,-4.957 0.783,0 0,2.156 1.808,0 0,-2.156 0.784,0 z m -4.193,1.426 c 0,1.949 -2.331,1.34 -2.4,2.262 -0.034,0.453 0.4,0.591 0.765,0.574 0.557,-0.018 0.731,-0.436 0.731,-0.436 l 0.695,0.209 c -0.243,0.61 -0.713,1.01 -1.408,1.01 -0.888,0 -1.548,-0.365 -1.548,-1.34 0,-0.818 0.66,-1.113 0.956,-1.234 0.644,-0.262 1.409,-0.365 1.409,-1.027 0,-0.416 -0.313,-0.731 -0.765,-0.731 -0.469,0 -0.852,0.262 -1.061,0.731 l -0.748,-0.278 c 0.33,-0.748 0.957,-1.256 1.809,-1.256 0.418,0 0.801,0.143 1.078,0.387 0.313,0.277 0.487,0.678 0.487,1.129 m -5.374,0.766 -0.992,0 0.505,1.392 0.487,-1.392 z m 1.6,-2.192 -1.704,4.957 -0.783,0 -1.705,-4.957 0.835,0 0.488,1.391 1.546,0 0.489,-1.391 0.834,0 z m -4.488,0 0,0.731 -2.295,0 0,4.226 -0.784,0 0,-4.957 3.079,0 z m -3.809,4.176 0,0.781 -3.078,0 0,-4.957 0.783,0 0,2.156 1.443,0 0,0.801 -1.443,0 0,1.219 2.295,0 z"
     style="fill:#000000;fill-opacity:1;fill-rule:evenodd;stroke:none"
     id="path4229-8"
     inkscape:connector-curvature="0" /></g></svg>