<svg width="180" height="228" viewBox="0 0 180 228" fill="none" xmlns="http://www.w3.org/2000/svg">
<rect x="4.5" y="4.5" width="171" height="219" rx="7.5" fill="white" stroke="black" stroke-width="9"/>
<rect x="1.5" y="1.5" width="177" height="225" rx="10.5" stroke="white" stroke-width="3"/>
<path d="M71.3727 72.0104C71.2733 72.0283 71.1738 72.0552 71.0833 72.0821C70.007 72.3241 69.2472 73.2834 69.2744 74.3772V85.8526C69.2653 86.6774 69.6995 87.4484 70.423 87.8697C71.1466 88.2821 72.033 88.2821 72.7566 87.8697C73.4802 87.4484 73.9143 86.6774 73.9053 85.8526V74.3772C73.9324 73.7137 73.6611 73.0772 73.1817 72.629C72.6933 72.1717 72.033 71.9476 71.3727 72.0104ZM45.1791 82.7685C45.0796 82.7865 44.9801 82.8134 44.8897 82.8403C44.0214 82.9927 43.3249 83.6202 43.0807 84.454C42.8365 85.2967 43.0898 86.1932 43.7319 86.7849L51.9084 94.8894C52.831 95.8039 54.3143 95.8039 55.2369 94.8894C56.1595 93.975 56.1595 92.5047 55.2369 91.5903L47.0604 83.4858C46.581 82.9747 45.8846 82.7148 45.1791 82.7685ZM97.5664 82.7685C97.4669 82.7865 97.3674 82.8134 97.277 82.8403C96.8338 82.9389 96.4358 83.163 96.1192 83.4858L87.9428 91.5903C87.0202 92.5047 87.0202 93.975 87.9428 94.8894C88.8653 95.8039 90.3487 95.8039 91.2712 94.8894L99.4477 86.7849C100.244 86.1215 100.497 85.0009 100.054 84.0685C99.6105 83.1272 98.5975 82.5982 97.5664 82.7685ZM71.5898 92.7378C61.3511 92.7378 53.0661 100.95 53.0661 111.098C53.0661 118.136 57.0458 124.223 62.9068 127.307C65.2313 124.681 68.1799 122.619 71.5898 121.426C71.9787 111.78 77.4147 103.442 85.3379 98.8341C81.9461 95.0956 77.0619 92.7378 71.5898 92.7378ZM99.3753 99.623C86.6041 99.623 76.2207 109.915 76.2207 122.574C76.2207 123.381 76.275 124.197 76.3655 125.012C68.4513 126.07 62.328 132.812 62.328 140.934C62.328 149.792 69.6 157 78.5362 157H127.161C138.657 157 148 147.739 148 136.344C148 124.95 138.657 115.689 127.161 115.689C125.28 115.689 123.443 115.922 121.662 116.406C118.921 106.526 109.949 99.623 99.3753 99.623ZM34.1083 108.803C32.833 108.92 31.8923 110.05 32.0099 111.314C32.1275 112.578 33.2671 113.51 34.5425 113.394H46.1198C46.9519 113.402 47.7297 112.972 48.1548 112.255C48.5709 111.538 48.5709 110.659 48.1548 109.942C47.7297 109.225 46.9519 108.794 46.1198 108.803H34.5425C34.4701 108.803 34.3977 108.803 34.3254 108.803C34.253 108.803 34.1807 108.803 34.1083 108.803ZM53.3556 126.59C53.2561 126.608 53.1566 126.635 53.0661 126.662C52.6229 126.761 52.225 126.985 51.9084 127.307L43.7319 135.412C42.8094 136.326 42.8094 137.797 43.7319 138.711C44.6545 139.626 46.1379 139.626 47.0604 138.711L55.2369 130.535C55.9605 129.854 56.1685 128.787 55.7434 127.89C55.3092 126.985 54.3505 126.465 53.3556 126.59Z" fill="black"/>
</svg>
