<?xml version="1.0" encoding="UTF-8" standalone="no"?>
<!-- Created with Inkscape (http://www.inkscape.org/) -->

<svg
   xmlns:dc="http://purl.org/dc/elements/1.1/"
   xmlns:cc="http://creativecommons.org/ns#"
   xmlns:rdf="http://www.w3.org/1999/02/22-rdf-syntax-ns#"
   xmlns:svg="http://www.w3.org/2000/svg"
   xmlns="http://www.w3.org/2000/svg"
   xmlns:sodipodi="http://sodipodi.sourceforge.net/DTD/sodipodi-0.dtd"
   xmlns:inkscape="http://www.inkscape.org/namespaces/inkscape"
   width="158.75012mm"
   height="137.58333mm"
   viewBox="0 0 158.75012 137.58333"
   version="1.1"
   id="svg8"
   sodipodi:docname="Philippines old road signs - Regulatory - Give way (final).svg"
   inkscape:version="0.92.3 (2405546, 2018-03-11)">
  <defs
     id="defs2" />
  <sodipodi:namedview
     id="base"
     pagecolor="#ffffff"
     bordercolor="#666666"
     borderopacity="1.0"
     inkscape:pageopacity="0.0"
     inkscape:pageshadow="2"
     inkscape:zoom="0.7"
     inkscape:cx="242.89396"
     inkscape:cy="360.41446"
     inkscape:document-units="mm"
     inkscape:current-layer="layer1"
     showgrid="false"
     inkscape:window-width="1366"
     inkscape:window-height="745"
     inkscape:window-x="-8"
     inkscape:window-y="-8"
     inkscape:window-maximized="1"
     fit-margin-top="0"
     fit-margin-left="0"
     fit-margin-right="0"
     fit-margin-bottom="0" />
  <metadata
     id="metadata5">
    <rdf:RDF>
      <cc:Work
         rdf:about="">
        <dc:format>image/svg+xml</dc:format>
        <dc:type
           rdf:resource="http://purl.org/dc/dcmitype/StillImage" />
        <dc:title></dc:title>
      </cc:Work>
    </rdf:RDF>
  </metadata>
  <g
     inkscape:label="Layer 1"
     inkscape:groupmode="layer"
     id="layer1"
     transform="translate(5.7382146e-5,-159.41667)">
    <path
       id="path3054"
       d="M 1.2390662,172.96336 71.429686,292.49303 c 3.525,6.0093 12.36563,6.0093 15.89062,0 L 157.51094,172.96336 c 3.525,-6.00929 -0.89063,-13.54669 -7.95,-13.54669 H 9.1890662 c -7.05938,0 -11.475,7.5374 -7.95,13.54669 z"
       style="fill:#d42434;fill-opacity:1;fill-rule:nonzero;stroke:none;stroke-width:0.26458159"
       inkscape:connector-curvature="0" />
    <path
       id="path3056"
       d="m 13.380164,171.71606 65.087654,110.83967 c 0.399897,0.71286 1.43441,0.71286 1.834307,0 L 145.38109,171.71606 c 0.39989,-0.70416 -0.10432,-1.56479 -0.93019,-1.56479 H 14.28428 c -0.799794,0 -1.330098,0.86063 -0.904116,1.56479 z"
       style="fill:#ffffff;fill-opacity:1;fill-rule:nonzero;stroke:none;stroke-width:0.26458159"
       inkscape:connector-curvature="0" />
    <g
       aria-label="GIVE"
       style="font-style:normal;font-variant:normal;font-weight:normal;font-stretch:normal;font-size:28.59329987px;line-height:1.25;letter-spacing:0px;word-spacing:0px;fill:#000000;fill-opacity:1;stroke:none;stroke-width:0.26458338"
       id="text827">
      <path
         d="m 66.189249,191.71947 v -3.83151 h -6.519273 v 3.03089 h 3.488383 v 0.80062 c 0,1.74419 -1.401072,2.9737 -3.345416,2.9737 -1.143732,0 -2.030125,-0.48609 -2.630584,-1.54404 -0.600459,-1.22951 -0.943579,-3.23104 -0.943579,-5.26117 0,-1.60122 0.25734,-3.34541 0.743426,-4.48914 0.657646,-1.68701 1.687005,-2.37325 3.231043,-2.37325 1.458258,0 2.287464,0.62905 3.088076,2.28747 l 2.887924,-1.14374 c -1.286699,-3.00229 -3.03089,-4.2318 -5.976,-4.2318 -2.173091,0 -3.774316,0.74342 -4.918048,2.14449 -1.286698,1.68701 -2.144497,4.7179 -2.144497,7.80597 0,2.34465 0.457493,4.7179 1.258105,6.4049 1.143732,2.40184 2.830737,3.48839 5.71866,3.48839 3.516976,0 6.06178,-2.5734 6.06178,-6.06178 z"
         style="font-style:normal;font-variant:normal;font-weight:normal;font-stretch:normal;stroke-width:0.26458338"
         id="path906" />
      <path
         d="m 73.448819,197.43813 v -19.15752 h -3.088077 v 19.15752 z"
         style="font-style:normal;font-variant:normal;font-weight:normal;font-stretch:normal;stroke-width:0.26458338"
         id="path908" />
      <path
         d="m 90.850076,178.28061 h -3.231043 l -4.031655,12.78121 -4.088842,-12.78121 H 76.32468 l 6.061779,19.15752 h 2.344651 z"
         style="font-style:normal;font-variant:normal;font-weight:normal;font-stretch:normal;stroke-width:0.26458338"
         id="path910" />
      <path
         d="m 105.5993,197.43813 v -3.08808 h -8.86392 v -5.26117 h 5.57569 v -3.08807 h -5.57569 v -4.68931 h 8.26346 v -3.03089 H 93.704491 v 19.15752 z"
         style="font-style:normal;font-variant:normal;font-weight:normal;font-stretch:normal;stroke-width:0.26458338"
         id="path912" />
    </g>
    <g
       aria-label="WAY"
       style="font-style:normal;font-variant:normal;font-weight:normal;font-stretch:normal;font-size:29.61754036px;line-height:1.25;letter-spacing:0px;word-spacing:0px;fill:#000000;fill-opacity:1;stroke:none;stroke-width:0.26458341"
       id="text827-7">
      <path
         d="M 69.895307,204.39583 H 66.696612 L 65.1565,214.85082 62.579774,204.39583 h -3.050606 l -2.517491,10.45499 -1.540112,-10.45499 H 52.27287 l 2.932137,19.84375 h 2.784048 l 3.050607,-12.73554 3.139459,12.73554 h 2.784049 z"
         style="font-style:normal;font-variant:normal;font-weight:normal;font-stretch:normal;stroke-width:0.26458341"
         id="path915" />
      <path
         d="m 87.866211,224.23958 -6.841652,-19.84375 h -3.109841 l -6.841652,19.84375 h 3.346782 l 1.954758,-5.5681 h 6.190065 l 1.954758,5.5681 z m -6.427006,-8.76679 h -3.96875 l 2.04361,-5.5681 z"
         style="font-style:normal;font-variant:normal;font-weight:normal;font-stretch:normal;stroke-width:0.26458341"
         id="path917" />
      <path
         d="m 106.47713,204.39583 h -3.70219 l -4.79804,7.67094 -4.738807,-7.67094 h -3.761428 l 6.960122,11.19543 v 8.64832 h 3.13946 v -8.64832 z"
         style="font-style:normal;font-variant:normal;font-weight:normal;font-stretch:normal;stroke-width:0.26458341"
         id="path919" />
    </g>
  </g>
</svg>
