<svg width="33" height="18" viewBox="0 0 33 18" fill="none" xmlns="http://www.w3.org/2000/svg">
<rect y="1" width="16" height="16" rx="3.55556" fill="#635BFF"/>
<path fill-rule="evenodd" clip-rule="evenodd" d="M13.9688 3.96875C13.9688 4.48652 13.549 4.90625 13.0312 4.90625C12.5135 4.90625 12.0938 4.48652 12.0938 3.96875C12.0938 3.45098 12.5135 3.03125 13.0312 3.03125C13.549 3.03125 13.9688 3.45098 13.9688 3.96875ZM8 4.15625C6.95948 4.15625 5.91902 4.55364 5.12641 5.34823C3.5412 6.93743 3.5412 9.52085 5.12641 11.11L5.13397 11.1174L7.78863 13.7786C7.87536 13.8655 8.01576 13.8655 8.10249 13.7786C8.5351 13.3553 8.97169 12.9399 9.39889 12.5334L9.39891 12.5333L9.39897 12.5333C9.91176 12.0453 10.411 11.5703 10.8736 11.11C12.4588 9.52085 12.4588 6.93743 10.8736 5.34823C10.081 4.55364 9.04052 4.15625 8 4.15625ZM8 9.59375C8.75939 9.59375 9.375 8.97814 9.375 8.21875C9.375 7.45936 8.75939 6.84375 8 6.84375C7.24061 6.84375 6.625 7.45936 6.625 8.21875C6.625 8.97814 7.24061 9.59375 8 9.59375Z" fill="white"/>
<path d="M32 3H19L24 10V13.5L27 16V10L32 3Z" fill="#0C1D2E"/>
</svg>
