<svg width="18" height="18" viewBox="0 0 18 18" fill="none" xmlns="http://www.w3.org/2000/svg">
<g clip-path="url(#clip0)">
<rect width="18" height="18" rx="4" fill="#635BFF"/>
<path fill-rule="evenodd" clip-rule="evenodd" d="M15.7148 3.33984C15.7148 3.92233 15.2426 4.39453 14.6602 4.39453C14.0777 4.39453 13.6055 3.92233 13.6055 3.33984C13.6055 2.75736 14.0777 2.28516 14.6602 2.28516C15.2426 2.28516 15.7148 2.75736 15.7148 3.33984ZM9 3.55078C7.82942 3.55078 6.65889 3.99784 5.76721 4.89176C3.98385 6.67961 3.98385 9.58596 5.76721 11.3738L5.77571 11.3821L8.76221 14.3759C8.85978 14.4737 9.01773 14.4737 9.1153 14.3759C9.602 13.8997 10.0932 13.4323 10.5738 12.975L10.5739 12.9749C11.1507 12.426 11.7124 11.8915 12.2328 11.3738C14.0162 9.58596 14.0162 6.67961 12.2328 4.89176C11.3411 3.99784 10.1706 3.55078 9 3.55078ZM9.00001 9.66797C9.85432 9.66797 10.5469 8.97541 10.5469 8.12109C10.5469 7.26678 9.85432 6.57422 9.00001 6.57422C8.14569 6.57422 7.45313 7.26678 7.45313 8.12109C7.45313 8.97541 8.14569 9.66797 9.00001 9.66797Z" fill="white"/>
</g>
<defs>
<clipPath id="clip0">
<rect width="18" height="18" fill="white"/>
</clipPath>
</defs>
</svg>
