<svg width="50" height="50" viewBox="0 0 50 50" fill="none" xmlns="http://www.w3.org/2000/svg">
<g clip-path="url(#clip0)">
<rect width="50" height="50" rx="11" fill="#635BFF"/>
<path fill-rule="evenodd" clip-rule="evenodd" d="M43.6523 9.27734C43.6523 10.8954 42.3407 12.207 40.7227 12.207C39.1046 12.207 37.793 10.8954 37.793 9.27734C37.793 7.65932 39.1046 6.34766 40.7227 6.34766C42.3407 6.34766 43.6523 7.65932 43.6523 9.27734ZM25 10C21.6703 10 18.3409 11.2306 15.8045 13.6913C10.7318 18.6127 10.7318 26.613 15.8045 31.5343L15.817 31.5462L15.8287 31.5572L24.3236 39.7981C24.6012 40.0673 25.0504 40.0673 25.328 39.7981C26.7124 38.4874 28.1095 37.2008 29.4765 35.942C31.1175 34.4308 32.7152 32.9596 34.1955 31.5343C39.2682 26.613 39.2682 18.6127 34.1955 13.6913C31.6591 11.2306 28.3297 10 25 10ZM25 28C27.7614 28 30 25.7614 30 23C30 20.2386 27.7614 18 25 18C22.2386 18 20 20.2386 20 23C20 25.7614 22.2386 28 25 28Z" fill="white"/>
</g>
<defs>
<clipPath id="clip0">
<rect width="50" height="50" fill="white"/>
</clipPath>
</defs>
</svg>
