<svg width="18" height="18" viewBox="0 0 18 18" fill="none" xmlns="http://www.w3.org/2000/svg">
<rect width="18" height="18" rx="4" fill="#635BFF"/>
<path d="M9 5C6.27273 5 3.94364 6.65867 3 9C3.94364 11.3413 6.27273 13 9 13C11.7273 13 14.0564 11.3413 15 9C14.0564 6.65867 11.7273 5 9 5ZM9 11.6667C7.49455 11.6667 6.27273 10.472 6.27273 9C6.27273 7.528 7.49455 6.33333 9 6.33333C10.5055 6.33333 11.7273 7.528 11.7273 9C11.7273 10.472 10.5055 11.6667 9 11.6667ZM9 7.4C8.09455 7.4 7.36364 8.11467 7.36364 9C7.36364 9.88533 8.09455 10.6 9 10.6C9.90545 10.6 10.6364 9.88533 10.6364 9C10.6364 8.11467 9.90545 7.4 9 7.4Z" fill="white"/>
</svg>
