<svg width="25" height="25" viewBox="0 0 25 25" fill="none" xmlns="http://www.w3.org/2000/svg">
<g clip-path="url(#clip0)">
<rect width="25" height="25" rx="6" fill="#635BFF"/>
<path fill-rule="evenodd" clip-rule="evenodd" d="M21.8262 4.63867C21.8262 5.44768 21.1703 6.10352 20.3613 6.10352C19.5523 6.10352 18.8965 5.44768 18.8965 4.63867C18.8965 3.82966 19.5523 3.17383 20.3613 3.17383C21.1703 3.17383 21.8262 3.82966 21.8262 4.63867ZM12.5 4.93164C10.8742 4.93164 9.24846 5.55256 8.01002 6.79412C5.53312 9.27723 5.53312 13.3138 8.01002 15.7969L8.02182 15.8085L12.1697 19.9665C12.3053 20.1023 12.5246 20.1023 12.6601 19.9665C13.3361 19.3052 14.0182 18.6561 14.6856 18.021L14.6858 18.0209C15.4871 17.2584 16.2672 16.5161 16.99 15.7969C19.4669 13.3138 19.4669 9.27723 16.99 6.79412C15.7515 5.55256 14.1258 4.93164 12.5 4.93164ZM12.5 14C13.8807 14 15 12.8807 15 11.5C15 10.1193 13.8807 9 12.5 9C11.1193 9 10 10.1193 10 11.5C10 12.8807 11.1193 14 12.5 14Z" fill="white"/>
</g>
<defs>
<clipPath id="clip0">
<rect width="25" height="25" fill="white"/>
</clipPath>
</defs>
</svg>
