<svg width="71" height="71" viewBox="0 0 71 71" fill="none" xmlns="http://www.w3.org/2000/svg">
<g filter="url(#filter0_d)">
<path d="M35.5 62C51.2401 62 64 49.2401 64 33.5C64 17.7599 51.2401 5 35.5 5C19.7599 5 7 17.7599 7 33.5C7 49.2401 19.7599 62 35.5 62Z" fill="black"/>
</g>
<path d="M35.5 60C50.1355 60 62 48.1355 62 33.5C62 18.8645 50.1355 7 35.5 7C20.8645 7 9 18.8645 9 33.5C9 48.1355 20.8645 60 35.5 60Z" fill="#635BFF" stroke="white" stroke-width="4"/>
<path d="M49.3781 22.1333C49.2323 22.1333 49.0864 22.1629 48.9259 22.2222C44.637 23.852 40.1292 24.6521 35.6214 24.6521C31.1137 24.6521 26.6059 23.8372 22.317 22.2222C22.1565 22.1629 21.996 22.1333 21.8647 22.1333C21.3687 22.1333 21.0332 22.4741 21.0332 23.0667V44.9206C21.0332 45.4984 21.3687 45.8392 21.8647 45.8392C22.0106 45.8392 22.1565 45.8096 22.317 45.7503C26.6059 44.1205 31.1137 43.3204 35.6214 43.3204C40.1292 43.3204 44.637 44.1353 48.9259 45.7503C49.0864 45.8096 49.2323 45.8392 49.3781 45.8392C49.8596 45.8392 50.2097 45.4984 50.2097 44.9058V23.0667C50.2097 22.4741 49.8596 22.1333 49.3781 22.1333Z" fill="white"/>
<path d="M28.0262 32.8078H28.8809C29.2879 32.8078 29.5895 32.706 29.7856 32.5025C29.9817 32.299 30.0797 32.0289 30.0797 31.6922C30.0797 31.3666 29.9817 31.1131 29.7856 30.9318C29.5932 30.7505 29.3268 30.6599 28.9864 30.6599C28.6793 30.6599 28.4221 30.745 28.2149 30.9152C28.0077 31.0817 27.9041 31.3 27.9041 31.5701H26.3001C26.3001 31.1483 26.413 30.7709 26.6387 30.4379C26.8681 30.1012 27.1863 29.8385 27.5933 29.6498C28.004 29.4611 28.4554 29.3667 28.9475 29.3667C29.8022 29.3667 30.4719 29.5721 30.9567 29.9828C31.4414 30.3898 31.6837 30.9522 31.6837 31.67C31.6837 32.04 31.5709 32.3804 31.3452 32.6912C31.1195 33.002 30.8235 33.2407 30.4571 33.4072C30.9123 33.57 31.2508 33.8142 31.4728 34.1398C31.6985 34.4654 31.8114 34.8502 31.8114 35.2942C31.8114 36.0121 31.5487 36.5874 31.0233 37.0203C30.5015 37.4532 29.8096 37.6697 28.9475 37.6697C28.1409 37.6697 27.4804 37.4569 26.9661 37.0314C26.4555 36.6059 26.2002 36.0435 26.2002 35.3442H27.8042C27.8042 35.6476 27.917 35.8955 28.1427 36.0879C28.3721 36.2803 28.6534 36.3765 28.9864 36.3765C29.3675 36.3765 29.6653 36.2766 29.8799 36.0768C30.0982 35.8733 30.2074 35.605 30.2074 35.272C30.2074 34.4654 29.7634 34.0621 28.8754 34.0621H28.0262V32.8078Z" fill="#635BFF"/>
<path d="M37.2727 29.3944V30.7154H37.1173C36.3921 30.7265 35.8075 30.9152 35.3635 31.2815C34.9231 31.6478 34.6586 32.1566 34.5698 32.8078C34.999 32.3712 35.5411 32.1529 36.196 32.1529C36.899 32.1529 37.4577 32.4045 37.8721 32.9077C38.2865 33.4109 38.4937 34.0732 38.4937 34.8946C38.4937 35.42 38.379 35.8955 38.1496 36.321C37.9239 36.7465 37.602 37.0777 37.1839 37.3145C36.7695 37.5513 36.2996 37.6697 35.7742 37.6697C34.9231 37.6697 34.2349 37.3737 33.7095 36.7817C33.1878 36.1897 32.927 35.3997 32.927 34.4118V33.8346C32.927 32.9576 33.0916 32.1843 33.4209 31.5146C33.7539 30.8412 34.2294 30.3213 34.8473 29.955C35.4689 29.585 36.1886 29.3981 37.0063 29.3944H37.2727ZM35.7076 33.4405C35.4486 33.4405 35.2136 33.5089 35.0027 33.6458C34.7918 33.7791 34.6364 33.9567 34.5365 34.1787V34.6671C34.5365 35.2036 34.6419 35.6235 34.8528 35.927C35.0638 36.2267 35.3598 36.3765 35.7409 36.3765C36.085 36.3765 36.3625 36.2415 36.5734 35.9714C36.788 35.6975 36.8953 35.3442 36.8953 34.9113C36.8953 34.471 36.788 34.1158 36.5734 33.8457C36.3588 33.5755 36.0702 33.4405 35.7076 33.4405Z" fill="#635BFF"/>
<path d="M44.8875 34.2175C44.8875 35.3349 44.6562 36.1897 44.1937 36.7817C43.7312 37.3737 43.0541 37.6697 42.1624 37.6697C41.2817 37.6697 40.6083 37.3792 40.1421 36.7983C39.6759 36.2174 39.4373 35.3849 39.4262 34.3008V32.8133C39.4262 31.6848 39.6593 30.8282 40.1255 30.2436C40.5954 29.659 41.2706 29.3667 42.1513 29.3667C43.0319 29.3667 43.7053 29.6572 44.1715 30.2381C44.6377 30.8153 44.8764 31.646 44.8875 32.7301V34.2175ZM43.2835 32.5858C43.2835 31.9161 43.191 31.4295 43.006 31.1261C42.8247 30.819 42.5398 30.6654 42.1513 30.6654C41.7739 30.6654 41.4945 30.8116 41.3132 31.1039C41.1356 31.3925 41.0412 31.8458 41.0301 32.4637V34.4284C41.0301 35.087 41.1189 35.5773 41.2965 35.8992C41.4779 36.2174 41.7665 36.3765 42.1624 36.3765C42.5546 36.3765 42.8376 36.223 43.0115 35.9159C43.1854 35.6087 43.2761 35.1388 43.2835 34.5061V32.5858Z" fill="#635BFF"/>
<defs>
<filter id="filter0_d" x="0" y="0" width="71" height="71" filterUnits="userSpaceOnUse" color-interpolation-filters="sRGB">
<feFlood flood-opacity="0" result="BackgroundImageFix"/>
<feColorMatrix in="SourceAlpha" type="matrix" values="0 0 0 0 0 0 0 0 0 0 0 0 0 0 0 0 0 0 127 0"/>
<feOffset dy="2"/>
<feGaussianBlur stdDeviation="3.5"/>
<feColorMatrix type="matrix" values="0 0 0 0 0.388235 0 0 0 0 0.356863 0 0 0 0 1 0 0 0 1 0"/>
<feBlend mode="normal" in2="BackgroundImageFix" result="effect1_dropShadow"/>
<feBlend mode="normal" in="SourceGraphic" in2="effect1_dropShadow" result="shape"/>
</filter>
</defs>
</svg>
