<svg width="71" height="71" viewBox="0 0 71 71" fill="none" xmlns="http://www.w3.org/2000/svg">
<g filter="url(#filter0_d)">
<path d="M35.5 62C51.2401 62 64 49.2401 64 33.5C64 17.7599 51.2401 5 35.5 5C19.7599 5 7 17.7599 7 33.5C7 49.2401 19.7599 62 35.5 62Z" fill="black"/>
</g>
<path d="M35.5 60C50.1355 60 62 48.1355 62 33.5C62 18.8645 50.1355 7 35.5 7C20.8645 7 9 18.8645 9 33.5C9 48.1355 20.8645 60 35.5 60Z" fill="#635BFF" stroke="white" stroke-width="4"/>
<path d="M49.3781 25.1333C49.2323 25.1333 49.0864 25.1629 48.9259 25.2222C44.637 26.852 40.1292 27.6521 35.6214 27.6521C31.1137 27.6521 26.6059 26.8372 22.317 25.2222C22.1565 25.1629 21.996 25.1333 21.8647 25.1333C21.3687 25.1333 21.0332 25.4741 21.0332 26.0667V47.9206C21.0332 48.4984 21.3687 48.8392 21.8647 48.8392C22.0106 48.8392 22.1565 48.8096 22.317 48.7503C26.6059 47.1205 31.1137 46.3204 35.6214 46.3204C40.1292 46.3204 44.637 47.1353 48.9259 48.7503C49.0864 48.8096 49.2323 48.8392 49.3781 48.8392C49.8596 48.8392 50.2097 48.4984 50.2097 47.9058V26.0667C50.2097 25.4741 49.8596 25.1333 49.3781 25.1333Z" fill="white"/>
<path d="M28.0262 35.8078H28.8809C29.2879 35.8078 29.5895 35.706 29.7856 35.5025C29.9817 35.299 30.0797 35.0289 30.0797 34.6922C30.0797 34.3666 29.9817 34.1131 29.7856 33.9318C29.5932 33.7505 29.3268 33.6599 28.9864 33.6599C28.6793 33.6599 28.4221 33.745 28.2149 33.9152C28.0077 34.0817 27.9041 34.3 27.9041 34.5701H26.3001C26.3001 34.1483 26.413 33.7709 26.6387 33.4379C26.8681 33.1012 27.1863 32.8385 27.5933 32.6498C28.004 32.4611 28.4554 32.3667 28.9475 32.3667C29.8022 32.3667 30.4719 32.5721 30.9567 32.9828C31.4414 33.3898 31.6837 33.9522 31.6837 34.67C31.6837 35.04 31.5709 35.3804 31.3452 35.6912C31.1195 36.002 30.8235 36.2407 30.4571 36.4072C30.9123 36.57 31.2508 36.8142 31.4728 37.1398C31.6985 37.4654 31.8114 37.8502 31.8114 38.2942C31.8114 39.0121 31.5487 39.5874 31.0233 40.0203C30.5015 40.4532 29.8096 40.6697 28.9475 40.6697C28.1409 40.6697 27.4804 40.4569 26.9661 40.0314C26.4555 39.6059 26.2002 39.0435 26.2002 38.3442H27.8042C27.8042 38.6476 27.917 38.8955 28.1427 39.0879C28.3721 39.2803 28.6534 39.3765 28.9864 39.3765C29.3675 39.3765 29.6653 39.2766 29.8799 39.0768C30.0982 38.8733 30.2074 38.605 30.2074 38.272C30.2074 37.4654 29.7634 37.0621 28.8754 37.0621H28.0262V35.8078Z" fill="#635BFF"/>
<path d="M37.2727 32.3944V33.7154H37.1173C36.3921 33.7265 35.8075 33.9152 35.3635 34.2815C34.9231 34.6478 34.6586 35.1566 34.5698 35.8078C34.999 35.3712 35.5411 35.1529 36.196 35.1529C36.899 35.1529 37.4577 35.4045 37.8721 35.9077C38.2865 36.4109 38.4937 37.0732 38.4937 37.8946C38.4937 38.42 38.379 38.8955 38.1496 39.321C37.9239 39.7465 37.602 40.0777 37.1839 40.3145C36.7695 40.5513 36.2996 40.6697 35.7742 40.6697C34.9231 40.6697 34.2349 40.3737 33.7095 39.7817C33.1878 39.1897 32.927 38.3997 32.927 37.4118V36.8346C32.927 35.9576 33.0916 35.1843 33.4209 34.5146C33.7539 33.8412 34.2294 33.3213 34.8473 32.955C35.4689 32.585 36.1886 32.3981 37.0063 32.3944H37.2727ZM35.7076 36.4405C35.4486 36.4405 35.2136 36.5089 35.0027 36.6458C34.7918 36.7791 34.6364 36.9567 34.5365 37.1787V37.6671C34.5365 38.2036 34.6419 38.6235 34.8528 38.927C35.0638 39.2267 35.3598 39.3765 35.7409 39.3765C36.085 39.3765 36.3625 39.2415 36.5734 38.9714C36.788 38.6975 36.8953 38.3442 36.8953 37.9113C36.8953 37.471 36.788 37.1158 36.5734 36.8457C36.3588 36.5755 36.0702 36.4405 35.7076 36.4405Z" fill="#635BFF"/>
<path d="M44.8875 37.2175C44.8875 38.3349 44.6562 39.1897 44.1937 39.7817C43.7312 40.3737 43.0541 40.6697 42.1624 40.6697C41.2817 40.6697 40.6083 40.3792 40.1421 39.7983C39.6759 39.2174 39.4373 38.3849 39.4262 37.3008V35.8133C39.4262 34.6848 39.6593 33.8282 40.1255 33.2436C40.5954 32.659 41.2706 32.3667 42.1513 32.3667C43.0319 32.3667 43.7053 32.6572 44.1715 33.2381C44.6377 33.8153 44.8764 34.646 44.8875 35.7301V37.2175ZM43.2835 35.5858C43.2835 34.9161 43.191 34.4295 43.006 34.1261C42.8247 33.819 42.5398 33.6654 42.1513 33.6654C41.7739 33.6654 41.4945 33.8116 41.3132 34.1039C41.1356 34.3925 41.0412 34.8458 41.0301 35.4637V37.4284C41.0301 38.087 41.1189 38.5773 41.2965 38.8992C41.4779 39.2174 41.7665 39.3765 42.1624 39.3765C42.5546 39.3765 42.8376 39.223 43.0115 38.9159C43.1854 38.6087 43.2761 38.1388 43.2835 37.5061V35.5858Z" fill="#635BFF"/>
<path fill-rule="evenodd" clip-rule="evenodd" d="M35 13C36.7852 13 41 18.0008 41 20.9511C41 23.9014 41 19.691 35 19.691C29 19.691 29 23.9014 29 20.9511C29 18.0008 33.2148 13 35 13Z" fill="white"/>
<defs>
<filter id="filter0_d" x="0" y="0" width="71" height="71" filterUnits="userSpaceOnUse" color-interpolation-filters="sRGB">
<feFlood flood-opacity="0" result="BackgroundImageFix"/>
<feColorMatrix in="SourceAlpha" type="matrix" values="0 0 0 0 0 0 0 0 0 0 0 0 0 0 0 0 0 0 127 0"/>
<feOffset dy="2"/>
<feGaussianBlur stdDeviation="3.5"/>
<feColorMatrix type="matrix" values="0 0 0 0 0.388235 0 0 0 0 0.356863 0 0 0 0 1 0 0 0 1 0"/>
<feBlend mode="normal" in2="BackgroundImageFix" result="effect1_dropShadow"/>
<feBlend mode="normal" in="SourceGraphic" in2="effect1_dropShadow" result="shape"/>
</filter>
</defs>
</svg>
