<svg width="57" height="57" viewBox="0 0 57 57" fill="none" xmlns="http://www.w3.org/2000/svg">
<path d="M28.5 55C43.1355 55 55 43.1355 55 28.5C55 13.8645 43.1355 2 28.5 2C13.8645 2 2 13.8645 2 28.5C2 43.1355 13.8645 55 28.5 55Z" fill="#02BCF5" stroke="white" stroke-width="4"/>
<path fill-rule="evenodd" clip-rule="evenodd" d="M29 11.3641C32.8679 11.3641 42 23.5884 42 30.8002C42 38.012 42 27.7198 29 27.7198C16 27.7198 16 38.012 16 30.8002C16 23.5884 25.1321 11.3641 29 11.3641Z" fill="white"/>
<path d="M32 47H26V33H32V47Z" fill="white"/>
</svg>
